<?xml version="1.0" encoding="UTF-8"?>
<svg width="29px" height="30px" viewBox="0 0 29 30" version="1.1" xmlns="http://www.w3.org/2000/svg" xmlns:xlink="http://www.w3.org/1999/xlink">
    <!-- Generator: Sketch 63.1 (92452) - https://sketch.com -->
    <title>copiar link</title>
    <desc>Created with Sketch.</desc>
    <g id="Page-1" stroke="none" stroke-width="1" fill="none" fill-rule="evenodd">
        <g id="Desktop-HD-Copy-19" transform="translate(-684.000000, -609.000000)">
            <g id="copiar-link" transform="translate(684.000000, 609.000000)">
                <g id="Group-7">
                    <path d="M8.41348,23.2301786 C7.90993455,23.2301786 7.43486182,23.0367857 7.07209818,22.6821429 C6.69984364,22.3183929 6.48998909,21.8282143 6.47944364,21.3021429 C6.46942545,20.7755357 6.66135273,20.2773214 7.01884364,19.8996429 L8.84953455,17.9657143 C9.20808,18.5346429 9.62198909,19.0505357 10.0833527,19.5010714 C10.5510436,19.9591071 11.0725164,20.3598214 11.63828,20.6973214 L9.81022545,22.6275 C9.45273455,23.0057143 8.97028,23.2194643 8.45197091,23.2301786 L8.41348,23.2301786 Z M22.3851527,8.51142857 C22.3956982,9.03803571 22.2037709,9.53625 21.84628,9.91392857 L20.01348,11.85 C19.6507164,11.2767857 19.2288982,10.7496429 18.7812436,10.3125 C18.31408,9.85553571 17.7926073,9.45482143 17.2263164,9.11625 L19.0548982,7.18553571 C19.7941345,6.40446429 21.0232073,6.37982143 21.7924982,7.13142857 C22.1647527,7.49517857 22.3751345,7.98535714 22.3851527,8.51142857 L22.3851527,8.51142857 Z M26.2859164,2.38553571 C24.6671891,0.804642857 22.5280436,-0.0525 20.2866073,0.00267857143 C18.03568,0.0471428571 15.9392436,0.976607143 14.3827345,2.62071429 L2.34720727,15.3348214 C0.790698182,16.9783929 -0.0423927273,19.1432143 0.00189818182,21.4301786 C0.0456618182,23.7166071 0.96048,25.8471429 2.57868,27.4285714 C4.15838909,28.9719643 6.22477091,29.8157143 8.41400727,29.8157143 C8.46778909,29.8157143 8.52157091,29.8151786 8.57588,29.8141071 C10.8241709,29.7717857 12.9179709,28.8444643 14.4692073,27.2057143 C16.5545709,25.0483929 18.0235527,23.52 18.8344982,22.6623214 C19.24208,22.2326786 20.1041709,21.2994643 20.8333891,20.5098214 C21.3627709,19.9371429 21.8220255,19.4394643 21.9860073,19.2653571 L26.5179164,14.47875 C29.7353345,11.0796429 29.6309345,5.65446429 26.2859164,2.38553571 L26.2859164,2.38553571 Z" id="Fill-1" fill="#211256"></path>
                    <path d="M15.6351655,3.84455357 L11.17022,8.566875 C12.5195109,8.22348214 13.9394564,8.240625 15.2813655,8.63169643 L17.8022564,5.96223214 C19.2063836,4.479375 21.5364018,4.43330357 22.99642,5.85991071 C24.4569655,7.28651786 24.5023109,9.654375 23.0981836,11.1372321 L18.5668018,15.924375 C17.1621473,17.4077679 14.8321291,17.4538393 13.3715836,16.0266964 C12.8949291,15.5611607 12.6117836,14.930625 12.4377836,14.3279464 C12.4309291,14.3252679 12.3518382,14.1522321 12.3444564,14.1495536 C11.9120927,14.2100893 11.5640927,14.5599107 11.2329655,14.9097321 L9.90371091,16.3138393 C10.24222,17.0697321 10.6635109,17.6199107 11.2872745,18.2290179 C13.94262,20.8234821 18.1803109,20.7399107 20.73442,18.0420536 L25.2658018,13.2549107 C27.8188564,10.5575893 27.7366018,6.25205357 25.0812564,3.65758929 C22.4264382,1.063125 18.1887473,1.14723214 15.6351655,3.84455357" id="Fill-3" fill="#4CE0AA"></path>
                    <path d="M13.5616127,21.206625 L11.0628673,23.8514464 C9.65821273,25.335375 7.32819455,25.3814464 5.86712182,23.9543036 C4.40763091,22.5276964 4.36228545,20.160375 5.76694,18.6759107 L10.2983218,13.8898393 C11.7024491,12.4059107 14.0324673,12.3598393 15.4924855,13.7864464 C16.0914673,14.3719821 16.3909582,14.887875 16.5106491,15.6635893 C16.8533764,15.7562679 17.3490127,15.5344821 17.7455218,15.199125 C18.0993218,14.8996607 18.6598127,14.2964464 19.1201218,13.7832321 C18.7742309,12.9496607 18.2495945,12.2419821 17.5767945,11.5846607 C14.9219764,8.99019643 10.6842855,9.07430357 8.13070364,11.771625 L3.59932182,16.5582321 C1.04574,19.2560893 1.12799455,23.561625 3.78281273,26.1560893 C6.43815818,28.7510893 10.6758491,28.6675179 13.2299582,25.9696607 C13.2299582,25.9696607 16.9693764,22.0782321 17.7871764,21.1894821 C16.2549218,21.7176964 14.6804855,21.510375 13.5616127,21.206625" id="Fill-5" fill="#4CE0AA"></path>
                </g>
            </g>
        </g>
    </g>
</svg>