<?xml version="1.0" encoding="UTF-8"?>
<svg width="33px" height="37px" viewBox="0 0 33 37" version="1.1" xmlns="http://www.w3.org/2000/svg" xmlns:xlink="http://www.w3.org/1999/xlink">
    <!-- Generator: Sketch 63.1 (92452) - https://sketch.com -->
    <title>Group 15</title>
    <desc>Created with Sketch.</desc>
    <defs>
        <polygon id="path-1" points="0 0.0478426848 31.9584351 0.0478426848 31.9584351 31.9997084 0 31.9997084"></polygon>
        <polygon id="path-3" points="0.179925111 0.905303572 28.0177826 0.905303572 28.0177826 20.8454893 0.179925111 20.8454893"></polygon>
    </defs>
    <g id="Page-1" stroke="none" stroke-width="1" fill="none" fill-rule="evenodd">
        <g id="Desktop-HD-Copy-10" transform="translate(-933.000000, -439.000000)">
            <g id="Group-15" transform="translate(933.000000, 439.000000)">
                <path d="M15.4478073,36 C7.45431347,35.9717301 0.974072826,29.2191274 1,20.9494313 C1.00131634,20.8059225 1.01369975,17.6282271 1.01865312,17.4859996 C1.25517633,10.152955 6.5490859,5.96941646 15.5456363,6 C24.4455961,6.03092024 29.8484797,10.3912821 29.9995574,17.6615417 C30.002034,17.7794239 29.9933657,20.9314927 29.9921273,21.0506563 C29.9661221,29.3203523 23.4400629,36.0268272 15.4478073,36" id="Fill-1" fill="#6916A5"></path>
                <g id="Group-5" transform="translate(0.000000, 5.000000)">
                    <mask id="mask-2" fill="white">
                        <use xlink:href="#path-1"></use>
                    </mask>
                    <g id="Clip-4"></g>
                    <path d="M16.0300038,0.0478426848 C6.26708077,0.0162730769 0.281388462,4.67181154 0.0199269231,12.5016962 C0.0123115385,12.6984269 -0.000469926885,15.9387731 -0.000469926885,15.9705038 C-0.0295730769,24.7789654 7.11365769,31.9691577 15.9221192,31.9997084 C24.7305808,32.0288115 31.9220423,24.88685 31.9512346,16.0783885 C31.9512346,16.0453885 31.9613885,12.8570808 31.9575808,12.69335 C31.7887731,4.80888846 25.8348115,0.0810038462 16.0300038,0.0478426848 M16.0223885,2.28422474 C23.49435,2.30977308 29.5625423,5.31277308 29.7224654,12.7415808 C29.7250038,12.8570808 29.7161192,15.9540038 29.71485,16.0707731 C29.6907346,23.6595038 23.5171962,29.7898885 15.9297346,29.7645824 C8.34100385,29.7391192 2.20935,23.5655808 2.23591728,15.9781192 C2.23727308,15.8359654 2.24996538,12.7149269 2.25377308,12.5753115 C2.50127308,5.18331154 8.57454231,2.25900385 16.0223885,2.28422474" id="Fill-3" fill="#211256" mask="url(#mask-2)"></path>
                </g>
                <path d="M15.4510664,31 C7.45508824,30.97173 0.972833635,24.2203906 1,15.9493913 C1.02609887,7.67839196 7.55294762,0.971899233 15.5489257,1 C23.5436651,1.02827785 30.0283972,7.78089853 30,16.0506165 C29.9738932,24.3216159 23.4458057,31.0268273 15.4510664,31" id="Fill-6" fill="#4CE0AA"></path>
                <path d="M16.0540212,8.87636544e-05 C7.23266955,-0.0290581174 0.030684148,7.12363896 8.87445216e-05,15.9453411 C-0.0290569946,24.7670432 7.12462706,31.9693146 15.9459788,31.9999113 C24.7673304,32.0290581 31.9693159,24.8750899 31.9999113,16.0533878 C32.029057,7.2304146 24.8753729,0.0294142596 16.0540212,8.87636544e-05 M16.0463947,2.23983762 C23.6462307,2.26407597 29.7855864,8.44689427 29.7602433,16.045761 C29.7347429,23.6458989 23.5521702,29.7854985 15.9536053,29.7601544 C8.35376929,29.7346529 2.21441357,23.5518346 2.23975667,15.9529679 C2.2652571,8.35283001 8.44782981,2.21323043 16.0463947,2.23983762" id="Fill-8" fill="#211256"></path>
                <path d="M16.1235298,24 C14.9500535,23.9960493 13.8450088,23.4623018 13.0935278,22.5344425 L7.9180663,16.151658 C6.51901893,14.42644 6.74458997,11.846443 8.41989851,10.4044113 C9.13589648,9.78844847 10.0419824,9.45306192 10.9734134,9.45567193 C12.1468897,9.45958695 13.2519344,9.99463943 14.0021482,10.9224987 L16.6861902,14.2319941 L25.5544271,6.89916508 C26.2590198,6.31582738 27.1435624,5.99740591 28.0471138,6 C29.2510042,6.00523594 30.3737904,6.56116852 31.1265387,7.52687299 C31.7880448,8.37512692 32.0921856,9.44131686 31.9755983,10.5257769 C31.8602783,11.6089319 31.343239,12.5811614 30.51699,13.2636796 L18.6174838,23.1021202 C17.9116239,23.6854579 17.0270813,24.0038793 16.1235298,24" id="Fill-10" fill="#FFFFFF"></path>
                <g id="Group-14" transform="translate(5.000000, 4.000000)">
                    <mask id="mask-4" fill="white">
                        <use xlink:href="#path-3"></use>
                    </mask>
                    <g id="Clip-13"></g>
                    <path d="M22.6091565,0.905303572 L22.6091565,0.905303572 C21.3722435,0.900405882 20.1605478,1.3167 19.1959826,2.07640588 L11.5059391,8.12440588 L9.76593913,6.08246471 C8.7395913,4.87681765 7.2278087,4.18011176 5.6202,4.17517059 C4.34672174,4.1727 3.10602609,4.60999412 2.1275913,5.41046471 C1.01550435,6.32087647 0.332113043,7.59940588 0.202243478,9.01258235 C0.072373913,10.4269941 0.512417391,11.8055824 1.44041739,12.8951118 L6.5898087,18.9369353 C7.61615652,20.1425824 9.1292,20.8392882 10.7355478,20.8454893 C11.9712,20.8491706 13.1828957,20.4341118 14.1487217,19.6744059 L25.988287,10.3627588 C27.1180261,9.47458235 27.8278957,8.20840588 27.9855043,6.7977 C28.143113,5.38575882 27.7295478,3.99852353 26.8217217,2.89046471 C25.7915913,1.63417059 24.257113,0.910288235 22.6091565,0.905303572 M22.5990696,3.80702685 C23.3177652,3.80952353 24.0288957,4.11834706 24.5130696,4.70881765 C25.3654174,5.7477 25.1952,7.26587647 24.1348087,8.0997 L12.2939826,17.4113471 C11.8375478,17.7708176 11.2890696,17.9449941 10.7456348,17.9437653 C10.0420696,17.9412882 9.34733043,17.6460529 8.86315652,17.0765824 L3.71376522,11.0347588 C2.84124348,10.0131706 2.98246087,8.49252353 4.02646087,7.6377 C4.48793913,7.2597 5.05154783,7.07564118 5.61137391,7.07687647 C6.31241739,7.07934706 7.00967826,7.37334706 7.49385217,7.94281765 L11.0948957,12.1675235 L21.0519826,4.33699412 C21.5071565,3.97752353 22.0556348,3.80458235 22.5990696,3.80702685" id="Fill-12" fill="#211256" mask="url(#mask-4)"></path>
                </g>
            </g>
        </g>
    </g>
</svg>