<svg width="32" height="37" viewBox="0 0 32 37" fill="none" xmlns="http://www.w3.org/2000/svg">
<path fill-rule="evenodd" clip-rule="evenodd" d="M15.4479 36C7.45439 35.9717 0.97415 29.2191 1.00008 20.9494C1.00139 20.8059 1.01378 17.6282 1.01873 17.486C1.25525 10.153 6.54916 5.96942 15.5457 6C24.4457 6.03092 29.8486 10.3913 29.9996 17.6615C30.0021 17.7794 29.9934 20.9315 29.9922 21.0507C29.9662 29.3204 23.4401 36.0268 15.4479 36Z" fill="#6916A5"/>
<mask id="mask0_5487_2" style="mask-type:alpha" maskUnits="userSpaceOnUse" x="0" y="5" width="32" height="32">
<path d="M0 5.04784H31.9584V36.9997H0V5.04784Z" fill="white"/>
</mask>
<g mask="url(#mask0_5487_2)">
<path fill-rule="evenodd" clip-rule="evenodd" d="M16.0301 5.04784C6.26715 5.01627 0.281459 9.67181 0.0199972 17.5017C0.0123818 17.6984 -0.000399666 20.9388 -0.000399666 20.9705C-0.0295028 29.779 7.11373 36.9692 15.9222 36.9997C24.7307 37.0288 31.9221 29.8868 31.9513 21.0784C31.9513 21.0454 31.9615 17.8571 31.9577 17.6934C31.7888 9.80889 25.8349 5.081 16.0301 5.04784ZM16.0225 7.28423C23.4944 7.30977 29.5626 10.3128 29.7225 17.7416C29.7251 17.8571 29.7162 20.954 29.7149 21.0708C29.6908 28.6595 23.5173 34.7899 15.9298 34.7646C8.34107 34.7391 2.20942 28.5656 2.23599 20.9781C2.23734 20.836 2.25004 17.7149 2.25384 17.5753C2.50134 10.1833 8.57461 7.259 16.0225 7.28423Z" fill="#211256"/>
</g>
<path fill-rule="evenodd" clip-rule="evenodd" d="M15.4512 31C7.45517 30.9717 0.972919 24.2204 1.00009 15.9494C1.02618 7.67839 7.55303 0.971896 15.549 0.999996C23.5437 1.02827 30.0285 7.7809 30.0001 16.0506C29.974 24.3216 23.4459 31.0268 15.4512 31Z" fill="#4CE0AA"/>
<path fill-rule="evenodd" clip-rule="evenodd" d="M16.054 8.87637e-05C7.23267 -0.0290581 0.0306841 7.12364 8.87445e-05 15.9453C-0.029057 24.767 7.12463 31.9693 15.946 31.9999C24.7673 32.0291 31.9693 24.8751 31.9999 16.0534C32.0291 7.23042 24.8754 0.0294143 16.054 8.87637e-05ZM16.0464 2.23984C23.6462 2.26408 29.7856 8.44689 29.7602 16.0458C29.7347 23.6459 23.5522 29.7855 15.9536 29.7602C8.35377 29.7347 2.21441 23.5518 2.23976 15.953C2.26526 8.35283 8.44783 2.21323 16.0464 2.23984Z" fill="#211256"/>
<path d="M21.8733 6.75066L21.872 6.75123C20.7624 7.25785 20.0506 7.37973 19.5473 7.37973C18.9978 7.37973 18.567 7.24306 17.8582 7.01575C17.1587 6.79147 16.2592 6.50846 15.0659 6.50829H15.0655C14.2423 6.50837 13.3239 6.65706 12.2889 6.96528C11.8942 6.6728 11.4051 6.5 10.875 6.5C9.56122 6.5 8.5 7.56122 8.5 8.875V21.5625C8.5 22.6346 9.37286 23.5 10.4375 23.5H11.3125C12.3771 23.5 13.25 22.6346 13.25 21.5625V19.393C13.9179 19.2001 14.4727 19.1291 14.9451 19.1291C15.7394 19.1291 16.4226 19.2967 17.2899 19.5173C17.3059 19.5214 17.322 19.5255 17.3381 19.5296C18.17 19.7413 19.1789 19.9981 20.3756 19.9981C21.4451 19.9981 22.6149 19.796 23.9514 19.2671C24.8559 18.9267 25.5 18.0857 25.5 17.0809V8.84027C25.5 8.10012 25.1659 7.46433 24.6426 7.04657C24.1517 6.65469 23.5597 6.5 23.0238 6.5C22.6395 6.5 22.2454 6.58119 21.8733 6.75066Z" fill="white" stroke="#211256" stroke-width="3"/>
</svg>
