<svg width="32" height="37" viewBox="0 0 32 37" fill="none" xmlns="http://www.w3.org/2000/svg">
<path fill-rule="evenodd" clip-rule="evenodd" d="M15.4479 36C7.45439 35.9717 0.97415 29.2191 1.00008 20.9494C1.00139 20.8059 1.01378 17.6282 1.01873 17.486C1.25525 10.153 6.54916 5.96942 15.5457 6C24.4457 6.03092 29.8486 10.3913 29.9996 17.6615C30.0021 17.7794 29.9934 20.9315 29.9922 21.0507C29.9662 29.3204 23.4401 36.0268 15.4479 36Z" fill="#6916A5"/>
<mask id="mask0_5480_50" style="mask-type:alpha" maskUnits="userSpaceOnUse" x="0" y="5" width="32" height="32">
<path d="M0 5.04784H31.9584V36.9997H0V5.04784Z" fill="white"/>
</mask>
<g mask="url(#mask0_5480_50)">
<path fill-rule="evenodd" clip-rule="evenodd" d="M16.0301 5.04784C6.26715 5.01627 0.281459 9.67181 0.0199972 17.5017C0.0123818 17.6984 -0.000399666 20.9388 -0.000399666 20.9705C-0.0295028 29.779 7.11373 36.9692 15.9222 36.9997C24.7307 37.0288 31.9221 29.8868 31.9513 21.0784C31.9513 21.0454 31.9615 17.8571 31.9577 17.6934C31.7888 9.80889 25.8349 5.081 16.0301 5.04784ZM16.0225 7.28423C23.4944 7.30977 29.5626 10.3128 29.7225 17.7416C29.7251 17.8571 29.7162 20.954 29.7149 21.0708C29.6908 28.6595 23.5173 34.7899 15.9298 34.7646C8.34107 34.7391 2.20942 28.5656 2.23599 20.9781C2.23734 20.836 2.25004 17.7149 2.25384 17.5753C2.50134 10.1833 8.57461 7.259 16.0225 7.28423Z" fill="#211256"/>
</g>
<path fill-rule="evenodd" clip-rule="evenodd" d="M15.4512 31C7.45517 30.9717 0.972919 24.2204 1.00009 15.9494C1.02618 7.67839 7.55303 0.971896 15.549 0.999996C23.5437 1.02827 30.0285 7.7809 30.0001 16.0506C29.974 24.3216 23.4459 31.0268 15.4512 31Z" fill="#4CE0AA"/>
<path fill-rule="evenodd" clip-rule="evenodd" d="M16.054 8.87637e-05C7.23267 -0.0290581 0.0306841 7.12364 8.87445e-05 15.9453C-0.029057 24.767 7.12463 31.9693 15.946 31.9999C24.7673 32.0291 31.9693 24.8751 31.9999 16.0534C32.0291 7.23042 24.8754 0.0294143 16.054 8.87637e-05ZM16.0464 2.23984C23.6462 2.26408 29.7856 8.44689 29.7602 16.0458C29.7347 23.6459 23.5522 29.7855 15.9536 29.7602C8.35377 29.7347 2.21441 23.5518 2.23976 15.953C2.26526 8.35283 8.44783 2.21323 16.0464 2.23984Z" fill="#211256"/>
<path d="M18.1883 8.95323H8.79688C7.56797 8.95323 6.5 9.94116 6.5 11.2202C6.5 12.3546 7.42659 13.547 8.79688 13.547H18.1883L18.1864 14.7008V14.7032C18.1864 15.6171 18.7284 16.444 19.5657 16.8088C20.4016 17.1731 21.3767 17.0087 22.0465 16.3866C22.0466 16.3865 22.0467 16.3865 22.0468 16.3864L25.7653 12.9335L25.7659 12.9329C26.7435 12.0241 26.7435 10.476 25.7659 9.56721L25.7653 9.56667L22.0468 6.11381C22.0467 6.11371 22.0466 6.11362 22.0465 6.11353C21.3771 5.49176 20.4022 5.32672 19.5657 5.69125C18.7278 6.05636 18.1864 6.88363 18.1864 7.79683L18.1864 7.7993L18.1883 8.95323ZM14.8125 23.2008L14.8106 22.047H24.2031C25.4715 22.047 26.5 21.0185 26.5 19.7501C26.5 18.4838 25.4752 17.4533 24.2031 17.4533H14.811L14.8125 16.269V16.2671C14.8125 15.3532 14.2705 14.5263 13.4332 14.1615C12.4961 13.7532 11.5373 14.0715 10.9537 14.6134L7.23498 18.0666L7.23441 18.0671C6.25675 18.9759 6.25675 20.5241 7.23441 21.4328L7.23498 21.4334L10.9534 24.8862C10.9535 24.8863 10.9536 24.8864 10.9537 24.8865C11.6234 25.5085 12.5983 25.6732 13.4346 25.3087C14.2775 24.9414 14.8125 24.1096 14.8125 23.2033L14.8125 23.2008Z" fill="white" stroke="#211256" stroke-width="3"/>
</svg>
