<?xml version="1.0" encoding="UTF-8"?>
<svg width="29px" height="37px" viewBox="0 0 29 37" version="1.1" xmlns="http://www.w3.org/2000/svg" xmlns:xlink="http://www.w3.org/1999/xlink">
    <!-- Generator: Sketch 63.1 (92452) - https://sketch.com -->
    <title>icone iniciar</title>
    <desc>Created with Sketch.</desc>
    <defs>
        <polygon id="path-1" points="0 0.303318082 28.5791463 0.303318082 28.5791463 31.5182986 0 31.5182986"></polygon>
        <polygon id="path-3" points="0 0.370012393 28.5472463 0.370012393 28.5472463 31.5388436 0 31.5388436"></polygon>
    </defs>
    <g id="Page-1" stroke="none" stroke-width="1" fill="none" fill-rule="evenodd">
        <g id="Desktop-HD-Copy-10" transform="translate(-351.000000, -512.000000)">
            <g id="icine-iniciar" transform="translate(351.000000, 512.000000)">
                <g id="Group-15">
                    <path d="M1.34883721,33.0622842 L1.34883721,9.41983354 C1.34883721,7.49607742 3.3220574,6.25697367 4.97395694,7.14424218 L26.9801748,15.3564133 C27.871238,15.8347922 27.6178618,20.3428184 27.6178618,21.2410589 C27.6178618,22.1385679 27.1719763,23.0375399 26.2816208,23.5159188 L4.97395694,35.3371441 C3.3220574,36.2244126 1.34883721,34.9860404 1.34883721,33.0622842" id="Fill-1" fill="#6916A5"></path>
                    <g id="Group-5" transform="translate(0.000000, 5.481481)">
                        <mask id="mask-2" fill="white">
                            <use xlink:href="#path-1"></use>
                        </mask>
                        <g id="Clip-4"></g>
                        <path d="M3.625,2.68105314 C3.38804878,2.68105314 3.15180488,2.7492211 2.93465854,2.88555702 C2.52795122,3.1421031 2.29453659,3.57236753 2.29453659,4.06566899 L2.29453659,27.7573331 C2.29453659,28.2513675 2.52795122,28.681632 2.93465854,28.9367121 C3.34419512,29.1932581 3.81809756,29.2101169 4.24036585,28.9821574 L25.5214146,17.1436552 C25.9847073,16.894439 26.2527805,16.436321 26.2527805,15.911501 C26.2527805,15.782495 26.2577317,15.584588 26.2633902,15.3361048 C26.3334146,12.4884433 26.1898293,11.4175467 26.0646341,11.0173348 L4.24107317,2.8408447 C4.04302439,2.73382834 3.83295122,2.68105314 3.625,2.68105314 M3.62004878,31.5182986 C2.97002439,31.5182986 2.32353659,31.3343184 1.74495122,30.970023 C0.652146341,30.2832125 0,29.0818438 0,27.7573331 L0,4.06566899 C0,2.74115823 0.652146341,1.54052257 1.7442439,0.85297907 C2.813,0.181561326 4.10739024,0.122189233 5.22495122,0.691721533 L27.291122,8.95910224 C28.480122,9.59900146 28.6505854,11.6293804 28.5579268,15.3962099 C28.5522683,15.6183055 28.5473171,15.7971548 28.5473171,15.911501 C28.5473171,17.3188395 27.7989756,18.596439 26.5937073,19.2466001 L5.31265854,31.0843693 C4.77439024,31.3746328 4.19580488,31.5182986 3.62004878,31.5182986" id="Fill-3" fill="#211256" mask="url(#mask-2)"></path>
                    </g>
                    <path d="M1.34883721,28.2659879 L1.34883721,4.62353725 C1.34883721,2.69978113 3.32453222,1.46067737 4.97850357,2.34794588 L26.3128916,14.1699027 C28.0972532,15.1266605 28.0972532,17.7621332 26.3128916,18.7196225 L4.97850357,30.5408478 C3.32453222,31.4281163 1.34883721,30.1897441 1.34883721,28.2659879" id="Fill-6" fill="#4CE0AA"></path>
                    <g id="Group-10">
                        <mask id="mask-4" fill="white">
                            <use xlink:href="#path-3"></use>
                        </mask>
                        <g id="Clip-9"></g>
                        <path d="M3.62846585,2.74287727 C3.39151463,2.74287727 3.1538561,2.81094419 2.93529512,2.94854184 C2.52788049,3.20397576 2.29446585,3.63360244 2.29446585,4.12690463 L2.29446585,27.7827207 C2.29446585,28.2767548 2.52788049,28.7063815 2.93600244,28.9610835 C3.34341707,29.2172493 3.81873415,29.2333512 4.24029512,29.0064614 L25.5213439,17.1855065 C25.9846366,16.9366597 26.2527098,16.4792207 26.2527098,15.9551786 C26.2527098,15.4311365 25.9846366,14.9736976 25.5347829,14.7321698 L4.22756341,2.89584487 C4.03729512,2.79411044 3.83288049,2.74287727 3.62846585,2.74287727 M3.61997805,31.5388436 C2.96995366,31.5388436 2.32417317,31.3551361 1.74488049,30.9913806 C0.65207561,30.3048562 -7.07317073e-05,29.1060002 -7.07317073e-05,27.7827207 L-7.07317073e-05,4.12690463 C-7.07317073e-05,2.80435707 0.65207561,1.60476911 1.74417317,0.918976599 C2.83627073,0.233184091 4.16602683,0.187074242 5.29844146,0.796748906 L26.6070756,12.6330738 C27.7989049,13.2734884 28.5472463,14.5491942 28.5472463,15.9551786 C28.5472463,17.361163 27.7989049,18.6368689 26.5936366,19.2853343 L5.3125878,31.1055574 C4.77431951,31.3946588 4.19573415,31.5388436 3.61997805,31.5388436" id="Fill-8" fill="#211256" mask="url(#mask-4)"></path>
                    </g>
                    <path d="M12.9298431,19.8703704 C12.3701904,19.8703704 11.8364818,19.5343663 11.5926067,18.9694786 C11.2634864,18.2026802 11.5933479,17.3033298 12.3316448,16.9603898 C13.0276897,16.6367161 13.3353134,16.5149531 13.6421958,16.3931902 C13.9134977,16.2868403 14.1847995,16.1781784 14.8000469,15.8922666 C15.5338962,15.5493266 16.4026551,15.8922666 16.7325166,16.6598356 C17.0623782,17.426634 16.7325166,18.3267551 15.9949611,18.6696951 C15.2989161,18.9933688 14.9905512,19.1151318 14.6836688,19.2368947 C14.4123669,19.3440153 14.1410651,19.4519065 13.526559,19.7370476 C13.3323483,19.8272139 13.1292426,19.8703704 12.9298431,19.8703704" id="Fill-11" fill="#FFFFFF"></path>
                    <path d="M19.5137055,17.1296296 C18.8841932,17.1296296 18.3110658,16.7026965 18.1490484,16.0626555 C18.1376287,16.0174509 18.1290639,15.9736812 18.1219266,15.9284766 L4.79653535,8.83492858 C4.10849694,8.46898589 3.846557,7.61153193 4.21056073,6.92054602 C4.57385072,6.22956011 5.4267614,5.96550734 6.11479981,6.33145004 L20.8312562,14.1654938 C21.3080297,14.4195011 21.5978053,14.923928 21.5806757,15.4649491 C21.5614049,16.0066878 21.2380839,16.4903062 20.746322,16.7105894 C20.6977882,16.7313979 20.6499681,16.7572291 20.6000068,16.7830604 C20.4158638,16.877775 20.1624886,17.0083663 19.8612934,17.0851425 C19.7456687,17.1152789 19.6286165,17.1296296 19.5137055,17.1296296" id="Fill-13" fill="#FFFFFF"></path>
                </g>
            </g>
        </g>
    </g>
</svg>