<svg width="32" height="37" viewBox="0 0 32 37" fill="none" xmlns="http://www.w3.org/2000/svg">
<path fill-rule="evenodd" clip-rule="evenodd" d="M15.4479 36C7.45439 35.9717 0.97415 29.2191 1.00008 20.9494C1.00139 20.8059 1.01378 17.6282 1.01873 17.486C1.25525 10.153 6.54916 5.96942 15.5457 6C24.4457 6.03092 29.8486 10.3913 29.9996 17.6615C30.0021 17.7794 29.9934 20.9315 29.9922 21.0507C29.9662 29.3204 23.4401 36.0268 15.4479 36Z" fill="#6916A5"/>
<mask id="mask0_5480_49" style="mask-type:alpha" maskUnits="userSpaceOnUse" x="0" y="5" width="32" height="32">
<path d="M0 5.04784H31.9584V36.9997H0V5.04784Z" fill="white"/>
</mask>
<g mask="url(#mask0_5480_49)">
<path fill-rule="evenodd" clip-rule="evenodd" d="M16.0301 5.04784C6.26715 5.01627 0.281459 9.67181 0.0199972 17.5017C0.0123818 17.6984 -0.000399666 20.9388 -0.000399666 20.9705C-0.0295028 29.779 7.11373 36.9692 15.9222 36.9997C24.7307 37.0288 31.9221 29.8868 31.9513 21.0784C31.9513 21.0454 31.9615 17.8571 31.9577 17.6934C31.7888 9.80889 25.8349 5.081 16.0301 5.04784ZM16.0225 7.28423C23.4944 7.30977 29.5626 10.3128 29.7225 17.7416C29.7251 17.8571 29.7162 20.954 29.7149 21.0708C29.6908 28.6595 23.5173 34.7899 15.9298 34.7646C8.34107 34.7391 2.20942 28.5656 2.23599 20.9781C2.23734 20.836 2.25004 17.7149 2.25384 17.5753C2.50134 10.1833 8.57461 7.259 16.0225 7.28423Z" fill="#211256"/>
</g>
<path fill-rule="evenodd" clip-rule="evenodd" d="M15.4512 31C7.45517 30.9717 0.972919 24.2204 1.00009 15.9494C1.02618 7.67839 7.55303 0.971896 15.549 0.999996C23.5437 1.02827 30.0285 7.7809 30.0001 16.0506C29.974 24.3216 23.4459 31.0268 15.4512 31Z" fill="#4CE0AA"/>
<path fill-rule="evenodd" clip-rule="evenodd" d="M16.054 8.87637e-05C7.23267 -0.0290581 0.0306841 7.12364 8.87445e-05 15.9453C-0.029057 24.767 7.12463 31.9693 15.946 31.9999C24.7673 32.0291 31.9693 24.8751 31.9999 16.0534C32.0291 7.23042 24.8754 0.0294143 16.054 8.87637e-05ZM16.0464 2.23984C23.6462 2.26408 29.7856 8.44689 29.7602 16.0458C29.7347 23.6459 23.5522 29.7855 15.9536 29.7602C8.35377 29.7347 2.21441 23.5518 2.23976 15.953C2.26526 8.35283 8.44783 2.21323 16.0464 2.23984Z" fill="#211256"/>
<path d="M23.4633 8.26665L21.8467 9.89139C20.55 8.70958 18.8467 8.00016 17 8.00016C13.85 8.00016 11.0863 10.0203 10.1193 13.0287C9.93807 13.5915 10.2459 14.1965 10.8063 14.3773C11.372 14.5614 11.9683 14.2496 12.1497 13.6879C12.83 11.5657 14.78 10.1428 17 10.1428C18.2653 10.1428 19.4333 10.6176 20.34 11.4083L18.8367 12.8881C18.3033 13.4506 18.6933 14.4081 19.48 14.4282H24.3767C24.7233 14.4181 25 14.1369 25 13.7887V8.90543C25 8.10026 24.03 7.69717 23.4633 8.26665ZM23.1933 16.6244C22.6287 16.4423 22.0307 16.752 21.85 17.3137C21.17 19.4333 19.22 20.8562 17 20.8562C15.7347 20.8562 14.5667 20.3814 13.66 19.5906L15.1333 18.1109C15.6967 17.5484 15.3067 16.5909 14.52 16.5708H9.622C9.27733 16.5809 9 16.8621 9 17.2103V22.0949C9 22.8997 9.969 23.3028 10.5357 22.7333L12.1523 21.1086C13.45 22.2891 15.1533 22.9988 16.97 22.9988C20.1183 22.9988 22.8833 20.9787 23.85 17.9703C24.0633 17.4078 23.7533 16.775 23.1933 16.6244Z" fill="white"/>
<path fill-rule="evenodd" clip-rule="evenodd" d="M21.4578 6.03364C20.1066 5.3717 18.5927 5.00016 17 5.00016C12.5413 5.00016 8.6282 7.8667 7.2638 12.109M7.26325 12.1107C7.00655 12.9089 7.00928 13.7321 7.22668 14.4858C6.47563 15.1504 6 16.1214 6 17.2103V22.0949C6 25.4929 10.0548 27.2776 12.5415 24.9661C13.8874 25.6262 15.3931 25.9988 16.97 25.9988C21.4083 25.9988 25.3091 23.1562 26.6885 18.9424C26.9673 18.149 26.9825 17.301 26.7671 16.5187C27.5217 15.8542 28 14.8811 28 13.7887V8.90543C28 5.50548 23.9435 3.72376 21.4578 6.03364M23.9032 17.4282C23.84 17.053 23.5746 16.727 23.1933 16.6244C22.6594 16.4522 22.0957 16.7197 21.8832 17.2242C21.8709 17.2533 21.8598 17.2831 21.85 17.3137C21.8487 17.3179 21.8473 17.3221 21.8459 17.3263C21.8349 17.3604 21.8235 17.3944 21.8118 17.4282C21.6615 17.8619 21.4575 18.2652 21.2087 18.6316C20.2779 20.0021 18.72 20.8562 17 20.8562C16.99 20.8562 16.98 20.8561 16.97 20.8561C16.8612 20.8554 16.7531 20.8513 16.6458 20.8437C15.5173 20.7641 14.4814 20.3071 13.66 19.5906L15.1333 18.1109C15.2823 17.9622 15.3646 17.7858 15.3905 17.6065C15.4627 17.1076 15.0987 16.5856 14.52 16.5708H9.622C9.39716 16.5774 9.20098 16.6993 9.09174 16.88C9.03352 16.9763 9 17.0892 9 17.2103V22.0949C9 22.8997 9.969 23.3028 10.5357 22.7333L12.1523 21.1086C12.1865 21.1397 12.2209 21.1704 12.2556 21.2008C13.5397 22.3259 15.2011 22.9988 16.97 22.9988C16.98 22.9988 16.99 22.9988 17 22.9988C19.5443 22.9884 21.8349 21.6588 23.1233 19.5558C23.4228 19.0668 23.6682 18.536 23.85 17.9703C23.8515 17.9663 23.853 17.9624 23.8544 17.9584L23.8549 17.957C23.9188 17.7815 23.9321 17.5997 23.9032 17.4282ZM10.8063 14.3773C11.372 14.5614 11.9683 14.2496 12.1497 13.6879L12.1512 13.6832L12.1516 13.682C12.1636 13.6447 12.176 13.6076 12.1887 13.5708C12.3393 13.1367 12.5436 12.7331 12.7926 12.3665C13.7237 10.996 15.2809 10.1428 17 10.1428C17.1134 10.1428 17.2259 10.1466 17.3376 10.1541C18.4725 10.2304 19.5146 10.6884 20.34 11.4083L18.8367 12.8881C18.6915 13.0412 18.6148 13.2235 18.5958 13.4082C18.545 13.9023 18.9074 14.4135 19.48 14.4282H24.3767C24.6058 14.4215 24.8044 14.2964 24.9127 14.1118C24.9682 14.0171 25 13.9067 25 13.7887V8.90543C25 8.10026 24.03 7.69717 23.4633 8.26665L21.8467 9.89139C21.8126 9.86031 21.7782 9.82956 21.7435 9.79913C20.4603 8.67275 18.7981 8.00016 17 8.00016C14.4391 8.00016 12.1335 9.33537 10.8411 11.4513C10.5438 11.9381 10.3002 12.4661 10.1193 13.0287L10.1182 13.0321L10.1169 13.0363C10.0607 13.2154 10.0538 13.3986 10.0887 13.5708C10.1629 13.9376 10.4267 14.2548 10.8063 14.3773ZM18.4377 17.2866C18.4254 17.2832 18.4131 17.2798 18.4008 17.2763C18.4017 17.2904 18.4024 17.3045 18.4031 17.3187C18.4147 17.3081 18.4263 17.2974 18.4377 17.2866ZM15.5939 13.7222C15.5931 13.7099 15.5924 13.6977 15.5918 13.6854C15.5818 13.6946 15.5718 13.7039 15.5619 13.7132C15.5726 13.7162 15.5833 13.7192 15.5939 13.7222Z" fill="#211256"/>
</svg>
