<svg width="32" height="37" viewBox="0 0 32 37" fill="none" xmlns="http://www.w3.org/2000/svg">
<g clip-path="url(#clip0_5477_42)">
<path fill-rule="evenodd" clip-rule="evenodd" d="M15.4479 36C7.45439 35.9717 0.97415 29.2191 1.00008 20.9494C1.00139 20.8059 1.01378 17.6282 1.01873 17.486C1.25525 10.153 6.54916 5.96942 15.5457 6C24.4457 6.03092 29.8486 10.3913 29.9996 17.6615C30.0021 17.7794 29.9934 20.9315 29.9922 21.0507C29.9662 29.3204 23.4401 36.0268 15.4479 36Z" fill="#6916A5"/>
<mask id="mask0_5477_42" style="mask-type:alpha" maskUnits="userSpaceOnUse" x="0" y="5" width="32" height="32">
<path d="M0 5.04784H31.9584V36.9997H0V5.04784Z" fill="white"/>
</mask>
<g mask="url(#mask0_5477_42)">
<path fill-rule="evenodd" clip-rule="evenodd" d="M16.0301 5.04784C6.26715 5.01627 0.281459 9.67181 0.0199972 17.5017C0.0123818 17.6984 -0.000399666 20.9388 -0.000399666 20.9705C-0.0295028 29.779 7.11373 36.9692 15.9222 36.9997C24.7307 37.0288 31.9221 29.8868 31.9513 21.0784C31.9513 21.0454 31.9615 17.8571 31.9577 17.6933C31.7888 9.80889 25.8349 5.081 16.0301 5.04784ZM16.0225 7.28422C23.4944 7.30977 29.5626 10.3128 29.7225 17.7416C29.7251 17.8571 29.7162 20.954 29.7149 21.0708C29.6908 28.6595 23.5173 34.7899 15.9298 34.7646C8.34107 34.7391 2.20942 28.5656 2.23599 20.9781C2.23734 20.836 2.25004 17.7149 2.25384 17.5753C2.50134 10.1833 8.57461 7.259 16.0225 7.28422Z" fill="#211256"/>
</g>
<path fill-rule="evenodd" clip-rule="evenodd" d="M15.4512 31C7.45517 30.9717 0.972919 24.2204 1.00009 15.9494C1.02618 7.67839 7.55303 0.971899 15.549 1C23.5437 1.02828 30.0285 7.7809 30.0001 16.0506C29.974 24.3216 23.4459 31.0268 15.4512 31Z" fill="#4CE0AA"/>
<path fill-rule="evenodd" clip-rule="evenodd" d="M16.054 8.87637e-05C7.23267 -0.0290581 0.0306841 7.12364 8.87445e-05 15.9453C-0.029057 24.767 7.12463 31.9693 15.946 31.9999C24.7673 32.0291 31.9693 24.8751 31.9999 16.0534C32.0291 7.23042 24.8754 0.0294143 16.054 8.87637e-05ZM16.0464 2.23984C23.6462 2.26408 29.7856 8.44689 29.7602 16.0458C29.7347 23.6459 23.5522 29.7855 15.9536 29.7602C8.35377 29.7347 2.21441 23.5518 2.23976 15.953C2.26526 8.35283 8.44783 2.21323 16.0464 2.23984Z" fill="#211256"/>
<rect x="26.9673" y="20.172" width="7.86566" height="21.1245" rx="3.93283" transform="rotate(135 26.9673 20.172)" fill="white" stroke="#211256" stroke-width="3"/>
<rect x="12.03" y="25.7339" width="7.86566" height="21.1245" rx="3.93283" transform="rotate(-135 12.03 25.7339)" fill="white" stroke="#211256" stroke-width="3"/>
<rect x="24.8459" y="20.172" width="4.86566" height="18.1245" rx="2.43283" transform="rotate(135 24.8459 20.172)" fill="white"/>
</g>
<defs>
<clipPath id="clip0_5477_42">
<rect width="32" height="36.9997" fill="white"/>
</clipPath>
</defs>
</svg>
