<svg width="400" height="475" viewBox="0 0 400 475" fill="none" xmlns="http://www.w3.org/2000/svg">
<g filter="url(#filter0_d_26_260)">
<path d="M43 177.995C43 166.949 51.9543 157.995 63 157.995H337C348.046 157.995 357 166.949 357 177.995V371.995C357 405.132 330.137 431.995 297 431.995H63C51.9543 431.995 43 423.041 43 411.995V177.995Z" fill="#FF8BB6"/>
<path d="M63 154.995C50.2975 154.995 40 165.293 40 177.995V411.995C40 424.698 50.2974 434.995 63 434.995H297C331.794 434.995 360 406.789 360 371.995V177.995C360 165.293 349.703 154.995 337 154.995H63Z" stroke="black" stroke-width="6"/>
</g>
<path d="M83 176.995C73.6112 176.995 66 184.606 66 193.995V351.995C66 361.384 73.6111 368.995 83 368.995H289C313.853 368.995 334 348.848 334 323.995V193.995C334 184.606 326.389 176.995 317 176.995H83Z" fill="#E9EAE3" stroke="black" stroke-width="6"/>
<rect x="101" y="209.995" width="199" height="125" fill="#D9D9D9" stroke="black" stroke-width="6"/>
<circle cx="83.5" cy="246.495" r="6" fill="#D93D39" stroke="black" stroke-width="3"/>
<circle cx="127" cy="401.995" r="27" fill="#D96590"/>
<mask id="path-7-outside-1_26_260" maskUnits="userSpaceOnUse" x="106" y="380.995" width="42" height="42" fill="black">
<rect fill="white" x="106" y="380.995" width="42" height="42"/>
<path fill-rule="evenodd" clip-rule="evenodd" d="M123.022 383.995C122.469 383.995 122.022 384.443 122.022 384.995V397.782H110C109.448 397.782 109 398.23 109 398.782V405.974C109 406.526 109.448 406.974 110 406.974H122.022V418.995C122.022 419.547 122.469 419.995 123.022 419.995H130.213C130.765 419.995 131.213 419.547 131.213 418.995V406.974H144C144.552 406.974 145 406.526 145 405.974V398.782C145 398.23 144.552 397.782 144 397.782H131.213V384.995C131.213 384.443 130.765 383.995 130.213 383.995H123.022Z"/>
</mask>
<path fill-rule="evenodd" clip-rule="evenodd" d="M123.022 383.995C122.469 383.995 122.022 384.443 122.022 384.995V397.782H110C109.448 397.782 109 398.23 109 398.782V405.974C109 406.526 109.448 406.974 110 406.974H122.022V418.995C122.022 419.547 122.469 419.995 123.022 419.995H130.213C130.765 419.995 131.213 419.547 131.213 418.995V406.974H144C144.552 406.974 145 406.526 145 405.974V398.782C145 398.23 144.552 397.782 144 397.782H131.213V384.995C131.213 384.443 130.765 383.995 130.213 383.995H123.022Z" fill="#F9DA41"/>
<path d="M122.022 397.782V400.782H125.022V397.782H122.022ZM122.022 406.974H125.022V403.974H122.022V406.974ZM131.213 406.974V403.974H128.213V406.974H131.213ZM131.213 397.782H128.213V400.782H131.213V397.782ZM125.022 384.995C125.022 386.1 124.126 386.995 123.022 386.995V380.995C120.812 380.995 119.022 382.786 119.022 384.995H125.022ZM125.022 397.782V384.995H119.022V397.782H125.022ZM110 400.782H122.022V394.782H110V400.782ZM112 398.782C112 399.887 111.105 400.782 110 400.782V394.782C107.791 394.782 106 396.573 106 398.782H112ZM112 405.974V398.782H106V405.974H112ZM110 403.974C111.105 403.974 112 404.869 112 405.974H106C106 408.183 107.791 409.974 110 409.974V403.974ZM122.022 403.974H110V409.974H122.022V403.974ZM125.022 418.995V406.974H119.022V418.995H125.022ZM123.022 416.995C124.126 416.995 125.022 417.891 125.022 418.995H119.022C119.022 421.204 120.812 422.995 123.022 422.995V416.995ZM130.213 416.995H123.022V422.995H130.213V416.995ZM128.213 418.995C128.213 417.891 129.108 416.995 130.213 416.995V422.995C132.422 422.995 134.213 421.204 134.213 418.995H128.213ZM128.213 406.974V418.995H134.213V406.974H128.213ZM144 403.974H131.213V409.974H144V403.974ZM142 405.974C142 404.869 142.895 403.974 144 403.974V409.974C146.209 409.974 148 408.183 148 405.974H142ZM142 398.782V405.974H148V398.782H142ZM144 400.782C142.895 400.782 142 399.887 142 398.782H148C148 396.573 146.209 394.782 144 394.782V400.782ZM131.213 400.782H144V394.782H131.213V400.782ZM128.213 384.995V397.782H134.213V384.995H128.213ZM130.213 386.995C129.108 386.995 128.213 386.1 128.213 384.995H134.213C134.213 382.786 132.422 380.995 130.213 380.995V386.995ZM123.022 386.995H130.213V380.995H123.022V386.995Z" fill="#111010" mask="url(#path-7-outside-1_26_260)"/>
<rect x="247" y="410.729" width="50.0392" height="21.108" rx="10.554" transform="rotate(-28.9865 247 410.729)" fill="#D96590"/>
<circle cx="262.225" cy="413.932" r="6.9999" fill="#D93D39" stroke="black" stroke-width="3"/>
<circle cx="285.6" cy="402.245" r="6.9999" fill="#00A14F" stroke="black" stroke-width="3"/>
<path d="M259.055 382.933L257.756 380.683L256.457 382.933L250.205 393.761L248.906 396.011H251.504H264.007H266.605L265.306 393.761L259.055 382.933Z" fill="#00B5B9" stroke="black" stroke-width="3"/>
<rect x="168.5" y="407.495" width="27.2975" height="10.438" rx="5.21901" fill="#5C6064" stroke="black" stroke-width="3"/>
<rect x="204.202" y="407.495" width="27.2975" height="10.438" rx="5.21901" fill="#5C6064" stroke="black" stroke-width="3"/>
<path d="M189 428.995C189 427.338 190.343 425.995 192 425.995H209C210.657 425.995 212 427.338 212 428.995V431.995H189V428.995Z" fill="#D96590"/>
<path d="M109 157.995H132V160.995C132 162.652 130.657 163.995 129 163.995H112C110.343 163.995 109 162.652 109 160.995V157.995Z" fill="#D96590"/>
<rect x="313.344" y="394.451" width="2.57107" height="16.969" rx="1.28553" transform="rotate(-30 313.344 394.451)" fill="#D96590"/>
<rect x="308" y="397.537" width="2.57107" height="16.969" rx="1.28553" transform="rotate(-30 308 397.537)" fill="#D96590"/>
<rect x="324.031" y="388.281" width="2.57107" height="16.969" rx="1.28553" transform="rotate(-30 324.031 388.281)" fill="#D96590"/>
<rect x="318.688" y="391.366" width="2.57107" height="16.969" rx="1.28553" transform="rotate(-30 318.688 391.366)" fill="#D96590"/>
<defs>
<filter id="filter0_d_26_260" x="37" y="151.995" width="326" height="294" filterUnits="userSpaceOnUse" color-interpolation-filters="sRGB">
<feFlood flood-opacity="0" result="BackgroundImageFix"/>
<feColorMatrix in="SourceAlpha" type="matrix" values="0 0 0 0 0 0 0 0 0 0 0 0 0 0 0 0 0 0 127 0" result="hardAlpha"/>
<feOffset dy="8"/>
<feComposite in2="hardAlpha" operator="out"/>
<feColorMatrix type="matrix" values="0 0 0 0 0 0 0 0 0 0 0 0 0 0 0 0 0 0 1 0"/>
<feBlend mode="normal" in2="BackgroundImageFix" result="effect1_dropShadow_26_260"/>
<feBlend mode="normal" in="SourceGraphic" in2="effect1_dropShadow_26_260" result="shape"/>
</filter>
</defs>
</svg>
