<svg width="400" height="475" viewBox="0 0 400 475" fill="none" xmlns="http://www.w3.org/2000/svg">
<mask id="mask0_27_2218" style="mask-type:alpha" maskUnits="userSpaceOnUse" x="42" y="158" width="315" height="281">
<path d="M42.998 178.712C42.998 167.667 51.9524 158.712 62.998 158.712H336.998C348.044 158.712 356.998 167.667 356.998 178.712V378.822C356.998 411.959 330.135 438.822 296.998 438.822H62.998C51.9523 438.822 42.998 429.868 42.998 418.822V178.712Z" fill="white" fill-opacity="0.88"/>
</mask>
<g mask="url(#mask0_27_2218)">
<path d="M243.866 281.926H303.176L324.678 307.809H361.641" stroke="black" stroke-width="3"/>
<path d="M244.614 304.318H303.177L324.437 329.977H360.856" stroke="black" stroke-width="3"/>
<path d="M245.113 326.714H302.211L323.713 353.574H362.85" stroke="black" stroke-width="3"/>
<path d="M239.194 287.866C242.489 287.866 245.194 285.226 245.194 281.926C245.194 278.626 242.489 275.986 239.194 275.986C235.899 275.986 233.193 278.626 233.193 281.926C233.193 285.226 235.899 287.866 239.194 287.866Z" stroke="black" stroke-width="3"/>
<path d="M239.194 310.259C242.489 310.259 245.194 307.618 245.194 304.319C245.194 301.019 242.489 298.378 239.194 298.378C235.899 298.378 233.193 301.019 233.193 304.319C233.193 307.618 235.899 310.259 239.194 310.259Z" stroke="black" stroke-width="3"/>
<path d="M239.988 332.617C243.283 332.617 245.988 329.977 245.988 326.677C245.988 323.377 243.283 320.737 239.988 320.737C236.693 320.737 233.987 323.377 233.987 326.677C233.987 329.977 236.693 332.617 239.988 332.617Z" stroke="black" stroke-width="3"/>
<path d="M353.706 399.659C357 399.659 359.706 397.018 359.706 393.719C359.706 390.419 357 387.778 353.706 387.778C350.411 387.778 347.705 390.419 347.705 393.719C347.705 397.018 350.411 399.659 353.706 399.659Z" stroke="black" stroke-width="3"/>
<path d="M335.704 399.659C338.998 399.659 341.704 397.018 341.704 393.719C341.704 390.419 338.998 387.778 335.704 387.778C332.409 387.778 329.703 390.419 329.703 393.719C329.703 397.018 332.409 399.659 335.704 399.659Z" stroke="black" stroke-width="3"/>
<path d="M299.465 399.825C302.76 399.825 305.466 397.185 305.466 393.885C305.466 390.585 302.76 387.945 299.465 387.945C296.17 387.945 293.465 390.585 293.465 393.885C293.465 397.185 296.17 399.825 299.465 399.825Z" stroke="black" stroke-width="3"/>
<path d="M299.465 421.564C302.76 421.564 305.466 418.924 305.466 415.624C305.466 412.324 302.76 409.684 299.465 409.684C296.17 409.684 293.465 412.324 293.465 415.624C293.465 418.924 296.17 421.564 299.465 421.564Z" stroke="black" stroke-width="3"/>
<path d="M299.465 377.754C302.76 377.754 305.466 375.113 305.466 371.813C305.466 368.514 302.76 365.873 299.465 365.873C296.17 365.873 293.465 368.514 293.465 371.813C293.465 375.113 296.17 377.754 299.465 377.754Z" stroke="black" stroke-width="3"/>
<path d="M257.959 400.065C261.254 400.065 263.96 397.424 263.96 394.124C263.96 390.825 261.254 388.184 257.959 388.184C254.665 388.184 251.959 390.825 251.959 394.124C251.959 397.424 254.665 400.065 257.959 400.065Z" stroke="black" stroke-width="3"/>
<path d="M239.667 400.065C242.962 400.065 245.668 397.424 245.668 394.124C245.668 390.825 242.962 388.184 239.667 388.184C236.373 388.184 233.667 390.825 233.667 394.124C233.667 397.424 236.373 400.065 239.667 400.065Z" stroke="black" stroke-width="3"/>
<path d="M239.667 422.423C242.962 422.423 245.668 419.782 245.668 416.482C245.668 413.183 242.962 410.542 239.667 410.542C236.373 410.542 233.667 413.183 233.667 416.482C233.667 419.782 236.373 422.423 239.667 422.423Z" stroke="black" stroke-width="3"/>
<path d="M239.708 355.868C243.003 355.868 245.709 353.228 245.709 349.928C245.709 346.628 243.003 343.988 239.708 343.988C236.414 343.988 233.708 346.628 233.708 349.928C233.708 353.228 236.414 355.868 239.708 355.868Z" stroke="black" stroke-width="3"/>
<path d="M257.96 355.868C261.255 355.868 263.961 353.228 263.961 349.928C263.961 346.628 261.255 343.988 257.96 343.988C254.666 343.988 251.96 346.628 251.96 349.928C251.96 353.228 254.666 355.868 257.96 355.868Z" stroke="black" stroke-width="3"/>
<path d="M356.356 264.522C359.651 264.522 362.356 261.881 362.356 258.581C362.356 255.282 359.651 252.641 356.356 252.641C353.061 252.641 350.355 255.282 350.355 258.581C350.355 261.881 353.061 264.522 356.356 264.522Z" stroke="black" stroke-width="3"/>
<path d="M356.356 217.918C359.651 217.918 362.356 215.277 362.356 211.977C362.356 208.678 359.651 206.037 356.356 206.037C353.061 206.037 350.355 208.678 350.355 211.977C350.355 215.277 353.061 217.918 356.356 217.918Z" stroke="black" stroke-width="3"/>
<path d="M327.06 217.918C330.355 217.918 333.061 215.277 333.061 211.977C333.061 208.678 330.355 206.037 327.06 206.037C323.765 206.037 321.06 208.678 321.06 211.977C321.06 215.277 323.765 217.918 327.06 217.918Z" stroke="black" stroke-width="3"/>
<path d="M327.06 240.485C330.355 240.485 333.061 237.845 333.061 234.545C333.061 231.245 330.355 228.604 327.06 228.604C323.765 228.604 321.06 231.245 321.06 234.545C321.06 237.845 323.765 240.485 327.06 240.485Z" stroke="black" stroke-width="3"/>
<path d="M327.06 264.522C330.355 264.522 333.061 261.881 333.061 258.581C333.061 255.282 330.355 252.641 327.06 252.641C323.765 252.641 321.06 255.282 321.06 258.581C321.06 261.881 323.765 264.522 327.06 264.522Z" stroke="black" stroke-width="3"/>
<path d="M327.06 287.866C330.355 287.866 333.061 285.226 333.061 281.926C333.061 278.626 330.355 275.986 327.06 275.986C323.765 275.986 321.06 278.626 321.06 281.926C321.06 285.226 323.765 287.866 327.06 287.866Z" stroke="black" stroke-width="3"/>
<path d="M298.465 217.918C301.76 217.918 304.466 215.277 304.466 211.977C304.466 208.678 301.76 206.037 298.465 206.037C295.17 206.037 292.465 208.678 292.465 211.977C292.465 215.277 295.17 217.918 298.465 217.918Z" stroke="black" stroke-width="3"/>
<path d="M266.427 217.918C269.722 217.918 272.428 215.277 272.428 211.977C272.428 208.678 269.722 206.037 266.427 206.037C263.132 206.037 260.427 208.678 260.427 211.977C260.427 215.277 263.132 217.918 266.427 217.918Z" stroke="black" stroke-width="3"/>
<path d="M299.425 162.025C302.72 162.025 305.426 159.384 305.426 156.085C305.426 155.311 305.274 154.46 304.668 153.811C304.048 153.148 303.243 153.006 302.675 152.98C302.152 152.956 301.57 153.025 301.091 153.081C301.062 153.085 301.032 153.088 301.003 153.091C300.459 153.155 299.948 153.212 299.425 153.212C298.903 153.212 298.392 153.155 297.847 153.091C297.818 153.088 297.789 153.085 297.759 153.081C297.281 153.025 296.698 152.956 296.175 152.98C295.608 153.006 294.803 153.148 294.183 153.811C293.577 154.46 293.425 155.311 293.425 156.085C293.425 159.384 296.13 162.025 299.425 162.025Z" stroke="black" stroke-width="3"/>
<path d="M320.244 162.025C323.539 162.025 326.244 159.384 326.244 156.085C326.244 155.303 326.089 154.468 325.513 153.818C324.921 153.151 324.142 152.966 323.557 152.914C322.993 152.865 322.371 152.922 321.865 152.969L321.857 152.97C321.83 152.972 321.802 152.975 321.774 152.977C321.249 153.026 320.755 153.072 320.244 153.072C319.732 153.072 319.238 153.026 318.713 152.977C318.685 152.975 318.658 152.972 318.63 152.97L318.622 152.969C318.116 152.922 317.494 152.865 316.93 152.914C316.345 152.966 315.566 153.151 314.975 153.818C314.398 154.468 314.243 155.303 314.243 156.085C314.243 159.384 316.949 162.025 320.244 162.025Z" stroke="black" stroke-width="3"/>
<path d="M320.244 184.441C323.539 184.441 326.244 181.8 326.244 178.5C326.244 175.201 323.539 172.56 320.244 172.56C316.949 172.56 314.243 175.201 314.243 178.5C314.243 181.8 316.949 184.441 320.244 184.441Z" stroke="black" stroke-width="3"/>
<path d="M299.425 184.441C302.72 184.441 305.426 181.8 305.426 178.5C305.426 175.201 302.72 172.56 299.425 172.56C296.13 172.56 293.425 175.201 293.425 178.5C293.425 181.8 296.13 184.441 299.425 184.441Z" stroke="black" stroke-width="3"/>
<path d="M219.078 167.6C222.373 167.6 225.078 164.96 225.078 161.66C225.078 158.36 222.373 155.72 219.078 155.72C215.783 155.72 213.077 158.36 213.077 161.66C213.077 164.96 215.783 167.6 219.078 167.6Z" stroke="black" stroke-width="3"/>
<path d="M51.5708 240.633C54.8657 240.633 57.5713 237.992 57.5713 234.692C57.5713 231.393 54.8657 228.752 51.5708 228.752C48.2759 228.752 45.5703 231.393 45.5703 234.692C45.5703 237.992 48.2759 240.633 51.5708 240.633Z" stroke="black" stroke-width="3"/>
<path d="M51.5708 287.866C54.8657 287.866 57.5713 285.226 57.5713 281.926C57.5713 278.626 54.8657 275.986 51.5708 275.986C48.2759 275.986 45.5703 278.626 45.5703 281.926C45.5703 285.226 48.2759 287.866 51.5708 287.866Z" stroke="black" stroke-width="3"/>
<path d="M51.5708 313.75C54.8657 313.75 57.5713 311.109 57.5713 307.809C57.5713 304.51 54.8657 301.869 51.5708 301.869C48.2759 301.869 45.5703 304.51 45.5703 307.809C45.5703 311.109 48.2759 313.75 51.5708 313.75Z" stroke="black" stroke-width="3"/>
<path d="M51.5708 335.917C54.8657 335.917 57.5713 333.277 57.5713 329.977C57.5713 326.677 54.8657 324.037 51.5708 324.037C48.2759 324.037 45.5703 326.677 45.5703 329.977C45.5703 333.277 48.2759 335.917 51.5708 335.917Z" stroke="black" stroke-width="3"/>
<path d="M51.5708 358.392C54.8657 358.392 57.5713 355.751 57.5713 352.452C57.5713 349.152 54.8657 346.511 51.5708 346.511C48.2759 346.511 45.5703 349.152 45.5703 352.452C45.5703 355.751 48.2759 358.392 51.5708 358.392Z" stroke="black" stroke-width="3"/>
<path d="M51.5708 399.825C54.8657 399.825 57.5713 397.185 57.5713 393.885C57.5713 390.585 54.8657 387.945 51.5708 387.945C48.2759 387.945 45.5703 390.585 45.5703 393.885C45.5703 397.185 48.2759 399.825 51.5708 399.825Z" stroke="black" stroke-width="3"/>
<path d="M73.4019 443.469C76.6967 443.469 79.4023 440.829 79.4023 437.529C79.4023 434.229 76.6967 431.589 73.4019 431.589C70.107 431.589 67.4014 434.229 67.4014 437.529C67.4014 440.829 70.107 443.469 73.4019 443.469Z" stroke="black" stroke-width="3"/>
<path d="M73.4019 399.659C76.6967 399.659 79.4023 397.018 79.4023 393.719C79.4023 390.419 76.6967 387.778 73.4019 387.778C70.107 387.778 67.4014 390.419 67.4014 393.719C67.4014 397.018 70.107 399.659 73.4019 399.659Z" stroke="black" stroke-width="3"/>
<path d="M73.4019 377.754C76.6967 377.754 79.4023 375.113 79.4023 371.813C79.4023 368.514 76.6967 365.873 73.4019 365.873C70.107 365.873 67.4014 368.514 67.4014 371.813C67.4014 375.113 70.107 377.754 73.4019 377.754Z" stroke="black" stroke-width="3"/>
<path d="M73.4019 356.912C76.6967 356.912 79.4023 354.271 79.4023 350.972C79.4023 347.672 76.6967 345.031 73.4019 345.031C70.107 345.031 67.4014 347.672 67.4014 350.972C67.4014 354.271 70.107 356.912 73.4019 356.912Z" stroke="black" stroke-width="3"/>
<path d="M73.4019 331.631C76.6967 331.631 79.4023 328.99 79.4023 325.69C79.4023 322.391 76.6967 319.75 73.4019 319.75C70.107 319.75 67.4014 322.391 67.4014 325.69C67.4014 328.99 70.107 331.631 73.4019 331.631Z" stroke="black" stroke-width="3"/>
<path d="M73.4019 309.802C76.6967 309.802 79.4023 307.161 79.4023 303.861C79.4023 300.561 76.6967 297.921 73.4019 297.921C70.107 297.921 67.4014 300.561 67.4014 303.861C67.4014 307.161 70.107 309.802 73.4019 309.802Z" stroke="black" stroke-width="3"/>
<path d="M73.4019 287.866C76.6967 287.866 79.4023 285.226 79.4023 281.926C79.4023 278.626 76.6967 275.986 73.4019 275.986C70.107 275.986 67.4014 278.626 67.4014 281.926C67.4014 285.226 70.107 287.866 73.4019 287.866Z" stroke="black" stroke-width="3"/>
<path d="M82.4028 217.918C85.6977 217.918 88.4033 215.277 88.4033 211.977C88.4033 208.678 85.6977 206.037 82.4028 206.037C79.108 206.037 76.4023 208.678 76.4023 211.977C76.4023 215.277 79.108 217.918 82.4028 217.918Z" stroke="black" stroke-width="3"/>
<path d="M97.8833 399.825C101.178 399.825 103.884 397.185 103.884 393.885C103.884 390.585 101.178 387.945 97.8833 387.945C94.5884 387.945 91.8828 390.585 91.8828 393.885C91.8828 397.185 94.5884 399.825 97.8833 399.825Z" stroke="black" stroke-width="3"/>
<path d="M115.348 399.659C118.643 399.659 121.349 397.018 121.349 393.719C121.349 390.419 118.643 387.778 115.348 387.778C112.053 387.778 109.348 390.419 109.348 393.719C109.348 397.018 112.053 399.659 115.348 399.659Z" stroke="black" stroke-width="3"/>
<path d="M161.393 193.322C164.688 193.322 167.394 190.681 167.394 187.381C167.394 184.082 164.688 181.441 161.393 181.441C158.098 181.441 155.393 184.082 155.393 187.381C155.393 190.681 158.098 193.322 161.393 193.322Z" stroke="black" stroke-width="3"/>
<path d="M182.459 193.322C185.754 193.322 188.46 190.681 188.46 187.381C188.46 184.082 185.754 181.441 182.459 181.441C179.165 181.441 176.459 184.082 176.459 187.381C176.459 190.681 179.165 193.322 182.459 193.322Z" stroke="black" stroke-width="3"/>
<line x1="80.0996" y1="280.956" x2="127.667" y2="280.956" stroke="black" stroke-width="3"/>
<line x1="41.0156" y1="212.073" x2="75.7617" y2="212.073" stroke="black" stroke-width="3"/>
<line x1="41" y1="306.801" x2="44.9961" y2="306.801" stroke="black" stroke-width="3"/>
<line x1="41" y1="329.689" x2="44.9961" y2="329.689" stroke="black" stroke-width="3"/>
<line x1="41" y1="352.578" x2="44.9961" y2="352.578" stroke="black" stroke-width="3"/>
<line x1="80.0996" y1="302.818" x2="127.667" y2="302.818" stroke="black" stroke-width="3"/>
<line x1="80.0996" y1="325.214" x2="127.667" y2="325.214" stroke="black" stroke-width="3"/>
<line x1="80.0996" y1="350.635" x2="127.667" y2="350.635" stroke="black" stroke-width="3"/>
<line x1="80.0996" y1="372.879" x2="127.667" y2="372.879" stroke="black" stroke-width="3"/>
<line x1="244.911" y1="416.41" x2="292.479" y2="416.41" stroke="black" stroke-width="3"/>
<path d="M263.26 393.984H292.479" stroke="black" stroke-width="3"/>
<line x1="332.224" y1="281.836" x2="362.775" y2="281.836" stroke="black" stroke-width="3"/>
<line x1="332.224" y1="234.731" x2="362.775" y2="234.731" stroke="black" stroke-width="3"/>
<line x1="332.818" y1="258.357" x2="350.597" y2="258.357" stroke="black" stroke-width="3"/>
<line x1="332.39" y1="212.175" x2="350.168" y2="212.175" stroke="black" stroke-width="3"/>
<line y1="-1.5" x2="42.1116" y2="-1.5" transform="matrix(0.612862 0.79019 -0.798085 0.602545 335.048 154.077)" stroke="black" stroke-width="3"/>
<line x1="304.781" y1="178.763" x2="315.743" y2="178.763" stroke="black" stroke-width="3"/>
<line x1="73.9014" y1="400.074" x2="73.9014" y2="432.395" stroke="black" stroke-width="3"/>
<line x1="239.487" y1="355.774" x2="239.487" y2="388.095" stroke="black" stroke-width="3"/>
<line x1="257.693" y1="355.267" x2="257.693" y2="387.587" stroke="black" stroke-width="3"/>
<line x1="299.702" y1="377.017" x2="299.702" y2="388.095" stroke="black" stroke-width="3"/>
<line x1="51.5566" y1="241.461" x2="51.5566" y2="275.234" stroke="black" stroke-width="3"/>
<path d="M97.0996 400.074L97.0996 440.955" stroke="black" stroke-width="3"/>
<path d="M115.518 400.074L115.518 440.955" stroke="black" stroke-width="3"/>
<path d="M133.998 374.379L133.998 440.955" stroke="black" stroke-width="3"/>
<path d="M148.089 374.379L148.089 439.742" stroke="black" stroke-width="3"/>
<line x1="57.6045" y1="393.964" x2="67.9072" y2="393.964" stroke="black" stroke-width="3"/>
<line y1="-1.5" x2="20.1591" y2="-1.5" transform="matrix(-0.666524 0.745484 -0.754318 -0.656509 67.5068 286.366)" stroke="black" stroke-width="3"/>
<line y1="-1.5" x2="21.6184" y2="-1.5" transform="matrix(-0.658619 0.752477 -0.76118 -0.64854 68.3086 307.208)" stroke="black" stroke-width="3"/>
<line y1="-1.5" x2="21.6184" y2="-1.5" transform="matrix(-0.658619 0.752477 -0.76118 -0.64854 67.9072 329.978)" stroke="black" stroke-width="3"/>
<path d="M293.91 438.822H258.54L255.235 443.078" stroke="black" stroke-width="3"/>
<path d="M41.9414 174.097H113.663L129.196 155.173" stroke="black" stroke-width="3"/>
<path d="M182.744 355.111V427.381L170.078 442.472" stroke="black" stroke-width="3"/>
<path d="M201.386 355.774V428.044L188.524 441.865" stroke="black" stroke-width="3"/>
<path d="M219.486 355.774V428.044L208.814 441.562" stroke="black" stroke-width="3"/>
<line y1="-1.5" x2="96.6039" y2="-1.5" transform="matrix(0.636276 -0.771461 0.77978 0.626054 86.9033 230.252)" stroke="black" stroke-width="3"/>
<line y1="-1.5" x2="96.6039" y2="-1.5" transform="matrix(0.636276 -0.771461 0.77978 0.626054 105.929 230.252)" stroke="black" stroke-width="3"/>
</g>
<g filter="url(#filter0_d_27_2218)">
<path d="M43 177.995C43 166.949 51.9543 157.995 63 157.995H337C348.046 157.995 357 166.949 357 177.995V371.995C357 405.132 330.137 431.995 297 431.995H63C51.9543 431.995 43 423.041 43 411.995V177.995Z" fill="#9F8CAB" fill-opacity="0.76" shape-rendering="crispEdges"/>
<path d="M337 154.995H63C50.2975 154.995 40 165.293 40 177.995V411.995C40 424.698 50.2974 434.995 63 434.995H297C331.794 434.995 360 406.789 360 371.995V177.995C360 165.293 349.703 154.995 337 154.995Z" stroke="black" stroke-width="6" shape-rendering="crispEdges"/>
</g>
<path d="M317 176.995H83C73.6112 176.995 66 184.606 66 193.995V351.995C66 361.384 73.6112 368.995 83 368.995H289C313.853 368.995 334 348.848 334 323.995V193.995C334 184.606 326.389 176.995 317 176.995Z" fill="black" stroke="black" stroke-width="6"/>
<rect x="101" y="209.995" width="199" height="125" fill="#3E4738" stroke="black" stroke-width="6"/>
<circle cx="83.5" cy="246.495" r="6" fill="#D93D39" stroke="black" stroke-width="3"/>
<circle cx="127" cy="401.995" r="27" fill="#756A7C"/>
<mask id="path-92-outside-1_27_2218" maskUnits="userSpaceOnUse" x="106" y="380.995" width="42" height="42" fill="black">
<rect fill="white" x="106" y="380.995" width="42" height="42"/>
<path fill-rule="evenodd" clip-rule="evenodd" d="M123.022 383.995C122.469 383.995 122.022 384.443 122.022 384.995V397.782H110C109.448 397.782 109 398.23 109 398.782V405.974C109 406.526 109.448 406.974 110 406.974H122.022V418.995C122.022 419.547 122.469 419.995 123.022 419.995H130.213C130.765 419.995 131.213 419.547 131.213 418.995V406.974H144C144.552 406.974 145 406.526 145 405.974V398.782C145 398.23 144.552 397.782 144 397.782H131.213V384.995C131.213 384.443 130.765 383.995 130.213 383.995H123.022Z"/>
</mask>
<path fill-rule="evenodd" clip-rule="evenodd" d="M123.022 383.995C122.469 383.995 122.022 384.443 122.022 384.995V397.782H110C109.448 397.782 109 398.23 109 398.782V405.974C109 406.526 109.448 406.974 110 406.974H122.022V418.995C122.022 419.547 122.469 419.995 123.022 419.995H130.213C130.765 419.995 131.213 419.547 131.213 418.995V406.974H144C144.552 406.974 145 406.526 145 405.974V398.782C145 398.23 144.552 397.782 144 397.782H131.213V384.995C131.213 384.443 130.765 383.995 130.213 383.995H123.022Z" fill="#1F2123"/>
<path d="M122.022 397.782V400.782H125.022V397.782H122.022ZM122.022 406.974H125.022V403.974H122.022V406.974ZM131.213 406.974V403.974H128.213V406.974H131.213ZM131.213 397.782H128.213V400.782H131.213V397.782ZM125.022 384.995C125.022 386.1 124.126 386.995 123.022 386.995V380.995C120.812 380.995 119.022 382.786 119.022 384.995H125.022ZM125.022 397.782V384.995H119.022V397.782H125.022ZM110 400.782H122.022V394.782H110V400.782ZM112 398.782C112 399.887 111.105 400.782 110 400.782V394.782C107.791 394.782 106 396.573 106 398.782H112ZM112 405.974V398.782H106V405.974H112ZM110 403.974C111.105 403.974 112 404.869 112 405.974H106C106 408.183 107.791 409.974 110 409.974V403.974ZM122.022 403.974H110V409.974H122.022V403.974ZM125.022 418.995V406.974H119.022V418.995H125.022ZM123.022 416.995C124.126 416.995 125.022 417.891 125.022 418.995H119.022C119.022 421.204 120.812 422.995 123.022 422.995V416.995ZM130.213 416.995H123.022V422.995H130.213V416.995ZM128.213 418.995C128.213 417.891 129.108 416.995 130.213 416.995V422.995C132.422 422.995 134.213 421.204 134.213 418.995H128.213ZM128.213 406.974V418.995H134.213V406.974H128.213ZM144 403.974H131.213V409.974H144V403.974ZM142 405.974C142 404.869 142.895 403.974 144 403.974V409.974C146.209 409.974 148 408.183 148 405.974H142ZM142 398.782V405.974H148V398.782H142ZM144 400.782C142.895 400.782 142 399.887 142 398.782H148C148 396.573 146.209 394.782 144 394.782V400.782ZM131.213 400.782H144V394.782H131.213V400.782ZM128.213 384.995V397.782H134.213V384.995H128.213ZM130.213 386.995C129.108 386.995 128.213 386.1 128.213 384.995H134.213C134.213 382.786 132.422 380.995 130.213 380.995V386.995ZM123.022 386.995H130.213V380.995H123.022V386.995Z" fill="#111010" mask="url(#path-92-outside-1_27_2218)"/>
<rect x="247" y="410.729" width="50.0392" height="21.108" rx="10.554" transform="rotate(-28.9865 247 410.729)" fill="#756A7C"/>
<circle cx="262.225" cy="413.932" r="6.9999" fill="#1F2123" stroke="black" stroke-width="3"/>
<circle cx="285.6" cy="402.245" r="6.9999" fill="#1F2123" stroke="black" stroke-width="3"/>
<path d="M259.055 382.933L257.756 380.683L256.457 382.933L250.205 393.761L248.906 396.011H251.504H264.007H266.605L265.306 393.761L259.055 382.933Z" fill="#1F2123" stroke="black" stroke-width="3"/>
<rect x="168.5" y="407.495" width="27.2975" height="10.438" rx="5.21901" fill="#1F2123" stroke="black" stroke-width="3"/>
<rect x="204.202" y="407.495" width="27.2975" height="10.438" rx="5.21901" fill="#1F2123" stroke="black" stroke-width="3"/>
<path d="M189 428.995C189 427.338 190.343 425.995 192 425.995H209C210.657 425.995 212 427.338 212 428.995V431.995H189V428.995Z" fill="#756A7C"/>
<path d="M109 157.995H132V160.995C132 162.652 130.657 163.995 129 163.995H112C110.343 163.995 109 162.652 109 160.995V157.995Z" fill="#756A7C"/>
<rect x="313.344" y="394.451" width="2.57107" height="16.969" rx="1.28553" transform="rotate(-30 313.344 394.451)" fill="#756A7C"/>
<rect x="308" y="397.537" width="2.57107" height="16.969" rx="1.28553" transform="rotate(-30 308 397.537)" fill="#756A7C"/>
<rect x="324.031" y="388.281" width="2.57107" height="16.969" rx="1.28553" transform="rotate(-30 324.031 388.281)" fill="#756A7C"/>
<rect x="318.688" y="391.366" width="2.57107" height="16.969" rx="1.28553" transform="rotate(-30 318.688 391.366)" fill="#756A7C"/>
<defs>
<filter id="filter0_d_27_2218" x="37" y="151.995" width="326" height="294" filterUnits="userSpaceOnUse" color-interpolation-filters="sRGB">
<feFlood flood-opacity="0" result="BackgroundImageFix"/>
<feColorMatrix in="SourceAlpha" type="matrix" values="0 0 0 0 0 0 0 0 0 0 0 0 0 0 0 0 0 0 127 0" result="hardAlpha"/>
<feOffset dy="8"/>
<feComposite in2="hardAlpha" operator="out"/>
<feColorMatrix type="matrix" values="0 0 0 0 0 0 0 0 0 0 0 0 0 0 0 0 0 0 1 0"/>
<feBlend mode="normal" in2="BackgroundImageFix" result="effect1_dropShadow_27_2218"/>
<feBlend mode="normal" in="SourceGraphic" in2="effect1_dropShadow_27_2218" result="shape"/>
</filter>
</defs>
</svg>
