<svg width="400" height="475" viewBox="0 0 400 475" fill="none" xmlns="http://www.w3.org/2000/svg">
<path d="M138.533 269.299C142.77 273.577 148.362 276.25 154.351 276.864C160.341 277.478 166.359 275.994 171.376 272.666C176.394 269.337 180.1 264.37 181.863 258.613C183.626 252.855 183.336 246.665 181.043 241.097C178.75 235.53 174.595 230.931 169.288 228.086C163.982 225.241 157.852 224.325 151.946 225.497C146.04 226.668 140.723 229.852 136.903 234.507C133.084 239.162 130.998 244.998 131.003 251.019C130.953 254.417 131.595 257.79 132.89 260.933C134.184 264.075 136.104 266.922 138.533 269.299Z" fill="black"/>
<path d="M261.413 269.299C257.177 273.579 251.587 276.256 245.597 276.873C239.608 277.49 233.59 276.01 228.57 272.683C223.551 269.357 219.842 264.392 218.076 258.635C216.31 252.878 216.597 246.687 218.888 241.119C221.179 235.55 225.331 230.949 230.637 228.102C235.942 225.254 242.072 224.336 247.979 225.505C253.885 226.673 259.204 229.856 263.025 234.509C266.847 239.162 268.935 244.998 268.933 251.019C268.982 254.417 268.34 257.788 267.048 260.931C265.755 264.073 263.838 266.92 261.413 269.299Z" fill="black"/>
<path d="M167.309 285.22C163.083 286.61 159.45 289.386 157 293.1C155.061 295.999 153.977 299.384 153.87 302.87C153.6 307.031 154.65 311.17 156.87 314.7C159.49 319.006 163.7 322.473 169.5 325.1C177.146 328.513 187.186 330.247 199.62 330.3C212.053 330.353 222.12 328.77 229.82 325.55C235.68 323.037 239.923 319.63 242.549 315.33C244.175 312.8 245.208 309.935 245.57 306.949C245.932 303.964 245.614 300.935 244.639 298.09C243.665 295.244 242.059 292.657 239.943 290.52C237.827 288.383 235.255 286.752 232.419 285.75C228.15 284.201 223.487 284.109 219.16 285.49C217.42 286.02 215.3 286.55 212.79 287.1C208.569 288.15 204.238 288.69 199.889 288.71C194.556 288.65 188.103 287.457 180.53 285.13C176.24 283.749 171.62 283.78 167.349 285.22M160.54 312.46C158.827 309.665 158.013 306.412 158.21 303.14C158.332 300.403 159.166 297.746 160.629 295.43C162.123 293.223 164.158 291.436 166.54 290.24C168.902 289.047 171.513 288.431 174.16 288.44C175.895 288.438 177.619 288.711 179.269 289.25L180.169 289.61L171.74 321.34C166.6 319.193 162.866 316.233 160.54 312.46ZM184.379 290.77C188.728 291.89 193.17 292.61 197.65 292.92L197.469 326C188.863 325.76 181.663 324.713 175.87 322.86L184.379 290.77ZM202 293C206.144 292.83 210.26 292.23 214.28 291.21L224.849 322.85C218.643 324.85 210.976 325.896 201.849 325.99L202.03 292.99M220.49 289.59C223.913 288.508 227.596 288.572 230.98 289.77C234.331 290.872 237.205 293.084 239.129 296.04C240.62 298.338 241.428 301.011 241.46 303.75C241.601 307.039 240.728 310.293 238.96 313.07C236.92 316.356 233.586 319.076 228.96 321.23L218.559 290.13L220.49 289.59Z" fill="#020101"/>
<path d="M174.121 288.44C171.474 288.43 168.863 289.047 166.5 290.24C164.064 291.421 161.999 293.249 160.53 295.524C159.061 297.799 158.245 300.433 158.17 303.14C157.974 306.412 158.787 309.665 160.5 312.46C162.827 316.226 166.561 319.186 171.701 321.34L180.13 289.61L179.231 289.25C177.581 288.711 175.856 288.437 174.121 288.44Z" fill="#FFF7EA"/>
<path d="M214.19 291.22C210.17 292.239 206.054 292.839 201.91 293.01L201.73 326.01C210.87 325.95 218.537 324.903 224.73 322.87L214.19 291.22Z" fill="#FFF7EA"/>
<path d="M197.61 292.92C193.131 292.61 188.688 291.89 184.34 290.77L175.83 322.86C181.623 324.713 188.823 325.76 197.43 326L197.61 292.92Z" fill="#FFF7EA"/>
<path d="M239 296.06C237.073 293.106 234.199 290.895 230.85 289.79C227.465 288.592 223.784 288.529 220.36 289.61L218.36 290.15L228.76 321.25C233.426 319.097 236.76 316.377 238.76 313.09C240.523 310.311 241.396 307.059 241.26 303.77C241.246 301.039 240.463 298.367 239 296.06Z" fill="#FFF7EA"/>
</svg>
