<svg width="400" height="475" viewBox="0 0 400 475" fill="none" xmlns="http://www.w3.org/2000/svg">
<path d="M174.395 269.9C172.776 269.895 171.225 269.25 170.081 268.105C168.936 266.96 168.291 265.409 168.285 263.79V263.46C168.279 260.246 167.321 257.106 165.532 254.435C163.743 251.764 161.204 249.682 158.234 248.452C155.264 247.223 151.997 246.899 148.843 247.524C145.69 248.148 142.792 249.692 140.515 251.96C138.145 254.236 136.567 257.212 136.015 260.45C135.625 261.92 134.7 263.192 133.422 264.016C132.145 264.84 130.606 265.159 129.106 264.909C127.606 264.659 126.253 263.858 125.311 262.664C124.37 261.47 123.908 259.967 124.015 258.45C125.287 251.458 129.125 245.193 134.777 240.884C140.428 236.576 147.487 234.534 154.566 235.16C161.645 235.786 168.235 239.035 173.043 244.268C177.851 249.502 180.531 256.343 180.555 263.45V263.78C180.542 265.4 179.887 266.948 178.735 268.086C177.582 269.224 176.025 269.858 174.405 269.85L174.395 269.9Z" fill="#020101"/>
<path d="M225.395 269.9C223.776 269.895 222.225 269.25 221.081 268.105C219.936 266.96 219.29 265.409 219.285 263.79V263.46C219.295 256.348 221.963 249.497 226.767 244.252C231.57 239.007 238.161 235.747 245.245 235.114C252.328 234.48 259.393 236.517 265.051 240.826C270.71 245.135 274.553 251.403 275.825 258.4C275.96 259.192 275.937 260.002 275.759 260.784C275.58 261.567 275.249 262.306 274.785 262.961C274.321 263.616 273.732 264.172 273.053 264.599C272.373 265.027 271.616 265.316 270.825 265.45C270.034 265.585 269.224 265.562 268.441 265.384C267.659 265.206 266.919 264.875 266.265 264.411C265.61 263.946 265.053 263.358 264.626 262.678C264.199 261.999 263.91 261.242 263.775 260.45C263.223 257.206 261.642 254.226 259.265 251.95C256.989 249.68 254.09 248.134 250.936 247.51C247.782 246.885 244.514 247.209 241.543 248.44C238.573 249.672 236.035 251.756 234.248 254.429C232.461 257.102 231.507 260.245 231.505 263.46V263.79C231.505 265.411 230.861 266.965 229.715 268.111C228.569 269.257 227.015 269.9 225.395 269.9Z" fill="#020101"/>
<path d="M255.015 301.72C252.122 296.573 247.292 294 240.525 294H160.124C153.364 294 148.521 296.573 145.594 301.72C143.603 305.324 142.726 309.437 143.075 313.54C143.828 323.013 149.495 331.507 160.075 339.02C160.935 339.63 161.815 340.21 162.705 340.78C164.875 344.42 168.705 347.39 174.365 349.83C181.535 352.93 190.175 354.5 200.035 354.5C209.895 354.5 218.524 352.93 225.664 349.86C231.064 347.52 234.815 344.69 237.025 341.26C238.195 340.54 239.365 339.78 240.495 338.98C251.115 331.473 256.781 322.98 257.495 313.5C257.874 309.413 257.01 305.307 255.015 301.72Z" fill="black"/>
<path d="M175.435 334.2C175.264 333.726 175.156 333.232 175.114 332.73C175.119 333.221 175.149 333.712 175.204 334.2H175.435ZM224.714 334.2C224.952 333.592 225.075 332.944 225.074 332.29V331.29C224.761 326.37 222.334 322.127 217.794 318.56C212.651 314.836 206.464 312.83 200.114 312.83C193.764 312.83 187.577 314.836 182.435 318.56C177.895 322.12 175.471 326.37 175.164 331.31V331.65C175.144 331.86 175.144 332.071 175.164 332.28C175.154 332.427 175.154 332.574 175.164 332.72C175.201 333.223 175.309 333.718 175.484 334.19C176.338 336.364 178.671 338.267 182.484 339.9C187.344 342.007 193.231 343.06 200.145 343.06C206.194 343.216 212.212 342.141 217.834 339.9C221.634 338.26 223.967 336.357 224.834 334.19M225.194 332.28C225.195 332.934 225.073 333.582 224.834 334.19H225.124C225.184 333.596 225.214 332.998 225.214 332.4V331.29C225.188 331.623 225.188 331.957 225.214 332.29L225.194 332.28Z" fill="#BF0000"/>
</svg>
