<svg width="400" height="475" viewBox="0 0 400 475" fill="none" xmlns="http://www.w3.org/2000/svg">
<path d="M163.433 322.383H162.742C161.549 322.383 160.404 321.909 159.561 321.065C158.717 320.221 158.242 319.076 158.242 317.883C158.242 316.689 158.717 315.545 159.561 314.701C160.404 313.857 161.549 313.383 162.742 313.383H163.412C197.242 313.383 224.732 304.873 245.162 288.083C245.617 287.709 246.142 287.429 246.705 287.258C247.268 287.087 247.86 287.028 248.446 287.086C249.032 287.144 249.601 287.316 250.12 287.593C250.639 287.871 251.099 288.248 251.473 288.703C251.846 289.158 252.127 289.682 252.298 290.245C252.469 290.809 252.527 291.4 252.47 291.986C252.412 292.572 252.239 293.141 251.962 293.66C251.684 294.179 251.308 294.639 250.853 295.013C228.803 313.183 199.383 322.383 163.433 322.383Z" fill="black"/>
<path d="M246.423 320.303L247.803 319.503L248.312 294.163L224.232 308.083L246.423 320.303Z" fill="#FEFADA"/>
<path d="M246.412 322.743C246.003 322.744 245.6 322.641 245.242 322.443L223.053 310.223C222.772 310.065 222.525 309.853 222.327 309.599C222.129 309.346 221.982 309.055 221.896 308.745C221.811 308.434 221.787 308.11 221.828 307.79C221.868 307.471 221.972 307.162 222.133 306.883C222.354 306.502 222.671 306.184 223.053 305.963L247.133 292.053C247.692 291.73 248.357 291.642 248.981 291.809C249.605 291.976 250.139 292.384 250.463 292.943C250.689 293.327 250.802 293.767 250.792 294.213L250.292 319.553C249.933 320.339 249.401 321.034 248.736 321.586C248.071 322.139 247.291 322.534 246.452 322.743H246.412ZM229.213 308.033L245.412 316.953L245.782 298.453L229.213 308.033Z" fill="black"/>
<path d="M165.844 269.411C165.255 269.411 164.673 269.296 164.129 269.071C163.585 268.847 163.09 268.517 162.674 268.101L150.724 256.171L138.784 268.101C137.943 268.942 136.803 269.414 135.614 269.414C134.425 269.414 133.285 268.942 132.444 268.101C131.604 267.26 131.131 266.12 131.131 264.931C131.131 263.742 131.604 262.602 132.444 261.761L144.384 249.831L132.464 237.911C131.623 237.07 131.15 235.93 131.15 234.741C131.15 233.552 131.623 232.412 132.464 231.571C133.305 230.73 134.445 230.258 135.634 230.258C136.823 230.258 137.963 230.73 138.804 231.571L150.724 243.491L162.654 231.571C163.495 230.73 164.635 230.258 165.824 230.258C167.013 230.258 168.153 230.73 168.994 231.571C169.835 232.412 170.307 233.552 170.307 234.741C170.307 235.93 169.835 237.07 168.994 237.911L157.063 249.831L169.004 261.761C169.421 262.177 169.751 262.671 169.977 263.215C170.202 263.759 170.318 264.342 170.318 264.931C170.318 265.52 170.202 266.103 169.977 266.647C169.751 267.191 169.421 267.685 169.004 268.101C168.59 268.518 168.097 268.848 167.555 269.073C167.012 269.297 166.431 269.412 165.844 269.411Z" fill="black"/>
<path d="M265.395 269.411C264.806 269.411 264.224 269.296 263.68 269.071C263.136 268.847 262.641 268.517 262.225 268.101L250.274 256.171L238.335 268.101C237.494 268.942 236.354 269.414 235.165 269.414C233.976 269.414 232.836 268.942 231.995 268.101C231.154 267.26 230.682 266.12 230.682 264.931C230.682 263.742 231.154 262.602 231.995 261.761L243.935 249.831L232.015 237.911C231.174 237.07 230.701 235.93 230.701 234.741C230.701 233.552 231.174 232.412 232.015 231.571C232.855 230.73 233.996 230.258 235.185 230.258C236.374 230.258 237.514 230.73 238.354 231.571L250.274 243.491L262.205 231.571C263.046 230.73 264.186 230.258 265.375 230.258C266.564 230.258 267.704 230.73 268.545 231.571C269.386 232.412 269.857 233.552 269.857 234.741C269.857 235.93 269.386 237.07 268.545 237.911L256.614 249.831L268.555 261.761C268.971 262.177 269.302 262.671 269.527 263.215C269.753 263.759 269.869 264.342 269.869 264.931C269.869 265.52 269.753 266.103 269.527 266.647C269.302 267.191 268.971 267.685 268.555 268.101C268.141 268.518 267.648 268.848 267.105 269.073C266.563 269.297 265.982 269.412 265.395 269.411Z" fill="black"/>
</svg>
