<svg width="400" height="475" viewBox="0 0 400 475" fill="none" xmlns="http://www.w3.org/2000/svg">
<path d="M174.395 269.9C172.776 269.895 171.225 269.25 170.081 268.105C168.936 266.96 168.291 265.409 168.285 263.79V263.46C168.279 260.246 167.321 257.106 165.532 254.435C163.743 251.764 161.204 249.682 158.234 248.452C155.264 247.223 151.997 246.899 148.843 247.524C145.69 248.148 142.792 249.692 140.515 251.96C138.145 254.236 136.567 257.212 136.015 260.45C135.625 261.92 134.7 263.192 133.422 264.016C132.145 264.84 130.606 265.159 129.106 264.909C127.606 264.659 126.253 263.858 125.311 262.664C124.37 261.47 123.908 259.967 124.015 258.45C125.287 251.458 129.125 245.193 134.777 240.884C140.428 236.576 147.487 234.534 154.566 235.16C161.645 235.786 168.235 239.035 173.043 244.268C177.851 249.502 180.531 256.343 180.555 263.45V263.78C180.542 265.4 179.887 266.948 178.735 268.086C177.582 269.224 176.025 269.858 174.405 269.85L174.395 269.9Z" fill="#020101"/>
<path d="M225.395 269.9C223.776 269.895 222.225 269.25 221.081 268.105C219.936 266.96 219.29 265.409 219.285 263.79V263.46C219.295 256.348 221.963 249.497 226.767 244.252C231.57 239.007 238.161 235.747 245.245 235.114C252.328 234.48 259.393 236.517 265.051 240.826C270.71 245.135 274.553 251.403 275.825 258.4C275.96 259.192 275.937 260.002 275.759 260.784C275.58 261.567 275.249 262.306 274.785 262.961C274.321 263.616 273.732 264.172 273.053 264.599C272.373 265.027 271.616 265.316 270.825 265.45C270.034 265.585 269.224 265.562 268.441 265.384C267.659 265.206 266.919 264.875 266.265 264.411C265.61 263.946 265.053 263.358 264.626 262.678C264.199 261.999 263.91 261.242 263.775 260.45C263.223 257.206 261.642 254.226 259.265 251.95C256.989 249.68 254.09 248.134 250.936 247.51C247.782 246.885 244.514 247.209 241.543 248.44C238.573 249.672 236.035 251.756 234.248 254.429C232.461 257.102 231.507 260.245 231.505 263.46V263.79C231.505 265.411 230.861 266.965 229.715 268.111C228.569 269.257 227.015 269.9 225.395 269.9Z" fill="#020101"/>
<path d="M211.31 306.36C209.483 306.385 207.67 306.036 205.981 305.336C204.293 304.637 202.765 303.6 201.49 302.29C200.91 301.714 200.382 301.088 199.91 300.42C199.432 301.086 198.901 301.711 198.32 302.29C196.378 304.232 193.903 305.554 191.209 306.09C188.515 306.626 185.723 306.351 183.185 305.3C180.648 304.249 178.478 302.469 176.952 300.185C175.426 297.902 174.611 295.217 174.61 292.47C174.655 291.69 174.996 290.957 175.564 290.42C176.132 289.884 176.884 289.585 177.665 289.585C178.447 289.585 179.198 289.884 179.766 290.42C180.334 290.957 180.676 291.69 180.72 292.47C180.72 294.534 181.54 296.512 182.999 297.971C184.458 299.43 186.437 300.25 188.5 300.25C190.564 300.25 192.542 299.43 194.001 297.971C195.46 296.512 196.28 294.534 196.28 292.47C196.28 292.071 196.36 291.676 196.514 291.308C196.669 290.94 196.895 290.607 197.18 290.327C197.465 290.048 197.803 289.828 198.174 289.681C198.545 289.534 198.941 289.462 199.34 289.47H200.48C200.878 289.464 201.274 289.536 201.644 289.684C202.013 289.832 202.35 290.052 202.634 290.331C202.918 290.61 203.143 290.943 203.297 291.311C203.451 291.678 203.53 292.072 203.53 292.47C203.53 294.534 204.35 296.512 205.809 297.971C207.268 299.43 209.247 300.25 211.31 300.25C213.374 300.25 215.352 299.43 216.812 297.971C218.271 296.512 219.09 294.534 219.09 292.47C219.09 291.659 219.413 290.88 219.987 290.306C220.56 289.733 221.339 289.41 222.15 289.41C222.962 289.41 223.74 289.733 224.314 290.306C224.888 290.88 225.21 291.659 225.21 292.47C225.205 296.154 223.738 299.686 221.133 302.29C218.527 304.894 214.994 306.358 211.31 306.36Z" fill="black"/>
</svg>
