<svg width="400" height="475" viewBox="0 0 400 475" fill="none" xmlns="http://www.w3.org/2000/svg">
<path d="M229.062 312.34H172.932C171.738 312.34 170.594 311.866 169.75 311.022C168.906 310.178 168.432 309.033 168.432 307.84C168.432 306.646 168.906 305.502 169.75 304.658C170.594 303.814 171.738 303.34 172.932 303.34H229.062C230.256 303.34 231.4 303.814 232.244 304.658C233.088 305.502 233.562 306.646 233.562 307.84C233.562 309.033 233.088 310.178 232.244 311.022C231.4 311.866 230.256 312.34 229.062 312.34Z" fill="black"/>
<path d="M156.852 325.39C155.912 325.348 155.026 324.946 154.373 324.269C153.721 323.591 153.353 322.689 153.347 321.749C153.341 320.808 153.695 319.901 154.338 319.215C154.981 318.528 155.863 318.115 156.802 318.06C158.701 318.03 160.551 317.451 162.128 316.395C163.706 315.338 164.944 313.847 165.695 312.103C166.445 310.358 166.675 308.434 166.357 306.562C166.039 304.689 165.187 302.949 163.903 301.55L163.752 301.41L163.582 301.25C162.706 300.335 161.653 299.608 160.488 299.111C159.322 298.615 158.069 298.359 156.802 298.36C156.32 298.377 155.84 298.299 155.388 298.13C154.936 297.962 154.522 297.706 154.169 297.377C153.816 297.048 153.532 296.653 153.331 296.215C153.131 295.776 153.019 295.302 153.002 294.82C152.985 294.338 153.063 293.858 153.232 293.406C153.4 292.954 153.657 292.54 153.986 292.187C154.314 291.834 154.709 291.549 155.148 291.349C155.587 291.149 156.06 291.037 156.542 291.02H156.912C159.113 291.027 161.29 291.473 163.316 292.332C165.342 293.19 167.177 294.444 168.712 296.02L169.122 296.41L169.202 296.49C171.474 298.92 172.991 301.957 173.57 305.233C174.148 308.509 173.764 311.882 172.462 314.943C171.161 318.005 168.999 320.622 166.239 322.479C163.478 324.335 160.239 325.35 156.912 325.4L156.852 325.39Z" fill="black"/>
<path d="M243.412 325.39H243.352C240.028 325.335 236.791 324.318 234.034 322.461C231.276 320.604 229.116 317.987 227.816 314.927C226.515 311.868 226.129 308.497 226.705 305.223C227.282 301.948 228.796 298.912 231.063 296.48L231.132 296.4L231.563 296C233.098 294.426 234.93 293.173 236.954 292.315C238.979 291.457 241.153 291.01 243.352 291H243.412C244.351 291.049 245.236 291.457 245.883 292.139C246.53 292.821 246.891 293.725 246.891 294.665C246.891 295.605 246.53 296.509 245.883 297.191C245.236 297.873 244.351 298.281 243.412 298.33C242.146 298.329 240.892 298.585 239.727 299.081C238.562 299.578 237.509 300.305 236.632 301.22L236.453 301.39L236.313 301.52C235.033 302.92 234.184 304.66 233.869 306.531C233.553 308.402 233.783 310.324 234.533 312.067C235.282 313.81 236.519 315.299 238.094 316.357C239.669 317.415 241.516 317.996 243.412 318.03C244.351 318.079 245.236 318.487 245.883 319.168C246.53 319.85 246.891 320.755 246.891 321.695C246.891 322.635 246.53 323.539 245.883 324.221C245.236 324.903 244.351 325.311 243.412 325.36V325.39Z" fill="black"/>
<path d="M142.785 272.39C145.338 277.323 148.399 279.787 151.965 279.78C155.532 279.773 158.592 277.31 161.145 272.39C163.665 267.403 164.925 261.403 164.925 254.39C164.925 247.377 163.665 241.377 161.145 236.39C158.598 231.47 155.539 229.007 151.965 229C148.392 228.993 145.331 231.457 142.785 236.39C140.278 241.383 139.022 247.383 139.015 254.39C138.844 260.602 140.135 266.768 142.785 272.39Z" fill="black"/>
<path d="M256.494 272.39C253.941 277.323 250.881 279.787 247.314 279.78C243.748 279.773 240.691 277.31 238.145 272.39C235.625 267.403 234.364 261.403 234.364 254.39C234.364 247.377 235.625 241.377 238.145 236.39C240.685 231.47 243.741 229.007 247.314 229C250.888 228.993 253.947 231.457 256.494 236.39C259.014 241.383 260.274 247.383 260.274 254.39C260.274 261.397 259.014 267.397 256.494 272.39Z" fill="black"/>
</svg>
