<svg width="400" height="475" viewBox="0 0 400 475" fill="none" xmlns="http://www.w3.org/2000/svg">
<path d="M257.385 269.22C261.952 265.391 265.054 260.099 266.163 254.243C267.271 248.387 266.319 242.328 263.468 237.094C264.097 236.69 264.556 236.07 264.759 235.35C264.962 234.63 264.895 233.861 264.569 233.188C264.244 232.514 263.683 231.984 262.993 231.696C262.302 231.408 261.531 231.382 260.823 231.624L213.984 248.409C213.643 248.53 213.326 248.711 213.05 248.945C212.496 249.346 212.096 249.925 211.917 250.584C211.737 251.244 211.787 251.945 212.06 252.572C212.334 253.199 212.813 253.714 213.418 254.031C214.024 254.348 214.72 254.449 215.391 254.317C216.197 258.672 218.149 262.734 221.048 266.084C225.455 271.311 231.756 274.577 238.568 275.165C245.38 275.753 252.147 273.615 257.385 269.22Z" fill="black"/>
<path d="M134.738 233.457C134.483 234.113 134.467 234.838 134.693 235.505C134.919 236.171 135.372 236.737 135.973 237.104C132.91 242.723 132.043 249.279 133.54 255.501C135.037 261.724 138.792 267.168 144.076 270.779C149.359 274.39 155.796 275.91 162.137 275.044C168.477 274.178 174.271 270.988 178.393 266.093C181.291 262.74 183.246 258.676 184.056 254.319C184.707 254.393 185.364 254.255 185.931 253.928C186.498 253.6 186.945 253.1 187.206 252.499C187.467 251.899 187.529 251.231 187.382 250.593C187.236 249.955 186.888 249.381 186.391 248.955C186.114 248.721 185.798 248.539 185.457 248.419L138.617 231.634C137.861 231.367 137.03 231.408 136.304 231.749C135.577 232.091 135.015 232.704 134.738 233.457Z" fill="black"/>
<path d="M209.893 306.744C209.122 306.744 208.364 306.545 207.693 306.164L199.693 301.634L191.693 306.164C190.658 306.75 189.433 306.902 188.288 306.585C187.142 306.268 186.169 305.509 185.583 304.474C184.997 303.44 184.845 302.215 185.162 301.069C185.479 299.923 186.238 298.95 187.273 298.364L197.453 292.584C198.128 292.201 198.891 292 199.668 292C200.444 292 201.207 292.201 201.883 292.584L212.063 298.364C212.925 298.852 213.602 299.612 213.987 300.525C214.371 301.438 214.442 302.454 214.189 303.412C213.935 304.37 213.371 305.216 212.584 305.819C211.798 306.422 210.834 306.748 209.843 306.744H209.893Z" fill="black"/>
</svg>
