<svg width="400" height="475" viewBox="0 0 400 475" fill="none" xmlns="http://www.w3.org/2000/svg">
<path d="M152.48 268.87C148.745 268.875 145.046 268.145 141.593 266.721C138.141 265.296 135.003 263.206 132.358 260.568C129.713 257.931 127.614 254.799 126.18 251.351C124.746 247.902 124.005 244.205 124 240.47V240.06C124.064 238.481 124.736 236.988 125.875 235.893C127.015 234.799 128.534 234.187 130.115 234.188C131.695 234.187 133.214 234.799 134.354 235.893C135.494 236.988 136.166 238.481 136.23 240.06V240.39C136.245 244.437 137.765 248.333 140.497 251.319C143.228 254.305 146.974 256.167 151.003 256.542C155.032 256.916 159.057 255.777 162.292 253.345C165.526 250.914 167.74 247.365 168.5 243.39C168.89 241.92 169.814 240.649 171.092 239.824C172.37 239 173.91 238.682 175.41 238.932C176.91 239.182 178.262 239.982 179.204 241.176C180.145 242.371 180.607 243.873 180.5 245.39C179.303 251.963 175.838 257.907 170.708 262.187C165.579 266.466 159.11 268.81 152.43 268.81L152.48 268.87Z" fill="#020101"/>
<path d="M247.65 268.87C240.971 268.868 234.504 266.523 229.377 262.243C224.249 257.964 220.786 252.021 219.589 245.45C219.482 243.933 219.944 242.431 220.885 241.236C221.827 240.042 223.18 239.242 224.68 238.992C226.18 238.742 227.719 239.06 228.997 239.884C230.275 240.709 231.199 241.98 231.589 243.45C232.141 246.694 233.722 249.675 236.099 251.95C238.376 254.221 241.274 255.766 244.428 256.391C247.582 257.015 250.851 256.692 253.821 255.46C256.791 254.229 259.33 252.145 261.116 249.471C262.903 246.798 263.858 243.655 263.86 240.44V240.11C263.86 238.49 264.503 236.935 265.649 235.79C266.795 234.644 268.349 234 269.969 234C271.59 234 273.144 234.644 274.29 235.79C275.436 236.935 276.079 238.49 276.079 240.11V240.44C276.084 244.175 275.354 247.874 273.93 251.327C272.505 254.779 270.415 257.917 267.778 260.562C265.141 263.207 262.008 265.306 258.56 266.74C255.111 268.174 251.414 268.915 247.679 268.92H247.569L247.65 268.87Z" fill="#020101"/>
<path d="M157.621 311.6H156.971C155.777 311.6 154.633 311.126 153.789 310.282C152.945 309.438 152.471 308.294 152.471 307.1C152.471 305.907 152.945 304.762 153.789 303.918C154.633 303.074 155.777 302.6 156.971 302.6H157.601C191.451 302.6 218.961 294.09 239.391 277.3C240.296 276.531 241.47 276.153 242.655 276.25C243.839 276.346 244.936 276.909 245.706 277.815C246.475 278.721 246.853 279.895 246.756 281.079C246.66 282.264 246.097 283.361 245.191 284.13L245.081 284.22C223.021 302.4 193.571 311.6 157.621 311.6Z" fill="black"/>
</svg>
