<svg width="400" height="475" viewBox="0 0 400 475" fill="none" xmlns="http://www.w3.org/2000/svg">
<path d="M198.032 320.598C200.352 320.598 201.513 319.444 201.513 317.138V303.838H172.143V317.138C172.143 319.444 173.29 320.598 175.583 320.598H198.032Z" fill="#FEFADA"/>
<path d="M198.033 323.048H175.583C171.953 323.048 169.703 320.778 169.703 317.138V303.838C169.661 303.189 169.878 302.55 170.306 302.062C170.735 301.573 171.339 301.275 171.988 301.233C172.636 301.19 173.275 301.407 173.764 301.836C174.253 302.264 174.551 302.869 174.593 303.518C174.603 303.624 174.603 303.731 174.593 303.838V317.138C174.513 317.322 174.508 317.531 174.581 317.718C174.655 317.906 174.799 318.056 174.983 318.138C175.178 318.217 175.398 318.217 175.593 318.138H198.043C199.043 318.138 199.043 318.038 199.043 317.138V303.838C199.001 303.189 199.217 302.55 199.646 302.062C200.074 301.573 200.68 301.275 201.328 301.233C201.977 301.19 202.615 301.407 203.104 301.836C203.592 302.264 203.891 302.869 203.933 303.518C203.943 303.624 203.943 303.731 203.933 303.838V317.138C203.963 320.748 201.693 323.048 198.033 323.048Z" fill="black"/>
<path d="M228.223 320.598C230.543 320.598 231.703 319.444 231.703 317.138V303.838H202.333V317.138C202.333 319.444 203.479 320.598 205.772 320.598H228.223Z" fill="#FEFADA"/>
<path d="M228.223 323.048H205.773C202.143 323.048 199.883 320.778 199.883 317.138V303.838C199.862 303.517 199.905 303.194 200.008 302.89C200.112 302.585 200.274 302.304 200.486 302.062C200.914 301.573 201.52 301.275 202.168 301.233C202.817 301.19 203.455 301.407 203.944 301.836C204.432 302.264 204.73 302.869 204.773 303.518C204.783 303.624 204.783 303.731 204.773 303.838V317.138C204.692 317.322 204.688 317.531 204.761 317.718C204.834 317.906 204.979 318.056 205.163 318.138C205.359 318.217 205.577 318.217 205.773 318.138H228.223C229.223 318.138 229.223 318.038 229.223 317.138V303.838C229.181 303.189 229.397 302.55 229.826 302.062C230.254 301.573 230.86 301.275 231.508 301.233C232.157 301.19 232.795 301.407 233.284 301.836C233.772 302.264 234.07 302.869 234.113 303.518C234.123 303.624 234.123 303.731 234.113 303.838V317.138C234.177 317.928 234.07 318.724 233.797 319.469C233.524 320.214 233.093 320.891 232.533 321.453C231.972 322.015 231.297 322.448 230.553 322.724C229.809 322.999 229.014 323.11 228.223 323.048Z" fill="black"/>
<path d="M231.953 306.668H172.222C165.112 306.798 159.792 303.428 157.312 297.128C157.096 296.58 156.991 295.995 157.001 295.407C157.011 294.818 157.136 294.237 157.371 293.697C157.605 293.157 157.944 292.669 158.367 292.26C158.79 291.851 159.29 291.529 159.838 291.313C160.385 291.097 160.97 290.991 161.558 291.001C162.147 291.011 162.728 291.137 163.268 291.371C163.808 291.605 164.297 291.944 164.706 292.367C165.115 292.79 165.436 293.29 165.652 293.838C166.462 295.908 167.762 297.838 172.072 297.708H231.632C235.942 297.808 237.242 295.908 238.052 293.838C238.268 293.29 238.591 292.79 239 292.367C239.409 291.944 239.897 291.605 240.437 291.371C240.977 291.137 241.558 291.011 242.146 291.001C242.735 290.991 243.319 291.097 243.867 291.313C244.414 291.529 244.914 291.851 245.338 292.26C245.761 292.669 246.1 293.157 246.335 293.697C246.569 294.237 246.695 294.818 246.705 295.407C246.715 295.995 246.608 296.58 246.392 297.128C244.002 303.298 238.873 306.668 231.953 306.668Z" fill="black"/>
<path d="M144.785 269.39C147.338 274.323 150.399 276.787 153.965 276.78C157.532 276.773 160.592 274.31 163.145 269.39C165.665 264.403 166.925 258.403 166.925 251.39C166.925 244.377 165.665 238.377 163.145 233.39C160.598 228.47 157.539 226.007 153.965 226C150.392 225.993 147.331 228.457 144.785 233.39C142.278 238.383 141.022 244.383 141.015 251.39C140.844 257.602 142.135 263.768 144.785 269.39Z" fill="black"/>
<path d="M258.494 269.39C255.941 274.323 252.881 276.787 249.314 276.78C245.748 276.773 242.691 274.31 240.145 269.39C237.625 264.403 236.364 258.403 236.364 251.39C236.364 244.377 237.625 238.377 240.145 233.39C242.685 228.47 245.741 226.007 249.314 226C252.888 225.993 255.947 228.457 258.494 233.39C261.014 238.383 262.274 244.383 262.274 251.39C262.274 258.397 261.014 264.397 258.494 269.39Z" fill="black"/>
</svg>
