<svg width="400" height="475" viewBox="0 0 400 475" fill="none" xmlns="http://www.w3.org/2000/svg">
<path d="M174.331 237.878C173.511 237.479 172.744 236.981 172.058 236.401L133.35 203.865C131.585 202.331 130.467 200.345 130.237 198.334C130.008 196.322 130.685 194.445 132.123 193.107C133.561 191.769 135.645 191.076 137.927 191.177C140.21 191.278 142.509 192.165 144.33 193.647L183.037 226.183C184.686 227.56 185.809 229.334 186.2 231.181C186.592 233.029 186.226 234.826 185.169 236.246C184.113 237.665 182.436 238.612 180.446 238.913C178.455 239.215 176.284 238.851 174.327 237.887L174.331 237.878Z" fill="#020101"/>
<path d="M225.888 237.878C226.708 237.479 227.475 236.981 228.161 236.401L266.869 203.865C268.634 202.331 269.752 200.345 269.981 198.334C270.211 196.322 269.534 194.445 268.096 193.107C266.658 191.769 264.574 191.076 262.291 191.177C260.009 191.278 257.71 192.165 255.889 193.647L217.181 226.183C215.532 227.56 214.41 229.334 214.018 231.181C213.627 233.029 213.993 234.826 215.049 236.246C216.106 237.665 217.782 238.612 219.773 238.913C221.763 239.215 223.935 238.851 225.892 237.887L225.888 237.878Z" fill="#020101"/>
<path d="M160.073 241.015C157.821 238.257 154.848 236.532 151.663 236.134C148.477 235.736 145.277 236.689 142.607 238.831C139.937 240.974 137.964 244.172 137.023 247.881C136.083 251.59 136.233 255.579 137.45 259.168C138.666 262.757 140.873 265.724 143.693 267.561C146.514 269.399 149.773 269.993 152.915 269.244C156.057 268.494 158.887 266.447 160.921 263.451C162.956 260.455 164.07 256.696 164.073 252.817C164.102 250.624 163.762 248.446 163.075 246.417C162.387 244.389 161.366 242.55 160.073 241.015Z" fill="white"/>
<path d="M150.341 241.603L150.845 241.599C151.837 241.65 152.821 241.91 153.753 242.374C154.841 242.916 155.841 243.727 156.686 244.77L156.686 244.77L156.693 244.779C158.187 246.585 159.139 248.989 159.354 251.591C159.57 254.192 159.033 256.792 157.853 258.944C156.674 261.094 154.942 262.638 152.987 263.365C151.04 264.089 148.951 263.976 147.056 263.036C145.152 262.091 143.534 260.354 142.517 258.073C141.5 255.793 141.161 253.141 141.57 250.577C141.979 248.012 143.105 245.73 144.72 244.105C146.33 242.483 148.319 241.62 150.341 241.603ZM138.661 269.766C141.912 273.028 146.03 274.858 150.322 274.887C152.781 274.926 155.215 274.361 157.474 273.235C159.733 272.109 161.766 270.449 163.457 268.365C166.428 264.761 168.258 260.049 168.667 255.036C169.076 250.022 168.041 244.979 165.72 240.76C163.399 236.54 159.917 233.38 155.831 231.869C151.738 230.355 147.333 230.608 143.386 232.575C139.447 234.538 136.234 238.071 134.253 242.526C132.272 246.982 131.632 252.117 132.428 257.065C133.223 262.013 135.413 266.506 138.661 269.766Z" fill="black" stroke="black" stroke-width="2"/>
<path d="M239.963 241.015C242.216 238.257 245.189 236.532 248.374 236.134C251.559 235.736 254.76 236.689 257.43 238.831C260.1 240.974 262.073 244.172 263.014 247.881C263.954 251.59 263.803 255.579 262.586 259.168C261.37 262.757 259.164 265.724 256.343 267.561C253.523 269.399 250.263 269.993 247.122 269.244C243.98 268.494 241.15 266.447 239.115 263.451C237.08 260.455 235.966 256.696 235.963 252.817C235.937 250.624 236.278 248.447 236.965 246.419C237.653 244.391 238.673 242.552 239.963 241.015Z" fill="white"/>
<path d="M249.712 241.603L250.254 241.599C251.234 241.65 252.205 241.908 253.126 242.366C254.213 242.907 255.212 243.721 256.054 244.768L256.054 244.768L256.063 244.779C257.557 246.585 258.509 248.989 258.725 251.591C258.94 254.192 258.403 256.792 257.223 258.944C256.044 261.094 254.312 262.638 252.357 263.365C250.41 264.089 248.321 263.976 246.426 263.036C244.522 262.091 242.905 260.354 241.887 258.073C240.87 255.793 240.531 253.141 240.94 250.577C241.35 248.012 242.475 245.73 244.09 244.105C245.7 242.483 247.69 241.62 249.712 241.603ZM238.031 269.766C241.282 273.028 245.4 274.858 249.693 274.887C252.151 274.926 254.585 274.361 256.844 273.235C259.103 272.109 261.136 270.449 262.827 268.365C265.798 264.761 267.629 260.049 268.038 255.036C268.447 250.022 267.412 244.979 265.09 240.76C262.769 236.54 259.287 233.38 255.201 231.869C251.108 230.355 246.704 230.608 242.756 232.575C238.817 234.538 235.604 238.071 233.623 242.526C231.643 246.982 231.002 252.117 231.798 257.065C232.593 262.013 234.784 266.506 238.031 269.766Z" fill="black" stroke="black" stroke-width="2"/>
<mask id="path-7-outside-1_22_1543" maskUnits="userSpaceOnUse" x="171.057" y="276.889" width="59" height="40" fill="black">
<rect fill="white" x="171.057" y="276.889" width="59" height="40"/>
<path fill-rule="evenodd" clip-rule="evenodd" d="M177.072 282.889C177.046 284.301 177.053 285.813 177.092 287.433C177.399 300.064 186.307 310.677 200.443 310.677C214.578 310.677 223.12 300.05 223.793 287.433C223.88 285.81 223.923 284.298 223.924 282.889H177.072Z"/>
</mask>
<path fill-rule="evenodd" clip-rule="evenodd" d="M177.072 282.889C177.046 284.301 177.053 285.813 177.092 287.433C177.399 300.064 186.307 310.677 200.443 310.677C214.578 310.677 223.12 300.05 223.793 287.433C223.88 285.81 223.923 284.298 223.924 282.889H177.072Z" fill="#BF0000"/>
<path d="M177.092 287.433L171.094 287.579L177.092 287.433ZM177.072 282.889V276.889H171.178L171.073 282.781L177.072 282.889ZM223.793 287.433L217.802 287.113V287.113L223.793 287.433ZM223.924 282.889L229.924 282.893L229.929 276.889H223.924V282.889ZM183.09 287.287C183.053 285.742 183.047 284.315 183.071 282.996L171.073 282.781C171.046 284.287 171.053 285.885 171.094 287.579L183.09 287.287ZM200.443 304.677C189.962 304.677 183.328 297.075 183.09 287.287L171.094 287.579C171.47 303.052 182.652 316.677 200.443 316.677V304.677ZM217.802 287.113C217.264 297.188 210.782 304.677 200.443 304.677V316.677C218.374 316.677 228.976 302.912 229.785 287.753L217.802 287.113ZM217.924 282.884C217.923 284.176 217.884 285.583 217.802 287.113L229.785 287.753C229.876 286.037 229.923 284.419 229.924 282.893L217.924 282.884ZM223.924 276.889H177.072V288.889H223.924V276.889Z" fill="black" mask="url(#path-7-outside-1_22_1543)"/>
<path fill-rule="evenodd" clip-rule="evenodd" d="M223.916 283.918C219.626 289.045 210.871 293.158 200.767 293.158C190.209 293.158 181.122 288.667 177.066 283.22C177.068 283.109 177.07 282.999 177.072 282.889H223.924C223.924 283.226 223.921 283.569 223.916 283.918Z" fill="white"/>
</svg>
