<svg width="400" height="475" viewBox="0 0 400 475" fill="none" xmlns="http://www.w3.org/2000/svg">
<path d="M136.605 223.205C134.855 223.196 133.166 222.562 131.842 221.418C130.519 220.274 129.647 218.694 129.385 216.964C129.124 215.233 129.489 213.467 130.415 211.982C131.341 210.497 132.766 209.392 134.435 208.865L173.995 196.615C175.841 196.004 177.854 196.151 179.592 197.024C181.329 197.897 182.649 199.425 183.26 201.27C183.871 203.116 183.725 205.129 182.852 206.867C181.979 208.605 180.451 209.924 178.605 210.535L178.335 210.615L138.775 222.865C138.072 223.084 137.341 223.198 136.605 223.205Z" fill="#020101"/>
<path d="M274.635 223.205C273.9 223.206 273.168 223.095 272.466 222.875L232.905 210.625C231.083 210.021 229.571 208.727 228.693 207.02C227.814 205.313 227.641 203.33 228.21 201.497C228.778 199.663 230.043 198.126 231.733 197.215C233.422 196.304 235.402 196.092 237.246 196.625L276.806 208.875C278.488 209.389 279.929 210.491 280.866 211.979C281.804 213.467 282.175 215.243 281.911 216.982C281.648 218.721 280.768 220.307 279.433 221.452C278.097 222.596 276.394 223.222 274.635 223.215V223.205Z" fill="#020101"/>
<path d="M162.304 338.37L238.675 338.37C245.095 338.37 249.698 335.814 252.485 330.7C254.372 327.083 255.197 323.006 254.865 318.94C254.151 309.46 248.755 300.98 238.675 293.5C228.008 285.5 215.385 281.5 200.805 281.5L200.255 281.5C185.648 281.5 172.998 285.5 162.305 293.5C152.211 300.98 146.835 309.46 146.175 318.94C145.816 323.008 146.643 327.092 148.554 330.7C151.281 335.807 155.864 338.363 162.304 338.37ZM224.675 334.3L176.295 334.3C176.259 331.254 176.876 328.235 178.102 325.447C179.328 322.658 181.136 320.163 183.405 318.13C188.051 313.825 194.151 311.434 200.485 311.434C206.818 311.434 212.919 313.825 217.565 318.13C219.833 320.163 221.641 322.658 222.867 325.447C224.094 328.235 224.71 331.254 224.675 334.3Z" fill="black"/>
<path d="M176.295 334.3L224.675 334.3C224.711 331.254 224.094 328.235 222.868 325.446C221.642 322.658 219.834 320.163 217.565 318.13C212.919 313.825 206.819 311.433 200.485 311.433C194.152 311.433 188.051 313.825 183.405 318.13C181.137 320.163 179.329 322.658 178.103 325.446C176.876 328.235 176.26 331.254 176.295 334.3Z" fill="#BF0000"/>
<path d="M136.026 277.95C132.181 275.537 128.848 272.39 126.219 268.689C123.59 264.987 121.716 260.805 120.704 256.379C119.692 251.954 119.561 247.372 120.319 242.896C121.077 238.42 122.71 234.137 125.123 230.292L125.187 230.191C127.38 226.68 130.112 223.536 133.283 220.875C134.198 220.114 135.377 219.749 136.561 219.858C137.148 219.912 137.718 220.081 138.239 220.356C138.76 220.63 139.222 221.004 139.598 221.457C139.975 221.91 140.258 222.433 140.433 222.995C140.607 223.558 140.669 224.149 140.615 224.735C140.561 225.322 140.392 225.892 140.117 226.413C139.843 226.934 139.469 227.396 139.016 227.772C136.569 229.832 134.461 232.265 132.771 234.981C130.972 237.819 129.749 240.984 129.173 244.295C128.597 247.606 128.679 250.998 129.414 254.277C130.148 257.556 131.522 260.659 133.456 263.407C135.39 266.155 137.846 268.496 140.684 270.295L140.811 270.375C145.744 273.491 151.713 274.52 157.404 273.235C163.096 271.95 168.044 268.457 171.16 263.524L171.192 263.474C174.114 258.849 175.136 254.291 174.309 249.534C173.961 247.252 173.103 245.079 171.798 243.176C170.494 241.273 168.777 239.688 166.775 238.541C165.051 237.389 163.104 236.612 161.061 236.263C159.017 235.914 156.923 235.999 154.914 236.514C152.866 236.992 150.937 237.88 149.242 239.125C147.547 240.37 146.121 241.945 145.052 243.756C144.203 244.959 143.626 246.332 143.361 247.78C143.096 249.228 143.149 250.717 143.516 252.142C144.154 254.663 145.758 256.832 147.982 258.18C149.758 259.346 151.886 259.853 153.996 259.613C155.05 259.5 156.062 259.134 156.945 258.547C157.828 257.961 158.557 257.17 159.07 256.242C160.87 253.393 160.017 252.31 158.67 251.128C156.921 249.609 156.181 249.769 154.73 251.111C153.857 251.918 152.699 252.345 151.511 252.297C150.323 252.25 149.202 251.733 148.395 250.859C147.589 249.986 147.163 248.828 147.21 247.64C147.257 246.452 147.774 245.332 148.647 244.525C153.539 240.021 159.482 239.955 164.568 244.374C169.654 248.794 170.418 254.906 166.672 260.985C165.437 263.054 163.74 264.809 161.715 266.115C159.691 267.421 157.392 268.242 154.998 268.514C150.866 268.975 146.702 267.991 143.213 265.73C139.055 263.177 136.057 259.102 134.857 254.372C134.184 251.761 134.071 249.036 134.527 246.378C134.983 243.72 135.997 241.189 137.502 238.951C139.185 236.159 141.41 233.731 144.045 231.81C146.68 229.89 149.672 228.515 152.846 227.767C156.011 226.971 159.306 226.84 162.524 227.382C165.743 227.925 168.813 229.129 171.542 230.919C174.622 232.725 177.263 235.193 179.273 238.144C181.284 241.095 182.613 244.456 183.165 247.984C184.367 254.918 182.89 261.732 178.784 268.233C174.398 275.176 167.438 280.094 159.43 281.91C151.422 283.726 143.02 282.291 136.07 277.919L136.026 277.95Z" fill="black"/>
<path d="M237.112 226.258C244.087 221.925 252.497 220.537 260.494 222.398C268.492 224.259 275.424 229.217 279.77 236.184C283.841 242.709 285.271 249.536 284.035 256.472C283.45 260.002 282.091 263.36 280.055 266.303C278.019 269.246 275.357 271.702 272.259 273.494C269.523 275.259 266.45 276.44 263.236 276.961C260.021 277.481 256.733 277.331 253.579 276.519C250.409 275.756 247.423 274.365 244.799 272.43C242.174 270.494 239.964 268.052 238.299 265.248C236.811 263.005 235.815 260.472 235.377 257.816C234.939 255.159 235.069 252.441 235.757 249.838C236.982 245.101 240.006 241.029 244.187 238.486C247.666 236.259 251.804 235.296 255.909 235.759C258.306 236.038 260.607 236.865 262.633 238.177C264.659 239.488 266.356 241.248 267.592 243.321C271.33 249.464 270.539 255.508 265.462 259.972C260.385 264.435 254.38 264.292 249.522 259.756C249.092 259.354 248.745 258.871 248.501 258.335C248.258 257.8 248.122 257.221 248.102 256.633C248.082 256.044 248.178 255.458 248.385 254.907C248.591 254.355 248.905 253.85 249.306 253.42C249.708 252.99 250.191 252.643 250.727 252.399C251.262 252.156 251.841 252.02 252.429 252C253.018 251.98 253.604 252.076 254.155 252.282C254.707 252.489 255.212 252.802 255.642 253.204C257.086 254.555 257.787 254.753 259.599 253.199C260.936 252.035 261.753 250.983 259.948 248.09C259.433 247.157 258.699 246.363 257.811 245.774C256.922 245.185 255.905 244.819 254.845 244.708C252.762 244.487 250.667 244.994 248.916 246.144C246.686 247.489 245.076 249.658 244.432 252.182C244.065 253.6 244.009 255.081 244.267 256.522C244.526 257.964 245.093 259.333 245.93 260.535C246.99 262.353 248.408 263.937 250.096 265.193C251.785 266.449 253.71 267.35 255.757 267.841C257.788 268.357 259.905 268.441 261.97 268.088C264.036 267.735 266.005 266.953 267.75 265.793C269.72 264.65 271.412 263.084 272.704 261.208C273.996 259.332 274.855 257.193 275.221 254.945C276.073 250.171 275.076 245.607 272.181 240.965C270.659 238.51 268.667 236.379 266.321 234.693C263.975 233.007 261.32 231.799 258.507 231.14C255.694 230.48 252.779 230.381 249.928 230.848C247.077 231.315 244.346 232.338 241.89 233.861L241.84 233.892C238.979 235.661 236.495 237.976 234.529 240.705C232.564 243.434 231.154 246.524 230.382 249.797C229.61 253.07 229.491 256.464 230.031 259.783C230.57 263.103 231.759 266.284 233.528 269.144L233.591 269.246C235.27 271.968 237.363 274.413 239.795 276.49C240.684 277.26 241.235 278.349 241.328 279.522C241.421 280.695 241.049 281.857 240.292 282.758C239.536 283.659 238.455 284.226 237.284 284.336C236.112 284.447 234.944 284.093 234.032 283.35C230.876 280.671 228.162 277.511 225.989 273.988C223.583 270.141 221.958 265.859 221.208 261.384C220.457 256.909 220.595 252.331 221.614 247.909C222.633 243.488 224.513 239.311 227.146 235.616C229.779 231.921 233.115 228.781 236.961 226.375L237.097 226.29L237.112 226.258Z" fill="black"/>
<path d="M289.894 294.485C289.443 294.485 289.011 294.306 288.692 293.987C288.373 293.668 288.194 293.236 288.194 292.785V273.275C288.194 272.824 288.373 272.392 288.692 272.073C289.011 271.754 289.443 271.575 289.894 271.575C290.345 271.575 290.777 271.754 291.096 272.073C291.415 272.392 291.594 272.824 291.594 273.275V292.785C291.594 293.236 291.415 293.668 291.096 293.987C290.777 294.306 290.345 294.485 289.894 294.485ZM270.194 294.485C269.743 294.485 269.311 294.306 268.992 293.987C268.673 293.668 268.494 293.236 268.494 292.785V273.275C268.494 272.824 268.673 272.392 268.992 272.073C269.311 271.754 269.743 271.575 270.194 271.575C270.645 271.575 271.077 271.754 271.396 272.073C271.715 272.392 271.894 272.824 271.894 273.275V292.785C271.894 293.236 271.715 293.668 271.396 293.987C271.077 294.306 270.645 294.485 270.194 294.485ZM250.654 294.485C250.203 294.485 249.771 294.306 249.452 293.987C249.133 293.668 248.954 293.236 248.954 292.785V273.275C248.954 272.824 249.133 272.392 249.452 272.073C249.771 271.754 250.203 271.575 250.654 271.575C251.105 271.575 251.537 271.754 251.856 272.073C252.175 272.392 252.354 272.824 252.354 273.275V292.785C252.354 293.236 252.175 293.668 251.856 293.987C251.537 294.306 251.105 294.485 250.654 294.485ZM147.654 294.485C147.203 294.485 146.771 294.306 146.452 293.987C146.133 293.668 145.954 293.236 145.954 292.785V273.275C145.954 272.824 146.133 272.392 146.452 272.073C146.771 271.754 147.203 271.575 147.654 271.575C148.105 271.575 148.537 271.754 148.856 272.073C149.175 272.392 149.354 272.824 149.354 273.275V292.785C149.354 293.236 149.175 293.668 148.856 293.987C148.537 294.306 148.105 294.485 147.654 294.485ZM127.954 294.485C127.503 294.485 127.071 294.306 126.752 293.987C126.433 293.668 126.254 293.236 126.254 292.785V273.275C126.287 272.846 126.481 272.444 126.797 272.151C127.113 271.859 127.528 271.696 127.959 271.696C128.39 271.696 128.805 271.859 129.121 272.151C129.437 272.444 129.631 272.846 129.664 273.275V292.785C129.659 293.238 129.475 293.67 129.153 293.988C128.831 294.307 128.397 294.485 127.944 294.485H127.954ZM108.414 294.485C107.963 294.485 107.531 294.306 107.212 293.987C106.893 293.668 106.714 293.236 106.714 292.785V273.275C106.714 272.824 106.893 272.392 107.212 272.073C107.531 271.754 107.963 271.575 108.414 271.575C108.865 271.575 109.297 271.754 109.616 272.073C109.935 272.392 110.114 272.824 110.114 273.275V292.785C110.114 293.008 110.07 293.229 109.984 293.436C109.899 293.642 109.774 293.829 109.616 293.987C109.458 294.145 109.271 294.27 109.064 294.356C108.858 294.441 108.637 294.485 108.414 294.485Z" fill="#FFC6FF"/>
</svg>
