<svg width="400" height="475" viewBox="0 0 400 475" fill="none" xmlns="http://www.w3.org/2000/svg">
<path d="M232.48 312.33H176.35C175.156 312.33 174.012 311.856 173.168 311.012C172.324 310.168 171.85 309.024 171.85 307.83C171.85 306.637 172.324 305.492 173.168 304.648C174.012 303.804 175.156 303.33 176.35 303.33H232.48C233.674 303.33 234.818 303.804 235.662 304.648C236.506 305.492 236.98 306.637 236.98 307.83C236.98 309.024 236.506 310.168 235.662 311.012C234.818 311.856 233.674 312.33 232.48 312.33Z" fill="black"/>
<path d="M160.27 325.38C159.33 325.338 158.444 324.937 157.791 324.259C157.139 323.581 156.771 322.679 156.765 321.739C156.759 320.799 157.113 319.891 157.756 319.205C158.399 318.519 159.281 318.105 160.22 318.05C162.119 318.02 163.969 317.442 165.546 316.385C167.124 315.328 168.362 313.837 169.113 312.093C169.863 310.348 170.093 308.424 169.775 306.552C169.457 304.68 168.605 302.939 167.321 301.54L167.17 301.4L167 301.24C166.124 300.326 165.071 299.598 163.906 299.102C162.74 298.605 161.487 298.349 160.22 298.35C159.738 298.367 159.258 298.289 158.806 298.121C158.354 297.952 157.94 297.696 157.587 297.367C157.234 297.038 156.95 296.644 156.749 296.205C156.549 295.766 156.437 295.292 156.42 294.81C156.403 294.328 156.481 293.848 156.65 293.396C156.818 292.944 157.075 292.53 157.404 292.177C157.732 291.824 158.127 291.54 158.566 291.339C159.005 291.139 159.478 291.027 159.96 291.01H160.33C162.531 291.017 164.708 291.463 166.734 292.322C168.76 293.18 170.595 294.434 172.13 296.01L172.54 296.4L172.62 296.48C174.892 298.91 176.409 301.948 176.988 305.223C177.566 308.499 177.182 311.872 175.88 314.934C174.579 317.995 172.417 320.613 169.657 322.469C166.896 324.325 163.656 325.34 160.33 325.39L160.27 325.38Z" fill="black"/>
<path d="M246.83 325.38H246.77C243.446 325.326 240.209 324.308 237.452 322.451C234.694 320.594 232.534 317.977 231.234 314.918C229.933 311.858 229.547 308.487 230.123 305.213C230.7 301.939 232.214 298.902 234.481 296.47L234.55 296.39L234.981 295.99C236.516 294.416 238.348 293.164 240.372 292.305C242.397 291.447 244.571 291 246.77 290.99H246.83C247.769 291.039 248.654 291.447 249.301 292.129C249.948 292.811 250.309 293.715 250.309 294.655C250.309 295.595 249.948 296.5 249.301 297.182C248.654 297.864 247.769 298.271 246.83 298.32C245.564 298.319 244.31 298.575 243.145 299.072C241.98 299.568 240.927 300.296 240.05 301.21L239.87 301.38L239.731 301.51C238.451 302.911 237.602 304.651 237.286 306.521C236.971 308.392 237.201 310.314 237.951 312.057C238.7 313.8 239.937 315.29 241.512 316.347C243.087 317.405 244.934 317.986 246.83 318.02C247.769 318.069 248.654 318.477 249.301 319.159C249.948 319.841 250.309 320.745 250.309 321.685C250.309 322.625 249.948 323.53 249.301 324.212C248.654 324.894 247.769 325.301 246.83 325.35V325.38Z" fill="black"/>
<path d="M129.782 267.573C127.758 267.533 125.748 267.908 123.875 268.675C122.002 269.442 120.305 270.585 118.891 272.033C117.419 273.457 116.254 275.168 115.468 277.06C114.682 278.952 114.292 280.984 114.322 283.033C114.318 286.094 115.221 289.087 116.918 291.634C118.614 294.182 121.029 296.169 123.855 297.345C126.681 298.521 129.792 298.832 132.795 298.241C135.798 297.649 138.558 296.18 140.726 294.02C142.895 291.86 144.375 289.105 144.978 286.105C145.582 283.104 145.282 279.992 144.117 277.161C142.952 274.331 140.974 271.909 138.433 270.202C135.892 268.496 132.902 267.581 129.841 267.573H129.782ZM261.652 268.763C259.996 270.361 258.684 272.281 257.798 274.405C256.913 276.529 256.471 278.812 256.502 281.113C256.46 284.574 257.442 287.97 259.322 290.877C261.202 293.783 263.898 296.07 267.072 297.451C270.246 298.832 273.757 299.246 277.165 298.641C280.573 298.036 283.726 296.439 286.231 294.05C288.736 291.661 290.481 288.586 291.246 285.21C292.011 281.834 291.763 278.308 290.533 275.072C289.303 271.837 287.146 269.036 284.332 267.02C281.517 265.005 278.171 263.865 274.712 263.743H273.881C271.608 263.7 269.35 264.123 267.247 264.986C265.143 265.85 263.239 267.135 261.652 268.763Z" fill="#AEE3C8"/>
<path d="M224.036 197.759C223.585 197.759 223.152 197.58 222.834 197.261C222.515 196.942 222.336 196.51 222.336 196.059V176.559C222.336 176.108 222.515 175.676 222.834 175.357C223.152 175.038 223.585 174.859 224.036 174.859C224.487 174.859 224.919 175.038 225.238 175.357C225.557 175.676 225.736 176.108 225.736 176.559V196.059C225.736 196.51 225.557 196.942 225.238 197.261C224.919 197.58 224.487 197.759 224.036 197.759ZM204.336 197.759C203.885 197.759 203.452 197.58 203.134 197.261C202.815 196.942 202.636 196.51 202.636 196.059V176.559C202.669 176.129 202.863 175.728 203.179 175.435C203.495 175.142 203.91 174.979 204.341 174.979C204.772 174.979 205.187 175.142 205.503 175.435C205.819 175.728 206.013 176.129 206.046 176.559V196.059C206.043 196.511 205.862 196.943 205.541 197.261C205.221 197.58 204.787 197.759 204.336 197.759ZM184.796 197.759C184.345 197.759 183.912 197.58 183.594 197.261C183.275 196.942 183.096 196.51 183.096 196.059V176.559C183.096 176.108 183.275 175.676 183.594 175.357C183.912 175.038 184.345 174.859 184.796 174.859C185.247 174.859 185.679 175.038 185.998 175.357C186.317 175.676 186.496 176.108 186.496 176.559V196.059C186.496 196.51 186.317 196.942 185.998 197.261C185.679 197.58 185.247 197.759 184.796 197.759Z" fill="#00A14F"/>
<path d="M284.179 206.444C283.728 206.444 283.296 206.197 282.977 205.757C282.658 205.318 282.479 204.721 282.479 204.1V177.204C282.479 176.582 282.658 175.985 282.977 175.545C283.296 175.106 283.728 174.859 284.179 174.859C284.63 174.859 285.063 175.106 285.381 175.545C285.7 175.985 285.879 176.582 285.879 177.204V204.1C285.879 204.721 285.7 205.318 285.381 205.757C285.063 206.197 284.63 206.444 284.179 206.444ZM264.479 206.444C264.028 206.444 263.596 206.197 263.277 205.757C262.958 205.318 262.779 204.721 262.779 204.1V177.204C262.812 176.611 263.006 176.057 263.322 175.654C263.638 175.25 264.053 175.025 264.484 175.025C264.915 175.025 265.33 175.25 265.646 175.654C265.962 176.057 266.156 176.611 266.189 177.204V204.1C266.187 204.723 266.005 205.319 265.685 205.758C265.365 206.198 264.931 206.444 264.479 206.444ZM244.939 206.444C244.488 206.444 244.056 206.197 243.737 205.757C243.418 205.318 243.239 204.721 243.239 204.1V177.204C243.239 176.582 243.418 175.985 243.737 175.545C244.056 175.106 244.488 174.859 244.939 174.859C245.39 174.859 245.823 175.106 246.141 175.545C246.46 175.985 246.639 176.582 246.639 177.204V204.1C246.639 204.721 246.46 205.318 246.141 205.757C245.823 206.197 245.39 206.444 244.939 206.444Z" fill="#00A14F"/>
<path d="M164.699 245.688H139.399C137.501 245.617 135.704 244.814 134.386 243.446C133.067 242.078 132.33 240.252 132.33 238.353C132.33 236.453 133.067 234.627 134.386 233.259C135.704 231.891 137.501 231.088 139.399 231.018H164.699C166.598 231.088 168.396 231.891 169.714 233.259C171.032 234.627 171.769 236.453 171.769 238.353C171.769 240.252 171.032 242.078 169.714 243.446C168.396 244.814 166.598 245.617 164.699 245.688Z" fill="#020101"/>
<path d="M268.87 245.687H243.569C241.671 245.617 239.874 244.814 238.556 243.446C237.237 242.078 236.501 240.252 236.501 238.352C236.501 236.453 237.237 234.627 238.556 233.259C239.874 231.891 241.671 231.088 243.569 231.018H268.87C269.835 230.979 270.798 231.132 271.704 231.466C272.61 231.8 273.441 232.31 274.149 232.967C274.858 233.623 275.429 234.413 275.832 235.29C276.235 236.168 276.461 237.117 276.496 238.082C276.532 239.047 276.376 240.009 276.039 240.914C275.702 241.819 275.19 242.649 274.531 243.355C273.873 244.062 273.082 244.632 272.203 245.032C271.324 245.432 270.374 245.655 269.409 245.687H268.87Z" fill="#020101"/>
</svg>
