<?xml version="1.0" encoding="utf-8"?>
<!-- Generator: Adobe Illustrator 24.3.0, SVG Export Plug-In . SVG Version: 6.00 Build 0)  -->
<svg version="1.1" id="Camada_1" xmlns="http://www.w3.org/2000/svg" xmlns:xlink="http://www.w3.org/1999/xlink" x="0px" y="0px"
	 viewBox="0 0 262.2 299" style="enable-background:new 0 0 262.2 299;" xml:space="preserve">
<style type="text/css">
	.st0{fill:#F9B800;}
	.st1{fill:#52D89B;}
	.st2{fill:#3CB57C;}
	.st3{fill:#012442;}
	.st4{fill:#FFFFFF;}
	.st5{fill:#AF4E81;}
</style>
<g>
	<circle class="st0" cx="131.1" cy="174.6" r="123.3"/>
</g>
<g>
	<path class="st1" d="M173.3,200.6l-42.3,1.1l-42.3-1.1c-47,5.9-59.9,43.1-59.9,43.1c39.3,57.9,93.1,54.7,103.1,54.7
		c8.7,0,70-4.1,102.1-56.7C234.2,241.7,220.3,206.5,173.3,200.6z"/>
</g>
<g>
	<path class="st2" d="M49,219.7c0,0,23.5,39.7,82.4,39.7s82.4-41.7,82.4-41.7S116.8,165.4,49,219.7z"/>
</g>
<g>
	<path class="st3" d="M172.8,197.7l-0.3,0l-42.5,1.1l-42.2-1.1l-0.3,0l-0.3,0c-49,6.1-59.8,40.5-60.2,41.9c-0.1,0.2-0.2,0.6-0.3,1
		c1.7,2.5,3.5,5.1,5.1,7.7c0.3-0.5,0.5-0.9,0.6-1.2c0.4-1.3,12.1-35.9,55.5-41.5l42.1,1.1l42.1-1.1c43.5,5.6,55.8,37.1,56.3,38.5
		c0.6,1.6,1.7,4.1,1.7,4.3c0.4-0.7,4.7-6.3,5.7-7.3C234.6,237.8,220.2,203.6,172.8,197.7z"/>
</g>
<g>
	<path class="st1" d="M233.7,117.8c0,58.3-34.4,129.6-103.6,129.6c-64.3,0-102.7-69.3-102.7-127.7S71.7,16.1,130,16.1
		S233.7,59.5,233.7,117.8z"/>
</g>
<g>
	<path class="st3" d="M131,251.5c-27.8,0-56.2-15.5-78-42.4c-20.4-25.3-32.7-57.9-32.7-87.2C20.4,61.3,69.6,12.2,130,12.2
		c0,0,0,0,0,0c60.5,0,109.6,49.2,109.6,109.6l0,0c0,29.4-11.8,62-31.6,87.2C186.5,236.4,159.2,251.5,131,251.5z M130,20.2
		C74,20.2,28.4,65.8,28.4,121.8c0,27.5,11.5,58.2,30.9,82.2c20.2,25.1,46.4,39.5,71.8,39.5c55.8,0,100.7-66.5,100.7-121.7
		C231.7,65.8,186.1,20.2,130,20.2z"/>
</g>
<g>
	<path class="st3" d="M112.8,160.1c-8.5,16.8-34.3,9.6-51,1.1c-16.8-8.5-23.5-28.9-15.1-45.7S75.7,92,92.5,100.5
		C109.2,109,121.3,143.4,112.8,160.1z"/>
</g>
<g>
	<path class="st3" d="M143.9,160.1c8.5,16.8,34.3,9.6,51.1,1.1c16.8-8.5,23.5-29,15-45.8s-29-23.5-45.8-15
		C147.4,109,135.4,143.4,143.9,160.1z"/>
</g>
<g>
	<circle class="st4" cx="64.4" cy="120.4" r="9.4"/>
</g>
<g>
	<circle class="st4" cx="75.4" cy="141.4" r="5.8"/>
</g>
<g>
	<circle class="st4" cx="193.4" cy="120.4" r="9.4"/>
</g>
<g>
	<circle class="st4" cx="182.4" cy="141.4" r="5.8"/>
</g>
<g>
	<path class="st4" d="M154.4,213.3c1.6-1.2,2.9-2.8,3.9-4.5c2.7-4.7,2.4-10.5-0.8-14.9c-1.1-1.5-2.6-2.7-4.3-3.4
		c-2.5-0.6-5.1-0.4-7.4,0.8c-2.4,1-10.2,4.1-16.4,4.1s-13.3-3.2-15.6-4.1c-2.3-1.1-4.9-1.4-7.4-0.8c-1.8,0.7-3.3,1.8-4.3,3.4
		c-3.2,4.4-3.5,10.2-0.8,14.9c1,1.7,2.3,3.2,3.9,4.5c10.1,8.4,24.8,8.4,24.8,8.4C138.8,221.6,147.4,218.6,154.4,213.3z"/>
</g>
<g>
	<path class="st3" d="M129.9,225.6c-0.8,0-16.3-0.1-27.4-9.3c-1.9-1.5-3.5-3.4-4.8-5.5c-3.5-6.1-3.1-13.7,1-19.3
		c1.5-2.2,3.7-3.8,6.2-4.8l0.4-0.1c3.4-0.9,6.9-0.5,10.1,1l0.4,0.2c2.4,1,8.6,3.6,13.6,3.6c5.3,0,12.5-2.8,14.7-3.8
		c3.1-1.5,6.7-1.8,10.1-1l0.4,0.1c2.5,0.9,4.7,2.6,6.2,4.8c4,5.6,4.4,13.2,1,19.2c-1.3,2.2-2.9,4.1-4.9,5.6l-0.1,0.1
		C149.2,222.3,139.6,225.6,129.9,225.6C129.9,225.6,129.9,225.6,129.9,225.6z M107.6,194.3c-0.9,0.4-1.7,1-2.3,1.8
		c-2.3,3.2-2.5,7.3-0.6,10.7c0.7,1.2,1.7,2.4,2.9,3.4c8.9,7.3,22.2,7.5,22.3,7.5c7.9-0.1,15.7-2.7,22.1-7.5c1.2-0.9,2.1-2,2.9-3.3
		c1.9-3.3,1.6-7.5-0.6-10.6c-0.6-0.9-1.4-1.5-2.3-1.9c-1.5-0.3-3.1-0.2-4.4,0.5l-0.2,0.1c-3.1,1.3-11.2,4.4-17.9,4.4
		c-6.6,0-13.7-3-16.7-4.2l-0.7-0.3C110.6,194.1,109.1,194,107.6,194.3z"/>
</g>
<g>
	<rect x="109" y="189.4" class="st3" width="6" height="26.1"/>
</g>
<g>
	<rect x="120.5" y="192.7" class="st3" width="6" height="26.1"/>
</g>
<g>
	<rect x="134" y="194.3" class="st3" width="6" height="26.1"/>
</g>
<g>
	<rect x="145.6" y="192.7" class="st3" width="6" height="26.1"/>
</g>
<g>
	<path class="st3" d="M96.2,88.5c-0.7,0-1.3-0.2-2-0.5c-6.9-3.9-15.9-4.8-24.7-2.5c-2.1,0.6-4.3-0.7-4.9-2.9
		c-0.5-2.1,0.7-4.3,2.9-4.9c10.8-2.8,21.9-1.6,30.6,3.3c1.9,1.1,2.6,3.5,1.5,5.4C99,87.7,97.6,88.5,96.2,88.5z"/>
</g>
<g>
	<path class="st3" d="M161,88.5c-1.4,0-2.8-0.7-3.5-2c-1.1-1.9-0.4-4.4,1.5-5.4c8.6-4.9,19.8-6.1,30.6-3.3c2.1,0.5,3.4,2.7,2.9,4.9
		c-0.5,2.1-2.7,3.4-4.9,2.9c-8.8-2.3-17.8-1.3-24.7,2.5C162.3,88.3,161.7,88.5,161,88.5z"/>
</g>
<g>
	<ellipse class="st5" cx="77" cy="182.7" rx="11.8" ry="8.2"/>
</g>
<g>
	<ellipse class="st5" cx="182.3" cy="182.7" rx="11.8" ry="8.2"/>
</g>
<g>
	<path class="st1" d="M175.3,42.5c4-1.3,13-8.9,19.6-7.9c4.2,0.6,10.8,5.1,12.7,10.7s-4.3,20.9-4.3,20.9"/>
	<path class="st3" d="M203.3,70.3c-0.5,0-1-0.1-1.5-0.3c-2-0.8-3-3.2-2.2-5.2c2.7-6.7,5.1-15.6,4.3-18.1c-1.4-4.1-6.7-7.6-9.5-8.1
		c-3.1-0.5-8.4,2.6-11.8,4.7c-2.3,1.4-4.3,2.5-6,3.1c-2.1,0.7-4.4-0.5-5-2.6c-0.7-2.1,0.5-4.4,2.6-5c0.9-0.3,2.7-1.4,4.3-2.3
		c5-2.9,11.2-6.6,17.1-5.7c5.8,0.8,13.6,6.4,15.9,13.4c2.2,6.6-2.8,19.8-4.4,23.7C206.4,69.3,204.9,70.3,203.3,70.3z"/>
</g>
<g>
	<path class="st1" d="M86.7,44.2c-3.9-1.6-12.2-10-18.8-9.6c-4.3,0.3-11.2,4.1-13.6,9.6s2.5,21.2,2.5,21.2"/>
	<path class="st3" d="M56.7,69.3c-1.7,0-3.3-1.1-3.8-2.8c-1.3-4-5.1-17.7-2.3-24c3-6.7,11.2-11.6,17.1-11.9
		c5.9-0.3,11.8,3.8,16.5,7.2c1.6,1.1,3.3,2.4,4.2,2.7c2,0.8,3,3.2,2.2,5.2c-0.8,2-3.2,3-5.2,2.2c-1.7-0.7-3.6-2-5.8-3.6
		c-3.3-2.3-8.3-5.9-11.3-5.7c-2.9,0.2-8.5,3.3-10.2,7.2c-1.1,2.4,0.5,11.5,2.7,18.4c0.7,2.1-0.5,4.4-2.6,5
		C57.5,69.3,57.1,69.3,56.7,69.3z"/>
</g>
</svg>
