<?xml version="1.0" encoding="utf-8"?>
<!-- Generator: Adobe Illustrator 24.3.0, SVG Export Plug-In . SVG Version: 6.00 Build 0)  -->
<svg version="1.1" id="Camada_1" xmlns="http://www.w3.org/2000/svg" xmlns:xlink="http://www.w3.org/1999/xlink" x="0px" y="0px"
	 viewBox="0 0 262.2 299" style="enable-background:new 0 0 262.2 299;" xml:space="preserve">
<style type="text/css">
	.st0{fill:#52D89B;}
	.st1{clip-path:url(#SVGID_2_);}
	.st2{fill:#012442;}
	.st3{fill:#FFBB71;}
	.st4{fill:#E28F3B;}
	.st5{fill:#F29B3B;}
	.st6{fill:#A1E25D;}
	.st7{fill:#E02D5C;}
	.st8{fill:#603116;}
	.st9{fill:#001E40;}
	.st10{fill:#EFC03C;}
	.st11{fill:#F7CF81;}
	.st12{fill:#FFFFFF;}
</style>
<g id="Camada_4">
	<g>
		<circle class="st0" cx="131.2" cy="171" r="123.3"/>
	</g>
	<g>
		<defs>
			<circle id="SVGID_1_" cx="130.9" cy="171" r="123.3"/>
		</defs>
		<clipPath id="SVGID_2_">
			<use xlink:href="#SVGID_1_"  style="overflow:visible;"/>
		</clipPath>
		<g class="st1">
			<g>
				<path class="st2" d="M223.2,296.5c-12.5,0-23.7-7.9-26.6-19.4c-9.3-37.2-33-47.3-34-47.7c0.4,0.2,0.6,0.2,0.6,0.2L183,183
					c5.2,1.9,51.2,19.9,66.9,83c3.4,13.5-5.9,26.8-20.6,29.9C227.3,296.3,225.3,296.5,223.2,296.5z"/>
			</g>
			<g>
				<path class="st3" d="M224.4,288.4c-8.3,0-15.8-5.2-17.7-13c-10.6-42.7-44.2-57.5-44.5-57.7c-9.2-3.8-13.3-13.6-9.2-22
					s14.9-12.1,24.1-8.4c2,0.8,50.3,21.2,65.1,80.7c2.2,9-3.9,17.9-13.7,20C227.2,288.3,225.8,288.4,224.4,288.4z"/>
			</g>
			<g>
				<path class="st2" d="M40.7,297.3c-2,0-4.1-0.2-6.1-0.6c-14.7-3.1-23.9-16.5-20.6-29.9c15.7-63.1,65.7-84.7,70.8-86.6l19.8,46.6
					c-1.2,1.1-2.3,2.2-3.3,3.4c-1,0.4-24.8,10.5-34,47.7C64.4,289.5,53.1,297.3,40.7,297.3z"/>
			</g>
			<g>
				<path class="st3" d="M39.4,289.3c-1.4,0-2.7-0.1-4.1-0.4c-9.8-2-16-11-13.7-19.9c14.8-59.4,64.9-80.7,66.9-81.5l20.3,26.9
					l0.3,0.3c-1.4,0.6-41.4,19.1-52,61.7C55.3,284,47.8,289.3,39.4,289.3z"/>
			</g>
			<g id="peito">
				<g>
					<path class="st3" d="M203.9,294.2c0,0,7.6-85.6-43.8-112.2l-56.4,2.2c-45.1,15.9-42.6,110-42.6,110L203.9,294.2z"/>
				</g>
			</g>
			<g>
				<path class="st2" d="M69.4,245.2c-1.7-1-3.9-0.5-4.9,1.2c-0.2,0.3-0.3,0.6-0.4,0.9c-2.8,10.7-5.1,25.2-5.1,44
					c0.1,1.9,1.7,3.4,3.6,3.3l0,0c1.9,0.1,3.5-1.4,3.6-3.3c0-18,2.2-32,4.9-42.2C71.5,247.6,70.8,246,69.4,245.2L69.4,245.2z"/>
			</g>
			<g>
				<path class="st2" d="M197.6,245.2c-1.5,0.8-2.2,2.5-1.8,4.1c2.6,10.2,4.8,24.1,4.9,42.2c0.1,1.9,1.7,3.4,3.6,3.3l0,0
					c1.9,0.1,3.5-1.4,3.6-3.3c0-18.8-2.3-33.3-5.1-44c-0.5-1.9-2.5-3.1-4.4-2.6C198.2,244.9,197.9,245,197.6,245.2L197.6,245.2z"/>
			</g>
		</g>
	</g>
	<g>
		<path class="st4" d="M54.8,208.2l32.1,12.5c0,0,0.8,41.5,42.3,41.5s49.3-41.5,49.3-41.5l39.9-13.8L54.8,208.2"/>
	</g>
</g>
<g id="Camada_3">
	<g>
		<path class="st5" d="M27.1,170.6h206.2c7.1,0,12.8,5.7,12.8,12.8v4.1c0,10.2-8.2,18.5-18.4,18.5c0,0,0,0,0,0H32.8
			c-10.2,0-18.5-8.3-18.5-18.5c0,0,0,0,0,0v-4.1C14.3,176.4,20.1,170.6,27.1,170.6z"/>
	</g>
	<g>
		<path class="st2" d="M223.5,211.7H37c-13.2,0-28-14.2-28-33.2v-2.1c0-6.3,4.8-11.5,10.6-11.5h221.2c5.8,0,10.6,5.2,10.6,11.5v2.1
			C251.4,197.5,236.7,211.7,223.5,211.7z M19.6,176.4v2.1c0,10,7.6,21.7,17.3,21.7h186.6c9.8,0,17.3-11.7,17.3-21.7v-2.1H19.6z"/>
	</g>
	<g>
		<path class="st6" d="M24,154.8c-4.2,2.6-6.9,7.2-7,12.1c0.3,7.4,8.1,13.3,15,11.4c6-1.6,10.3-7.8,16.5-8.3
			c8.1-0.7,14.4,8.8,22.6,8.6c8.6-0.2,12.8-9.3,21.6-8.3c5.9,0.6,9.2,5.1,13.3,6.8c17.2,6.9,17.3-13.6,32.7-4.7
			c2.4,1.4,9.7,6.8,16.7,4.7c4.2-1.3,8.8-6.5,13.3-7c12.5-1.4,15.1,8.5,23.8,8.8c8.1,0.2,12.3-9.4,20.5-8.8
			c6.1,0.5,10.5,6.7,16.4,8.3c6.9,1.9,14.7-4.1,15.1-11.4c0,0,0-8.9-7.8-13L24,154.8z"/>
	</g>
	<g>
		<path class="st2" d="M192.8,181.7h-0.3c-4.5-0.1-7.6-2.4-10.5-4.5c-3.5-2.6-6.8-4.9-12.9-4.2c-1.9,0.2-4.1,1.8-6.3,3.3
			c-2,1.5-4.2,2.8-6.5,3.6c-7.3,2.2-14.4-2.2-17.8-4.3c-0.4-0.2-0.7-0.4-0.9-0.6c-6.4-3.7-9-1.6-13,1.4c-4.2,3.3-9.5,7.3-19.4,3.4
			c-1.8-0.8-3.5-1.8-5-3c-2.4-1.7-4.7-3.3-7.7-3.6c-3.7-0.4-6.5,1.5-9.7,3.6s-6.8,4.6-11.6,4.7s-8.7-2.3-12.5-4.7
			c-3.4-2.1-6.7-4.2-10-3.9c-2.7,0.2-5.2,2-7.8,3.8s-5.1,3.6-8.2,4.4c-4.4,1.1-9.1-0.1-12.5-3c-3.4-2.7-5.5-6.7-5.8-11.1
			c0.1-6,3.2-11.6,8.4-14.8l0.6-0.4l214-0.8l0.5,0.3c9.2,4.8,9.3,15.1,9.3,15.6c-0.2,4.4-2.3,8.5-5.8,11.2c-3.5,2.9-8.1,4.1-12.6,3
			c-3.1-0.9-5.7-2.7-8.2-4.4c-2.6-1.9-5.1-3.6-7.8-3.8c-3.1-0.3-5.7,1.6-8.7,3.8C201,179,197.5,181.7,192.8,181.7z M171.1,167
			c6.5,0,10.5,2.9,13.8,5.4c2.7,1.9,4.8,3.5,7.7,3.5s5.6-1.8,8.5-3.9c3.3-2.5,7-5.3,12.1-4.8c4,0.4,7.2,2.6,10.3,4.7
			c2,1.6,4.2,2.8,6.6,3.7c5.4,1,10.6-2.6,11.6-8c0-0.3,0.1-0.5,0.1-0.8c0-0.1-0.1-6.7-5.7-9.9l-211.4,0.8c-3.1,2.1-5,5.5-5.1,9.2
			c0.2,2.6,1.5,5.1,3.7,6.7c2.2,1.9,5.2,2.7,8.1,2c2.4-0.8,4.6-2.1,6.6-3.6c3.1-2.2,6.2-4.4,10.3-4.7c5-0.4,9.1,2.1,13,4.6
			c3.2,2,6.3,3.9,9.5,3.9H71c3.4-0.1,6.1-1.9,8.9-3.8c3.5-2.4,7.5-5.1,13-4.5c4.3,0.5,7.4,2.6,10.1,4.5c1.2,0.9,2.5,1.7,3.9,2.4
			c7.2,2.9,10.6,0.3,14.5-2.7c4.2-3.2,9.3-7.2,18.6-1.8c0.3,0.2,0.7,0.4,1.1,0.7c2.8,1.7,8.5,5.3,13.7,3.8c1.8-0.7,3.5-1.7,5.1-2.9
			c2.7-1.9,5.5-3.8,8.6-4.2C169.3,167.1,170.2,167,171.1,167z"/>
	</g>
	<g>
		<path class="st7" d="M130.8,243.6L130.8,243.6c-18.8-0.1-34-15.3-34.1-34.1v-49.9c0-18.7,15.3-12.3,34.1-12.3l0,0
			c18.7,0,34.1-6.4,34.1,12.3v49.8C164.8,228.3,149.6,243.5,130.8,243.6z"/>
	</g>
	<g>
		<path class="st2" d="M130.8,247.6L130.8,247.6c-20.9-0.1-38-17.1-38.1-38v-49.9c0-6.2,1.5-10.6,4.6-13.5c5.1-4.7,13-4.1,22.1-3.4
			c3.6,0.3,7.4,0.6,11.4,0.6c3.9,0,7.7-0.3,11.4-0.6c9.1-0.7,16.9-1.3,22,3.4c3.1,2.9,4.6,7.3,4.6,13.5v49.8
			C168.8,230.5,151.7,247.5,130.8,247.6L130.8,247.6z M110.4,150.3c-3.4,0-6.1,0.4-7.6,1.8c-1.4,1.3-2.1,3.8-2.1,7.6v49.8
			c0,16.5,13.5,30,30.1,30.1c16.5-0.1,30-13.5,30-30.1v-49.8c0-3.8-0.7-6.3-2.1-7.6c-2.6-2.4-8.8-1.9-16-1.3
			c-3.6,0.3-7.7,0.6-12,0.6c-4.3,0-8.4-0.3-12-0.6C115.8,150.6,112.9,150.3,110.4,150.3z"/>
	</g>
	<g>
		<path class="st2" d="M130.1,192.6C130.1,192.6,130.1,192.6,130.1,192.6c-2.3,0-4-1.8-4-4c0.2-14.1,0.2-27.1,0-40.9
			c0-2.2,1.7-4,4-4c0,0,0,0,0,0c2.2,0,4,1.8,4,4c0.2,13.9,0.2,26.9,0,41.1C134.1,190.8,132.3,192.6,130.1,192.6z"/>
	</g>
	<g>
		<path class="st2" d="M130.1,209.5c-2.2,0-4-1.8-4-4v-4c0-2.2,1.8-4,4-4c2.2,0,4,1.8,4,4v4C134.1,207.7,132.3,209.5,130.1,209.5z"
			/>
	</g>
	<g>
		<path class="st8" d="M28,120.9h206c8.5,0,15.3,6.9,15.3,15.3v2.7c0,8.5-6.9,15.3-15.3,15.3H28c-8.5,0-15.3-6.9-15.3-15.3v-2.7
			C12.7,127.7,19.6,120.9,28,120.9z"/>
	</g>
	<g>
		<path class="st9" d="M234,157.1H28.1c-9.9,0-18-8.8-18-19.5s8.1-19.6,18-19.6H234c9.9,0,18,8.8,18,19.6S243.9,157.1,234,157.1z
			 M28.1,123.8c-7,0-12.7,6.2-12.7,13.8s5.7,13.8,12.7,13.8H234c7,0,12.7-6.2,12.7-13.8s-5.7-13.8-12.7-13.8H28.1z"/>
	</g>
	<g>
		<path class="st10" d="M41.9,119.4l32.3,30.7l34.8-30.7C109,119.4,42.7,118.5,41.9,119.4z"/>
	</g>
	<g>
		<path class="st2" d="M74.2,153.8l-36.1-34.3l2-2.2c1-1.1,1.6-1.7,68.9-0.8l7.3,0.1L74.2,153.8z M48.6,121.9l25.7,24.4l27.3-24.2
			C83.1,121.9,59.7,121.8,48.6,121.9z"/>
	</g>
	<g>
		<path class="st10" d="M155.8,119.4l32.3,30.7l34.7-30.7C222.8,119.4,156.6,118.5,155.8,119.4z"/>
	</g>
	<g>
		<path class="st2" d="M188,153.8l-36.1-34.3l2-2.2c1-1.1,1.6-1.7,68.9-0.8l7.3,0.1L188,153.8z M162.5,121.9l25.7,24.4l27.3-24.2
			C197,121.9,173.5,121.8,162.5,121.9L162.5,121.9z"/>
	</g>
	<g>
		<path class="st5" d="M243.7,99.2c0,19.8-27.5,19.5-111.9,19.5C50.7,118.7,20,122.5,20,99.2c0-40.9,50.1-74.1,111.9-74.1
			S243.7,58.3,243.7,99.2z"/>
	</g>
	<g>
		<path class="st11" d="M131.9,39.5c58.1,0,105.8,26.1,111.3,64c0.4-1.4,0.5-2.8,0.5-4.3c0-40.9-50.1-74.1-111.8-74.1
			S20,58.3,20,99.2c0,1.5,0.2,3.1,0.5,4.6C25.7,65.8,73.6,39.5,131.9,39.5z"/>
	</g>
	<g>
		<path class="st2" d="M80.5,125.2c-34.1,0-52.5-1.3-61-10.6c-3.5-3.8-5.3-8.8-5.3-14.9c0-44,49.7-79.9,117.2-79.9
			c64.6,0,117.1,35.8,117.1,79.9c0,16.5-14.2,20.8-28.1,22.8c-17.3,2.5-44.4,2.5-85.4,2.5h-3.6c-10.8,0-20.8,0.1-29.8,0.1
			C93.9,125.2,86.9,125.2,80.5,125.2z M131.3,31.4c-58.8,0-106.6,30.7-106.6,68.4c0,3.9,1.1,5.7,2.1,6.8c7,7.6,32.4,7.4,74.5,7.1
			c9.1-0.1,101-0.1,117.5-2.5c18.9-2.7,18.9-7.9,18.9-11.4C237.9,62.1,190.1,31.4,131.3,31.4z"/>
	</g>
	<g>
		<path class="st11" d="M66.1,82.5l-0.7-0.3c-1.1-0.5-1.5-1.8-1.1-2.9L68.6,68c0.4-1,1.5-1.6,2.5-1.3c0,0,0.1,0,0.1,0l0.7,0.3
			c1,0.5,1.5,1.8,1.1,2.9l-4.2,11.3c-0.3,1-1.5,1.6-2.5,1.3C66.2,82.6,66.2,82.5,66.1,82.5z"/>
	</g>
	<g>
		<path class="st11" d="M83.1,99.2l-0.7-0.3c-1.1-0.5-1.6-1.8-1.1-2.9l4.2-11.3c0.4-1,1.5-1.6,2.5-1.3c0,0,0.1,0,0.1,0l0.7,0.3
			c1.1,0.5,1.6,1.8,1.2,2.9L85.7,98c-0.3,1.1-1.5,1.6-2.5,1.3C83.2,99.3,83.1,99.3,83.1,99.2z"/>
	</g>
	<g>
		<path class="st11" d="M92.8,69.4L92,69.1c-1.1-0.5-1.5-1.8-1.1-2.9l4.3-11.3c0.4-1,1.5-1.6,2.5-1.2c0,0,0.1,0,0.1,0l0.7,0.3
			c1.1,0.5,1.5,1.8,1.1,2.9l-4.2,11.3c-0.3,1-1.5,1.6-2.5,1.3C92.8,69.5,92.8,69.4,92.8,69.4z"/>
	</g>
	<g>
		<path class="st11" d="M108.3,86.1l-0.7-0.3c-1.1-0.5-1.6-1.8-1.1-2.9l4.2-11.3c0.4-1,1.5-1.6,2.5-1.3c0,0,0.1,0,0.1,0l0.7,0.3
			c1.1,0.5,1.5,1.8,1.1,2.9L111,84.9c-0.3,1-1.5,1.6-2.5,1.3C108.4,86.1,108.4,86.1,108.3,86.1z"/>
	</g>
	<g>
		<path class="st11" d="M128.1,99.2l-0.7-0.3c-1.1-0.5-1.6-1.8-1.1-2.9l4.3-11.3c0.4-1,1.5-1.6,2.5-1.3c0,0,0.1,0,0.1,0l0.7,0.3
			c1.1,0.5,1.6,1.8,1.2,2.9L130.7,98c-0.3,1.1-1.5,1.6-2.5,1.3C128.2,99.3,128.1,99.3,128.1,99.2z"/>
	</g>
	<g>
		<path class="st11" d="M137.8,69.4l-0.7-0.3c-1.1-0.5-1.5-1.8-1.1-2.9l4.3-11.3c0.4-1,1.5-1.6,2.5-1.3c0,0,0.1,0,0.1,0l0.7,0.3
			c1.1,0.5,1.5,1.8,1.1,2.9l-4.3,11.3c-0.3,1-1.5,1.6-2.5,1.3C137.8,69.5,137.8,69.4,137.8,69.4z"/>
	</g>
	<g>
		<path class="st11" d="M153.3,86.1l-0.7-0.3c-1.1-0.5-1.6-1.8-1.1-2.9l4.3-11.3c0.4-1,1.5-1.6,2.5-1.3c0,0,0.1,0,0.1,0l0.7,0.3
			c1.1,0.5,1.5,1.8,1.1,2.9L156,84.9c-0.3,1-1.5,1.6-2.5,1.3C153.4,86.1,153.4,86.1,153.3,86.1z"/>
	</g>
	<g>
		<path class="st11" d="M170.4,99.2l-0.7-0.3c-1.1-0.5-1.5-1.8-1.1-2.9l4.2-11.3c0.4-1,1.5-1.6,2.5-1.3c0,0,0.1,0,0.1,0l0.7,0.3
			c1.1,0.5,1.5,1.8,1.1,2.9L173.1,98c-0.3,1.1-1.5,1.6-2.5,1.3C170.5,99.3,170.5,99.3,170.4,99.2z"/>
	</g>
	<g>
		<path class="st11" d="M180.1,69.4l-0.7-0.3c-1.1-0.5-1.5-1.8-1.1-2.9l4.2-11.3c0.4-1,1.5-1.6,2.5-1.3c0,0,0.1,0,0.1,0l0.7,0.3
			c1.1,0.5,1.5,1.8,1.1,2.9l-4.2,11.3c-0.4,1-1.5,1.6-2.5,1.3C180.2,69.5,180.1,69.4,180.1,69.4z"/>
	</g>
	<g>
		<path class="st11" d="M195.7,86.1l-0.7-0.3c-1.1-0.5-1.5-1.8-1.1-2.9l4.2-11.3c0.4-1,1.5-1.6,2.5-1.3c0,0,0.1,0,0.1,0l0.7,0.3
			c1.1,0.5,1.6,1.8,1.1,2.9l-4.2,11.3c-0.4,1-1.5,1.6-2.5,1.3C195.8,86.1,195.7,86.1,195.7,86.1z"/>
	</g>
	<g>
		<circle class="st12" cx="216.1" cy="49.7" r="27.1"/>
	</g>
	<g>
		<path class="st2" d="M216.1,81.6c-17.7,0-32-14.3-32.1-31.9c0-17.7,14.3-32,31.9-32.1h0.1c17.6,0,31.9,14.2,32,31.9l0,0
			c0.1,17.7-14.2,32-31.9,32.1L216.1,81.6z M216.1,27.4L216.1,27.4c-12.4,0.3-22.1,10.5-21.8,22.8c0.3,11.9,9.9,21.5,21.8,21.8h0.1
			c12.3,0,22.2-10,22.2-22.3c0,0,0,0,0,0l0,0C238.3,37.3,228.4,27.4,216.1,27.4L216.1,27.4z"/>
	</g>
	<g>
		<circle class="st2" cx="215.5" cy="49.1" r="8.9"/>
	</g>
	<g>
		<circle class="st12" cx="46.6" cy="53.1" r="27.1"/>
	</g>
	<g>
		<path class="st2" d="M46.6,85.1c-17.7,0-32-14.3-32.1-31.9c0-17.7,14.3-32,31.9-32.1h0.1c17.6,0,31.9,14.3,32,31.9l0,0
			c0.1,17.7-14.2,32-31.9,32.1L46.6,85.1z M46.6,30.8L46.6,30.8c-12.4,0.3-22.1,10.5-21.8,22.8c0.3,11.9,9.9,21.5,21.8,21.8h0.1
			c12.3,0,22.2-10,22.2-22.3c0,0,0,0,0-0.1l0,0C68.8,40.7,58.8,30.8,46.6,30.8L46.6,30.8z"/>
	</g>
	<g>
		<circle class="st2" cx="46" cy="52.6" r="8.9"/>
	</g>
	<g>
		
			<ellipse transform="matrix(0.7925 -0.6099 0.6099 0.7925 -104.5653 135.3216)" class="st12" cx="146.6" cy="221.3" rx="5.6" ry="5.1"/>
	</g>
	<g>
		
			<ellipse transform="matrix(0.7925 -0.6099 0.6099 0.7925 -113.7001 129.6605)" class="st12" cx="133.7" cy="231.9" rx="3.5" ry="3.2"/>
	</g>
</g>
</svg>
