<svg xmlns="http://www.w3.org/2000/svg" xmlns:xlink="http://www.w3.org/1999/xlink" viewBox="0 0 262.17 298.96"><defs><style>.cls-1,.cls-12,.cls-15,.cls-2,.cls-21{fill:none;}.cls-1{clip-rule:evenodd;}.cls-3{clip-path:url(#clip-path);}.cls-4{clip-path:url(#clip-path-2);}.cls-5{clip-path:url(#clip-path-3);}.cls-6{clip-path:url(#clip-path-4);}.cls-7{fill:#f23b36;}.cls-8{clip-path:url(#clip-path-5);}.cls-9{fill:#012442;}.cls-10{fill:#39d88c;}.cls-11{fill:#23ad68;}.cls-12,.cls-15,.cls-21{stroke:#012442;stroke-linecap:round;}.cls-12,.cls-21{stroke-miterlimit:10;}.cls-12,.cls-15{stroke-width:8px;}.cls-13{fill:#db45a1;}.cls-14{fill:#a32b75;}.cls-15{stroke-linejoin:round;}.cls-16{fill:#68522a;}.cls-17{fill:#edebc0;}.cls-18{fill:#fff;}.cls-19{fill:#cecece;}.cls-20{fill:#ffdf5a;}.cls-21{stroke-width:7px;}</style><clipPath id="clip-path"><path class="cls-1" d="M-477.15-467.56a30.38,30.38,0,0,0,29.53-22.67,5.89,5.89,0,0,0-5.89-7.19l-47.49.16a5.89,5.89,0,0,0-5.85,7.22,30.37,30.37,0,0,0,29.7,22.48"/></clipPath><clipPath id="clip-path-2"><path class="cls-1" d="M-448.12-488.47a28.5,28.5,0,0,0,1.19-5.81,4.07,4.07,0,0,0-4.13-4.39l-52.41.17a4.07,4.07,0,0,0-4.09,4.43,27.94,27.94,0,0,0,1.23,5.8Z"/></clipPath><clipPath id="clip-path-3"><path class="cls-1" d="M-475.93-467.46c-14,0-19.94-6.78-19.94-6.78,4.65-3.29,11.83-5.42,19.9-5.46,7,0,14.66,1.55,19.27,4.11,0,0-5.19,8.08-19.23,8.13"/></clipPath><clipPath id="clip-path-4"><path class="cls-1" d="M-451-498.67a4.05,4.05,0,0,1,4.1,4.39c-.13,1.35-2.16,10.1-10.32,19.41-1.66,2-7.21,7.37-18.67,7.41H-476c-2.34,0-10.63-.56-15.32-3.45-6.75-4.16-12.54-9.81-15-17.36a22.64,22.64,0,0,1-1.24-5.8,4.23,4.23,0,0,1,4.1-4.42l52.4-.18h0m0-7.27h-.06l-52.39.18A11.55,11.55,0,0,0-515-494.14a27.34,27.34,0,0,0,1.63,8.16c2.76,8.38,8.85,15.5,18.1,21.23,7.32,4.51,18.82,4.56,19.3,4.56h.07c14.36,0,21.78-6.95,24.35-10,9-10.28,11.75-20.36,12-23.38a11.12,11.12,0,0,0-2.94-8.65,11.72,11.72,0,0,0-8.58-3.71"/></clipPath><clipPath id="clip-path-5"><circle class="cls-2" cx="130.94" cy="171.96" r="123.33"/></clipPath></defs><g id="Camada_4" data-name="Camada 4"><circle class="cls-7" cx="131.23" cy="170.96" r="123.33"/><g class="cls-8"><path class="cls-9" d="M218.24,297.5c-12.47,0-23.73-7.85-26.62-19.44-9.27-37.2-33-47.33-34-47.74.39.16.6.22.6.22L178,184c5.19,1.85,51.16,19.87,66.89,83,3.35,13.45-5.85,26.84-20.57,29.91A29.5,29.5,0,0,1,218.24,297.5Z"/><path class="cls-10" d="M219.44,289.42c-8.31,0-15.82-5.23-17.74-12.95-10.65-42.72-44.16-57.53-44.5-57.67-9.17-3.76-13.28-13.62-9.16-22s14.89-12.15,24.07-8.39c2,.84,50.29,21.24,65.1,80.66,2.24,9-3.9,17.9-13.71,19.95A20.12,20.12,0,0,1,219.44,289.42Z"/><path class="cls-9" d="M35.65,298.33a29.53,29.53,0,0,1-6.1-.63C14.84,294.64,5.63,281.24,9,267.79c15.73-63.1,65.65-84.74,70.84-86.59l19.82,46.57a43.9,43.9,0,0,0-3.35,3.39c-1,.41-24.76,10.53-34,47.74C59.37,290.48,48.11,298.33,35.65,298.33Z"/><path class="cls-10" d="M34.44,290.26a20.14,20.14,0,0,1-4.06-.42c-9.81-2-15.95-11-13.71-19.94,14.81-59.42,64.88-80.66,66.92-81.5l20.31,26.92.3.28c-1.38.6-41.39,19.06-52,61.7C50.26,285,42.75,290.26,34.44,290.26Z"/><g id="peito"><path class="cls-10" d="M194.23,297.51s7.64-85.63-43.81-112.23L94,187.53c-45.06,15.92-42.6,110-42.6,110Z"/></g><path class="cls-11" d="M35.49,228.85c64.56,58.23,165.52,28.49,184.73,1.84-13.73-24.22-45.94-49-63.87-41.91-9.9-9.69-64.63,3.36-72.5-.25C81.28,190.44,57,199.43,35.49,228.85Z"/><path class="cls-9" d="M64.4,246.19a3.6,3.6,0,0,0-5.33,2.18c-2.8,10.7-5.11,25.23-5.11,44a3.5,3.5,0,0,0,3.64,3.34h0a3.5,3.5,0,0,0,3.64-3.33c0-18,2.23-32,4.88-42.18a3.6,3.6,0,0,0-1.66-4Z"/><path class="cls-9" d="M192.59,246.18a3.59,3.59,0,0,0-1.8,4.08c2.63,10.18,4.84,24.09,4.85,42.16a3.5,3.5,0,0,0,3.64,3.33h0a3.51,3.51,0,0,0,3.64-3.34c0-18.8-2.32-33.31-5.11-44a3.59,3.59,0,0,0-5.14-2.26Z"/></g></g><g id="Camada_3" data-name="Camada 3"><path class="cls-10" d="M239.05,93.77l-.63-.25c-4.58-1.85-9.24-3.49-13.95-5a236.56,236.56,0,0,0-26.19-6.45c-4.12-.78-8.27-1.52-12.42-2.08l-3.44-.42q-3.34-.4-6.7-.75c-17.45-1.81-34.94-2.06-52.44-3-3.35-.18-6.71-.34-10.07-.46-16.4,7-33.88,9.57-51.53,11.36-4.52.46-9,.84-13.58,1.19-3,1.47-15.39-.14-18.37,1.23-5.8,2.66-2.05,8.09-8,9.76q-.12,2.37-.12,4.77v24.5c0,107.1,49,113.91,109,113.91h0c59.92,0,109-5.21,109-113.91v-24.5C239.54,100.37,239.37,97.05,239.05,93.77Z"/><path class="cls-12" d="M239.54,97.58v30.65c0,108.7-49,113.91-108.95,113.91h0c-59.93,0-108.95-10.82-108.95-113.91V97.58"/><path class="cls-12" d="M239.37,97c0,15.59-50.08,23.78-109.51,23.78C56.68,120.78,22.25,111,22.25,97c0-10.3,50.08-18.65,109.51-18.65S239.37,86.7,239.37,97Z"/><path class="cls-13" d="M218.2,57a135.43,135.43,0,0,0-13.88-1.68,29.28,29.28,0,0,0,1.23-11.35c-.65-4.87-7.27-8.85-11.21-11.83-7.73-5.84-13.85-2.45-21.91,1.34,2.47-7.53,1.4-13.42.7-14.65-2.63-4.56-10.74-7.24-15.63-9.15-11.41-4.45-29,7.75-29.95,7.68l-.12,1v-1c-.94.07-18.55-12.13-30-7.68-4.89,1.91-13,4.59-15.62,9.15-.71,1.23-1.77,7.12.69,14.65-8.06-3.79-14.18-7.18-21.9-1.34-4,3-10.57,7-11.22,11.83a29.47,29.47,0,0,0,1.23,11.35A135.43,135.43,0,0,0,36.77,57c-6.23,2.83-11.42,17.09-11.29,21.85.1,3.83,6.49,15,13.16,17.61,9.26,3.56,53.88,8,78.73,9.08l0,.23c1.46,0,3.19,0,5.12-.06s3.51.07,5,.06v-.22c26.77-1,79.59-5.51,88.9-9.09,6.67-2.57,13.06-13.78,13.16-17.61C229.62,74.05,224.44,59.79,218.2,57Z"/><path class="cls-14" d="M221.72,76.59c-10.6,2.37-21.26,4.48-32,6-4.23.61-8.47,1.15-12.71,1.7l-.77.1-7.92,1.06c-5.5.71-11,1.36-16.56,1.65-11,.58-22.12-.23-33.15-.17s-22.19.24-33.3-.59A203,203,0,0,1,51,81.25c-8.41-2.11-16.2-5.91-24.32-8.85a22.5,22.5,0,0,0-1.24,6.41c.1,3.83,6.49,15,13.16,17.61,9.26,3.56,53.88,8,78.73,9.08l0,.23c1.46,0,3.19,0,5.12-.06s3.51.07,5,.06v-.22c26.77-1,79.59-5.51,88.9-9.09,6.67-2.57,13.06-13.78,13.16-17.61a16.4,16.4,0,0,0-.55-4C226.54,75.47,224.14,76.05,221.72,76.59Z"/><path class="cls-12" d="M220.1,57a135.43,135.43,0,0,0-13.88-1.68,29.28,29.28,0,0,0,1.23-11.35c-.65-4.87-7.27-8.85-11.22-11.83-7.72-5.84-13.84-2.45-21.9,1.34,2.47-7.53,1.4-13.42.69-14.65-2.62-4.56-10.73-7.24-15.62-9.15-11.41-4.45-29,7.75-30,7.68l-.12,1v-1c-.94.07-18.55-12.13-30-7.68-4.89,1.91-13,4.59-15.62,9.15C83,20,82,25.91,84.44,33.44c-8.06-3.79-14.18-7.18-21.9-1.34-3.95,3-10.57,7-11.22,11.83a29.28,29.28,0,0,0,1.23,11.35A135.43,135.43,0,0,0,38.67,57c-6.23,2.83-11.42,17.09-11.29,21.85.1,3.83,5.49,13.13,12.21,15.56,46.81,16.88,151.42,7.84,176.74,1,6.87-1.85,15-12.75,15.06-16.58C231.52,74.05,226.33,59.79,220.1,57Z"/><path class="cls-15" d="M52.55,55.28s12.63,9.53,19.57,9.89c0,0,1.49,11.23,5.2,16.71"/><path class="cls-15" d="M83.87,33.43c4.3,2.29,4.23,3,11.12,5.76,0,0-.41,11.23,3.3,16.71"/><path class="cls-15" d="M52.43,79.92s1.48,15.24,8.92,19.26"/><path class="cls-15" d="M104,101.92c7.08-6.16,3.28-17.43-1.94-23.87"/><path class="cls-15" d="M206.45,55.28s-9.78,8.51-16.72,8.87c0,0-1.48,11.23-5.2,16.71"/><path class="cls-15" d="M175.14,33.43c-4.3,2.29-1.38,1.94-8.28,4.73,0,0,.42,11.23-3.3,16.72"/><path class="cls-15" d="M206.58,79.92s-1.49,15.24-8.92,19.26"/><path class="cls-15" d="M156,101.92c-7.07-6.16-3.28-17.43,1.95-23.87"/><path class="cls-15" d="M126.48,17.32s2.07,13.44-6.1,19.06"/><path class="cls-15" d="M131.06,17.32s-2.08,13.44,6.1,19.06"/><path class="cls-15" d="M108.08,84.51S118.52,85.63,120,72.79s-6-19.25-6-19.25"/><path class="cls-15" d="M152.49,85.54S142,86.65,140.56,73.82s5.94-19.26,5.94-19.26"/><path class="cls-16" d="M90,192.83c1.07,7.85,7.19,14.75,15,18.74s17.1,5.3,26.12,5c9.39-.33,24.26-2.43,32.18-6.86,7.39-4.14,17.74-14.83,8.36-26-6.23-7.43-19.94-1.76-28.52-3.44-11.13-2.17-20.88-8.81-32.78-8.43C97.65,172.18,88.49,181.73,90,192.83Z"/><path class="cls-17" d="M125.54,214.31a6.9,6.9,0,0,0,.3-2.1V208.1a8.33,8.33,0,0,0-16.66,0v4.11a6.72,6.72,0,0,0,.4,2.34C114.88,214.32,120.19,214.31,125.54,214.31Z"/><path class="cls-9" d="M112.16,214.45a3.48,3.48,0,0,1-.67-2.24V208.1a6,6,0,0,1,12.05,0v4.11a3.59,3.59,0,0,1-.57,2.1h2.61a6.88,6.88,0,0,1,2.24.36,9.25,9.25,0,0,0,.33-2.46V208.1a10.64,10.64,0,1,0-21.27,0v4.11a8.84,8.84,0,0,0,.33,2.45C108.86,214.56,110.51,214.5,112.16,214.45Z"/><path class="cls-17" d="M161.24,214.73a7,7,0,0,0,.31-2.1v-4.12a8.33,8.33,0,0,0-16.66,0v4.12a6.72,6.72,0,0,0,.39,2.33C150.59,214.74,155.9,214.72,161.24,214.73Z"/><path class="cls-9" d="M147.86,214.87a3.52,3.52,0,0,1-.67-2.24v-4.12a6,6,0,0,1,12.05,0v4.12a3.59,3.59,0,0,1-.57,2.1h2.61a6.83,6.83,0,0,1,2.24.36,8.92,8.92,0,0,0,.33-2.46v-4.12a10.64,10.64,0,1,0-21.27,0v4.12a8.77,8.77,0,0,0,.33,2.44C144.56,215,146.21,214.92,147.86,214.87Z"/><path class="cls-17" d="M97.22,176a7,7,0,0,0-.31,2.1v4.12a8.33,8.33,0,1,0,16.66,0v-4.12a6.48,6.48,0,0,0-.4-2.33C107.87,176,102.56,176.05,97.22,176Z"/><path class="cls-9" d="M110.6,175.9a3.52,3.52,0,0,1,.66,2.24v4.12a6,6,0,0,1-12,0v-4.12a3.66,3.66,0,0,1,.56-2.1h-2.6a6.83,6.83,0,0,1-2.24-.36,8.92,8.92,0,0,0-.34,2.46v4.12a10.64,10.64,0,0,0,21.28,0v-4.12a9.16,9.16,0,0,0-.33-2.44C113.9,175.79,112.25,175.85,110.6,175.9Z"/><path class="cls-17" d="M116.19,175.67a6.68,6.68,0,0,0-.31,2.1v4.12a8.33,8.33,0,1,0,16.66,0v-4.12a6.48,6.48,0,0,0-.4-2.33C126.84,175.66,121.53,175.68,116.19,175.67Z"/><path class="cls-9" d="M129.56,175.53a3.46,3.46,0,0,1,.67,2.24v4.12a6,6,0,0,1-12,0v-4.12a3.59,3.59,0,0,1,.56-2.1h-2.6a6.79,6.79,0,0,1-2.24-.36,8.92,8.92,0,0,0-.34,2.46v4.12a10.64,10.64,0,0,0,21.28,0v-4.12a9.16,9.16,0,0,0-.33-2.44C132.87,175.42,131.22,175.48,129.56,175.53Z"/><path class="cls-17" d="M148.13,179.56a6.88,6.88,0,0,0-.31,2.1v4.11a8.33,8.33,0,1,0,16.66,0v-4.11a6.5,6.5,0,0,0-.4-2.34C158.78,179.55,153.47,179.56,148.13,179.56Z"/><path class="cls-9" d="M161.51,179.42a3.48,3.48,0,0,1,.66,2.24v4.11a6,6,0,1,1-12,0v-4.11a3.64,3.64,0,0,1,.56-2.11h-2.6a7.35,7.35,0,0,1-2.24-.36,8.86,8.86,0,0,0-.34,2.46v4.11a10.64,10.64,0,1,0,21.28,0v-4.11a9.24,9.24,0,0,0-.33-2.45Q164,179.35,161.51,179.42Z"/><path class="cls-12" d="M89.84,193.85c1.08,7.85,7.23,14.75,15.08,18.74s17.2,5.3,26.28,5c9.45-.34,24.41-2.43,32.38-6.86,7.44-4.14,17.86-14.83,8.41-26-6.27-7.43-20.06-1.77-28.69-3.44-11.21-2.17-21-8.81-33-8.43C97.53,173.2,88.31,182.74,89.84,193.85Z"/><ellipse class="cls-18" cx="189.47" cy="45.77" rx="7.38" ry="6.24" transform="translate(83.65 209.47) rotate(-70.7)"/><ellipse class="cls-18" cx="174.33" cy="60.35" rx="4.61" ry="3.9" transform="translate(59.75 204.94) rotate(-70.7)"/><path class="cls-19" d="M128.44,132.64a12.23,12.23,0,0,1-12.21-12.22v-20a12.22,12.22,0,1,1,24.43,0v20A12.23,12.23,0,0,1,128.44,132.64Z"/><path class="cls-9" d="M128.44,92.25a8.25,8.25,0,0,1,8.22,8.22v20a8.22,8.22,0,0,1-16.43,0v-20a8.24,8.24,0,0,1,8.21-8.22m0-8a16.23,16.23,0,0,0-16.21,16.22v20a16.22,16.22,0,0,0,32.43,0v-20a16.24,16.24,0,0,0-16.22-16.22Z"/><path class="cls-19" d="M66.75,132.64a12.23,12.23,0,0,1-12.22-12.22v-20a12.22,12.22,0,0,1,24.44,0v20A12.23,12.23,0,0,1,66.75,132.64Z"/><path class="cls-9" d="M66.75,92.25A8.25,8.25,0,0,1,75,100.47v20a8.22,8.22,0,0,1-16.44,0v-20a8.25,8.25,0,0,1,8.22-8.22m0-8a16.24,16.24,0,0,0-16.22,16.22v20a16.22,16.22,0,0,0,32.44,0v-20A16.24,16.24,0,0,0,66.75,84.25Z"/><path class="cls-19" d="M188.14,132.64a12.23,12.23,0,0,1-12.22-12.22v-20a12.22,12.22,0,0,1,24.44,0v20A12.23,12.23,0,0,1,188.14,132.64Z"/><path class="cls-9" d="M188.14,92.25a8.25,8.25,0,0,1,8.22,8.22v20a8.22,8.22,0,0,1-16.44,0v-20a8.25,8.25,0,0,1,8.22-8.22m0-8a16.24,16.24,0,0,0-16.22,16.22v20a16.22,16.22,0,0,0,32.44,0v-20a16.24,16.24,0,0,0-16.22-16.22Z"/><circle class="cls-10" cx="66.52" cy="153.02" r="30.53"/><path class="cls-20" d="M36.1,150.51c-.07.83-.11,1.66-.11,2.51a30.53,30.53,0,1,0,61.06,0c0-.85,0-1.68-.11-2.51Z"/><circle class="cls-21" cx="66.55" cy="153.79" r="30.53"/><line class="cls-21" x1="37.56" y1="152.18" x2="94.22" y2="152.18"/><path class="cls-9" d="M49.53,151.14a17.14,17.14,0,0,0-.29,3.14,17.63,17.63,0,0,0,35.25,0,18.06,18.06,0,0,0-.28-3.14Z"/><circle class="cls-10" cx="190.64" cy="153.02" r="30.53"/><path class="cls-20" d="M160.22,150.51c-.07.83-.11,1.66-.11,2.51a30.53,30.53,0,0,0,61.06,0c0-.85,0-1.68-.11-2.51Z"/><circle class="cls-21" cx="190.67" cy="153.79" r="30.53"/><line class="cls-21" x1="161.68" y1="152.18" x2="218.34" y2="152.18"/><path class="cls-9" d="M173.65,151.14a17.14,17.14,0,0,0-.29,3.14,17.63,17.63,0,0,0,35.26,0,18.06,18.06,0,0,0-.29-3.14Z"/></g></svg>