<svg xmlns="http://www.w3.org/2000/svg" xmlns:xlink="http://www.w3.org/1999/xlink" viewBox="0 0 262.17 298.96"><defs><style>.cls-1,.cls-11,.cls-14,.cls-2,.cls-20{fill:none;}.cls-1{clip-rule:evenodd;}.cls-3{clip-path:url(#clip-path);}.cls-4{clip-path:url(#clip-path-2);}.cls-5{clip-path:url(#clip-path-3);}.cls-6{clip-path:url(#clip-path-4);}.cls-7{fill:#bc3b85;}.cls-8{fill:#2ecc56;}.cls-9{fill:#012442;}.cls-10{fill:#17a535;}.cls-11,.cls-14,.cls-20{stroke:#012442;stroke-miterlimit:10;}.cls-11,.cls-14{stroke-linecap:round;}.cls-11{stroke-width:8px;}.cls-12{fill:#fff;}.cls-13{fill:#f7c434;}.cls-14{stroke-width:9px;}.cls-15{fill:#228931;}.cls-16{fill:#3aaf4e;}.cls-17{clip-path:url(#clip-path-5);}.cls-18{fill:#1a5faa;}.cls-19{clip-path:url(#clip-path-6);}.cls-20{stroke-width:6px;}.cls-21{fill:#c16b16;}</style><clipPath id="clip-path"><path class="cls-1" d="M-795.86-469a30.4,30.4,0,0,0,29.54-22.68,5.89,5.89,0,0,0-5.9-7.18l-47.48.16a5.89,5.89,0,0,0-5.86,7.21A30.4,30.4,0,0,0-795.86-469"/></clipPath><clipPath id="clip-path-2"><path class="cls-1" d="M-766.83-489.89a28,28,0,0,0,1.19-5.81,4.06,4.06,0,0,0-4.12-4.4l-52.41.18a4.07,4.07,0,0,0-4.09,4.42,27.82,27.82,0,0,0,1.22,5.8Z"/></clipPath><clipPath id="clip-path-3"><path class="cls-1" d="M-794.63-468.89c-14,.05-19.94-6.77-19.94-6.77,4.65-3.3,11.82-5.43,19.89-5.46,7,0,14.66,1.55,19.27,4.1,0,0-5.19,8.08-19.22,8.13"/></clipPath><clipPath id="clip-path-4"><path class="cls-1" d="M-769.75-500.1a4.07,4.07,0,0,1,4.11,4.4c-.14,1.34-2.16,10.1-10.32,19.4-1.67,2-7.21,7.37-18.68,7.41h0c-2.34,0-10.64-.56-15.32-3.44-6.75-4.17-12.54-9.82-15-17.36a22.76,22.76,0,0,1-1.24-5.8,4.22,4.22,0,0,1,4.09-4.43l52.4-.18h0m0-7.27h0l-52.39.19a11.54,11.54,0,0,0-11.53,11.62,27.51,27.51,0,0,0,1.63,8.15c2.77,8.38,8.85,15.51,18.11,21.23,7.31,4.51,18.81,4.56,19.3,4.56h.07c14.35,0,21.77-6.95,24.35-10,9-10.27,11.74-20.36,12-23.38a11.17,11.17,0,0,0-2.95-8.65,11.74,11.74,0,0,0-8.58-3.71"/></clipPath><clipPath id="clip-path-5"><circle class="cls-2" cx="173.82" cy="138.35" r="28.57"/></clipPath><clipPath id="clip-path-6"><circle class="cls-2" cx="85.29" cy="138.35" r="28.57"/></clipPath></defs><g id="Camada_4" data-name="Camada 4"><circle class="cls-7" cx="131.09" cy="173.93" r="123.33"/><path class="cls-8" d="M173.3,199.92,131,201.07l-42.28-1.15C41.78,205.79,28.87,242,28.87,242,63.48,296,122,297.73,132,297.73c8.72,0,67.63,1.41,101.15-56.72C233.17,241,220.26,205.79,173.3,199.92Z"/><path class="cls-9" d="M63.56,279.21a149.39,149.39,0,0,1,3.91-22.35,3.61,3.61,0,0,0-1.66-4l-.07,0A3.6,3.6,0,0,0,60.41,255a150,150,0,0,0-3.51,18.34Q60.28,276.22,63.56,279.21Z"/><path class="cls-9" d="M196.44,281.14q3.48-2.59,6.85-5.34A154.64,154.64,0,0,0,199.16,252a3.59,3.59,0,0,0-5.14-2.27l-.08.05a3.57,3.57,0,0,0-1.8,4.07A154.77,154.77,0,0,1,196.44,281.14Z"/><path class="cls-10" d="M49,219s-10.78,29.65,82.43,29.65c99.31,0,82.44-31.74,82.44-31.74S116.82,164.75,49,219Z"/><path class="cls-11" d="M232.17,242s-12.91-35.22-59.87-41.09L130,199.07l-42.28,1.85C40.78,206.79,30.87,240,30.87,240"/></g><g id="Camada_3" data-name="Camada 3"><ellipse class="cls-12" cx="107.97" cy="59.95" rx="6.23" ry="6.95" transform="matrix(0.61, -0.79, 0.79, 0.61, -5.39, 108.96)"/><ellipse class="cls-12" cx="123.86" cy="73.01" rx="3.9" ry="4.34" transform="translate(-9.54 126.65) rotate(-52.42)"/><path class="cls-13" d="M217.25,101.15c-4.75-26.61-31.32-45.33-85.05-45.33C79.5,55.82,47.8,69,44.92,98.27c-2.06,20.93-11,105.52-11.06,106.38-2.54,33.37,45.18,55,99,55s95.83-22.58,95.83-55C228.67,203.77,217.27,101.26,217.25,101.15Z"/><path class="cls-14" d="M217.25,101.15c-4.75-26.61-31.32-45.33-85.05-45.33C79.5,55.82,47.8,69,44.92,98.27c-2.06,20.93-11,105.52-11.06,106.38-2.54,33.37,45.18,55,99,55s95.83-22.58,95.83-55C228.67,203.77,217.27,101.26,217.25,101.15Z"/><path class="cls-15" d="M114.29,77.65S93.11,61.23,83.34,22.33c0,0,23.63-.87,50.48,41.49S114.29,77.65,114.29,77.65Z"/><path class="cls-15" d="M141.23,77.65s21.19-16.42,31-55.32c0,0-23.63-.87-50.47,41.49S141.23,77.65,141.23,77.65Z"/><path class="cls-16" d="M128.61,93.69s-33.73-6-55.69-44.95c0,0,24.41,3.61,42.71,14.85,0,0-5.54-21.77,14-51.16,0,0,17.21,20.59,17.21,49.12,0,0,16.06-12.81,45.35-8.49C192.17,53.06,177.43,77.27,128.61,93.69Z"/><path class="cls-9" d="M129.61,12.43a83.63,83.63,0,0,1,13.25,25.19c16.07-14.9,28-15.3,29.22-15.3h.1A127.83,127.83,0,0,1,158.9,55.56a66.46,66.46,0,0,1,21.43-3.39,81.43,81.43,0,0,1,11.84.89s-14.74,24.21-63.56,40.63c0,0-33.73-6-55.69-44.95a144.5,144.5,0,0,1,23.17,5.89,128.33,128.33,0,0,1-12.75-32.3h.11c1.33,0,15.13.47,33.17,19.18a89.21,89.21,0,0,1,13-29.07m0-8h-.43A8,8,0,0,0,123,8a106,106,0,0,0-10.17,19.16C97.53,15.05,86,14.32,83.45,14.32h-.4a8.08,8.08,0,0,0-7.47,9.94,145.06,145.06,0,0,0,5.74,17.94c-4.26-.94-7-1.35-7.23-1.38a7.68,7.68,0,0,0-1.17-.09,8,8,0,0,0-7,11.93c23.55,41.7,59.72,48.62,61.25,48.9a8.39,8.39,0,0,0,1.41.12,7.88,7.88,0,0,0,2.55-.42c51-17.15,67.18-43,67.85-44a8,8,0,0,0-5.67-12.07,89.2,89.2,0,0,0-13-1q-3.57,0-7.05.31a143.23,143.23,0,0,0,6.66-20.21,8.06,8.06,0,0,0-7.47-9.94h-.39c-2.2,0-12.27.58-25.84,10.22A85.72,85.72,0,0,0,135.75,7.3a8,8,0,0,0-6.14-2.87Z"/><circle class="cls-12" cx="173.82" cy="138.35" r="28.57"/><g class="cls-17"><path class="cls-18" d="M190.66,109.86a28.58,28.58,0,0,0-25.87,16.44l19.49,12.54L164.11,149a28.57,28.57,0,1,0,26.55-39.14Z"/></g><circle class="cls-11" cx="173.82" cy="138.35" r="30"/><circle class="cls-12" cx="85.29" cy="138.35" r="28.57"/><g class="cls-19"><path class="cls-18" d="M104,109.86A28.56,28.56,0,0,0,78.1,126.3l19.48,12.54L77.42,149A28.57,28.57,0,1,0,104,109.86Z"/></g><circle class="cls-11" cx="85.29" cy="138.35" r="30"/><path class="cls-12" d="M154.87,199.45a16.78,16.78,0,0,0,4.13-4.64,14,14,0,0,0-.86-15.48,9.7,9.7,0,0,0-4.63-3.48c-2.57-.84-5.4-.24-7.9.76s-10.84,4.28-17.43,4.28-14.16-3.27-16.66-4.28-5.33-1.6-7.9-.76A9.7,9.7,0,0,0,99,179.33a14,14,0,0,0-.86,15.48,17.9,17.9,0,0,0,4.13,4.64c10.81,8.67,26.47,8.66,26.47,8.66A44.64,44.64,0,0,0,154.87,199.45Z"/><path class="cls-20" d="M154.87,199.45a16.78,16.78,0,0,0,4.13-4.64,14,14,0,0,0-.86-15.48,9.7,9.7,0,0,0-4.63-3.48c-2.57-.84-5.4-.24-7.9.76s-10.84,4.28-17.43,4.28-14.16-3.27-16.66-4.28-5.33-1.6-7.9-.76A9.7,9.7,0,0,0,99,179.33a14,14,0,0,0-.86,15.48,17.9,17.9,0,0,0,4.13,4.64c10.81,8.67,26.47,8.66,26.47,8.66A44.64,44.64,0,0,0,154.87,199.45Z"/><line class="cls-20" x1="109.63" y1="174.75" x2="109.63" y2="201.77"/><line class="cls-20" x1="121.94" y1="178.17" x2="121.94" y2="205.19"/><line class="cls-20" x1="136.28" y1="179.78" x2="136.28" y2="206.8"/><line class="cls-20" x1="148.67" y1="178.17" x2="148.67" y2="205.19"/><path class="cls-21" d="M200.68,200.74l5.95-7.63a3.5,3.5,0,0,0-5.52-4.31l-4.87,6.25-4.87-6.25a3.5,3.5,0,0,0-5.52,4.31l6,7.63-6,7.63a3.49,3.49,0,0,0,.61,4.91,3.44,3.44,0,0,0,2.15.74,3.48,3.48,0,0,0,2.76-1.35l4.87-6.24,4.87,6.24a3.5,3.5,0,0,0,5.52-4.3Z"/><path class="cls-21" d="M176.28,212.76a3.49,3.49,0,0,0-4.91.61l-4.87,6.24-4.87-6.24a3.5,3.5,0,1,0-5.52,4.3l5.95,7.63-5.95,7.63a3.5,3.5,0,0,0,.61,4.92,3.46,3.46,0,0,0,2.15.74,3.51,3.51,0,0,0,2.76-1.35L166.5,231l4.87,6.25a3.5,3.5,0,1,0,5.52-4.31l-5.95-7.63,5.95-7.63A3.49,3.49,0,0,0,176.28,212.76Z"/><path class="cls-21" d="M74,187.72a3.49,3.49,0,0,0-4.91.61l-4.87,6.24-4.87-6.24a3.5,3.5,0,1,0-5.52,4.3l5.95,7.63-5.95,7.63a3.5,3.5,0,0,0,5.52,4.31L64.24,206l4.87,6.25a3.5,3.5,0,0,0,5.52-4.31l-5.95-7.63,5.95-7.63A3.49,3.49,0,0,0,74,187.72Z"/><path class="cls-21" d="M103.15,213.2a3.5,3.5,0,0,0-4.91.6l-4.87,6.25L88.5,213.8A3.5,3.5,0,0,0,83,218.11l6,7.63-6,7.63a3.5,3.5,0,1,0,5.52,4.3l4.87-6.24,4.87,6.24a3.5,3.5,0,0,0,5.52-4.3l-6-7.63,6-7.63A3.49,3.49,0,0,0,103.15,213.2Z"/><path class="cls-21" d="M140.15,223.2a3.5,3.5,0,0,0-4.91.6l-4.87,6.25-4.87-6.25a3.5,3.5,0,0,0-5.52,4.31l6,7.63-6,7.63a3.5,3.5,0,1,0,5.52,4.3l4.87-6.24,4.87,6.24a3.5,3.5,0,0,0,5.52-4.3l-5.95-7.63,5.95-7.63A3.49,3.49,0,0,0,140.15,223.2Z"/></g></svg>