<svg xmlns="http://www.w3.org/2000/svg" xmlns:xlink="http://www.w3.org/1999/xlink" viewBox="0 0 262.17 298.96"><defs><style>.cls-1,.cls-10,.cls-15,.cls-16{fill:none;}.cls-1{clip-rule:evenodd;}.cls-2{clip-path:url(#clip-path);}.cls-3{clip-path:url(#clip-path-2);}.cls-4{clip-path:url(#clip-path-3);}.cls-5{clip-path:url(#clip-path-4);}.cls-6{fill:#bc3b85;}.cls-7{fill:#2ecc56;}.cls-8{fill:#012442;}.cls-9{fill:#17a535;}.cls-10,.cls-13,.cls-14,.cls-15,.cls-16,.cls-18{stroke:#012442;}.cls-10,.cls-14,.cls-15,.cls-16{stroke-linecap:round;}.cls-10,.cls-13,.cls-14,.cls-18{stroke-miterlimit:10;}.cls-10,.cls-15{stroke-width:8px;}.cls-11{fill:#ef6237;}.cls-12{fill:#c94020;}.cls-13,.cls-14,.cls-17{fill:#f7c434;}.cls-13,.cls-14,.cls-16,.cls-18{stroke-width:7px;}.cls-15,.cls-16{stroke-linejoin:round;}.cls-18{fill:#fff;}</style><clipPath id="clip-path"><path class="cls-1" d="M-1108.9-464.29A30.39,30.39,0,0,0-1079.36-487a5.9,5.9,0,0,0-5.9-7.19l-47.48.16a5.9,5.9,0,0,0-5.86,7.22,30.37,30.37,0,0,0,29.7,22.48"/></clipPath><clipPath id="clip-path-2"><path class="cls-1" d="M-1079.87-485.2a28.5,28.5,0,0,0,1.19-5.81,4.07,4.07,0,0,0-4.13-4.39l-52.41.17a4.06,4.06,0,0,0-4.08,4.43,28,28,0,0,0,1.22,5.8Z"/></clipPath><clipPath id="clip-path-3"><path class="cls-1" d="M-1107.68-464.19c-14,0-19.93-6.78-19.93-6.78,4.64-3.29,11.82-5.42,19.89-5.46,7,0,14.66,1.55,19.27,4.11,0,0-5.19,8.08-19.23,8.13"/></clipPath><clipPath id="clip-path-4"><path class="cls-1" d="M-1082.79-495.4a4.07,4.07,0,0,1,4.11,4.39c-.14,1.35-2.17,10.1-10.32,19.41-1.67,2-7.22,7.37-18.68,7.41h0c-2.34,0-10.63-.56-15.31-3.45-6.76-4.16-12.55-9.81-15-17.36a23,23,0,0,1-1.25-5.8,4.23,4.23,0,0,1,4.1-4.42l52.4-.18h0m0-7.27h0l-52.4.18a11.55,11.55,0,0,0-11.52,11.62,27.34,27.34,0,0,0,1.63,8.16c2.76,8.38,8.85,15.5,18.11,21.23,7.31,4.51,18.81,4.56,19.29,4.56h.08c14.35,0,21.77-6.95,24.35-10,9-10.28,11.74-20.36,12-23.38a11.16,11.16,0,0,0-3-8.65,11.72,11.72,0,0,0-8.58-3.71"/></clipPath></defs><g id="Camada_4" data-name="Camada 4"><circle class="cls-6" cx="131.09" cy="173.93" r="123.33"/><path class="cls-7" d="M173.3,199.92,131,201.07l-42.28-1.15C41.78,205.79,28.87,242,28.87,242,63.48,296,122,297.73,132,297.73c8.72,0,67.63,1.41,101.15-56.72C233.17,241,220.26,205.79,173.3,199.92Z"/><path class="cls-8" d="M63.56,279.21a149.39,149.39,0,0,1,3.91-22.35,3.61,3.61,0,0,0-1.66-4l-.07,0A3.6,3.6,0,0,0,60.41,255a150,150,0,0,0-3.51,18.34Q60.28,276.22,63.56,279.21Z"/><path class="cls-8" d="M196.44,281.14q3.48-2.59,6.85-5.34A154.64,154.64,0,0,0,199.16,252a3.59,3.59,0,0,0-5.14-2.27l-.08.05a3.57,3.57,0,0,0-1.8,4.07A154.77,154.77,0,0,1,196.44,281.14Z"/><path class="cls-9" d="M49,219s-10.78,29.65,82.43,29.65c99.31,0,82.44-31.74,82.44-31.74S116.82,164.75,49,219Z"/><path class="cls-10" d="M232.17,242s-12.91-35.22-59.87-41.09L130,199.07l-42.28,1.85C40.78,206.79,30.87,240,30.87,240"/></g><g id="Camada_3" data-name="Camada 3"><path class="cls-11" d="M227.49,136.56c.18,58.35-57.69,115.56-95.15,115.72-38,.16-95.78-50.15-96-108.5S80.7,32.2,130.73,32C183,31.76,227.31,78.23,227.49,136.56Z"/><path class="cls-10" d="M227.49,136.56c.18,58.35-57.69,115.56-95.15,115.72-38,.16-95.78-50.15-96-108.5S80.7,32.2,130.73,32C183,31.76,227.31,78.23,227.49,136.56Z"/><ellipse class="cls-12" cx="131.85" cy="161.11" rx="75.01" ry="31.7"/><ellipse class="cls-13" cx="131.85" cy="153.43" rx="75.01" ry="24"/><path class="cls-14" d="M78.89,151.7s47,19.2,105.43,0"/><path class="cls-11" d="M43.47,150.68l-30.13-1.8s-.1,26.25,23.39,57.85l17.52-22.19Z"/><path class="cls-15" d="M43,147.73l-29.61,1.15s-.1,26.25,23.39,57.85l20-19.59"/><line class="cls-16" x1="18.04" y1="170.12" x2="37.81" y2="163.57"/><line class="cls-16" x1="27.71" y1="187.49" x2="43.55" y2="176.72"/><path class="cls-12" d="M95.26,45.61S119,50.39,129.92,85.85l4.2-.1s11.44-31,32.58-41.92C167.39,43.47,126,25.83,95.26,45.61Z"/><path class="cls-11" d="M218.62,150.68l30.13-1.8s.1,26.25-23.39,57.85l-17.52-22.19Z"/><path class="cls-15" d="M219.14,147.73l29.61,1.15s.1,26.25-23.39,57.85l-20-19.59"/><line class="cls-16" x1="244.05" y1="170.12" x2="224.28" y2="163.57"/><line class="cls-16" x1="234.38" y1="187.49" x2="218.54" y2="176.72"/><path class="cls-12" d="M99.09,219.74a3.68,3.68,0,0,1-2.76-1.19L81.07,201.34a2.84,2.84,0,0,1,.6-4.32,3.84,3.84,0,0,1,4.92.53l15.26,17.22a2.84,2.84,0,0,1-.61,4.32A3.8,3.8,0,0,1,99.09,219.74Z"/><path class="cls-12" d="M83.82,219.74a3.8,3.8,0,0,1-2.15-.65,2.84,2.84,0,0,1-.6-4.32l15.26-17.22a3.82,3.82,0,0,1,4.91-.53,2.84,2.84,0,0,1,.61,4.32L86.59,218.55A3.69,3.69,0,0,1,83.82,219.74Z"/><path class="cls-12" d="M137.09,230.3a3.68,3.68,0,0,1-2.76-1.19L119.07,211.9a2.85,2.85,0,0,1,.6-4.33,3.85,3.85,0,0,1,4.92.54l15.26,17.21a2.84,2.84,0,0,1-.61,4.32A3.81,3.81,0,0,1,137.09,230.3Z"/><path class="cls-12" d="M121.82,230.3a3.81,3.81,0,0,1-2.15-.66,2.84,2.84,0,0,1-.6-4.32l15.26-17.21a3.84,3.84,0,0,1,4.91-.54,2.85,2.85,0,0,1,.61,4.33l-15.26,17.21A3.69,3.69,0,0,1,121.82,230.3Z"/><path class="cls-12" d="M178.09,218.86a3.68,3.68,0,0,1-2.76-1.19l-15.26-17.21a2.84,2.84,0,0,1,.6-4.32,3.84,3.84,0,0,1,4.92.53l15.26,17.22a2.84,2.84,0,0,1-.61,4.32A3.8,3.8,0,0,1,178.09,218.86Z"/><path class="cls-12" d="M162.82,218.86a3.8,3.8,0,0,1-2.15-.65,2.84,2.84,0,0,1-.6-4.32l15.26-17.22a3.82,3.82,0,0,1,4.91-.53,2.84,2.84,0,0,1,.61,4.32l-15.26,17.21A3.69,3.69,0,0,1,162.82,218.86Z"/><path class="cls-17" d="M118.26,16l11.66,69.81a2.12,2.12,0,0,0,4.2-.1l8.4-69.14S134.7,12.13,118.26,16Z"/><path class="cls-8" d="M130.89,14.44c7.84,0,11.63,2.17,11.63,2.17l-8.4,69.14a2.12,2.12,0,0,1-4.2.1L118.26,16a54.58,54.58,0,0,1,12.63-1.6m0-7a61.88,61.88,0,0,0-14.25,1.79l-6.36,1.52,1.08,6.45L123,87a9.12,9.12,0,0,0,18-.4l8.4-69.15.56-4.61-4-2.31c-.91-.51-5.88-3.09-15.11-3.09Z"/><path class="cls-12" d="M40.7,140.09a48.82,48.82,0,0,0,32.87-18L43.83,112.7S40.7,129.91,40.7,140.09Z"/><ellipse class="cls-18" cx="52.48" cy="97.54" rx="29.18" ry="28.35"/><g id="olho"><path class="cls-8" d="M44.18,98.06A8.86,8.86,0,0,0,54,105.8a8.74,8.74,0,0,0,8-9.5,8.86,8.86,0,0,0-9.78-7.74A8.74,8.74,0,0,0,44.18,98.06Z"/></g><path class="cls-12" d="M223.57,140.09a48.8,48.8,0,0,1-32.87-18l29.73-9.39S223.57,129.91,223.57,140.09Z"/><ellipse class="cls-18" cx="209.48" cy="97.54" rx="29.18" ry="28.35"/><g id="olho-2" data-name="olho"><path class="cls-8" d="M201.18,98.06A8.86,8.86,0,0,0,211,105.8a8.74,8.74,0,0,0,8-9.5,8.86,8.86,0,0,0-9.78-7.74A8.74,8.74,0,0,0,201.18,98.06Z"/></g></g></svg>