<svg xmlns="http://www.w3.org/2000/svg" xmlns:xlink="http://www.w3.org/1999/xlink" viewBox="0 0 262.17 298.96"><defs><style>.cls-1,.cls-10,.cls-11,.cls-8{fill:none;}.cls-2{fill:#f29b3b;}.cls-3{clip-path:url(#clip-path);}.cls-4{fill:#012442;}.cls-5{fill:#d379c2;}.cls-6{fill:#c965bb;}.cls-7{fill:#bc5caf;}.cls-10,.cls-11,.cls-8{stroke:#012442;stroke-miterlimit:10;}.cls-10,.cls-8{stroke-width:8px;}.cls-9{fill:#fff;}.cls-10{stroke-linecap:round;}.cls-11{stroke-width:6px;}.cls-12{fill:#efa3d8;}.cls-13{fill:#60264e;}.cls-14{fill:#ffdcf6;}.cls-15{fill:#e02d5c;}.cls-16{clip-path:url(#clip-path-2);}</style><clipPath id="clip-path"><circle class="cls-1" cx="130.19" cy="175.47" r="123.33"/></clipPath><clipPath id="clip-path-2"><path class="cls-1" d="M26.81,69.22s85-20.64,190.65-39.07c0,0,6.94-4.37,13.23,9.46s5.68,13.59,10.71,21.14-6.29,7.54-6.29,7.54l-217.47,44s-4.19,1.67-4.19-5.87S15.54,102.65,16,93s.28-21.32.7-23.42S19,64.15,27,63.31Z"/></clipPath></defs><g id="Camada_4" data-name="Camada 4"><circle class="cls-2" cx="130.7" cy="174.74" r="123.33"/><g class="cls-3"><path class="cls-4" d="M217.49,301c-12.47,0-23.73-7.85-26.61-19.44-9.28-37.2-33-47.32-34-47.74.38.16.59.23.59.23l19.83-46.57c5.19,1.85,51.15,19.87,66.88,83,3.36,13.45-5.85,26.84-20.56,29.91A29.67,29.67,0,0,1,217.49,301Z"/><path class="cls-5" d="M218.69,292.94c-8.31,0-15.82-5.24-17.74-13-10.65-42.72-44.16-57.53-44.49-57.67-9.18-3.76-13.29-13.62-9.17-22s14.9-12.15,24.07-8.38c2,.84,50.29,21.24,65.11,80.66,2.23,9-3.91,17.89-13.72,19.94A20.14,20.14,0,0,1,218.69,292.94Z"/><path class="cls-4" d="M34.9,301.84a29.67,29.67,0,0,1-6.1-.63C14.09,298.15,4.88,284.76,8.24,271.3,24,208.2,73.88,186.56,79.07,184.71l19.82,46.57a43.9,43.9,0,0,0-3.35,3.39c-1,.41-24.76,10.53-34,47.74C58.62,294,47.36,301.84,34.9,301.84Z"/><path class="cls-5" d="M33.7,293.77a20.31,20.31,0,0,1-4.07-.42c-9.8-2.05-15.94-11-13.71-19.94C30.73,214,80.8,192.76,82.85,191.92l20.3,26.92.31.27c-1.39.6-41.39,19.06-52,61.7C49.51,288.53,42,293.77,33.7,293.77Z"/><g id="peito"><path class="cls-5" d="M193.49,301s7.63-85.63-43.82-112.23L93.24,191c-45.06,15.92-42.6,110-42.6,110Z"/></g><path class="cls-6" d="M34.74,232.36c64.57,58.23,165.52,28.49,184.73,1.84-13.73-24.22-45.93-49-63.87-41.91-9.89-9.68-64.63,3.36-72.5-.25C80.53,194,56.26,202.94,34.74,232.36Z"/><path class="cls-4" d="M63.65,249.7a3.61,3.61,0,0,0-5.33,2.18c-2.79,10.7-5.1,25.23-5.11,44a3.5,3.5,0,0,0,3.64,3.34h0a3.49,3.49,0,0,0,3.64-3.33c0-18,2.24-32,4.88-42.18a3.6,3.6,0,0,0-1.66-4Z"/><path class="cls-4" d="M191.84,249.69a3.61,3.61,0,0,0-1.8,4.08c2.64,10.18,4.84,24.09,4.85,42.16a3.49,3.49,0,0,0,3.64,3.33h0a3.5,3.5,0,0,0,3.64-3.34c0-18.8-2.31-33.31-5.1-44a3.59,3.59,0,0,0-5.14-2.26Z"/></g></g><g id="Camada_3" data-name="Camada 3"><path class="cls-5" d="M232,71.83C220.43,44.41,195.61,22,133.22,22,72,22,40.61,37.58,31.86,68.66,24.38,95.23,15.78,135.37,19,181.27,21.6,217.94,71.49,249,134,249s109.37-32.18,111.28-67.68C248,129.64,239.42,89.49,232,71.83Z"/><path class="cls-7" d="M75.8,31C74.2,32,57.38,39.14,51,42.12a4.29,4.29,0,0,0-1.21-.65A15.86,15.86,0,0,0,49,43l-.46.26c0,.18.1.35.15.52C45.91,51,38.57,71.72,37.82,73.33c9,3.13,14.37,2.93,20.86,2.93a58,58,0,0,0,10.42-.83l3.36-.67,1.25-3.19C79.73,56.26,78.46,41.65,75.8,31Z"/><path class="cls-7" d="M189.24,71.57l1.25,3.19,3.36.67a58,58,0,0,0,10.42.83c6.49,0,11.83.2,20.86-2.93C224.38,71.72,217,51,214.22,43.82c.05-.17.11-.34.15-.52l-.46-.26a15.86,15.86,0,0,0-.7-1.57,4.29,4.29,0,0,0-1.21.65c-6.43-3-23.25-10.11-24.85-11.08C184.49,41.65,183.22,56.26,189.24,71.57Z"/><path class="cls-6" d="M134,227.54c-61.88,0-114.85-32.19-114.85-88.08A294,294,0,0,0,19,181.27C21.6,217.94,71.49,249,134,249s109.37-32.18,111.28-67.68a360.24,360.24,0,0,0-.11-41.28C245.12,192,195.51,227.54,134,227.54Z"/><path class="cls-8" d="M232,71.83C220.43,44.41,195.61,22,133.22,22,72,22,40.61,37.58,31.86,68.66,24.38,95.23,15.78,135.37,19,181.27,21.6,217.94,71.49,249,134,249s109.37-32.18,111.28-67.68C248,129.64,239.42,89.49,232,71.83Z"/><circle class="cls-9" cx="187.08" cy="122.22" r="27.84"/><circle class="cls-10" cx="185.25" cy="122.22" r="27.84"/><circle class="cls-9" cx="78.99" cy="123.29" r="27.84"/><circle class="cls-10" cx="77.16" cy="123.29" r="27.84"/><path class="cls-4" d="M77.72,123.11l12-11.28A16.5,16.5,0,1,0,92,131.41Z"/><path class="cls-4" d="M185.81,122l12-11.28a16.5,16.5,0,1,0,2.23,19.58Z"/><path class="cls-9" d="M190,205.23a19.34,19.34,0,0,0,2.41-6.77,16.21,16.21,0,0,0-7.67-16.2,11.28,11.28,0,0,0-6.47-1.71c-3.11.23-5.89,2.1-8.13,4.26s-9.73,9.3-16.79,12.18-16.59,2.66-19.71,2.67-6.4.61-8.79,2.62a11.3,11.3,0,0,0-3.44,5.75A16.19,16.19,0,0,0,127.19,225a20.84,20.84,0,0,0,6.45,3.16c15.34,4.58,32.1-2.26,32.1-2.26A51.61,51.61,0,0,0,190,205.23Z"/><path class="cls-11" d="M190,205.23a19.34,19.34,0,0,0,2.41-6.77,16.21,16.21,0,0,0-7.67-16.2,11.28,11.28,0,0,0-6.47-1.71c-3.11.23-5.89,2.1-8.13,4.26s-9.73,9.3-16.79,12.18-16.59,2.66-19.71,2.67-6.4.61-8.79,2.62a11.3,11.3,0,0,0-3.44,5.75A16.19,16.19,0,0,0,127.19,225a20.84,20.84,0,0,0,6.45,3.16c15.34,4.58,32.1-2.26,32.1-2.26A51.61,51.61,0,0,0,190,205.23Z"/><line class="cls-11" x1="130.77" y1="198.49" x2="142.54" y2="227.42"/><line class="cls-11" x1="145.43" y1="196.79" x2="157.2" y2="225.72"/><line class="cls-11" x1="161.49" y1="192.26" x2="173.26" y2="221.19"/><line class="cls-11" x1="174.06" y1="185.15" x2="185.82" y2="214.07"/><rect class="cls-12" x="85.51" y="141.68" width="92.21" height="60.36" rx="26.93"/><circle class="cls-13" cx="110.27" cy="171.04" r="11.74"/><path class="cls-14" d="M148.88,138.47H114.35a28.93,28.93,0,0,0-28.84,28.84V170a28,28,0,0,0,.29,4,28.93,28.93,0,0,1,28.55-24.82h34.53A28.93,28.93,0,0,1,177.43,174a28,28,0,0,0,.29-4v-2.67A28.93,28.93,0,0,0,148.88,138.47Z"/><circle class="cls-13" cx="151.49" cy="171.04" r="11.74"/><rect class="cls-10" x="85.51" y="140.76" width="92.21" height="60.36" rx="26.93"/><path class="cls-15" d="M16.69,116a6,6,0,0,1-4.86-2.43c-1.27-1.64-1.88-4-1.88-7.1,0-4.11.57-5.62,1.37-7.3.47-1,1-2,1.14-6.26s.27-9.06.33-13.24c.1-6.25.16-9.32.44-10.71.58-2.93,3.09-8,13.35-9.08l4-.42-.13,5.35c18.81-4.44,95.13-22.11,186-38a9.28,9.28,0,0,1,3.78-.8c3.74,0,9.16,2.11,13.73,12.17,1.45,3.19,2.54,5.64,3.41,7.6,2.88,6.49,3.32,7.48,7,13,2.57,3.87,2,6.7,1.12,8.39-2.16,4-8,4.54-9.94,4.59l-217,43.9A6.65,6.65,0,0,1,16.69,116Z"/><path class="cls-4" d="M220.14,29.49c2.6,0,6.69,1.64,10.55,10.12C237,53.44,236.37,53.2,241.4,60.75s-6.29,7.54-6.29,7.54l-217.47,44a2.81,2.81,0,0,1-.95.16c-1.24,0-3.24-.81-3.24-6,0-7.54,2.09-3.77,2.51-13.41s.28-21.32.7-23.42S19,64.14,27,63.31l-.14,5.91s85-20.64,190.65-39.07a5.37,5.37,0,0,1,2.68-.66m0-7a12.79,12.79,0,0,0-4.77.92C130.58,38.23,58.45,54.61,34,60.32l.11-4.81-7.92.84c-4.85.51-8.75,1.9-11.58,4.14a13,13,0,0,0-4.84,7.73c-.32,1.63-.39,4.11-.5,11.36-.06,4.15-.14,8.84-.32,13.13-.16,3.56-.5,4.27-.8,4.89-1.12,2.33-1.72,4.43-1.72,8.82,0,12.66,9.19,13,10.24,13a10,10,0,0,0,2.68-.37L235.89,75.27c3-.11,9.72-1,12.63-6.42,1.11-2.08,2.42-6.4-1.3-12-3.54-5.31-3.91-6.13-6.74-12.52-.87-2-2-4.42-3.42-7.63C231.72,25,224.91,22.49,220.14,22.49Z"/><g class="cls-16"><circle class="cls-9" cx="39.01" cy="106.98" r="22.73"/><circle class="cls-9" cx="77.98" cy="55.67" r="22.73"/><circle class="cls-9" cx="142.69" cy="89.99" r="22.73"/><circle class="cls-9" cx="194.14" cy="35.7" r="22.73"/></g><circle class="cls-12" cx="49.12" cy="176.42" r="15.65"/><circle class="cls-12" cx="202.25" cy="176.42" r="15.65"/><path class="cls-5" d="M56.29,14.27s13.46,23.34,3.59,48.47c0,0-22.61,4.49-43.25-9.87C16.63,52.87,18.59,27.73,56.29,14.27Z"/><path class="cls-8" d="M56.29,14.27s13.46,23.34,3.59,48.47c0,0-22.61,4.49-43.25-9.87C16.63,52.87,18.59,27.73,56.29,14.27Z"/><path class="cls-5" d="M203.74,14.27s-13.47,23.34-3.59,48.47c0,0,22.6,4.49,43.25-9.87C243.4,52.87,241.44,27.73,203.74,14.27Z"/><path class="cls-8" d="M203.74,14.27s-13.47,23.34-3.59,48.47c0,0,22.6,4.49,43.25-9.87C243.4,52.87,241.44,27.73,203.74,14.27Z"/></g></svg>