<svg xmlns="http://www.w3.org/2000/svg" xmlns:xlink="http://www.w3.org/1999/xlink" viewBox="0 0 262.17 298.96"><defs><style>.cls-1,.cls-11,.cls-13,.cls-9{fill:none;}.cls-2{fill:#f29b3b;}.cls-3{clip-path:url(#clip-path);}.cls-4{fill:#012442;}.cls-5{fill:#f9d9f6;}.cls-6{fill:#f2c0f0;}.cls-7{fill:#e89ad9;}.cls-8{fill:#e08cd4;}.cls-11,.cls-12,.cls-13,.cls-14,.cls-9{stroke:#012442;stroke-miterlimit:10;}.cls-12,.cls-13,.cls-14,.cls-9{stroke-width:8px;}.cls-10{fill:#ffe497;}.cls-11{stroke-width:5px;}.cls-12{fill:#00c9ff;}.cls-13{stroke-linecap:round;}.cls-14{fill:#b8e86b;}.cls-15{fill:#fff;}</style><clipPath id="clip-path"><circle class="cls-1" cx="130.19" cy="175.47" r="123.33"/></clipPath></defs><g id="Camada_4" data-name="Camada 4"><circle class="cls-2" cx="130.7" cy="174.74" r="123.33"/><g class="cls-3"><path class="cls-4" d="M217.49,301c-12.47,0-23.73-7.85-26.61-19.44-9.28-37.2-33-47.32-34-47.74.38.16.59.23.59.23l19.83-46.57c5.19,1.85,51.15,19.87,66.88,83,3.36,13.45-5.85,26.84-20.56,29.91A29.67,29.67,0,0,1,217.49,301Z"/><path class="cls-5" d="M218.69,292.94c-8.31,0-15.82-5.24-17.74-13-10.65-42.72-44.16-57.53-44.49-57.67-9.18-3.76-13.29-13.62-9.17-22s14.9-12.15,24.07-8.38c2,.84,50.29,21.24,65.11,80.66,2.23,9-3.91,17.89-13.72,19.94A20.14,20.14,0,0,1,218.69,292.94Z"/><path class="cls-4" d="M34.9,301.84a29.67,29.67,0,0,1-6.1-.63C14.09,298.15,4.88,284.76,8.24,271.3,24,208.2,73.88,186.56,79.07,184.71l19.82,46.57a43.9,43.9,0,0,0-3.35,3.39c-1,.41-24.76,10.53-34,47.74C58.62,294,47.36,301.84,34.9,301.84Z"/><path class="cls-5" d="M33.7,293.77a20.31,20.31,0,0,1-4.07-.42c-9.8-2.05-15.94-11-13.71-19.94C30.73,214,80.8,192.76,82.85,191.92l20.3,26.92.31.27c-1.39.6-41.39,19.06-52,61.7C49.51,288.53,42,293.77,33.7,293.77Z"/><g id="peito"><path class="cls-5" d="M193.49,301s7.63-85.63-43.82-112.23L93.24,191c-45.06,15.92-42.6,110-42.6,110Z"/></g><path class="cls-6" d="M36.74,229.36c64.57,58.23,163.52,31.49,182.73,4.84-13.73-24.22-45.93-49-63.87-41.91-9.89-9.68-64.63,3.36-72.5-.25C80.53,194,65,190.7,36.74,229.36Z"/><path class="cls-4" d="M63.65,249.7a3.61,3.61,0,0,0-5.33,2.18c-2.79,10.7-5.1,25.23-5.11,44a3.5,3.5,0,0,0,3.64,3.34h0a3.49,3.49,0,0,0,3.64-3.33c0-18,2.24-32,4.88-42.18a3.6,3.6,0,0,0-1.66-4Z"/><path class="cls-4" d="M191.84,249.69a3.61,3.61,0,0,0-1.8,4.08c2.64,10.18,4.84,24.09,4.85,42.16a3.49,3.49,0,0,0,3.64,3.33h0a3.5,3.5,0,0,0,3.64-3.34c0-18.8-2.31-33.31-5.1-44a3.59,3.59,0,0,0-5.14-2.26Z"/></g></g><g id="Camada_3" data-name="Camada 3"><path class="cls-5" d="M219.87,71.83C209.6,44.41,187.5,22,132,22,77.49,22,49.54,37.58,41.75,68.66,35.1,95.23,27.44,135.37,30.32,181.27,32.62,217.94,77,249,132.63,249s97.33-32.18,99-67.68C234.15,129.64,226.5,89.49,219.87,71.83Z"/><path class="cls-7" d="M222.83,172.21c-35.58-8-71.61-16.2-108.25-14.75C86.1,158.59,55,161.2,30.05,176.21c.08,1.68.16,3.36.27,5.06C32.62,217.94,77,249,132.63,249s97.33-32.18,99-67.68c.11-2.34.2-4.64.27-6.93Q227.4,173.23,222.83,172.21Z"/><path class="cls-8" d="M225.68,171.3c-13.77,34.44-50.15,56.24-93.05,56.24-43.88,0-82.71-20.42-96.7-57a44.27,44.27,0,0,0-6,3.81c.1,2.28.2,4.57.35,6.89C32.62,217.94,77,249,132.63,249s97.33-32.18,99-67.68c.12-2.49.21-4.94.28-7.37C229.89,173,227.79,172.11,225.68,171.3Z"/><path class="cls-9" d="M219.87,71.83C209.6,44.41,187.5,22,132,22,77.49,22,49.54,37.58,41.75,68.66,35.1,95.23,27.44,135.37,30.32,181.27,32.62,217.94,77,249,132.63,249s97.33-32.18,99-67.68C234.15,129.64,226.5,89.49,219.87,71.83Z"/><rect class="cls-4" x="82.95" y="192.43" width="20.68" height="35.45" rx="10.34"/><path class="cls-10" d="M155.89,73.17,132.56,11.46a4.12,4.12,0,0,0-7.68.34l-21,63a16.09,16.09,0,0,0-1.38,6.47c0,11.52,12.45,20.86,27.81,20.86s27.82-9.34,27.82-20.86A16.5,16.5,0,0,0,155.89,73.17Z"/><path class="cls-9" d="M155.89,73.17,132.56,11.46a4.12,4.12,0,0,0-7.68.34l-21,63a16.09,16.09,0,0,0-1.38,6.47c0,11.52,12.45,20.86,27.81,20.86s27.82-9.34,27.82-20.86A16.5,16.5,0,0,0,155.89,73.17Z"/><path class="cls-11" d="M107.55,59.6c0,3.09,30.91,16.48,40.69-11.85"/><path class="cls-11" d="M113.61,40.17c9.4,5.22,22.27,2.13,26.91-8.68"/><path class="cls-12" d="M186.78,39.19c7.93,9.4,14.31,45.85-12.18,52.26-9.69,2.35-23.08,5.59-30.17,11.11C138.86,106.89,133,116,131,121.49a2.91,2.91,0,0,1-5.41.16c-5.65-13,1.3-28.46,13.82-38.29,7-5.51,8.31-10,11.48-17.25,1.76-4-11.9-37.49-11.63-37.94C143.91,20.35,166.65,15.3,186.78,39.19Z"/><path class="cls-5" d="M194.24,44.59c13-8.52,23.31-14.06,38.26-18.32,4.9,25.55,3.06,50.6-14.22,61.88"/><path class="cls-13" d="M197.24,42.59c11.32-7.42,25.65-13.26,34-16.92a2.82,2.82,0,0,1,3.9,2.14c3.86,24.12-.81,45.6-15.84,60.34"/><path class="cls-5" d="M66.41,42.59c-13-8.52-19.31-12.06-34.27-16.32-4.9,25.55-3.06,50.6,14.23,61.88"/><path class="cls-13" d="M66.41,42.59c-11.32-7.41-24.88-13.5-33-17a2.81,2.81,0,0,0-3.87,2.15c-3.86,24.13.8,45.63,15.84,60.37"/><rect class="cls-4" x="159.01" y="192.43" width="20.68" height="35.45" rx="10.34"/><path class="cls-13" d="M31.3,175.13s97.79-38.74,199.92,0"/><path class="cls-14" d="M120.43,19.65c-6.47-3.87-23.3-1.52-32.82,5.74-6.39,4.88-20,29.51-9.12,54.65a3.21,3.21,0,0,0,6-.11c4.34-11.09,15.66-26.86,24.73-26.45C112.91,42.3,117.77,31.15,120.43,19.65Z"/><circle class="cls-4" cx="79.43" cy="124.7" r="24.65"/><circle class="cls-15" cx="74.76" cy="115.67" r="8.41"/><circle class="cls-4" cx="179.43" cy="124.7" r="24.65"/><circle class="cls-15" cx="174.37" cy="115.67" r="8.41"/></g></svg>