<svg xmlns="http://www.w3.org/2000/svg" xmlns:xlink="http://www.w3.org/1999/xlink" viewBox="0 0 262.17 298.96"><defs><style>.cls-1,.cls-10,.cls-12,.cls-14,.cls-18,.cls-19{fill:none;}.cls-2{fill:#39d88c;}.cls-3{clip-path:url(#clip-path);}.cls-4{fill:#012442;}.cls-5{fill:#9e6638;}.cls-6{fill:#f4c6a6;}.cls-7,.cls-8{fill:#ffe3ca;}.cls-10,.cls-14,.cls-18,.cls-7{stroke:#012442;}.cls-12,.cls-14,.cls-18,.cls-19,.cls-7{stroke-linecap:round;}.cls-18,.cls-19,.cls-7{stroke-linejoin:round;}.cls-18,.cls-7{stroke-width:7px;}.cls-9{fill:#f4b59f;}.cls-10,.cls-12,.cls-14{stroke-miterlimit:10;}.cls-10,.cls-14{stroke-width:8px;}.cls-11{fill:#f7c434;}.cls-12,.cls-19{stroke:#f28c38;stroke-width:5px;}.cls-13{fill:#f28c38;}.cls-15{fill:#e02d5c;}.cls-16{fill:#c1e0e5;}.cls-17{fill:#9abdc1;}.cls-20{fill:#a9c6c9;}.cls-21{fill:#fff;}</style><clipPath id="clip-path"><circle class="cls-1" cx="130.19" cy="175.47" r="123.33"/></clipPath></defs><g id="Camada_4" data-name="Camada 4"><circle class="cls-2" cx="130.7" cy="174.74" r="123.33"/><g class="cls-3"><path class="cls-4" d="M217.49,301c-12.47,0-23.73-7.85-26.61-19.44-9.28-37.2-33-47.32-34-47.74.38.16.59.23.59.23l19.83-46.57c5.19,1.85,51.15,19.87,66.88,83,3.36,13.45-5.85,26.84-20.56,29.91A29.67,29.67,0,0,1,217.49,301Z"/><path class="cls-5" d="M218.69,292.94c-8.31,0-15.82-5.24-17.74-13-10.65-42.72-44.16-57.53-44.49-57.67-9.18-3.76-13.29-13.62-9.17-22s14.9-12.15,24.07-8.38c2,.84,50.29,21.24,65.11,80.66,2.23,9-3.91,17.89-13.72,19.94A20.14,20.14,0,0,1,218.69,292.94Z"/><path class="cls-4" d="M34.9,301.84a29.67,29.67,0,0,1-6.1-.63C14.09,298.15,4.88,284.76,8.24,271.3,24,208.2,73.88,186.56,79.07,184.71l19.82,46.57a43.9,43.9,0,0,0-3.35,3.39c-1,.41-24.76,10.53-34,47.74C58.62,294,47.36,301.84,34.9,301.84Z"/><path class="cls-5" d="M33.7,293.77a20.31,20.31,0,0,1-4.07-.42c-9.8-2.05-15.94-11-13.71-19.94C30.73,214,80.8,192.76,82.85,191.92l20.3,26.92.31.27c-1.39.6-41.39,19.06-52,61.7C49.51,288.53,42,293.77,33.7,293.77Z"/><g id="peito"><path class="cls-5" d="M193.49,301s7.63-85.63-43.82-112.23L93.24,191c-45.06,15.92-42.6,110-42.6,110Z"/></g><path class="cls-4" d="M63.65,249.7a3.61,3.61,0,0,0-5.33,2.18c-2.79,10.7-5.1,25.23-5.11,44a3.5,3.5,0,0,0,3.64,3.34h0a3.49,3.49,0,0,0,3.64-3.33c0-18,2.24-32,4.88-42.18a3.6,3.6,0,0,0-1.66-4Z"/><path class="cls-4" d="M191.84,249.69a3.61,3.61,0,0,0-1.8,4.08c2.64,10.18,4.84,24.09,4.85,42.16a3.49,3.49,0,0,0,3.64,3.33h0a3.5,3.5,0,0,0,3.64-3.34c0-18.8-2.31-33.31-5.1-44a3.59,3.59,0,0,0-5.14-2.26Z"/></g><path class="cls-6" d="M92.46,228.17s-14.63,22.24,6.43,43.89,80.74,5.26,60.85-41"/><path class="cls-7" d="M92.46,228.17s-14.63,22.24,6.43,43.89,80.74,5.26,60.85-41"/></g><g id="Camada_3" data-name="Camada 3"><path class="cls-8" d="M219.87,71.83C209.6,44.41,187.5,22,132,22,77.49,22,49.54,37.58,41.75,68.66,35.1,95.23,27.44,135.37,30.32,181.27,32.62,217.94,77,249,132.63,249s97.33-32.18,99-67.68C234.15,129.64,226.5,89.49,219.87,71.83Z"/><path class="cls-9" d="M118.17,158.09c17.92-20.59,17.53-37.43,11.45-64a234.49,234.49,0,0,0-69.32,47C48.17,153,37,167,33.55,183.66a44.2,44.2,0,0,0,3.83,28.91c6.75,12.87,11.7,9.94,18.18.6C77.48,181.56,102.58,176,118.17,158.09Z"/><path class="cls-9" d="M137,159.35c-17.92-20.59-17.3-37.69-11.22-64.29a234.49,234.49,0,0,1,69.32,47C207.2,154,218.39,168,221.81,184.66A44.13,44.13,0,0,1,218,213.57c-6.75,12.87-9.25,9.61-16.17.6C175,179.22,152.55,177.27,137,159.35Z"/><path class="cls-10" d="M219.87,71.83C209.6,44.41,187.5,22,132,22,77.49,22,49.54,37.58,41.75,68.66,35.1,95.23,27.44,135.37,30.32,181.27,32.62,217.94,77,249,132.63,249s97.33-32.18,99-67.68C234.15,129.64,226.5,89.49,219.87,71.83Z"/><path class="cls-11" d="M126.09,88s5.78,38.39-18.48,60.3-60.65,30.13-63,64.57L28.17,232.43s-17.21-67.17-7.82-111c0,0,0-11.05,12.65-17.13A177.31,177.31,0,0,1,126.09,88Z"/><path class="cls-11" d="M133.55,89s-9.78,39.39,14.48,61.3,61.65,33.13,64,67.57l15.43,19.56s17.22-72.17,7.83-116c0,0,0-11.05-12.66-17.13C194.59,90.78,162,87.65,133.55,89Z"/><path class="cls-12" d="M104.88,87.67c2.17,25.81-8.38,58.35-25.19,78.05"/><path class="cls-12" d="M76.81,90.73c2.82,22.86-8.14,44.92-18.76,65.36s-21.53,42.55-18.58,65.39"/><path class="cls-12" d="M52.27,95.46a103.3,103.3,0,0,1-8.54,35.69C39,142,31.87,151.28,25.49,161.18a69.09,69.09,0,0,0-8.42,17"/><path class="cls-12" d="M150.4,87.67c-2.16,25.81,8.38,60.35,25.19,80.05"/><path class="cls-12" d="M178.47,90.73c-2.82,22.86,8.15,44.92,18.77,65.36s21.52,42.55,18.57,65.39"/><path class="cls-12" d="M203,95.46a103.3,103.3,0,0,0,8.54,35.69c4.76,10.87,11.87,20.13,18.25,30a69.41,69.41,0,0,1,8.41,17"/><path class="cls-13" d="M114.44,112.45q4.92-.26,9.89-.42a54.92,54.92,0,0,0,1.76-24A177.31,177.31,0,0,0,33,104.3c-12.61,6.08-12.65,17.13-12.65,17.13-.22,1-.41,2-.6,3C50.36,116,82.93,114.08,114.44,112.45Z"/><path class="cls-13" d="M212.55,122.55a231.28,231.28,0,0,1,24.52,10c-.44-3.87-1-7.6-1.78-11.16,0,0,0-11.05-12.66-17.13C194.59,90.78,162,87.65,133.55,89a52.57,52.57,0,0,0-1.26,22.84C159.42,111.45,186.81,113.76,212.55,122.55Z"/><path class="cls-14" d="M126.09,88s5.78,38.39-18.48,60.3-60.65,30.13-63,64.57L28.17,232.43s-17.21-67.17-7.82-111c0,0,0-11.05,12.65-17.13A177.31,177.31,0,0,1,126.09,88Z"/><path class="cls-14" d="M133.55,89s-9.78,39.39,14.48,61.3,61.65,33.13,64,67.57l15.43,19.56s17.22-72.17,7.83-116c0,0,0-11.05-12.66-17.13C194.59,90.78,162,87.65,133.55,89Z"/><path class="cls-15" d="M33.67,104.14a3.51,3.51,0,0,1-3.48-3.9l.45-3.91c1.24-10.9,1.27-11.11,2.34-14.77.44-1.5,1-3.57,2-7.53A66.53,66.53,0,0,1,64.63,33.46c16.44-10.42,38.3-15.71,65-15.71,27.19,0,47.68,4.11,62.64,12.57,13.33,7.53,22.66,18.81,28.54,34.5a130.82,130.82,0,0,1,7.36,35,3.5,3.5,0,0,1-3.49,3.76,3.42,3.42,0,0,1-1.87-.55C208,93.63,171.27,87.59,129.13,87.59c-42.77,0-79.46,6.25-93.47,15.93A3.52,3.52,0,0,1,33.67,104.14Z"/><path class="cls-4" d="M129.62,21.25c55.53,0,77.63,17.37,87.91,44.79a127.93,127.93,0,0,1,7.14,34c-14.68-9.3-50.26-15.94-95.54-15.94-46.27,0-81.54,6.93-95.46,16.55C36,80,34.86,89,38.41,74.88c7.78-31.08,36.74-53.63,91.21-53.63m0-7c-27.36,0-49.86,5.47-66.86,16.25A69.93,69.93,0,0,0,31.62,73.18c-1,3.9-1.57,5.92-2,7.41-1.16,3.94-1.2,4.37-2.46,15.35l-.45,3.9a7,7,0,0,0,10.94,6.56C54,95.1,97.15,91.09,129.13,91.09c21.34,0,41.42,1.51,58.06,4.38,15.24,2.62,27.22,6.34,33.73,10.47a7,7,0,0,0,10.73-6.42,134.46,134.46,0,0,0-7.57-35.93c-6.18-16.49-16-28.37-30.09-36.32-15.51-8.76-36.56-13-64.37-13Z"/><path class="cls-16" d="M195.52,36.8c10.9,1.08,30.84-.69,41.31-24.93,0,0,14.87,36-15.66,55.78-20.46,13.26-39.32-3.8-37.85-20.74A11.16,11.16,0,0,1,195.52,36.8Z"/><path class="cls-16" d="M61.82,34.8C50.92,35.88,31,34.11,20.51,9.87c0,0-14.87,36,15.66,55.78C56.63,78.91,75.49,61.85,74,44.91A11.16,11.16,0,0,0,61.82,34.8Z"/><path class="cls-17" d="M208.69,55a61.88,61.88,0,0,1-23.3,3.42c5.36,11.77,20.09,19.43,35.78,9.26,15.93-10.32,19.5-25.06,19.27-36.79A67.06,67.06,0,0,1,208.69,55Z"/><path class="cls-17" d="M50.69,50.05A59.81,59.81,0,0,1,17.82,39.39c1.87,9.2,6.93,18.87,18.35,26.26C56.48,78.82,75.2,62.1,74,45.28A56.65,56.65,0,0,1,50.69,50.05Z"/><path class="cls-18" d="M61.82,34.8C50.92,35.88,31,34.11,20.51,9.87c0,0-14.87,36,15.66,55.78C56.63,78.91,75.49,61.85,74,44.91A11.16,11.16,0,0,0,61.82,34.8Z"/><path class="cls-18" d="M195.52,36.8c10.9,1.08,30.84-.69,41.31-24.93,0,0,14.87,36-15.66,55.78-20.46,13.26-39.32-3.8-37.85-20.74A11.16,11.16,0,0,1,195.52,36.8Z"/><path class="cls-11" d="M70.7,211.22s8.08,6.95,30.78,7.74c18.77.64,25-8.61,25.82-19.57s-11.74-29.83-25.82-25.13-43.83,17.3-54-17.78C47.48,156.48,45,197,70.7,211.22Z"/><path class="cls-19" d="M81,215.93A31.53,31.53,0,0,0,120,184.45"/><path class="cls-19" d="M64.84,207.47c8.73,3.23,19.36-4.13,25.34-9.92A45.23,45.23,0,0,0,102.91,175"/><path class="cls-19" d="M52.94,190.82c8,3.21,17.77-.77,21.93-8.09"/><path class="cls-18" d="M70.7,211.22s8.08,6.95,30.78,7.74c18.77.64,25-8.61,25.82-19.57s-11.74-29.83-25.82-25.13-43.83,17.3-54-17.78C47.48,156.48,45,197,70.7,211.22Z"/><path class="cls-11" d="M184.06,211.22S176,218.17,153.27,219c-18.77.64-25-8.61-25.82-19.57s11.74-29.83,25.82-25.13,43.83,17.3,54-17.78C207.27,156.48,209.75,197,184.06,211.22Z"/><path class="cls-19" d="M173.77,215.93a31.53,31.53,0,0,1-39.05-31.48"/><path class="cls-19" d="M189.91,207.47c-8.73,3.23-19.36-4.13-25.34-9.92A45.23,45.23,0,0,1,151.84,175"/><path class="cls-19" d="M201.81,190.82c-7.95,3.21-17.77-.77-21.93-8.09"/><path class="cls-18" d="M184.06,211.22S176,218.17,153.27,219c-18.77.64-25-8.61-25.82-19.57s11.74-29.83,25.82-25.13,43.83,17.3,54-17.78C207.27,156.48,209.75,197,184.06,211.22Z"/><path class="cls-20" d="M23.67,114.14a3.5,3.5,0,0,1-3.47-3.94l.49-3.92c1.36-10.91,1.39-11.12,2.56-14.8.48-1.5,1.13-3.57,2.22-7.52.31-1.15.68-2.33,1.15-3.73A3.51,3.51,0,0,1,28.81,78c20.39-7,53.61-15.27,96-15.27a347.17,347.17,0,0,1,103,16,3.52,3.52,0,0,1,2.29,2.25,127.15,127.15,0,0,1,5.73,28.69,3.51,3.51,0,0,1-1.63,3.24,3.47,3.47,0,0,1-1.86.54,3.54,3.54,0,0,1-1.76-.47c-16.2-9.4-56.48-15.47-102.63-15.47-46.83,0-87,6.28-102.42,16A3.5,3.5,0,0,1,23.67,114.14Z"/><path class="cls-4" d="M124.8,66.27a342.63,342.63,0,0,1,102,15.88A123.08,123.08,0,0,1,232.35,110c-16-9.3-54.91-15.94-104.39-15.94-50.55,0-89.08,6.93-104.29,16.55C26.26,90,25,99,28.84,84.88c.33-1.19.7-2.37,1.1-3.53,20.15-6.88,53-15.08,94.86-15.08m0-7c-42.86,0-76.48,8.4-97.13,15.45a7,7,0,0,0-4.36,4.39c-.49,1.44-.89,2.72-1.22,3.92-1.06,3.89-1.71,5.91-2.18,7.39-1.27,4-1.32,4.42-2.7,15.44l-.49,3.91a7,7,0,0,0,3.2,6.78,7,7,0,0,0,7.49,0C38.7,109.42,71.8,101.09,128,101.09c45.58,0,85.17,5.88,100.87,15a7,7,0,0,0,10.5-6.61,130.36,130.36,0,0,0-5.9-29.5,7,7,0,0,0-4.57-4.5A350.54,350.54,0,0,0,124.8,59.27Z"/><ellipse class="cls-11" cx="129.39" cy="55.22" rx="15.41" ry="20.5"/><path class="cls-4" d="M129.39,37.22c7.13,0,12.91,8.06,12.91,18s-5.78,18-12.91,18-12.91-8.06-12.91-18,5.78-18,12.91-18m0-5c-10,0-17.91,10.1-17.91,23s7.87,23,17.91,23,17.91-10.11,17.91-23-7.86-23-17.91-23Z"/><circle class="cls-21" cx="130.48" cy="48.17" r="4.7"/><circle class="cls-21" cx="133.48" cy="62.17" r="2.63"/></g></svg>