<?xml version="1.0" encoding="utf-8"?>
<!-- Generator: Adobe Illustrator 24.3.0, SVG Export Plug-In . SVG Version: 6.00 Build 0)  -->
<svg version="1.1" id="Camada_1" xmlns="http://www.w3.org/2000/svg" xmlns:xlink="http://www.w3.org/1999/xlink" x="0px" y="0px"
	 viewBox="0 0 262.2 299" style="enable-background:new 0 0 262.2 299;" xml:space="preserve">
<style type="text/css">
	.st0{fill:#23DB57;}
	.st1{fill:#E02D5C;}
	.st2{fill:#AF1545;}
	.st3{fill:#012442;}
	.st4{fill:#52D89B;}
	.st5{fill:#FFFFFF;}
</style>
<g>
	<circle class="st0" cx="131.1" cy="173.1" r="123.3"/>
</g>
<g>
	<path class="st1" d="M174.7,205.1l-42.3,1.3l-42.3-1c-46.9,6-57.7,43.3-57.7,43.3c48.4,57.6,90.3,48.4,100.3,48.4
		c8.7,0,54,6.9,102-51.1C234.7,246,221.7,210.8,174.7,205.1z"/>
</g>
<g>
	<path class="st2" d="M50.4,224.7c0,0,30.9,52.5,82.6,52.3c51.5-0.2,82.2-55,82.2-55S118.1,170.2,50.4,224.7z"/>
</g>
<g>
	<path class="st3" d="M233.7,251c-1.6,0-3.2-1-3.8-2.6c-0.5-1.4-12.9-32.8-56.4-38.3l-42.1,1.3l-0.1,0l-42-1
		c-43.6,5.7-53,36.1-53.1,36.4c-0.6,2.1-2.8,3.3-5,2.7c-2.1-0.6-3.3-2.8-2.7-5c0.4-1.5,11.1-35.9,60.1-42.1l0.3,0l42.5,1l42.5-1.3
		l0.3,0c48.9,5.9,62.7,41.9,63.3,43.5c0.8,2.1-0.3,4.4-2.4,5.1C234.6,250.9,234.2,251,233.7,251z"/>
</g>
<g>
	<path class="st1" d="M234.8,122.1c0.2,58.3-46.7,139.8-103.1,140c-49.2,0.2-102.9-78.9-103.2-137.3S72.4,21,130.7,20.8
		S234.6,63.7,234.8,122.1z"/>
</g>
<g>
	<path class="st3" d="M132.5,266.1c-22.1,0-48.8-17.6-71.7-47.3c-22.7-29.4-36.3-63.8-36.4-92C24.4,97.4,35.1,70,54.8,49.7
		c19.8-20.5,46.8-31.8,76-31.9c0.1,0,0.2,0,0.4,0c29,0,56,11.1,75.8,31.4c19.8,20.2,30.8,47.5,30.9,76.9v0
		c0.1,28.2-12.9,62.7-34.9,92.2c-22.2,29.9-48.5,47.7-70.2,47.8C132.6,266.1,132.5,266.1,132.5,266.1z M131.1,25.8
		c-0.1,0-0.2,0-0.3,0c-27,0.1-51.9,10.6-70.2,29.5c-18.2,18.8-28.1,44.2-28,71.5c0.1,26.5,13.1,59.1,34.7,87.1
		c21,27.2,46,44.1,65.3,44.1c0,0,0.1,0,0.1,0c19-0.1,43.4-17.1,63.8-44.6c21-28.2,33.4-60.9,33.3-87.4v0
		c-0.1-27.3-10.3-52.6-28.6-71.3C182.9,36.1,158,25.8,131.1,25.8z"/>
</g>
<g>
	<path class="st4" d="M89.8,32.2c0,0-28.1,16.5-17.4,48.2c0,0,10.5-17.7,28.1-21.2c0,0,3.6,23.5,47.1,32.7c0,0-7.1-23.4-3.7-37.5
		c0,0,27.3,16.8,53.1-7.9C196.9,46.4,146,5,89.8,32.2z"/>
</g>
<g>
	<path class="st3" d="M153.3,97.2l-6.6-1.4C111.8,88.3,101,71.9,97.8,64C84.3,68.8,76,84.1,75.9,84.3l-4.4,8.2l-3-8.8
		C57,49.5,87.3,29,87.6,28.8l0.5-0.3c24-11.6,50.8-12.7,77.7-3.3c20.2,7.1,33.1,17.5,33.7,18l4.2,3.4l-4.5,3
		c-19.7,13.3-42.7,11.1-52.1,9.4c-1.3,13,4.2,31.4,4.2,31.6L153.3,97.2z M103.8,54.4l0.6,4.2c0.1,0.8,3.7,18.7,37.6,27.9
		c-1.9-8.3-4.5-22.7-2-33.1l1-4l4,1.1c0.3,0.1,23.9,6.3,44.7-4.4c-5.3-3.5-14.7-9.1-26.8-13.3c-25-8.7-48.9-7.7-71.1,2.9
		c-2.3,1.6-20.2,14.8-17.6,36.9c5.1-6.5,13.8-14.9,25.5-17.3L103.8,54.4z"/>
</g>
<g>
	<path class="st4" d="M118.6,33.1c-1.8-7.2-5-14-9.4-19.9c0,0,5.2-13.1,20.8-4.5c0,0,6.5,11.8,2.9,25.2"/>
	<path class="st3" d="M132.9,37.9c-0.3,0-0.7,0-1-0.1c-2.1-0.6-3.4-2.8-2.8-4.9c2.6-9.5-0.8-18.3-2.1-21.2c-3.7-1.8-6.8-2.3-9.3-1.4
		c-1.7,0.6-3,1.8-3.7,2.8c4,5.8,6.8,12.2,8.5,19.1c0.5,2.1-0.8,4.3-2.9,4.8c-2.1,0.5-4.3-0.8-4.8-2.9c-1.6-6.7-4.6-12.9-8.7-18.4
		l-1.4-1.8l0.8-2.1c0.3-0.7,2.8-6.7,9.5-9.1c5-1.8,10.7-1,17,2.5l1,0.6l0.6,1c0.3,0.5,7.3,13.3,3.3,28.2
		C136.3,36.7,134.7,37.9,132.9,37.9z"/>
</g>
<g>
	<circle class="st5" cx="76.5" cy="141.3" r="24.1"/>
</g>
<g>
	<circle class="st5" cx="181.6" cy="139.8" r="24.1"/>
</g>
<g>
	<circle class="st2" cx="55.4" cy="104.5" r="5.3"/>
</g>
<g>
	<circle class="st2" cx="123.6" cy="121.3" r="5.3"/>
</g>
<g>
	<circle class="st2" cx="86.8" cy="182.4" r="5.3"/>
</g>
<g>
	<circle class="st2" cx="171.4" cy="188" r="5.3"/>
</g>
<g>
	<circle class="st2" cx="209.4" cy="169.1" r="5.3"/>
</g>
<g>
	<circle class="st2" cx="215.6" cy="101" r="5.3"/>
</g>
<g>
	<circle class="st2" cx="94.1" cy="87.3" r="5.3"/>
</g>
<g>
	<circle class="st2" cx="184.4" cy="71.8" r="5.3"/>
</g>
<g>
	<circle class="st2" cx="54.4" cy="173.2" r="5.3"/>
</g>
<g>
	<circle class="st2" cx="134.9" cy="169.4" r="5.3"/>
</g>
<g>
	<circle class="st2" cx="88.7" cy="224.7" r="5.3"/>
</g>
<g>
	<circle class="st2" cx="166.8" cy="225.6" r="5.3"/>
</g>
<g>
	<circle class="st2" cx="129.9" cy="245.7" r="5.3"/>
</g>
<g>
	<circle class="st2" cx="174.6" cy="102.9" r="5.3"/>
</g>
<g>
	<circle class="st2" cx="126.8" cy="211.7" r="5.3"/>
</g>
<g>
	<path class="st3" d="M76.5,169.4c-15.5,0-28.1-12.6-28.1-28.1s12.6-28.1,28.1-28.1c15.5,0,28.1,12.6,28.1,28.1S92,169.4,76.5,169.4
		z M76.5,121.3c-11.1,0-20.1,9-20.1,20.1s9,20.1,20.1,20.1c11.1,0,20.1-9,20.1-20.1S87.6,121.3,76.5,121.3z"/>
</g>
<g>
	<path class="st3" d="M181.6,167.8c-15.5,0-28.1-12.6-28.1-28.1c0-15.5,12.6-28.1,28.1-28.1s28.1,12.6,28.1,28.1
		C209.7,155.3,197.1,167.8,181.6,167.8z M181.6,119.7c-11.1,0-20.1,9-20.1,20.1c0,11.1,9,20.1,20.1,20.1s20.1-9,20.1-20.1
		C201.7,128.7,192.7,119.7,181.6,119.7z"/>
</g>
<g>
	<path class="st5" d="M108.7,174.5c0-12.9,10-8.6,22.4-8.7s22.4-4.4,22.4,8.5s-9.9,23.3-22.3,23.4S108.8,187.4,108.7,174.5z"/>
</g>
<g>
	<path class="st3" d="M131.2,201.7c-14.5,0-26.4-12.2-26.4-27.2v0c0-4.7,1.2-8.1,3.6-10.3c3.8-3.6,9.5-3.1,15.5-2.7
		c2.3,0.2,4.8,0.3,7.3,0.3c2.5,0,4.9-0.2,7.2-0.4c6-0.5,11.7-0.9,15.6,2.6c2.4,2.2,3.6,5.6,3.6,10.3c0,7.3-2.7,14.1-7.6,19.3
		C145,198.8,138.3,201.7,131.2,201.7C131.2,201.7,131.2,201.7,131.2,201.7z M112.7,174.5c0,10.6,8.3,19.2,18.4,19.2c0,0,0,0,0.1,0
		c4.9,0,9.5-2,13-5.6c3.5-3.7,5.4-8.5,5.4-13.7c0-2.2-0.4-3.8-1.1-4.4c-1.3-1.2-5.5-0.8-9.5-0.5c-2.4,0.2-5,0.4-7.8,0.4
		c-2.8,0-5.5-0.2-7.9-0.4c-4-0.3-8.2-0.6-9.5,0.6C113.1,170.7,112.7,172.3,112.7,174.5z"/>
</g>
<g>
	<path class="st3" d="M76.2,140.7l10.4-9.7c-5.4-5.8-14.4-6-20.2-0.7c-5.8,5.4-6,14.4-0.7,20.2c5.4,5.8,14.4,6,20.2,0.7
		c1-0.9,1.9-2,2.6-3.2L76.2,140.7z"/>
</g>
<g>
	<path class="st3" d="M181.2,139.7l10.4-9.8c-5.4-5.8-14.4-6-20.2-0.7c-5.8,5.4-6,14.4-0.7,20.2c5.4,5.8,14.4,6,20.2,0.7
		c1-0.9,1.9-2,2.6-3.2L181.2,139.7z"/>
</g>
</svg>
