<svg xmlns="http://www.w3.org/2000/svg" xmlns:xlink="http://www.w3.org/1999/xlink" viewBox="0 0 262.17 298.96"><defs><style>.cls-1{fill:none;}.cls-2{fill:#00c9ff;}.cls-3{clip-path:url(#clip-path);}.cls-4{fill:#012442;}.cls-5{fill:#e02d5c;}.cls-6{fill:#af1545;}.cls-7{fill:#c1e0e5;}.cls-8{fill:#e3fafc;}.cls-9{fill:#90acaf;}.cls-10{fill:#fff;}</style><clipPath id="clip-path"><circle class="cls-1" cx="130.19" cy="175.47" r="123.33"/></clipPath></defs><g id="Camada_4" data-name="Camada 4"><circle class="cls-2" cx="130.7" cy="174.74" r="123.33"/><g class="cls-3"><path class="cls-4" d="M217.49,301c-12.47,0-23.73-7.85-26.61-19.44-9.28-37.2-33-47.32-34-47.74.38.16.59.23.59.23l19.83-46.57c5.19,1.85,51.15,19.87,66.88,83,3.36,13.45-5.85,26.84-20.56,29.91A29.67,29.67,0,0,1,217.49,301Z"/><path class="cls-5" d="M218.69,292.94c-8.31,0-15.82-5.24-17.74-13-10.65-42.72-44.16-57.53-44.49-57.67-9.18-3.76-13.29-13.62-9.17-22s14.9-12.15,24.07-8.38c2,.84,50.29,21.24,65.11,80.66,2.23,9-3.91,17.89-13.72,19.94A20.14,20.14,0,0,1,218.69,292.94Z"/><path class="cls-4" d="M34.9,301.84a29.67,29.67,0,0,1-6.1-.63C14.09,298.15,4.88,284.76,8.24,271.3,24,208.2,73.88,186.56,79.07,184.71l19.82,46.57a43.9,43.9,0,0,0-3.35,3.39c-1,.41-24.76,10.53-34,47.74C58.62,294,47.36,301.84,34.9,301.84Z"/><path class="cls-5" d="M33.7,293.77a20.31,20.31,0,0,1-4.07-.42c-9.8-2.05-15.94-11-13.71-19.94C30.73,214,80.8,192.76,82.85,191.92l20.3,26.92.31.27c-1.39.6-41.39,19.06-52,61.7C49.51,288.53,42,293.77,33.7,293.77Z"/><g id="peito"><path class="cls-5" d="M193.49,301s7.63-85.63-43.82-112.23L93.24,191c-45.06,15.92-42.6,110-42.6,110Z"/></g><path class="cls-6" d="M34.74,232.36c64.57,58.23,165.52,28.49,184.73,1.84-13.73-24.22-45.93-49-63.87-41.91-9.89-9.68-64.63,3.36-72.5-.25C80.53,194,56.26,202.94,34.74,232.36Z"/><path class="cls-4" d="M63.65,249.7a3.61,3.61,0,0,0-5.33,2.18c-2.79,10.7-5.1,25.23-5.11,44a3.5,3.5,0,0,0,3.64,3.34h0a3.49,3.49,0,0,0,3.64-3.33c0-18,2.24-32,4.88-42.18a3.6,3.6,0,0,0-1.66-4Z"/><path class="cls-4" d="M191.84,249.69a3.61,3.61,0,0,0-1.8,4.08c2.64,10.18,4.84,24.09,4.85,42.16a3.49,3.49,0,0,0,3.64,3.33h0a3.5,3.5,0,0,0,3.64-3.34c0-18.8-2.31-33.31-5.1-44a3.59,3.59,0,0,0-5.14-2.26Z"/></g></g><g id="Camada_3" data-name="Camada 3"><path class="cls-7" d="M218.05,77.55c-10.14-23.64-31.72-42.84-85.66-42.5-52.91.35-80,14-87.36,40.88-6,21.71-12.16,125.51-12.16,125.51s27,39.06,99.72,50.77h.13c72.6-12.64,99.05-52.05,99.05-52.05S224.43,92.44,218.05,77.55Z"/><path class="cls-4" d="M132.27,256.48l-.36-.05C58.2,244.56,30.5,205.52,29.36,203.86l-.84-1.21.09-1.47c.25-4.25,6.29-104.49,12.31-126.38C45,60,54.7,48.87,69.81,41.67S105.28,31,132.36,30.79h1.51c46.91,0,74.92,14.35,88.1,45.08h0c6.48,15.12,13.31,112.91,14.06,124l.1,1.45-.81,1.21c-1.12,1.67-28.31,41.08-101.87,53.89l-.35.06Zm-95-56.37c5,6.28,32.79,37.53,95.4,47.78,62.48-11.06,89.85-42.68,94.78-49C225.27,168,219,90.7,214.13,79.23c-7.43-17.31-24-40.26-81.71-39.91-49.83.32-76.29,12.31-83.27,37.74C43.76,96.66,38,187,37.23,200.11Z"/><path class="cls-4" d="M153.58,194.66l-.48-74.83-14.77.1.51,78.3C142.76,197.32,147.82,196.11,153.58,194.66Z"/><path class="cls-4" d="M182.18,186.86,180,119.66l-14.76.09L167.55,191C172.29,189.72,177.22,188.33,182.18,186.86Z"/><path class="cls-4" d="M210.6,177.31l-3.76-57.82-14.76.09,4.08,62.89C201.17,180.81,206,179.09,210.6,177.31Z"/><path class="cls-4" d="M125.19,199.63,124.68,120l-14.76.09.49,76.87C115.31,198.1,120.26,199,125.19,199.63Z"/><path class="cls-4" d="M67.7,182.42l3.23-62.06-14.76.1L53.3,175.63C57.39,177.69,62.26,180,67.7,182.42Z"/><path class="cls-4" d="M96.34,193.19l1.46-73L83,120.28l-1.36,67.87C86.37,189.93,91.28,191.64,96.34,193.19Z"/><path class="cls-8" d="M156.28,111.17l5.4,0,21.18-.13,5.48,0,20.72-.13c-1.75-14.72-3.35-24.75-4.52-27.49-11.14-26-36.63-32.1-60-33.32l.4,61.22Z"/><path class="cls-9" d="M37.16,189.72S77.83,219.41,129.25,226c0,0,44-4.64,97.79-36.67l-1.54-29.65L39.63,153.17Z"/><path class="cls-7" d="M130,212.31c58.42-8.47,112.66-42.86,112.66-42.86L231.51,111a2.86,2.86,0,0,0-2.83-2.33l-98.83.64-5.34,0-90.08.58a2.86,2.86,0,0,0-2.82,2.49l-7.85,58.47s43.45,33.76,102,41.48a8,8,0,0,0,4.24,0Z"/><path class="cls-4" d="M127.68,215.94a12.75,12.75,0,0,1-2.52-.33c-58.67-7.78-101.63-40.73-103.44-42.13l-1.5-1.17,8.1-60.37a6.21,6.21,0,0,1,6.09-5.36l194.25-1.25h0a6.17,6.17,0,0,1,6.07,5l11.53,60.69-1.9,1.21c-.55.34-55.44,34.81-113.83,43.32a11.71,11.71,0,0,1-2.7.35Zm-.27-6.62h0Zm.82,0h0ZM27.31,169.36c8.12,5.87,47.94,33,98.85,39.69l.27,0c.39.08.91.17,1.16.19l.23,0,.24,0c.25,0,.76-.12,1.16-.21l.27-.05c50.95-7.39,99.35-35.16,109.44-41.21L228.32,112,34.84,113.22Z"/><path class="cls-4" d="M51.56,171.79,57.77,122l-11.88.07-6.74,43.21C42.44,167.13,46.6,169.35,51.56,171.79Z"/><path class="cls-4" d="M75.29,182.27l4.21-60.36L66.77,122l-4.55,54.71c1.64.64,3.19,1.39,4.78,2.16C69.64,180,72.4,181.13,75.29,182.27Z"/><path class="cls-4" d="M102.07,121.82l-13.57.08-2,64.1c4.52,1.37,8.76,3,13.74,4.13Z"/><path class="cls-4" d="M126,196.17l-.48-74.46-14.4.1.45,70.81Q118.52,194.51,126,196.17Z"/><path class="cls-4" d="M214.83,170.74,208,121l11.89-.08,7.3,43.12C223.89,166,219.76,168.24,214.83,170.74Z"/><path class="cls-4" d="M191.24,181.53l-5-60.3,12.72-.09,5.26,54.65c-1.63.67-3.18,1.43-4.75,2.22C196.87,179.17,194.12,180.35,191.24,181.53Z"/><path class="cls-4" d="M163.69,121.42l13.56-.09,2.87,64.07c-4.5,1.42-8.72,3.08-13.69,4.31Z"/><path class="cls-4" d="M140.75,196.07l-.48-74.45,14.41-.09.46,70.81Q148.18,194.32,140.75,196.07Z"/><path class="cls-5" d="M93.27,19.61l3.23-1c.24-.07,6-1.92,13.86-3.56l2.3-.49,1.72,2.84.36-3.23,2.5-.39a92.53,92.53,0,0,1,14.2-1.24,101.17,101.17,0,0,1,12.77.92l2.82.36.13,4.78,3.89-4.11,1.77.32c8.32,1.52,14.57,3.24,14.83,3.32l3.5,1L153.77,50.89l-44.55.28Z"/><path class="cls-4" d="M131.44,15.82a98.64,98.64,0,0,1,12.35.89l.27,10L152.22,18c8.27,1.52,14.54,3.26,14.54,3.26l-15.3,26.29-39.88.26L97.52,21.73s5.74-1.85,13.52-3.48l5.56,9.17L117.76,17a89.72,89.72,0,0,1,13.68-1.2m0-6.64a95.49,95.49,0,0,0-14.72,1.28l-2.42.38,0-.05-1,.21-1.56.25v.08l-2,.43c-8,1.68-14,3.57-14.2,3.65L89,17.49l2.22,6.42L105.3,50l1.56,4.49,4.76,0,39.89-.26,4.56,0,1.61-4.27L173,23.62l2.55-6.8-7-1.93c-.26-.08-6.65-1.84-15.11-3.39l-3.15-.57v-.08l-5.64-.73a105.57,105.57,0,0,0-13.19-.94Z"/><ellipse class="cls-10" cx="78.8" cy="75.1" rx="6.23" ry="6.95" transform="translate(-28.78 91.75) rotate(-52.42)"/><ellipse class="cls-10" cx="94.69" cy="88.17" rx="3.9" ry="4.34" transform="translate(-32.93 109.45) rotate(-52.42)"/></g></svg>