<svg xmlns="http://www.w3.org/2000/svg" xmlns:xlink="http://www.w3.org/1999/xlink" viewBox="0 0 262.17 298.96"><defs><style>.cls-1,.cls-12,.cls-15{fill:none;}.cls-2{fill:#39d88c;}.cls-3{clip-path:url(#clip-path);}.cls-4{fill:#012442;}.cls-5{fill:#ffbb71;}.cls-6{fill:#3b4f5b;}.cls-12,.cls-15,.cls-16,.cls-6{stroke:#012442;stroke-linecap:round;stroke-miterlimit:10;}.cls-15,.cls-16,.cls-6{stroke-width:8px;}.cls-7{fill:#898785;}.cls-8{fill:#c1c1c1;}.cls-9{fill:#2b3d47;}.cls-10{fill:#ededed;}.cls-11{fill:#ff6417;}.cls-12{stroke-width:5px;}.cls-13{fill:#efc03c;}.cls-14,.cls-16{fill:#fff;}</style><clipPath id="clip-path"><circle class="cls-1" cx="130.19" cy="175.47" r="123.33"/></clipPath></defs><g id="Camada_4" data-name="Camada 4"><circle class="cls-2" cx="130.7" cy="174.74" r="123.33"/><g class="cls-3"><path class="cls-4" d="M217.49,301c-12.47,0-23.73-7.85-26.61-19.44-9.28-37.2-33-47.32-34-47.74.38.16.59.23.59.23l19.83-46.57c5.19,1.85,51.15,19.87,66.88,83,3.36,13.45-5.85,26.84-20.56,29.91A29.67,29.67,0,0,1,217.49,301Z"/><path class="cls-5" d="M218.69,292.94c-8.31,0-15.82-5.24-17.74-13-10.65-42.72-44.16-57.53-44.49-57.67-9.18-3.76-13.29-13.62-9.17-22s14.9-12.15,24.07-8.38c2,.84,50.29,21.24,65.11,80.66,2.23,9-3.91,17.89-13.72,19.94A20.14,20.14,0,0,1,218.69,292.94Z"/><path class="cls-4" d="M34.9,301.84a29.67,29.67,0,0,1-6.1-.63C14.09,298.15,4.88,284.76,8.24,271.3,24,208.2,73.88,186.56,79.07,184.71l19.82,46.57a43.9,43.9,0,0,0-3.35,3.39c-1,.41-24.76,10.53-34,47.74C58.62,294,47.36,301.84,34.9,301.84Z"/><path class="cls-5" d="M33.7,293.77a20.31,20.31,0,0,1-4.07-.42c-9.8-2.05-15.94-11-13.71-19.94C30.73,214,80.8,192.76,82.85,191.92l20.3,26.92.31.27c-1.39.6-41.39,19.06-52,61.7C49.51,288.53,42,293.77,33.7,293.77Z"/><g id="peito"><path class="cls-5" d="M193.49,301s7.63-85.63-43.82-112.23L93.24,191c-45.06,15.92-42.6,110-42.6,110Z"/></g><path class="cls-4" d="M63.65,253.7a3.61,3.61,0,0,0-5.33,2.18c-3.53,13.53-5.11,28.23-5.11,44a3.5,3.5,0,0,0,3.64,3.34h0a3.49,3.49,0,0,0,3.64-3.33c0-18,2.24-32,4.88-42.18a3.6,3.6,0,0,0-1.66-4Z"/><path class="cls-4" d="M191.84,254.69a3.61,3.61,0,0,0-1.8,4.08c2.64,10.18,4.84,24.09,4.85,42.16a3.49,3.49,0,0,0,3.64,3.33h0a3.5,3.5,0,0,0,3.64-3.34c0-18.8-2.31-33.31-5.1-44a3.59,3.59,0,0,0-5.14-2.26Z"/></g><circle class="cls-6" cx="129.63" cy="157.43" r="105.55"/><path class="cls-7" d="M102.72,74.32s27.9,9.7,51.45,0l5-33H96.83S102.68,75.18,102.72,74.32Z"/><ellipse class="cls-8" cx="128.52" cy="38.93" rx="30.52" ry="7.37"/><path class="cls-9" d="M134.89,216.65c-38.79,0-73-10.82-93.35-27.31a91.85,91.85,0,0,0,171.51,9.93C192.76,210,165.22,216.65,134.89,216.65Z"/><path class="cls-4" d="M127.73,31.57c16.14,0,29.23,3.29,29.23,7.36,0,.82-5.62,35.39-5.62,35.39a55,55,0,0,1-21.8,4.31,66.75,66.75,0,0,1-23.64-4.31h0c-.22,0-7.39-34.59-7.39-35.4,0-4.07,13.08-7.36,29.22-7.36m0-6A95.16,95.16,0,0,0,105.6,27.9c-8.69,2.19-13.09,5.9-13.09,11,0,.7,0,1.25,3.74,19.23,1,4.65,1.87,8.92,2.54,12,.36,1.66.66,3,.88,4,.12.54.22.95.29,1.24a6.05,6.05,0,0,0,4,4.57,73.6,73.6,0,0,0,25.62,4.64,60.91,60.91,0,0,0,24.17-4.8l3-1.3.53-3.25c5.7-35,5.7-35.74,5.7-36.35,0-5.13-4.41-8.84-13.1-11a95,95,0,0,0-22.13-2.33Z"/><path class="cls-10" d="M129.29,40.77a12.21,12.21,0,0,1-2.44-.26c-3.18-.68-7-1.83-8.48-4.77a5.43,5.43,0,0,1,0-4.89c3.6-7.74,12.39-16.39,20-19.71a43.85,43.85,0,0,1,8.45-2.61A55.08,55.08,0,0,1,158.13,7.3a43.8,43.8,0,0,1,10,1.14,34.66,34.66,0,0,1,19.58,12.24l1.83,2.38L175.89,33.59l-1.83-2.38a17.41,17.41,0,0,0-9.88-6,26.66,26.66,0,0,0-6.06-.67,37.25,37.25,0,0,0-7.68.86A26.47,26.47,0,0,0,145.31,27c-3.41,1.48-6.79,5.12-8.83,9.5A7.51,7.51,0,0,1,129.29,40.77Z"/><path class="cls-4" d="M158.13,10.3a40.63,40.63,0,0,1,9.34,1.06,31.68,31.68,0,0,1,17.9,11.15l-8.93,6.87a20.45,20.45,0,0,0-11.57-7.06,29.33,29.33,0,0,0-6.75-.75,40.54,40.54,0,0,0-8.3.92,30.12,30.12,0,0,0-5.71,1.74c-4.55,2-8.27,6.5-10.35,11a4.59,4.59,0,0,1-4.47,2.55,8.72,8.72,0,0,1-1.81-.2c-3.53-.75-7.88-2.18-6.35-5.45,3.24-7,11.42-15.15,18.49-18.22a40.17,40.17,0,0,1,7.87-2.43,51.25,51.25,0,0,1,10.64-1.17m0-6a57.57,57.57,0,0,0-11.88,1.3,46.63,46.63,0,0,0-9,2.79c-8.34,3.63-17.6,12.74-21.53,21.19a8.48,8.48,0,0,0,0,7.5c2,4.08,6.71,5.54,10.55,6.36a14.69,14.69,0,0,0,3.06.33,10.55,10.55,0,0,0,9.91-6c1.71-3.68,4.58-6.83,7.3-8a23.83,23.83,0,0,1,4.56-1.37,34.76,34.76,0,0,1,7.06-.79,23.5,23.5,0,0,1,5.37.59A14.44,14.44,0,0,1,171.68,33l3.66,4.76,4.76-3.66L189,27.26l4.75-3.66-3.66-4.75A37.71,37.71,0,0,0,168.86,5.52,46.5,46.5,0,0,0,158.13,4.3Z"/><path class="cls-11" d="M166.82,18.53c-1.53,7.88-1.87,16.12.22,23.88s6.79,15,13.68,19.09l.28-7.8a40.75,40.75,0,0,0,41.12,10.58,32.82,32.82,0,0,1-11-17A54.9,54.9,0,0,1,226,51.91a40,40,0,0,0-14.83-35.77,40,40,0,0,0-38.32-5.57,9.25,9.25,0,0,0-3.49,2.09,9.94,9.94,0,0,0-2,4.33,82.57,82.57,0,0,0-2.67,16.23"/><path class="cls-12" d="M166.82,18.53c-3.77,15.21-.47,34.32,13.9,43l.28-7.8a40.75,40.75,0,0,0,41.12,10.58,32.82,32.82,0,0,1-11-17A54.9,54.9,0,0,1,226,51.91S231.31,7,180.74,8.49a15.4,15.4,0,0,0-11.89,5.94A11.51,11.51,0,0,0,166.82,18.53Z"/><path class="cls-13" d="M214.54,39.14c-2.39-17.18-22.24-28-38-20.89-9,24.21,20.92,36.35,29.13,35.63-2.95-4.54-4.49-12.17-5.94-17.37C203.56,37.16,210.88,38.07,214.54,39.14Z"/></g><g id="Camada_3" data-name="Camada 3"><ellipse class="cls-14" cx="83.53" cy="86.19" rx="6.23" ry="6.95" transform="translate(-35.72 99.83) rotate(-52.42)"/><ellipse class="cls-14" cx="99.42" cy="99.26" rx="3.9" ry="4.34" transform="translate(-39.88 117.52) rotate(-52.42)"/><circle class="cls-13" cx="179.46" cy="145.79" r="35.15"/><circle class="cls-15" cx="177.15" cy="145.79" r="35.15"/><circle class="cls-13" cx="80.86" cy="147.14" r="35.15"/><circle class="cls-15" cx="78.55" cy="147.14" r="35.15"/><path class="cls-4" d="M193.32,151.31l-5.23-5.23,5.23-5.23a7.83,7.83,0,0,0,0-11h0a7.82,7.82,0,0,0-11,0L177.05,135l-5.23-5.22a7.8,7.8,0,0,0-11,11l5.23,5.23-5.23,5.23a7.84,7.84,0,0,0,0,11h0a7.82,7.82,0,0,0,11,0l5.23-5.23,5.23,5.23a7.81,7.81,0,0,0,11-11Z"/><path class="cls-4" d="M93.54,152.49l-5.23-5.23L93.54,142a7.84,7.84,0,0,0,0-11h0a7.82,7.82,0,0,0-11,0l-5.23,5.23L72,131a7.81,7.81,0,1,0-11,11l5.23,5.23L61,152.49a7.83,7.83,0,0,0,0,11h0a7.82,7.82,0,0,0,11,0l5.23-5.22,5.23,5.22a7.8,7.8,0,0,0,11-11Z"/><path class="cls-16" d="M103.09,194.92c0-15,9.67-5.92,25.06-4.81,13.82,1,25.07-10.15,25.07,4.81S142,222,128.15,222,103.09,209.87,103.09,194.92Z"/></g></svg>