<?xml version="1.0" encoding="utf-8"?>
<!-- Generator: Adobe Illustrator 25.0.0, SVG Export Plug-In . SVG Version: 6.00 Build 0)  -->
<svg version="1.1" id="Camada_1" xmlns="http://www.w3.org/2000/svg" xmlns:xlink="http://www.w3.org/1999/xlink" x="0px" y="0px"
	 viewBox="0 0 262.2 299" style="enable-background:new 0 0 262.2 299;" xml:space="preserve">
<style type="text/css">
	.st0{fill:#2ECC56;}
	.st1{clip-path:url(#SVGID_2_);}
	.st2{fill:#012442;}
	.st3{fill:#F9D9F6;}
	.st4{fill:#F2C0F0;}
	.st5{fill:none;stroke:#012442;stroke-width:8;stroke-miterlimit:10;}
	.st6{fill:#E02D5C;}
	.st7{fill:#AF1545;}
	.st8{clip-path:url(#SVGID_4_);}
	.st9{fill:#FFFFFF;}
	.st10{fill:#E3FAFC;}
	.st11{fill:#EF5B70;}
	.st12{fill:#3EC63E;}
	.st13{fill:none;stroke:#012442;stroke-width:6;stroke-linecap:round;stroke-linejoin:round;}
	.st14{fill:#319931;}
</style>
<g id="Camada_4">
	<circle class="st0" cx="130.7" cy="174.7" r="123.3"/>
	<g>
		<defs>
			<circle id="SVGID_1_" cx="130.2" cy="175.5" r="123.3"/>
		</defs>
		<clipPath id="SVGID_2_">
			<use xlink:href="#SVGID_1_"  style="overflow:visible;"/>
		</clipPath>
		<g class="st1">
			<path class="st2" d="M217.5,301c-12.5,0-23.7-7.9-26.6-19.4c-9.3-37.2-33-47.3-34-47.7c0.4,0.2,0.6,0.2,0.6,0.2l19.8-46.6
				c5.2,1.9,51.2,19.9,66.9,83c3.4,13.5-5.9,26.8-20.6,29.9C221.6,300.8,219.5,301,217.5,301z"/>
			<path class="st3" d="M218.7,292.9c-8.3,0-15.8-5.2-17.7-13c-10.6-42.7-44.2-57.5-44.5-57.7c-9.2-3.8-13.3-13.6-9.2-22
				s14.9-12.1,24.1-8.4c2,0.8,50.3,21.2,65.1,80.7c2.2,9-3.9,17.9-13.7,19.9C221.4,292.8,220.1,292.9,218.7,292.9z"/>
			<path class="st2" d="M34.9,301.8c-2,0-4.1-0.2-6.1-0.6c-14.7-3.1-23.9-16.4-20.6-29.9c15.8-63.1,65.6-84.7,70.8-86.6l19.8,46.6
				c-1.2,1.1-2.3,2.2-3.3,3.4c-1,0.4-24.8,10.5-34,47.7C58.6,294,47.4,301.8,34.9,301.8z"/>
			<path class="st3" d="M33.7,293.8c-1.4,0-2.7-0.1-4.1-0.4c-9.8-2-15.9-11-13.7-19.9c14.8-59.4,64.9-80.6,66.9-81.5l20.3,26.9
				l0.3,0.3c-1.4,0.6-41.4,19.1-52,61.7C49.5,288.5,42,293.8,33.7,293.8z"/>
			<g id="peito">
				<path class="st3" d="M193.5,301c0,0,7.6-85.6-43.8-112.2L93.2,191c-45.1,15.9-42.6,110-42.6,110H193.5z"/>
			</g>
			<path class="st4" d="M36.7,229.4c64.6,58.2,163.5,31.5,182.7,4.8c-13.7-24.2-45.9-49-63.9-41.9c-9.9-9.7-64.6,3.4-72.5-0.2
				C80.5,194,65,190.7,36.7,229.4z"/>
			<path class="st2" d="M63.7,249.7c-1.7-1-3.9-0.5-4.9,1.3c-0.2,0.3-0.3,0.6-0.4,0.9c-2.8,10.7-5.1,25.2-5.1,44
				c0.1,1.9,1.7,3.4,3.6,3.3l0,0c1.9,0.1,3.6-1.4,3.6-3.3c0-18,2.2-32,4.9-42.2C65.8,252.2,65.1,250.5,63.7,249.7L63.7,249.7z"/>
			<path class="st2" d="M191.8,249.7c-1.5,0.8-2.2,2.5-1.8,4.1c2.6,10.2,4.8,24.1,4.9,42.2c0.1,1.9,1.7,3.4,3.6,3.3l0,0
				c1.9,0.1,3.6-1.4,3.6-3.3c0-18.8-2.3-33.3-5.1-44c-0.5-1.9-2.5-3.1-4.4-2.6C192.4,249.4,192.2,249.5,191.8,249.7L191.8,249.7z"/>
		</g>
	</g>
</g>
<g id="Camada_3">
	<path class="st3" d="M216.4,72.8c-9.8-27.4-31-49.8-84.1-49.8c-52.2,0-78.9,15.6-86.4,46.7c-6.4,26.6-13.7,66.7-11,112.6
		c2.3,36.7,44.8,67.7,98,67.7s93.2-32.2,94.8-67.7C230.1,130.6,222.7,90.5,216.4,72.8z"/>
	<path class="st5" d="M216.4,72.8c-9.8-27.4-31-49.8-84.1-49.8c-52.2,0-78.9,15.6-86.4,46.7c-6.4,26.6-13.7,66.7-11,112.6
		c2.3,36.7,44.8,67.7,98,67.7s93.2-32.2,94.8-67.7C230.1,130.6,222.7,90.5,216.4,72.8z"/>
	<path class="st6" d="M190.5,28.4C173,20.6,139,17.2,131.3,18.1c-7.7-1-41.7,4.3-59.1,12.1c0,0-58.4,34.9-55.9,110.1
		c0,0-5.5,22.3,30.3,23.5c25.4,0.8,144.2,0.8,169.6,0c35.7-1.1,30.3-23.5,30.3-23.5C242.4,64.4,190.5,28.4,190.5,28.4z"/>
	<path class="st7" d="M244.7,123.8c-3.1,5.8-10.6,11.7-28.6,12.2c-25.4,0.8-144.2,0.8-169.6,0c-20.4-0.6-27.4-8.2-29.6-14.5
		c-0.7,6.3-0.9,12.6-0.7,18.9c0,0-5.5,22.3,30.3,23.5c25.4,0.8,144.2,0.8,169.6,0c35.7-1.1,30.3-23.5,30.3-23.5
		C246.1,134.6,245.5,129.1,244.7,123.8z"/>
	<g>
		<defs>
			<path id="SVGID_3_" d="M174.7,26.5c-17.4-7.9-35.7-10.4-43.4-9.4c-7.7-1-38,5.2-55.4,13.1c0,0-55.7,33.4-59.6,110
				c0,0-5.5,22.5,30.3,23.6c25.4,0.8,144.2,0.8,169.6,0c35.7-1.1,30.3-23.6,30.3-23.6C242.3,52.4,174.7,26.5,174.7,26.5z"/>
		</defs>
		<clipPath id="SVGID_4_">
			<use xlink:href="#SVGID_3_"  style="overflow:visible;"/>
		</clipPath>
		<g class="st8">
			<ellipse class="st9" cx="59.7" cy="76.9" rx="33.3" ry="37.7"/>
			<ellipse class="st9" cx="144.2" cy="151.2" rx="47" ry="53.3"/>
			<ellipse class="st9" cx="198" cy="23" rx="47" ry="53.3"/>
			<path class="st10" d="M98.9,136.8c-1.2,4.7-1.8,9.5-1.8,14.4c0,29.4,21,53.3,47,53.3s47-23.9,47-53.3c0-4.8-0.6-9.7-1.8-14.4
				H98.9z"/>
		</g>
	</g>
	<path class="st2" d="M131.3,18.1c59.9,0,111.1,46.2,115,122.2c0,0,5.5,22.3-30.3,23.5c-12.7,0.4-48.7,0.6-84.8,0.6
		s-72.1-0.2-84.8-0.6c-35.8-1.1-30.3-23.5-30.3-23.5C20.2,64.4,69.3,18.1,131.3,18.1 M131.3,9.5c-16.1-0.1-32,3-46.9,9.1
		c-14.5,6-27.7,14.9-38.6,26.2C23,68.2,9.8,100.9,7.7,139.3c-1.2,7,0.6,14.1,4.8,19.7c6.4,8.4,17.7,12.9,33.7,13.4
		c11.6,0.4,45.1,0.6,85.1,0.6s73.4-0.2,85.1-0.6c16-0.5,27.4-5,33.7-13.4c4.2-5.6,6-12.8,4.8-19.7c-2.1-38.2-15.6-70.9-39-94.6
		C193.6,22.1,163.1,9.4,131.3,9.5z"/>
	<g id="boca">
		<path class="st2" d="M131.6,231.3c9.1,0,16.7-7.7,18.7-18c0.6-2.9-1.3-5.7-3.7-5.7l-30.1,0.1c-2.4,0-4.3,2.8-3.7,5.7
			C114.9,223.8,122.5,231.4,131.6,231.3z"/>
		<path class="st9" d="M150,214.7c0.4-1.5,0.6-3.1,0.8-4.6c0.1-1.9-1.1-3.5-2.6-3.5l-33.2,0.1c-1.5,0-2.8,1.6-2.6,3.5
			c0.1,1.6,0.4,3.1,0.8,4.6L150,214.7z"/>
		<path class="st11" d="M132.4,231.4c-8.9,0-12.6-5.4-12.6-5.4c3.6-2.9,8-4.4,12.6-4.3c4.4,0,9.3,1.2,12.2,3.2
			C144.6,224.9,141.3,231.4,132.4,231.4z"/>
	</g>
	<path class="st2" d="M148.1,206.6c1.5,0,2.8,1.6,2.6,3.5c-1,5.6-3.2,10.8-6.6,15.4c-2.7,3.8-7.1,6-11.8,5.9l0,0
		c-1.5,0-6.7-0.4-9.7-2.7c-4.6-3.4-8-8.2-9.5-13.8c-0.4-1.5-0.7-3-0.8-4.6c0-1.9,1.1-3.5,2.6-3.5L148.1,206.6L148.1,206.6
		 M148.2,200.8L148.2,200.8L115,201c-4.1,0-7.3,4.1-7.3,9.2c0.1,2.2,0.4,4.4,1,6.5c1.8,6.7,5.9,12.7,11.5,16.9
		c4.6,3.6,11.9,3.6,12.2,3.6l0,0c6.2,0.1,12-2.9,15.4-7.9c5.7-8.2,7.4-16.2,7.6-18.6c0.2-2.4-0.4-4.9-1.9-6.9
		C152.3,202,150.3,200.9,148.2,200.8L148.2,200.8z"/>
	<ellipse transform="matrix(0.3178 -0.9482 0.9482 0.3178 63.5854 231.6859)" class="st7" cx="192.8" cy="71.7" rx="18" ry="30.7"/>
	<path class="st2" d="M184.3,52c5.2,0,10.3,0.9,15.2,2.6c16.1,5.4,26.6,17.4,23.4,26.8c-2.1,6.3-9.9,9.9-19.6,9.9
		c-5.2,0-10.3-0.9-15.2-2.6c-16.1-5.4-26.6-17.4-23.4-26.8C166.8,55.5,174.6,52,184.3,52 M184.3,46L184.3,46
		c-12.7,0-22.4,5.4-25.3,14c-4.3,12.8,7.7,27.9,27.2,34.4c5.5,1.9,11.3,2.9,17.1,2.9c12.7,0,22.4-5.4,25.3-14
		c4.3-12.8-7.7-27.9-27.2-34.4C195.9,47,190.1,46,184.3,46L184.3,46z"/>
	<path class="st12" d="M202.6,94c-4.3-0.1-8.5-0.5-12.7-1.3c-7.1-1.2-17.2-5.4-22.4-13.1c-3.7-5.4-0.8-8.2,2.2-10.4
		c0.7-0.5,1.4-1.1,2.1-1.7c2.8-2.8,5-6.1,6.5-9.8c2.6-6.3,3.5-13.3,4-20l0.1-0.6c0.6-7.4,1.3-15.8,6.6-21.9
		c4.6-5.3,12.1-8.3,20.6-8.3c0.9,0,1.8,0,2.7,0.1c8.3,0.7,14.5,5.4,16.7,8.5c4.5,6.4,7.1,14.7,7.5,24.1c0.4,8.6-1.1,17.1-2.5,24.4
		c-1.9,9.8-5,20.6-14,25.6c-4.1,2.3-8.6,3.8-13.3,4.3C205.4,94,204,94,202.6,94z"/>
	<path class="st2" d="M209.5,9.8c0.8,0,1.7,0,2.5,0.1c7.1,0.6,12.7,4.8,14.5,7.3c4.6,6.5,6.6,14.5,6.9,22.5s-0.9,15.9-2.4,23.7
		c-1.7,9-4.4,19.1-12.5,23.5c-3.7,2.1-7.8,3.5-12.1,4c-1.3,0.1-2.6,0.2-3.9,0.2c-4.1-0.1-8.2-0.5-12.2-1.3
		c-7.3-1.3-16.1-5.5-20.5-11.8c-3.1-4.6,0.6-5.1,3.9-8.3c3.1-3.1,5.6-6.8,7.2-10.8c2.7-6.6,3.6-13.8,4.2-20.9
		c0.6-7.3,1.1-15.3,6-20.9C195.7,12,202.8,9.8,209.5,9.8 M209.6,3.8L209.6,3.8c-9.4,0-17.7,3.4-22.9,9.4c-6,6.9-6.7,15.8-7.4,23.7
		v0.6c-0.5,6.4-1.4,13.2-3.8,19.1c-1.3,3.3-3.3,6.3-5.8,8.8c-0.6,0.5-1.2,1-1.8,1.5c-1.9,1.2-3.5,3-4.5,5.1
		c-1.2,2.9-0.6,6.1,1.6,9.4c5.8,8.5,16.8,13,24.4,14.4c4.3,0.8,8.7,1.3,13.1,1.3c1.5,0,3-0.1,4.4-0.2c5.1-0.6,10-2.2,14.4-4.7
		c10.1-5.6,13.5-17.1,15.4-27.6c1.4-7.5,2.9-16.2,2.5-25.1c-0.4-10-3.2-18.9-8-25.7c-3.1-4.4-10.6-9.1-18.9-9.8
		C211.5,3.8,210.5,3.8,209.6,3.8L209.6,3.8z"/>
	<circle class="st2" cx="199.5" cy="32.5" r="6.6"/>
	<circle class="st2" cx="219.3" cy="32.5" r="6.6"/>
	<path class="st13" d="M218.7,47c0.2,6-4.5,10.9-10.4,11.1c-6,0.2-10.9-4.5-11.1-10.4c0-0.2,0-0.4,0-0.7"/>
	<path class="st14" d="M206.5,81.6c-7.1,0.4-15-1.2-21.8-3c-5-1.3-9.8-3.4-14.1-6.3c-1.8,1.4-2.6,2.7-0.6,5.7
		c4.3,6.3,13.1,10.6,20.5,11.8c5.3,1.1,10.7,1.4,16.1,1.1c4.3-0.5,8.4-1.9,12.1-4c4.6-2.6,7.5-6.9,9.4-11.9l-0.4,0.1
		C221.1,78.8,213.9,81,206.5,81.6z"/>
	<path class="st2" d="M99.1,203.5l-4.9-4.9l4.9-4.9c2.8-2.9,2.8-7.5,0-10.4l0,0c-2.9-2.8-7.5-2.8-10.4,0l-4.9,4.9l-4.9-4.9
		c-2.9-2.9-7.5-2.9-10.4,0c-2.9,2.9-2.9,7.5,0,10.4l4.9,4.9l-4.9,4.9c-2.8,2.9-2.8,7.5,0,10.4l0,0c2.9,2.9,7.5,2.9,10.3,0l4.9-4.9
		l4.9,4.9c3,2.8,7.6,2.6,10.4-0.4C101.7,210.7,101.7,206.3,99.1,203.5z"/>
	<path class="st2" d="M195.4,202.5l-4.9-4.9l4.9-4.9c2.8-2.9,2.8-7.5,0-10.4l0,0c-2.9-2.8-7.5-2.8-10.4,0l-4.9,4.9l-4.9-4.9
		c-2.9-2.9-7.5-2.9-10.4,0c-2.9,2.9-2.9,7.5,0,10.4l4.9,4.9l-4.9,4.9c-2.8,2.9-2.8,7.5,0,10.4l0,0c2.9,2.9,7.5,2.9,10.4,0l4.9-4.9
		l4.9,4.9c2.8,3,7.4,3.1,10.4,0.4c3-2.8,3.1-7.4,0.4-10.4C195.7,202.7,195.5,202.6,195.4,202.5z"/>
</g>
</svg>
