<?xml version="1.0" encoding="utf-8"?>
<!-- Generator: Adobe Illustrator 25.0.0, SVG Export Plug-In . SVG Version: 6.00 Build 0)  -->
<svg version="1.1" id="Camada_1" xmlns="http://www.w3.org/2000/svg" xmlns:xlink="http://www.w3.org/1999/xlink" x="0px" y="0px"
	 viewBox="0 0 262.2 299" style="enable-background:new 0 0 262.2 299;" xml:space="preserve">
<style type="text/css">
	.st0{fill:#F29B3B;}
	.st1{clip-path:url(#SVGID_2_);}
	.st2{fill:#012442;}
	.st3{fill:#3EC63E;}
	.st4{fill:#2BA52B;}
	.st5{fill:#9C35D8;}
	.st6{fill:#770BAA;}
	.st7{fill:#F7C434;}
	.st8{fill:none;stroke:#012442;stroke-width:8;stroke-linecap:round;stroke-miterlimit:10;}
	.st9{fill:#FFFFFF;}
	.st10{fill:#E02D5C;}
	.st11{fill:#4D8FAA;}
</style>
<g id="Camada_4">
	<circle class="st0" cx="130.7" cy="174.7" r="123.3"/>
	<g>
		<defs>
			<circle id="SVGID_1_" cx="130.2" cy="175.5" r="123.3"/>
		</defs>
		<clipPath id="SVGID_2_">
			<use xlink:href="#SVGID_1_"  style="overflow:visible;"/>
		</clipPath>
		<g class="st1">
			<path class="st2" d="M217.5,301c-12.5,0-23.7-7.9-26.6-19.4c-9.3-37.2-33-47.3-34-47.7c0.4,0.2,0.6,0.2,0.6,0.2l19.8-46.6
				c5.2,1.9,51.2,19.9,66.9,83c3.4,13.5-5.9,26.8-20.6,29.9C221.6,300.8,219.5,301,217.5,301z"/>
			<path class="st3" d="M218.7,296.4c-10.1,0-18.9-6.4-21.1-15.6c-10.2-40.8-42.2-55.1-42.5-55.3c-5.3-2.1-9.5-6.4-11.6-11.7
				c-1.9-4.9-1.6-10.4,0.7-15.1c3.5-7.2,11.3-11.8,19.8-11.8c3,0,6,0.6,8.8,1.7c2.1,0.9,51.9,21.9,67.2,83c1.3,5,0.4,10.3-2.4,14.7
				c-3.2,4.9-8.2,8.4-14,9.5C221.9,296.3,220.3,296.4,218.7,296.4z"/>
			<path class="st2" d="M163.9,190.4c2.6,0,5.1,0.5,7.4,1.5c2,0.8,50.3,21.2,65.1,80.7c2.2,9-3.9,17.9-13.7,19.9
				c-1.3,0.3-2.7,0.4-4.1,0.4c-8.3,0-15.8-5.2-17.7-13c-10.6-42.7-44.2-57.5-44.5-57.7c-9.2-3.8-13.3-13.6-9.2-22
				C150.3,194.1,157,190.4,163.9,190.4 M163.9,183.4L163.9,183.4c-9.8,0-18.8,5.4-22.9,13.8c-2.8,5.6-3.1,12-0.9,17.8
				c2.4,6.2,7.3,11.2,13.5,13.7c1.2,0.5,30.9,14.6,40.5,52.9c2.7,10.8,12.8,18.3,24.5,18.3c1.8,0,3.7-0.2,5.5-0.6
				c6.7-1.3,12.6-5.3,16.3-11.1c3.3-5.2,4.3-11.5,2.8-17.4c-15.7-62.8-67.1-84.5-69.3-85.4C170.8,184.1,167.4,183.4,163.9,183.4
				L163.9,183.4z"/>
			<path class="st2" d="M34.9,301.8c-2,0-4.1-0.2-6.1-0.6c-14.7-3.1-23.9-16.4-20.6-29.9c15.8-63.1,65.6-84.7,70.8-86.6l19.8,46.6
				c-1.2,1.1-2.3,2.2-3.3,3.4c-1,0.4-24.8,10.5-34,47.7C58.6,294,47.4,301.8,34.9,301.8z"/>
			<path class="st3" d="M33.7,297.3c-1.6,0-3.2-0.2-4.8-0.5c-5.8-1.2-10.8-4.6-14-9.5c-2.8-4.4-3.7-9.7-2.4-14.7
				c15.2-61.2,66.8-83,69-83.9c0.4-0.2,0.9-0.3,1.3-0.3c1.1,0,2.1,0.5,2.8,1.4l20.1,26.7l0.1,0.1c0.9,0.8,1.3,2,1.1,3.2
				c-0.2,1.2-1,2.2-2.1,2.6c-0.4,0.2-39.8,18.2-50,59.3C52.5,290.9,43.8,297.3,33.7,297.3L33.7,297.3z"/>
			<path class="st2" d="M82.8,191.9l20.3,26.9l0.3,0.3c-1.4,0.6-41.4,19.1-52,61.7c-1.9,7.7-9.4,13-17.7,13l0,0
				c-1.4,0-2.7-0.1-4.1-0.4c-9.8-2-15.9-11-13.7-19.9C30.7,214,80.8,192.8,82.8,191.9 M82.8,184.9c-0.9,0-1.8,0.2-2.7,0.5
				c-2.2,0.9-55.4,23.4-71.1,86.3c-1.5,5.9-0.4,12.2,2.9,17.4c3.7,5.7,9.5,9.7,16.2,11.1c1.8,0.4,3.6,0.6,5.5,0.6
				c11.8,0,21.9-7.5,24.5-18.3c9.9-39.7,47.6-56.8,48-57c3.5-1.5,5.2-5.7,3.6-9.2c-0.4-0.8-0.9-1.6-1.5-2.2l-19.9-26.4
				C87.1,185.9,85,184.9,82.8,184.9L82.8,184.9z"/>
			<g id="peito">
				<path class="st3" d="M193.5,301c0,0,7.6-85.6-43.8-112.2L93.2,191c-45.1,15.9-42.6,110-42.6,110H193.5z"/>
			</g>
			<path class="st4" d="M36.7,229.4c64.6,58.2,163.5,31.5,182.7,4.8c-13.7-24.2-45.9-49-63.9-41.9c-9.9-9.7-64.6,3.4-72.5-0.2
				C80.5,194,65,190.7,36.7,229.4z"/>
			<path class="st2" d="M63.7,249.7c-1.7-1-3.9-0.5-4.9,1.3c-0.2,0.3-0.3,0.6-0.4,0.9c-2.8,10.7-5.1,25.2-5.1,44
				c0.1,1.9,1.7,3.4,3.6,3.3l0,0c1.9,0.1,3.6-1.4,3.6-3.3c0-18,2.2-32,4.9-42.2C65.8,252.2,65.1,250.5,63.7,249.7L63.7,249.7z"/>
			<path class="st2" d="M191.8,253.7c-1.5,0.8-2.2,2.5-1.8,4.1c2.6,10.2,4.8,24.1,4.9,42.2c0.1,1.9,1.7,3.4,3.6,3.3l0,0
				c1.9,0.1,3.6-1.4,3.6-3.3c0-18.8-2.3-33.3-5.1-44c-0.5-1.9-2.5-3.1-4.4-2.6C192.4,253.4,192.2,253.5,191.8,253.7L191.8,253.7z"/>
		</g>
	</g>
</g>
<g id="Camada_3">
	<path class="st5" d="M237.9,133.6L237.9,133.6c0-0.4,0-0.7,0-1.1l0,0c0-10.2,4.2-15.4,5.2-25.5c1.5-14.9-3.9-37.9-22.9-33.9
		c-17.9,3.9-34.9,11.2-50,21.5c10-14.9,17.1-31.6,20.9-49.1c3.9-18.9-19.1-24.3-34-22.9c-10.1,1-15.4,5.1-25.5,5.1l0,0
		c-0.2,0-0.4,0-0.5,0c-0.2,0-0.4,0-0.5,0l0,0c-8.5,0-15.4-4.1-25.5-5.1C90,21.1,67,26.5,71,45.4c4,18.5,11.6,36,22.5,51.4
		C77.6,85.2,59.4,77.1,40.2,73C21.3,69.1,15.9,92.1,17.4,107c1,10.1,5.2,15.4,5.2,25.5l0,0c0,0.4,0,0.7,0,1.1l0,0
		c0,8.5-4.2,15.4-5.2,25.5c-1.5,14.9,3.9,37.9,22.9,33.9c32.7-6.8,54.6-24.9,54.6-24.9v-0.3h0.3c-11.8,16-20,34.3-24.2,53.7
		c-3.9,18.9,19.1,24.4,34,22.9c10.1-1,15.4-5.2,25.5-5.2l0,0c0.4,0,0.7,0,1.1,0l0,0c8.5,0,15.5,4.2,25.5,5.2
		c14.9,1.5,37.9-3.9,34-22.9c-3.9-18.2-11.4-35.5-22.1-50.8c15.4,10.8,32.8,18.4,51.2,22.3C239,197,244.5,174,243,159.1
		C242,149,237.9,142.1,237.9,133.6z"/>
	<path class="st2" d="M161.8,22.3c14.5,0,32.7,6.1,29.2,23.1c-3.8,17.6-10.9,34.3-20.9,49.2c15.1-10.4,32.1-17.7,50-21.5
		c1.4-0.3,2.7-0.4,4.1-0.5c15.6,0,20.1,20.7,18.7,34.4c-1,10.1-5.2,15.4-5.2,25.5l0,0c0,0.4,0,0.7,0,1.1l0,0
		c0,8.5,4.2,15.4,5.2,25.5c1.4,13.7-3.1,34.4-18.7,34.4c-1.4,0-2.8-0.2-4.1-0.5c-18.4-3.9-35.8-11.5-51.2-22.3
		c10.7,15.3,18.2,32.6,22.1,50.8c3.5,17-14.7,23.1-29.2,23.1c-1.6,0-3.2-0.1-4.8-0.2c-10.1-1-17-5.2-25.5-5.2l0,0
		c-0.4,0-0.7,0-1.1,0l0,0c-10.2,0-15.4,4.2-25.5,5.2c-1.5,0.2-3.1,0.2-4.8,0.2c-14.5,0-32.7-6.1-29.2-23.1
		c4.1-19.4,12.4-37.7,24.2-53.7h-0.3v0.3c0,0-21.8,18-54.6,24.9c-1.4,0.3-2.7,0.4-4.1,0.5c-15.6,0-20.1-20.7-18.7-34.4
		c1-10.1,5.2-17,5.2-25.5l0,0c0-0.4,0-0.7,0-1.1l0,0c0-10.2-4.2-15.4-5.2-25.5C16,93.3,20.5,72.6,36.1,72.6c1.4,0,2.8,0.2,4.1,0.5
		c19.2,4.1,37.4,12.2,53.2,23.7C82.6,81.4,74.9,63.9,71,45.4c-3.5-17,14.6-23.1,29.2-23.1c1.6,0,3.2,0.1,4.8,0.2
		c10.1,1,17,5.1,25.5,5.1l0,0c0.2,0,0.4,0,0.5,0c0.2,0,0.4,0,0.5,0l0,0c10.2,0,15.5-4.1,25.5-5.1C158.7,22.4,160.3,22.3,161.8,22.3
		 M237.9,132.5L237.9,132.5 M161.8,13.7L161.8,13.7c-1.9,0-3.8,0.1-5.6,0.3c-4.5,0.5-8.9,1.5-13.2,2.9c-3.8,1.2-6.9,2.1-11,2.2h-0.4
		c-0.2,0-0.4,0-0.5,0c-0.2,0-0.4,0-0.5,0H130c-3.2-0.1-6.4-1-10.2-2.1c-4.6-1.4-9.3-2.5-14.1-3c-1.8-0.2-3.7-0.3-5.6-0.3
		c-5.3,0-23.5,0.9-33,12.6c-4.7,5.8-6.3,13-4.7,20.9c1.9,9.2,4.8,18.1,8.4,26.8c-9.3-4.1-19-7.3-28.9-9.4c-1.9-0.4-3.9-0.6-5.9-0.6
		c-6.8-0.1-13.4,2.9-17.9,8c-8.6,9.6-10.5,25.3-9.5,35.9c0.5,4.5,1.5,8.9,2.9,13.2c1.2,3.8,2.1,6.9,2.2,11c0,0.3,0,0.6,0,1l0,0
		c0,0.3,0,0.6,0,1c-0.1,3.2-1,6.4-2.1,10.2c-1.5,4.6-2.5,9.3-3,14.1c-1,10.6,0.8,26.3,9.5,35.9c4.5,5.2,11,8.1,17.9,8
		c2,0,4-0.2,5.9-0.6c10.1-2.1,19.9-5.3,29.3-9.5c-3.9,9-6.8,18.3-8.8,27.8c-1.7,7.9,0,15.2,4.7,20.9c9.5,11.7,27.6,12.6,33,12.6
		c1.9,0,3.8-0.1,5.6-0.3c4.5-0.5,8.9-1.5,13.2-2.9c3.8-1.2,6.9-2.1,11-2.2h0.4h0.5l0,0h0.5h0.4c3.2,0.1,6.4,1,10.2,2.1
		c4.6,1.5,9.3,2.5,14.1,3c1.8,0.2,3.7,0.3,5.6,0.3c5.3,0,23.5-0.9,33-12.6c4.7-5.8,6.3-13,4.7-20.9c-1.9-9.3-4.8-18.3-8.5-27
		c8.8,3.8,18,6.7,27.4,8.7c1.9,0.4,3.9,0.6,5.9,0.6c6.8,0.1,13.4-2.9,17.9-8c8.6-9.6,10.5-25.3,9.5-35.9c-0.6-4.8-1.6-9.5-3-14.1
		c-1.1-3.7-2-7-2.1-10.2c0-0.3,0-0.6,0-1c0-0.2,0-0.4,0-0.6c0-0.2,0-0.3,0-0.5c0.1-4.1,1-7.1,2.2-11c1.4-4.3,2.4-8.7,2.9-13.2
		c1.1-10.6-0.8-26.3-9.5-35.9c-4.5-5.1-11-8.1-17.9-8c-2,0-4,0.2-5.9,0.6c-9.2,1.9-18.3,4.8-27,8.5c3.5-8.4,6.2-17,8.1-25.9
		c1.6-7.9,0-15.2-4.7-20.9C185.3,14.6,167.2,13.7,161.8,13.7z"/>
	<path class="st6" d="M232.9,148.7c-1.3-4.7-2.7-9.5-2.7-15.1v-1.1c0-6.7,1.5-11.8,2.9-16.2c1.1-3.3,1.9-6.7,2.3-10.1
		c0.8-8.3-1-19.5-6-24c-1.3-1.2-3.4-2.5-7.6-1.6c-16.9,3.6-33,10.5-47.2,20.3c-3.5,2.4-8.3,1.6-10.7-1.9c-1.8-2.6-1.9-6.1,0-8.8
		c9.5-14.1,16.2-29.8,19.7-46.4c0.9-4.2-0.4-6.3-1.6-7.6c-4.5-5-15.8-6.9-24-6c-3.4,0.4-6.8,1.2-10.1,2.3c-4.4,1.4-9.5,2.9-16.2,2.9
		h-1.1c-5.6,0-10.4-1.4-15.1-2.7c-3.7-1.2-7.4-2-11.2-2.5c-8.3-0.8-19.5,1-24,6c-1.2,1.3-2.5,3.4-1.6,7.6
		c3.7,17.4,10.9,33.9,21.2,48.5c2.4,3.5,1.6,8.3-1.9,10.7c-2.7,1.9-6.3,1.8-8.9-0.1C73.9,92,56.8,84.4,38.7,80.6
		c-4.2-0.9-6.3,0.4-7.6,1.6c-5,4.5-6.9,15.8-6,24c0.4,3.4,1.2,6.8,2.3,10.1c1.4,4.4,2.9,9.5,2.9,16.2v1.1c0,5.6-1.4,10.4-2.7,15.1
		c-1.2,3.7-2,7.4-2.5,11.3c-0.8,8.3,1,19.5,6,24c1.3,1.2,3.4,2.5,7.6,1.6c18.1-3.9,35.1-11.5,50-22.3c1.5-1.9,3.7-3,6.1-3h0.3
		c4.2,0,7.7,3.4,7.7,7.7c0,1.7-0.6,3.4-1.6,4.7c-11.1,15.1-18.8,32.3-22.7,50.5c-0.9,4.2,0.4,6.3,1.6,7.6c4.5,5,15.8,6.9,24,6
		c3.4-0.4,6.8-1.2,10.1-2.3c4.4-1.4,9.5-2.9,16.2-2.9h1.1c5.6,0,10.4,1.4,15.1,2.7c3.7,1.2,7.4,2,11.3,2.5c8.3,0.8,19.5-1,24-6
		c1.2-1.3,2.5-3.4,1.6-7.6c-3.7-17.2-10.7-33.5-20.7-48c-2.5-3.5-1.6-8.3,1.8-10.7c2.7-1.9,6.2-1.9,8.9,0
		c14.5,10.2,31,17.3,48.3,21.1c4.2,0.9,6.3-0.4,7.6-1.6c5-4.5,6.9-15.8,6-24C234.9,156.1,234.1,152.3,232.9,148.7z M118.6,138.6
		H41.9c-3.7,0-3.7-5.8,0-5.8h76.7C122.4,132.8,122.3,138.6,118.6,138.6z M131.7,214.7c0,3.7-5.8,3.7-5.8,0v-54.2
		c0-3.7,5.8-3.7,5.8,0V214.7z M131.7,127.8c0,3.7-5.8,3.7-5.8,0V51.1c0-3.7,5.8-3.7,5.8,0V127.8z M214.6,138.6h-62.1
		c-3.7,0-3.7-5.8,0-5.8h62.1C218.3,132.8,218.2,138.6,214.6,138.6z"/>
	<circle class="st7" cx="131.1" cy="133" r="54.2"/>
	<circle class="st8" cx="131.1" cy="133" r="54.2"/>
	<ellipse class="st9" cx="171.8" cy="88.7" rx="25.1" ry="24.4"/>
	<path class="st2" d="M171.8,116c-14.1,0-26.3-10.4-27.9-24.4c-0.8-7.1,1.3-14.2,5.8-19.8c4.7-5.8,11.6-9.5,19.1-10.3
		c15.4-1.6,29.2,9.3,30.8,24.2c0.8,7.1-1.3,14.2-5.8,19.8c-4.7,5.8-11.6,9.5-19.1,10.3C173.7,115.9,172.8,116,171.8,116z
		 M171.8,67.1c-6.8,0-13.2,3-17.5,8.3c-3.5,4.4-5.2,9.9-4.6,15.5c1.3,11.8,12.3,20.4,24.5,19.1c5.9-0.6,11.4-3.5,15.2-8.2
		c3.5-4.4,5.2-9.9,4.6-15.5C192.7,75.4,183,67.1,171.8,67.1L171.8,67.1z"/>
	<ellipse class="st9" cx="91.1" cy="88.7" rx="25.1" ry="24.4"/>
	<path class="st2" d="M91,116c-14.1,0-26.3-10.4-27.9-24.4c-0.8-7.1,1.3-14.2,5.8-19.8c4.7-5.8,11.6-9.5,19.1-10.3
		c15.4-1.6,29.2,9.3,30.8,24.2c0.8,7.1-1.3,14.2-5.8,19.8c-4.7,5.8-11.6,9.5-19.1,10.3C93,115.9,92,116,91,116z M91,67.1
		c-6.8,0-13.2,3-17.6,8.3c-3.5,4.4-5.2,9.9-4.6,15.5c1.3,11.8,12.3,20.4,24.5,19.1c5.9-0.6,11.4-3.5,15.2-8.2
		c3.6-4.4,5.2-9.9,4.6-15.5C112,75.4,102.3,67.1,91,67.1L91,67.1z"/>
	<path class="st2" d="M105.4,87.2c-1-8.1-8.3-13.8-16.3-12.9c-0.7,0.1-1.5,0.2-2.2,0.4l2.2,13.4l-12.3-4.7c-0.9,2.1-1.2,4.4-1,6.7
		c1,8,8.2,13.8,16.3,12.9c8-0.6,14-7.6,13.3-15.6C105.4,87.3,105.4,87.2,105.4,87.2z"/>
	<path class="st2" d="M186.1,87.2c-1-8.1-8.3-13.8-16.3-12.9c-0.7,0.1-1.5,0.2-2.2,0.4l2.2,13.4l-12.3-4.7c-0.9,2.1-1.2,4.4-1,6.7
		c1,8,8.2,13.8,16.3,12.9c8-0.6,14-7.6,13.3-15.6C186.1,87.3,186.1,87.2,186.1,87.2z"/>
	<path class="st2" d="M214.3,106.3l-3.2-0.7c-10.6-2.2-21.5-3.3-32.3-3.1h-0.2c-12.3,0.1-24.6,1-36.8,2.8c-3.2-1.1-6.5-1.7-9.9-1.7
		l0,0c-3.1,0-6.1,0.5-9.1,1.5c-9.8-1.8-19.8-2.7-29.8-2.6h-0.2c-12.9,0.1-25.8,1.1-38.6,3.1l-4.3,0.7c-1.4,0.2-2.6,0.9-3.5,2
		c-0.8,1-1.1,2.3-0.7,3.6l1.4,4.2c0.1,0.3,9.9,28.8,40.9,28.8l0,0c11.4,0,27.1-2.6,37-14.9c2.7-3.4,4.7-7.2,6-11.3
		c0.2,0,0.4,0,0.6,0l0,0c0.8,0,1.6,0.1,2.4,0.4c3.1,6.5,14.3,25.8,39.6,25.8l0,0c11.4,0,27.1-2.6,37-14.9c3.7-4.5,6.1-9.9,6.9-15.7
		l0.3-3.3C218.5,108.8,216.8,106.8,214.3,106.3z"/>
	<path class="st3" d="M178.8,107.1h-0.2c-12.3,0-24.6,1-36.7,2.9l-0.7,0.1l-0.7-0.3c-2.7-1-5.6-1.6-8.6-1.6l0,0
		c-2.6,0-5.2,0.5-7.7,1.5l-0.8,0.3l-0.9-0.2c-9.7-1.9-19.6-2.8-29.5-2.7h-0.2c-12.5,0.1-25.1,1-37.5,3l-4,0.7l1.3,4
		c1.8,4.8,4.5,9.2,7.9,13c6.9,8.1,17,12.6,27.6,12.4l0,0c10.1,0,23.9-2.2,32.4-12.8c2.7-3.3,4.6-7.1,5.6-11.3l0.2-1l1.2-0.4
		c0.6-0.2,1.2-0.4,1.8-0.5c0.8-0.2,1.7-0.2,2.5-0.2l0,0c2,0,4,0.4,5.9,1.1l1,0.4l0.3,0.8c2.1,4.9,5.2,9.4,9,13.3
		c6.8,7,16.2,10.8,25.9,10.6l0,0c10.1,0,23.9-2.2,32.4-12.8c3.2-3.9,5.2-8.5,6-13.5l0.3-3.2l-3-0.7
		C199.5,108,189.2,106.9,178.8,107.1z M119.5,117.3c-6.4,15.9-23.4,17.3-32.4,17.3l0,0c-11.2,0-20.8-5.3-27-16.8l-1.8-3.3L62,114
		c10-1.4,20.1-2.2,30.3-2.2h0.1c8.4-0.1,16.9,0.6,25.2,2l3.1,0.6L119.5,117.3z M206.8,117.2c-6.7,16-23.6,18.4-33,18.4l0,0
		c-11.8,0-21.9-6.4-28.4-17.9l-1.9-3.3l3.8-0.5c10.5-1.5,21.2-2.2,31.8-2.3h0.2c8.5-0.1,17.1,0.6,25.5,2l3.2,0.6L206.8,117.2z"/>
	<path class="st10" d="M131.7,171.5c-13.8,0-24.8-7.2-25.5-7.7c-3.7-2.5-4.9-7.8-2.7-12c2.2-4.2,6.8-5.5,10.5-3.1
		c0.8,0.5,18.8,12.1,33.4-0.8c2.9-2.6,7.4-2.4,10,0.5c0.3,0.3,0.6,0.7,0.8,1c2.6,3.9,2,9-1.3,12.3C149.9,168,141,171.5,131.7,171.5z
		"/>
	<path class="st2" d="M152.1,146c2.5,0,4.7,1.3,6.1,3.4c2.6,3.9,2,9-1.3,12.3c-6.9,6.3-15.8,9.8-25.2,9.8c-13.8,0-24.8-7.2-25.5-7.7
		c-3.7-2.5-4.9-7.8-2.7-12c1.2-2.6,3.8-4.2,6.6-4.3c1.4,0,2.7,0.4,3.8,1.2c0.5,0.3,8.2,5.3,17.5,5.3c5.9,0,11.6-2.1,15.9-6.1
		C148.6,146.7,150.3,146.1,152.1,146 M152,141.4L152,141.4c-2.8,0-5.6,1.1-7.7,3c-3.5,3.2-8.1,5-12.9,5c-8.1,0-15-4.5-15.1-4.6
		c-1.9-1.3-4.1-1.9-6.3-1.9c-4.5,0.1-8.6,2.7-10.6,6.7c-3.3,6.3-1.4,14.3,4.2,18.1c1.3,0.9,13,8.5,28,8.5c10.4,0,20.5-3.9,28.1-11
		c5.2-4.8,6.1-12.7,2.1-18.5C159.7,143.4,156.1,141.4,152,141.4L152,141.4z"/>
	<path class="st2" d="M131.6,164.9c-7.8-0.1-15.4-2.7-21.8-7.2c-1-0.8-1.2-2.2-0.4-3.3c0.7-1,2.1-1.2,3.1-0.5c0,0,0.1,0,0.1,0.1l0,0
		c0.7,0.6,18.1,14,36.9,0c1-0.7,2.4-0.5,3.1,0.5c0,0,0,0,0,0.1c0.7,1,0.5,2.5-0.5,3.3C146.3,162.3,139.1,164.8,131.6,164.9z"/>
	<path class="st11" d="M73.9,116.6l-3,8.7c2.1,1.7,4.5,3.1,7.1,4l4.6-13.4C79.6,116.1,76.6,116.3,73.9,116.6z"/>
	<path class="st11" d="M106.5,116.3c-4.1-0.4-8.5-0.6-13-0.6l-4.7,15.1c4.6,0,9.2-0.8,13.6-2.2L106.5,116.3z"/>
	<path class="st11" d="M160.4,116.6l-3,8.7c2.1,1.7,4.5,3.1,7.1,4l4.6-13.4C166.1,116.1,163.1,116.3,160.4,116.6z"/>
	<path class="st11" d="M193,116.3c-4.1-0.4-8.5-0.6-13-0.6l-4.7,15.1c4.6,0,9.2-0.8,13.6-2.2L193,116.3z"/>
</g>
</svg>
