<?xml version="1.0" encoding="utf-8"?>
<!-- Generator: Adobe Illustrator 25.0.0, SVG Export Plug-In . SVG Version: 6.00 Build 0)  -->
<svg version="1.1" id="Camada_1" xmlns="http://www.w3.org/2000/svg" xmlns:xlink="http://www.w3.org/1999/xlink" x="0px" y="0px"
	 viewBox="0 0 262.2 299" style="enable-background:new 0 0 262.2 299;" xml:space="preserve">
<style type="text/css">
	.st0{fill:#A85AE0;}
	.st1{clip-path:url(#SVGID_2_);}
	.st2{fill:#012442;}
	.st3{fill:#FFBB71;}
	.st4{fill:#D69451;}
	.st5{fill:#3EC63E;}
	.st6{fill:#B2F9B2;}
	.st7{fill:#DDA568;}
	.st8{fill:#FFD9B6;}
	.st9{fill:#FFEA55;}
	.st10{fill:#F9DF9B;}
	.st11{fill:#E02D5C;}
	.st12{clip-path:url(#SVGID_4_);}
</style>
<g id="Camada_4">
	<circle class="st0" cx="130.7" cy="174.7" r="123.3"/>
	<g>
		<defs>
			<circle id="SVGID_1_" cx="130.2" cy="175.5" r="123.3"/>
		</defs>
		<clipPath id="SVGID_2_">
			<use xlink:href="#SVGID_1_"  style="overflow:visible;"/>
		</clipPath>
		<g class="st1">
			<path class="st2" d="M217.5,301c-12.5,0-23.7-7.9-26.6-19.4c-9.3-37.2-33-47.3-34-47.7c0.4,0.2,0.6,0.2,0.6,0.2l19.8-46.6
				c5.2,1.9,51.2,19.9,66.9,83c3.4,13.5-5.9,26.8-20.6,29.9C221.6,300.8,219.5,301,217.5,301z"/>
			<path class="st3" d="M218.7,292.9c-8.3,0-15.8-5.2-17.7-13c-10.6-42.7-44.2-57.5-44.5-57.7c-9.2-3.8-13.3-13.6-9.2-22
				s14.9-12.1,24.1-8.4c2,0.8,50.3,21.2,65.1,80.7c2.2,9-3.9,17.9-13.7,19.9C221.4,292.8,220.1,292.9,218.7,292.9z"/>
			<path class="st2" d="M34.9,301.8c-2,0-4.1-0.2-6.1-0.6c-14.7-3.1-23.9-16.4-20.6-29.9c15.8-63.1,65.6-84.7,70.8-86.6l19.8,46.6
				c-1.2,1.1-2.3,2.2-3.3,3.4c-1,0.4-24.8,10.5-34,47.7C58.6,294,47.4,301.8,34.9,301.8z"/>
			<path class="st3" d="M33.7,293.8c-1.4,0-2.7-0.1-4.1-0.4c-9.8-2-15.9-11-13.7-19.9c14.8-59.4,64.9-80.6,66.9-81.5l20.3,26.9
				l0.3,0.3c-1.4,0.6-41.4,19.1-52,61.7C49.5,288.5,42,293.8,33.7,293.8z"/>
			<g id="peito">
				<path class="st3" d="M193.5,301c0,0,7.6-85.6-43.8-112.2L93.2,191c-45.1,15.9-42.6,110-42.6,110H193.5z"/>
			</g>
			<path class="st4" d="M36.7,229.4c64.6,58.2,163.5,31.5,182.7,4.8c-13.7-24.2-45.9-49-63.9-41.9c-9.9-9.7-64.6,3.4-72.5-0.2
				C80.5,194,65,190.7,36.7,229.4z"/>
			<path class="st2" d="M63.7,249.7c-1.7-1-3.9-0.5-4.9,1.3c-0.2,0.3-0.3,0.6-0.4,0.9c-2.8,10.7-5.1,25.2-5.1,44
				c0.1,1.9,1.7,3.4,3.6,3.3l0,0c1.9,0.1,3.6-1.4,3.6-3.3c0-18,2.2-32,4.9-42.2C65.8,252.2,65.1,250.5,63.7,249.7L63.7,249.7z"/>
			<path class="st2" d="M191.8,253.7c-1.5,0.8-2.2,2.5-1.8,4.1c2.6,10.2,4.8,24.1,4.9,42.2c0.1,1.9,1.7,3.4,3.6,3.3l0,0
				c1.9,0.1,3.6-1.4,3.6-3.3c0-18.8-2.3-33.3-5.1-44c-0.5-1.9-2.5-3.1-4.4-2.6C192.4,253.4,192.2,253.5,191.8,253.7L191.8,253.7z"/>
		</g>
	</g>
</g>
<g id="Camada_3">
	<path class="st5" d="M58.9,120.2c0,0-20.5-4.4-26.6-4.7c-4.1-0.2-18.1,11.8-18.1,11.8s10.6,12,17.4,15.3l29.4-3.5L58.9,120.2z"/>
	<polygon class="st6" points="27.6,116.6 34,127.8 27.4,139.4 32.7,141.2 42.6,141.5 45.8,128.7 40.7,116.7 	"/>
	<path class="st2" d="M31.3,144.7l-0.4-0.2c-7.1-3.4-17.6-15.2-18-15.7l-1.5-1.7l1.7-1.4c3.4-2.9,14.9-12.4,19.4-12.3
		c6.2,0.3,26.1,4.1,27,4.3l1.4,0.3l3.2,24.1L31.3,144.7z M17.1,127.5c3,3.3,10,10.4,14.9,13l27.6-2.3l-2.2-16.6
		c-4.7-0.9-20.1-3.7-25.1-4C30.3,117.4,23.2,122.4,17.1,127.5z"/>
	<path class="st2" d="M32.5,129.6c-0.1-1.2,24.5-4.1,24.5-4.1c1.2-0.1,2.2,0.8,2.3,1.9c0.1,1.2-0.8,2.2-1.9,2.3
		C57.4,129.7,32.6,130.7,32.5,129.6z"/>
	<path class="st5" d="M60.3,100.3c0,0-18.7-10.1-24.6-12.1c-3.9-1.3-20.3,6.3-20.3,6.3s7.4,14.6,13.3,19.7l29.2,4.9L60.3,100.3z"/>
	<polygon class="st6" points="30.9,88 34.5,100.7 25.4,110 30,113.2 39.5,116.3 45.6,104.8 43.5,91.8 	"/>
	<path class="st2" d="M27.8,116.2l-0.4-0.3c-6-5.3-13.4-19.7-13.7-20.3l-1-2l1.9-0.9c4-1.9,17.3-7.8,21.6-6.4
		c5.9,2,24.3,11.3,25.1,11.7l1.3,0.6L60,122.8L27.8,116.2z M18.2,95.6c2.2,4,7.2,12.8,11.3,16.7l27.2,5.5l1.8-16.7
		c-4.3-2.2-18.5-9.2-23.3-10.9C33.3,89.6,25.3,92.4,18.2,95.6z"/>
	<path class="st2" d="M32.5,102.5c0.2-1.1,24.6,2.9,24.6,2.9c1.2,0.2,2,1.3,1.8,2.5c-0.2,1.1-1.2,1.8-2.3,1.7c-0.1,0-0.1,0-0.2,0
		C56.5,109.6,32.3,103.6,32.5,102.5z"/>
	<path class="st5" d="M60.7,136.5c0,0-20.7,3.4-26.5,5.4c-3.9,1.3-13.4,17.8-13.4,17.8s13.7,7.4,21.1,8l26.6-14.1L60.7,136.5z"/>
	<polygon class="st6" points="30.1,144.6 39.6,152.8 36.9,166.2 42.4,165.9 51.8,162.6 51,149.3 42.5,139.9 	"/>
	<path class="st2" d="M42.2,169.7h-0.5c-7.7-0.6-21.2-7.9-21.8-8.2l-1.9-1l1.1-1.9c2.3-4,10.2-17.2,14.5-18.7
		c5.9-2,25.9-5.8,26.7-5.9l1.4-0.3L72,155.2L42.2,169.7z M23.5,158.8c3.9,1.9,12.6,6.1,18,6.7l25.2-12.3l-7.2-14.8
		c-4.7,0.9-20,3.9-24.9,5.5C32.9,144.4,27.7,151.7,23.5,158.8z"/>
	<path class="st2" d="M33.6,154.3c-0.4-1,21.8-12.9,21.8-12.9c1-0.5,2.2-0.1,2.7,0.8c0,0,0,0.1,0.1,0.1c0.5,1.1-0.1,2.4-1.2,2.9
		C57,145.3,34,155.3,33.6,154.3z"/>
	<path class="st5" d="M200.8,120.2c0,0,20.5-4.4,26.6-4.7c4.1-0.2,18.1,11.8,18.1,11.8s-10.6,12-17.4,15.3l-29.4-3.5L200.8,120.2z"
		/>
	<polygon class="st6" points="232.1,116.6 225.7,127.8 232.3,139.4 227,141.2 217.1,141.5 213.9,128.7 219,116.7 	"/>
	<path class="st2" d="M195.8,142l3.2-24.1l1.4-0.3c0.8-0.2,20.8-4,27-4.3c4.4-0.2,15.9,9.3,19.4,12.3l1.7,1.4l-1.5,1.7
		c-0.4,0.5-10.9,12.3-18,15.7l-0.4,0.2L195.8,142z M227.5,117.6c-5.1,0.2-20.4,3.1-25.1,4l-2.3,16.6l27.6,2.3
		c4.9-2.6,11.8-9.7,14.9-13C236.5,122.4,229.4,117.4,227.5,117.6L227.5,117.6z"/>
	<path class="st2" d="M225.2,129.6c0.1-1.2-24.5-4.1-24.5-4.1c-1.2-0.1-2.2,0.8-2.4,1.9c-0.1,1.2,0.8,2.2,1.9,2.3
		C200.3,129.7,225.1,130.7,225.2,129.6z"/>
	<path class="st5" d="M199.4,100.3c0,0,18.8-10.1,24.7-12.1c3.9-1.3,20.3,6.3,20.3,6.3s-7.4,14.6-13.2,19.7l-29.2,4.9L199.4,100.3z"
		/>
	<polygon class="st6" points="228.8,88 225.2,100.7 234.3,110 229.7,113.2 220.2,116.3 214.1,104.8 216.2,91.8 	"/>
	<path class="st2" d="M199.7,122.8l-2.5-24.2l1.3-0.6c0.8-0.4,19.1-9.7,25.1-11.7c4.2-1.4,17.6,4.5,21.6,6.4l1.9,0.9l-1,2
		c-0.3,0.6-7.7,15-13.7,20.3l-0.4,0.3L199.7,122.8z M224.6,90.2c-4.9,1.6-19,8.7-23.3,10.9l1.7,16.7l27.2-5.5
		c4.1-3.9,9.2-12.7,11.3-16.7C234.4,92.4,226.4,89.6,224.6,90.2z"/>
	<path class="st2" d="M225.2,102.5c-0.2-1.1-24.6,2.9-24.6,2.9c-1.2,0.2-2,1.3-1.8,2.5c0.2,1.1,1.2,1.8,2.3,1.7c0.1,0,0.1,0,0.2,0
		C201.2,109.6,225.4,103.6,225.2,102.5z"/>
	<path class="st5" d="M199,136.5c0,0,20.7,3.4,26.5,5.4c3.9,1.3,13.4,17.8,13.4,17.8s-13.7,7.4-21.1,8l-26.6-14.1L199,136.5z"/>
	<polygon class="st6" points="229.6,144.6 220.1,152.8 222.8,166.2 217.3,165.9 207.9,162.6 208.8,149.3 217.2,139.9 	"/>
	<path class="st2" d="M187.6,155.1l10.4-21.5l1.4,0.3c0.8,0.2,20.8,3.9,26.7,5.9c4.2,1.5,12.1,14.7,14.5,18.7l1.1,1.9l-1.9,1
		c-0.6,0.3-14.1,7.6-21.8,8.2h-0.5L187.6,155.1z M224.9,143.8c-4.9-1.7-20.2-4.6-24.8-5.5l-7.2,14.8l25.2,12.3
		c5.4-0.6,14.1-4.8,18-6.7C232,151.7,226.8,144.4,224.9,143.8z"/>
	<path class="st2" d="M226.1,154.3c0.5-1-21.8-12.9-21.8-12.9c-1-0.5-2.2-0.1-2.8,0.9c0,0,0,0.1-0.1,0.1c-0.4,1.1,0.1,2.4,1.2,2.9
		C202.7,145.3,225.7,155.3,226.1,154.3z"/>
	<path class="st7" d="M172.3,25.6c-4.6,8.3-8.8,15.3-10.5,18.4c-1.7,3.1-2.5-7.5-2.9-19.3c-21-1-42-0.9-63,0.2l-4.7,26.5l-4-26.1
		c-12.6,0.8-26.1,1.9-40.5,3.6l27.4,208.6l41,7.5l2.3-23.7l11.4,37.5l47.8-6.2l4.6-38.7l5.7,23.7l9.1-3.7l18.2-202.3
		C214.2,31.6,200.3,27.8,172.3,25.6z"/>
	<path class="st7" d="M115.9,206.4l-3.4,35l-35.9-6.6L50,31.9c11.7-1.3,23.4-2.3,34.7-3l6.2,40.6l7.4-41.4c11.1-0.5,22-0.8,32.5-0.8
		c8.7,0,17.2,0.2,25.3,0.6c0.7,17.2,1.9,19.9,5.2,19.9l0,0c1.3,0,2.5-0.8,3-2.1c0.7-1.3,1.9-3.3,3.4-5.9c1.8-3,3.9-6.7,6.2-10.8
		c19.8,1.6,32.2,4,37.2,5.1l-17.8,197.5l-4.4,1.8l-8.7-36.1l-6.2,52.4l-43.3,5.6L115.9,206.4z"/>
	<path class="st8" d="M130.8,30.5c7.7,0,15.3,0.1,22.6,0.4c0.2,3.3,7,21.9,7.9,23.2c1.1,0,12.2-17.4,14.1-20.8
		c10.9,0.9,21.8,2.3,32.5,4.4l-17.3,191.7l-3.9-17.1l-7.6-31.6l-3.8,32.4l-3.9,33.7l-38.7,5l-9.9-32.5l-8.5-28l-2.8,29.3l-1.6,17
		l-30.7-5.6L53.3,34.7c9.8-1,19.5-1.9,29-2.5l3.1,20.4l5.3,34.8l6.2-34.6l3.9-21.6C111,30.7,121.2,30.5,130.8,30.5L130.8,30.5
		 M130.9,24.1c-10.6,0-22.2,0.3-34.9,0.9l-4.8,26.5l-4-26.1c-12.6,0.8-26.1,1.9-40.5,3.6l27.4,208.6l41,7.5l2.3-23.7l11.4,37.5
		l47.8-6.2l4.6-38.7l5.7,23.7l9.1-3.7l18.2-202.3c0,0-14-3.8-41.9-5.9c-4.6,8.3-8.8,15.3-10.5,18.4c-0.2,0.3-0.4,0.5-0.5,0.5
		c-1.3,0-1.9-9.3-2.4-19.8c-8.4-0.4-17.8-0.7-28.2-0.7L130.9,24.1z"/>
	<path class="st2" d="M130.8,24.1c10.3,0,19.7,0.3,28.2,0.7c0.4,10.4,1.1,19.8,2.4,19.8c0.2,0,0.3-0.2,0.5-0.5
		c1.7-3.1,5.9-10.1,10.5-18.4c27.9,2.2,41.9,5.9,41.9,5.9L196,233.9l-9.1,3.7l-5.7-23.7l-4.6,38.8l-47.9,6.2l-11.4-37.5l-2.3,23.7
		l-41-7.5L46.7,29c14.4-1.6,27.9-2.8,40.5-3.6l4,26.1L95.9,25C108.5,24.4,120.2,24.1,130.8,24.1 M130.8,15.3
		c-11.4,0-23.3,0.3-35.3,0.9c-1.5,0.1-3,0.6-4.3,1.4c-1.2-0.6-2.5-1-3.9-1h-0.6c-13.3,0.8-27.1,2-40.9,3.6c-4.8,0.5-8.3,4.9-7.7,9.7
		c0,0.1,0,0.1,0,0.2l27.3,208.6c0.5,3.8,3.4,6.8,7.1,7.5l41,7.5c0.5,0.1,1,0.1,1.6,0.1c1,0,2-0.2,2.9-0.5l2.4,8
		c1.1,3.7,4.5,6.2,8.4,6.2c0.4,0,0.8,0,1.1-0.1l47.9-6.3c4-0.5,7.1-3.7,7.6-7.7l0.9-7.3c0.2,0,0.5,0,0.7,0c1.1,0,2.3-0.2,3.3-0.7
		l9.1-3.7c3-1.2,5.1-4.1,5.4-7.3L223,32.3c0.4-4.2-2.3-8.1-6.4-9.2c-0.6-0.2-15.1-4-43.5-6.2c-0.2,0-0.5,0-0.7,0
		c-2.4,0-4.7,1-6.4,2.7c-1.6-2.1-4-3.5-6.6-3.6C150.2,15.6,140.6,15.4,130.8,15.3L130.8,15.3z"/>
	<polygon class="st9" points="61.5,58 126.9,81.3 199.1,63.8 195.1,45.6 128.4,63 65.2,41.7 	"/>
	<polygon class="st10" points="125.4,105.4 120.8,129.3 142.1,129.3 136,105.7 	"/>
	<path class="st2" d="M125.4,105.4l10.6,0.3l6.1,23.7h-21.3L125.4,105.4 M120.5,99.8l-0.9,4.7l-4.6,23.9l-1.3,6.6l7,9.3H142l7.4-9.3
		l-1.8-6.9l-6.1-23.7l-1.1-4.1l-4.4-0.1l-10.7-0.3L120.5,99.8L120.5,99.8z"/>
	<path class="st11" d="M197.1,153.4c-4.7-5.1-11.6-7.5-18.4-6.5l-98.2,15.7c-6,1-11.4,4.5-14.7,9.7c-3.5,5.4-4.9,12-3.8,18.3
		l2.9,17.7c1.9,11.5,11,19.8,21.6,19.8h1.2l92.6-5.4c10.8-0.6,19.5-9.7,20.7-21.5l2.7-28C204.5,166.1,202.1,158.8,197.1,153.4z"/>
	<path class="st2" d="M82.5,177.4l98.2-15.7c5.4-0.9,10.1,4.1,9.5,10l-2.7,27.9c-0.4,4.5-3.8,8-7.9,8.2L87,213.3
		c-4.2,0.3-7.9-3-8.7-7.5l-2.9-17.7C74.7,183,77.8,178.1,82.5,177.4z"/>
	<g>
		<defs>
			<path id="SVGID_3_" d="M178.1,203.7c2.5-0.2,4.4-2.2,4.5-4.7l2.6-27.1c0.2-1.6-0.4-3.2-1.5-4.4c-0.9-0.9-2.1-1.5-3.3-1.5
				c-0.2,0-0.5,0-0.7,0.1l-95.3,15.2c-1.3,0.2-2.5,1-3.2,2.1c-0.8,1.2-1.1,2.6-0.8,4l2.8,17.1c0.3,2.5,2.5,4.4,5,4.3L178.1,203.7z"
				/>
		</defs>
		<clipPath id="SVGID_4_">
			<use xlink:href="#SVGID_3_"  style="overflow:visible;"/>
		</clipPath>
		<g class="st12">
			<path class="st10" d="M87.8,164.9H93c3.1,0,5.7,2.6,5.7,5.7v15.3c0,3.1-2.6,5.7-5.7,5.7h-5.2c-3.1,0-5.7-2.6-5.7-5.7v-15.3
				C82.1,167.5,84.6,164.9,87.8,164.9z"/>
			<path class="st10" d="M108.6,162.5h5.2c3.1,0,5.7,2.6,5.7,5.7v15.3c0,3.1-2.6,5.7-5.7,5.7h-5.2c-3.1,0-5.7-2.6-5.7-5.7v-15.3
				C102.9,165.1,105.4,162.5,108.6,162.5z"/>
			<path class="st10" d="M129.4,160.1h5.2c3.1,0,5.7,2.6,5.7,5.7V181c0,3.1-2.6,5.7-5.7,5.7h-5.2c-3.1,0-5.7-2.6-5.7-5.7v-15.3
				C123.7,162.6,126.2,160.1,129.4,160.1z"/>
			<path class="st10" d="M150.1,157.7h5.2c3.1,0,5.7,2.6,5.7,5.7v15.3c0,3.1-2.6,5.7-5.7,5.7h-5.2c-3.1,0-5.7-2.6-5.7-5.7v-15.3
				C144.4,160.2,147,157.7,150.1,157.7z"/>
			<path class="st10" d="M170.9,154.8h5.2c3.1,0,5.7,2.6,5.7,5.7v15.3c0,3.1-2.6,5.7-5.7,5.7h-5.2c-3.1,0-5.7-2.6-5.7-5.7v-15.3
				C165.2,157.4,167.8,154.8,170.9,154.8z"/>
			<path class="st10" d="M176.1,217.6h-5.2c-3.1,0-5.7-2.6-5.7-5.7v-15.3c0-3.1,2.6-5.7,5.7-5.7h5.2c3.1,0,5.7,2.6,5.7,5.7v15.3
				C181.8,215.1,179.2,217.6,176.1,217.6z"/>
			<path class="st10" d="M155.3,220h-5.2c-3.1,0-5.7-2.6-5.7-5.7v-15.3c0-3.1,2.6-5.7,5.7-5.7h5.2c3.1,0,5.7,2.6,5.7,5.7v15.3
				C161,217.5,158.5,220,155.3,220z"/>
			<path class="st10" d="M134.5,222.4h-5.2c-3.1,0-5.7-2.6-5.7-5.7v-15.3c0-3.1,2.6-5.7,5.7-5.7h5.2c3.1,0,5.7,2.6,5.7,5.7v15.3
				C140.2,219.9,137.7,222.4,134.5,222.4z"/>
			<path class="st10" d="M113.8,224.9h-5.2c-3.1,0-5.7-2.6-5.7-5.7v-15.3c0-3.1,2.6-5.7,5.7-5.7h5.2c3.1,0,5.7,2.6,5.7,5.7v15.3
				C119.5,222.3,116.9,224.9,113.8,224.9z"/>
			<path class="st10" d="M93,227.7h-5.2c-3.1,0-5.7-2.6-5.7-5.7v-15.3c0-3.1,2.6-5.7,5.7-5.7H93c3.1,0,5.7,2.6,5.7,5.7V222
				C98.7,225.2,96.1,227.7,93,227.7z"/>
		</g>
	</g>
	<path class="st2" d="M169.4,243.1c-1.5,0-2.9-0.1-4.4-0.4c-7.2-1.3-12-5.7-13.2-12.1c-1.7-8.5-4.9-16.7-9.4-24.2l-0.5-0.7l0-1
		c-0.1-1.5-0.3-9.4,2.6-13.1c3.6-4.7,16.9-3.9,19.6-3.1c0.9-0.1,1.8-0.3,2.7-0.7c3.4-1.1,8.6-2.7,13.2,1.7c3,2.8,15.7,32,9.5,43.7
		C186,239.8,177.2,243.1,169.4,243.1z"/>
	<path class="st2" d="M86.6,231.4c-12.1,0-22.3-9.4-24.5-22.5l-2.9-17.7c-1.2-7.2,0.3-14.6,4.3-20.7c3.7-5.9,9.8-9.9,16.6-11.1
		l98.2-15.7c7.7-1.2,15.5,1.5,20.8,7.3c5.6,6.1,8.4,14.3,7.5,22.5l-2.7,27.9c-1.3,13.4-11.1,23.7-23.4,24.4l-92.6,5.4
		C87.4,231.4,87,231.4,86.6,231.4z M181.9,149.9c-0.9,0-1.9,0.1-2.8,0.2l-98.2,15.7c-5.2,0.9-9.9,4-12.7,8.4
		c-3.1,4.7-4.2,10.4-3.3,15.9l2.9,17.7c1.6,10,9.5,17.2,18.7,17.2c0.3,0,0.7,0,1,0l92.6-5.4c9.4-0.5,16.9-8.4,17.9-18.7l2.7-28
		c0.6-6.3-1.5-12.6-5.8-17.2l0,0C191.7,152.1,186.9,150,181.9,149.9L181.9,149.9z"/>
	<path class="st11" d="M184,209.5c-2.6-8.4-6-15.4-6.9-16.3c-2.8-2.6-6.2-1.6-9.1-0.7h0c4.6,8,3.4,18.8,3.4,19.3l-0.8,6.8l-2-6.5
		c-2.1-6.7-5.7-12.8-10.7-17.8c-1.2-0.3-6.2-1.2-12.2,2.9c-1.3,0.9-0.2,4.8,0.5,6.5c4.8,8,8.2,16.7,10,25.9c1.1,5.9,6.5,7.8,9.6,8.3
		c7.9,1.4,17.2-1.9,20-7.1C187.7,227.1,187.1,219.6,184,209.5z"/>
	<path class="st2" d="M139.5,89.9l25.8,37.8c4.9,7.1,15.5,9.4,24.3,2.9l29.6-43.3c3-11.1-5.3-19.4-15-19.4h-55
		C137.4,71.3,134.3,82.3,139.5,89.9z"/>
	<path class="st11" d="M152.6,75h51.5c2.8,0,5.3,1.4,6.8,3.7c1.4,2.3,1.3,5.2-0.2,7.3l-25.8,37.7c-2.6,3.6-7.7,4.4-11.3,1.8
		c-0.7-0.5-1.3-1.1-1.8-1.8L146.1,86c-1.5-2.2-1.6-5.1-0.2-7.3C147.3,76.3,149.9,74.9,152.6,75z M196.1,86.8h-35.4l17.7,26
		L196.1,86.8z"/>
	<path class="st2" d="M44.3,89.9l25.8,37.8c4.9,7.1,15.5,9.4,24.3,2.9L124,87.2c3-11.1-5.3-19.4-15-19.4H54
		C42.3,71.3,39.2,82.3,44.3,89.9z"/>
	<path class="st11" d="M57.5,75H109c2.8,0,5.3,1.4,6.8,3.7c1.4,2.3,1.3,5.2-0.2,7.3l-25.8,37.7c-2.6,3.6-7.7,4.4-11.3,1.8
		c-0.7-0.5-1.3-1.1-1.8-1.8L50.9,86c-1.5-2.2-1.6-5.1-0.2-7.3C52.1,76.3,54.7,74.9,57.5,75z M100.9,86.8H65.5l17.7,26L100.9,86.8z"
		/>
</g>
</svg>
