<svg xmlns="http://www.w3.org/2000/svg" xmlns:xlink="http://www.w3.org/1999/xlink" viewBox="0 0 262.17 298.96"><defs><style>.cls-1,.cls-11,.cls-7,.cls-9{fill:none;}.cls-2{fill:#00c9ff;}.cls-3{clip-path:url(#clip-path);}.cls-4{fill:#012442;}.cls-5{fill:#3ec63e;}.cls-6{fill:#1b931b;}.cls-11,.cls-7,.cls-9{stroke:#012442;}.cls-7{stroke-linecap:round;stroke-linejoin:round;stroke-width:9px;}.cls-8{fill:#fff;}.cls-11,.cls-9{stroke-miterlimit:10;}.cls-9{stroke-width:6px;}.cls-10{fill:#e02d5c;}.cls-11{stroke-width:8px;}.cls-12{fill:#ffea55;}.cls-13{fill:#f9b800;}.cls-14{fill:#4d8faa;}</style><clipPath id="clip-path"><circle class="cls-1" cx="130.19" cy="175.47" r="123.33"/></clipPath></defs><g id="Camada_4" data-name="Camada 4"><circle class="cls-2" cx="130.7" cy="174.74" r="123.33"/><g class="cls-3"><path class="cls-4" d="M217.49,301c-12.47,0-23.73-7.85-26.61-19.44-9.28-37.2-33-47.32-34-47.74.38.16.59.23.59.23l19.83-46.57c5.19,1.85,51.15,19.87,66.88,83,3.36,13.45-5.85,26.84-20.56,29.91A29.67,29.67,0,0,1,217.49,301Z"/><path class="cls-5" d="M218.69,292.94c-8.31,0-15.82-5.24-17.74-13-10.65-42.72-44.16-57.53-44.49-57.67-9.18-3.76-13.29-13.62-9.17-22s14.9-12.15,24.07-8.38c2,.84,50.29,21.24,65.11,80.66,2.23,9-3.91,17.89-13.72,19.94A20.14,20.14,0,0,1,218.69,292.94Z"/><path class="cls-4" d="M34.9,301.84a29.67,29.67,0,0,1-6.1-.63C14.09,298.15,4.88,284.76,8.24,271.3,24,208.2,73.88,186.56,79.07,184.71l19.82,46.57a43.9,43.9,0,0,0-3.35,3.39c-1,.41-24.76,10.53-34,47.74C58.62,294,47.36,301.84,34.9,301.84Z"/><path class="cls-5" d="M33.7,293.77a20.31,20.31,0,0,1-4.07-.42c-9.8-2.05-15.94-11-13.71-19.94C30.73,214,80.8,192.76,82.85,191.92l20.3,26.92.31.27c-1.39.6-41.39,19.06-52,61.7C49.51,288.53,42,293.77,33.7,293.77Z"/><g id="peito"><path class="cls-5" d="M204.49,301s-2.37-85.63-53.82-112.23L94.24,191c-45.06,15.92-42.6,110-42.6,110Z"/></g></g></g><g id="Camada_3" data-name="Camada 3"><path class="cls-5" d="M207,234.18v-120c0-35.06-35.48-63.74-78.83-63.74h0c-43.35,0-78.83,28.68-78.83,63.74v120"/><path class="cls-6" d="M54.38,130.3,201.78,99S189.24,59.87,176.7,53.61,54.23,95.87,54.23,95.87Z"/><path class="cls-7" d="M207,234.18v-122c0-35.65-35.48-64.82-78.83-64.82h0c-43.35,0-78.83,29.17-78.83,64.82v122"/><path class="cls-8" d="M153.46,240.42a15.48,15.48,0,0,0,3.74-4.4,13,13,0,0,0-1.14-14.37,9.18,9.18,0,0,0-4.39-3.14,10.92,10.92,0,0,0-7.32.89c-2.3,1-10,4.22-16.11,4.36S115,221,112.66,220.15a11,11,0,0,0-7.36-.54,9,9,0,0,0-4.23,3.34,13,13,0,0,0-.46,14.41,16.63,16.63,0,0,0,3.94,4.22c10.24,7.82,24.8,7.46,24.8,7.46A41.48,41.48,0,0,0,153.46,240.42Z"/><path class="cls-9" d="M153.46,240.42a15.48,15.48,0,0,0,3.74-4.4,13,13,0,0,0-1.14-14.37,9.18,9.18,0,0,0-4.39-3.14,10.92,10.92,0,0,0-7.32.89c-2.3,1-10,4.22-16.11,4.36S115,221,112.66,220.15a11,11,0,0,0-7.36-.54,9,9,0,0,0-4.23,3.34,13,13,0,0,0-.46,14.41,16.63,16.63,0,0,0,3.94,4.22c10.24,7.82,24.8,7.46,24.8,7.46A41.48,41.48,0,0,0,153.46,240.42Z"/><line class="cls-9" x1="110.12" y1="218.8" x2="110.71" y2="243.91"/><line class="cls-9" x1="122.84" y1="223.4" x2="123.43" y2="248.52"/><line class="cls-9" x1="136.28" y1="222.75" x2="136.88" y2="247.87"/><line class="cls-9" x1="147.84" y1="219.16" x2="148.44" y2="244.27"/><rect class="cls-10" x="67.86" y="14.29" width="71.37" height="72.57" rx="35.68" transform="translate(-8.72 24.57) rotate(-12.99)"/><rect class="cls-11" x="68.74" y="15.17" width="71.37" height="72.57" rx="35.68" transform="translate(-8.89 24.79) rotate(-12.99)"/><path class="cls-10" d="M16.43,86s5.83,35.31,49.66,30.61S191.74,75.09,191.74,75.09,228.61,57.43,213,23Z"/><path class="cls-11" d="M16.43,86s7.84,41.09,50.66,30.61c40.13-9.82,124.65-40.56,124.65-40.56S223,62.57,213,23Z"/><path class="cls-12" d="M205.48,39.2v-.08l-15.35,5.24,11,8A133,133,0,0,0,205.48,39.2Z"/><polygon class="cls-12" points="176.29 68.61 180.52 47.32 157.81 55.08 176.29 68.61"/><polygon class="cls-12" points="143.96 79.32 148.19 58.03 125.48 65.79 143.96 79.32"/><polygon class="cls-12" points="111.63 90.03 115.86 68.75 93.15 76.5 111.63 90.03"/><polygon class="cls-12" points="79.3 100.74 83.53 79.46 60.82 87.21 79.3 100.74"/><path class="cls-12" d="M46.3,106.18l2.87-14.42L35.93,96.28A48.77,48.77,0,0,0,46.3,106.18Z"/><path class="cls-4" d="M183.71,236.49c-5.91,0-11.62-3.83-16.56-11.26l-.36-.54c-4.32-6.5-8.06-12.12-15.18-14.73a24.18,24.18,0,0,0-20.78,1.67,3,3,0,0,1-3.12-5.13,30.24,30.24,0,0,1,26-2.17c9,3.29,13.41,10,18.11,17l.35.53c5.09,7.65,10.39,10.18,15.74,7.51a9.71,9.71,0,0,0,5-8.54,7.25,7.25,0,0,0-3.78-6.81,5.18,5.18,0,0,0-4.18-.45,2.41,2.41,0,0,0-1.42,1.69,2.67,2.67,0,0,0,.45,2.67,1.9,1.9,0,0,0,2,.19,3,3,0,1,1,2,5.64,7.77,7.77,0,0,1-8.14-1.46,8.91,8.91,0,0,1,2.76-14.26,11.06,11.06,0,0,1,9.32.67,13.25,13.25,0,0,1,7,12.19,15.61,15.61,0,0,1-8.3,13.84A15.24,15.24,0,0,1,183.71,236.49Z"/><path class="cls-4" d="M73.42,236.49c5.9,0,11.61-3.83,16.56-11.26l.35-.54c4.33-6.5,8.06-12.12,15.19-14.73a24.15,24.15,0,0,1,20.77,1.67,3,3,0,0,0,3.13-5.13,30.24,30.24,0,0,0-26-2.17c-9,3.29-13.41,10-18.11,17l-.36.53c-5.09,7.65-10.38,10.18-15.73,7.51a9.72,9.72,0,0,1-5-8.54,7.27,7.27,0,0,1,3.78-6.81,5.2,5.2,0,0,1,4.19-.45,2.42,2.42,0,0,1,1.41,1.69,2.65,2.65,0,0,1-.44,2.67,1.9,1.9,0,0,1-2,.19,3,3,0,0,0-2,5.64,7.77,7.77,0,0,0,8.14-1.46,8.55,8.55,0,0,0,2.09-8.74,8.46,8.46,0,0,0-4.85-5.52,11,11,0,0,0-9.31.67,13.28,13.28,0,0,0-7,12.19,15.63,15.63,0,0,0,8.3,13.84A15.28,15.28,0,0,0,73.42,236.49Z"/><path class="cls-4" d="M136.89,278.61l4.54-4.53a3,3,0,0,0-4.25-4.25l-4.53,4.54-4.53-4.54a3,3,0,0,0-4.24,4.25l4.53,4.53-4.53,4.53a3,3,0,0,0,0,4.24,3,3,0,0,0,4.24,0l4.53-4.53,4.53,4.53a3,3,0,0,0,4.25-4.24Z"/><path class="cls-4" d="M134.55,115.39l4.53-4.53a3,3,0,0,0-4.24-4.24l-4.54,4.53-4.53-4.53a3,3,0,0,0-4.24,4.24l4.53,4.53-4.53,4.53a3,3,0,0,0,2.12,5.12,3,3,0,0,0,2.12-.88l4.53-4.53,4.54,4.53A3,3,0,0,0,137,125a3,3,0,0,0,2.12-5.12Z"/><path class="cls-4" d="M79,259l4.53-4.53a3,3,0,1,0-4.24-4.24l-4.53,4.53-4.53-4.53A3,3,0,1,0,66,254.51L70.5,259,66,263.57a3,3,0,0,0,2.12,5.13,3,3,0,0,0,2.12-.88l4.53-4.53,4.53,4.53a3,3,0,0,0,4.24-4.25Z"/><path class="cls-4" d="M188.55,257.48l4.53-4.53a3,3,0,0,0-4.24-4.25l-4.54,4.54-4.53-4.54a3,3,0,0,0-4.24,4.25l4.53,4.53L175.53,262a3,3,0,0,0,2.12,5.12,3,3,0,0,0,2.12-.88l4.53-4.53,4.54,4.53a3,3,0,0,0,2.12.88,3,3,0,0,0,2.12-5.12Z"/><path class="cls-4" d="M229,134l-4-1.23c-11.57-3.56-25.26-5.36-40.68-5.36h-.19a242.06,242.06,0,0,0-46.33,4.79,29.68,29.68,0,0,0-12.44-2.88h0a26.11,26.11,0,0,0-11.39,2.64c-10.87-2.95-23.49-4.44-37.51-4.44h-.19a239.52,239.52,0,0,0-48.49,5.26L22.4,134A6.87,6.87,0,0,0,18,137.5a8.63,8.63,0,0,0-.76,6.06l1.73,7.2c.12.5,12.38,49.59,51.42,49.59h.05c14.37,0,34.11-4.46,46.57-25.56a66.92,66.92,0,0,0,7.55-19.49,6.84,6.84,0,0,1,.79-.05h0a8.66,8.66,0,0,1,3.05.61c3.85,11.2,18,44.39,49.85,44.38h.05c14.37,0,34.11-4.45,46.57-25.55a66.63,66.63,0,0,0,8.71-26.95L234,142C234.24,138.32,232.14,134.94,229,134Z"/><path class="cls-13" d="M184.31,135.41h-.18a230.06,230.06,0,0,0-46.21,4.9l-.94.2-.87-.44a24,24,0,0,0-10.76-2.75h0a20.25,20.25,0,0,0-9.67,2.52l-1,.56-1.07-.31c-10.62-3-23.12-4.58-37.14-4.58h-.2a234.4,234.4,0,0,0-47.1,5.1l-5.06,1.17,1.65,6.87a83.53,83.53,0,0,0,10,22.33c9.16,14.17,20.82,21.35,34.67,21.35h0c12.67,0,30-3.84,40.75-22a58.21,58.21,0,0,0,7-19.34l.32-1.8,1.49-.72a11.84,11.84,0,0,1,2.22-.82,12.52,12.52,0,0,1,3.12-.39h0a16.3,16.3,0,0,1,7.39,1.95l1.19.6.44,1.4A81.35,81.35,0,0,0,145.65,174c8.84,12.11,19.81,18.25,32.6,18.25h0c12.67,0,30-3.84,40.75-22a58.43,58.43,0,0,0,7.53-23.12l.38-5.44-3.78-1.16C212.18,137.12,199.11,135.41,184.31,135.41ZM109.77,153c-8.09,27.28-29.42,29.73-40.69,29.74h0c-14.09,0-26.14-9.18-34-28.84l-2.22-5.6,4.59-.89a206.9,206.9,0,0,1,38.06-3.87h.17c11.25,0,22.72,1.17,31.69,3.46l3.88,1Zm109.78-.18C211,180.29,189.89,184.42,178,184.43h0c-14.81,0-27.49-10.91-35.71-30.74L140,148.06l4.83-.9a225.17,225.17,0,0,1,40-3.9h.2a135.65,135.65,0,0,1,32,3.48l4.08,1Z"/><path class="cls-14" d="M52.4,151.66l-3.72,15a29,29,0,0,0,9,6.94l5.76-23C59.55,150.85,55.86,151.23,52.4,151.66Z"/><path class="cls-14" d="M93.48,151.15a149.53,149.53,0,0,0-16.39-1l-5.86,25.9a41.8,41.8,0,0,0,17.06-3.85Z"/><path class="cls-14" d="M161.17,151.66l-3.72,15a28.89,28.89,0,0,0,9,6.94l5.76-23C168.32,150.85,164.63,151.23,161.17,151.66Z"/><path class="cls-14" d="M202.24,151.15a149.19,149.19,0,0,0-16.38-1L180,176.05a41.8,41.8,0,0,0,17.06-3.85Z"/></g></svg>