<svg id="Camada_1" data-name="Camada 1" xmlns="http://www.w3.org/2000/svg" xmlns:xlink="http://www.w3.org/1999/xlink" viewBox="0 0 262.17 298.96"><defs><style>.cls-1{fill:none;clip-rule:evenodd;}.cls-2{clip-path:url(#clip-path);}.cls-3{clip-path:url(#clip-path-2);}.cls-4{clip-path:url(#clip-path-3);}.cls-5{clip-path:url(#clip-path-4);}.cls-6{fill:#23db57;}.cls-7{fill:#fff;}.cls-8{fill:#e02d5c;}.cls-9{fill:#012442;}.cls-10{fill:#57ebff;}.cls-11{fill:#ffbb71;}.cls-12{fill:#5affc0;}.cls-13{fill:#fcff92;}.cls-14{fill:#7bff81;}</style><clipPath id="clip-path"><path class="cls-1" d="M-791.94,218.93a30.38,30.38,0,0,0,29.53-22.68,5.88,5.88,0,0,0-5.9-7.18l-47.48.16a5.89,5.89,0,0,0-5.85,7.22,30.38,30.38,0,0,0,29.7,22.48"/></clipPath><clipPath id="clip-path-2"><path class="cls-1" d="M-762.91,198a28.67,28.67,0,0,0,1.18-5.81,4.07,4.07,0,0,0-4.12-4.4l-52.41.18a4.07,4.07,0,0,0-4.09,4.42,27.67,27.67,0,0,0,1.23,5.8Z"/></clipPath><clipPath id="clip-path-3"><path class="cls-1" d="M-790.72,219c-14,0-19.94-6.78-19.94-6.78,4.65-3.3,11.83-5.43,19.89-5.46,7,0,14.66,1.55,19.27,4.1,0,0-5.18,8.08-19.22,8.14"/></clipPath><clipPath id="clip-path-4"><path class="cls-1" d="M-765.83,187.81a4.06,4.06,0,0,1,4.1,4.4c-.13,1.34-2.16,10.1-10.32,19.41-1.66,2-7.21,7.36-18.67,7.41h0c-2.34,0-10.63-.57-15.32-3.45-6.75-4.17-12.54-9.82-15-17.36a22.76,22.76,0,0,1-1.24-5.8,4.23,4.23,0,0,1,4.1-4.42l52.4-.19h0m0-7.27h-.06l-52.39.19a11.56,11.56,0,0,0-11.53,11.62,27.83,27.83,0,0,0,1.63,8.15c2.77,8.38,8.86,15.51,18.11,21.23,7.31,4.51,18.81,4.57,19.3,4.57h.07c14.36-.05,21.78-7,24.35-10,9-10.27,11.74-20.35,12-23.38a11.13,11.13,0,0,0-2.94-8.65,11.76,11.76,0,0,0-8.58-3.71"/></clipPath></defs><circle class="cls-6" cx="131.09" cy="172.67" r="123.33"/><ellipse class="cls-7" cx="136.7" cy="120.86" rx="59.48" ry="56.35"/><path class="cls-8" d="M175,203.47l-42.28,1.3-42.28-1c-46.94,6-57.71,43.3-57.71,43.3,48.38,57.63,90.26,48.39,100.33,48.35,8.71,0,54,6.89,102-51.09C235,244.34,222,209.17,175,203.47Z"/><path class="cls-9" d="M234,249.34a4,4,0,0,1-3.75-2.6h0c-.51-1.34-12.87-32.83-56.46-38.26l-42.08,1.3-42.09-1C46.33,214.5,36.93,244,36.55,245.23A4,4,0,0,1,28.88,243c.43-1.46,11.09-35.83,60.05-42.13l.3,0,42.48,1,42.48-1.3.3,0c48.83,5.92,62.72,41.91,63.29,43.44a4,4,0,0,1-3.75,5.39Z"/><path class="cls-10" d="M206.38,201.06s-102.2,37.78-148.19,13.41c-1.74-.92-11.5,11.25,5.17,21.09s5.75,3.75,5.75,3.75-8,1.8-4.5,11.64c0,0,.65,10.27,21.17,16.48,20.13,6.1,46.53,11.88,51.13,15.16,0,0,49.35-8.59,61.42-32.5,0,0,5-9.06-1.87-12.34,0,0,12.94-2.66,22.14-7.34S215.58,200.6,206.38,201.06Z"/><path class="cls-11" d="M134.09,7h0A115.48,115.48,0,0,0,18.61,122.43h0c0,63.77,51.7,117.76,115.48,117.76h0c63.77,0,115.47-54,115.47-117.76h0A115.48,115.48,0,0,0,134.09,7Zm40.06,116.22c0,22.13-17.94,40.86-40.06,40.86h0C112,164,94,145.3,94,123.17h0a40.07,40.07,0,0,1,40.07-40.06h0a40.07,40.07,0,0,1,40.06,40.06Z"/><path class="cls-8" d="M224.48,119.66A38.42,38.42,0,0,0,187.4,85.19h-.25a15.53,15.53,0,0,1-14.49-11.44,38.33,38.33,0,0,0-38.39-38.52h-.37A38.34,38.34,0,0,0,95.51,73.75,15.53,15.53,0,0,1,81,85.19h-.25a38.35,38.35,0,0,0,1.07,76.68H82a13.83,13.83,0,0,1,13.49,10.28c0,.21,0,.41,0,.62a38.34,38.34,0,0,0,38.36,39.14h.44a38.34,38.34,0,0,0,38.35-39.14c0-.21,0-.41,0-.62a13.84,13.84,0,0,1,13.49-10.28h.2A38.35,38.35,0,0,0,224.48,119.66Zm-50.33,3.51c0,22.13-17.94,40.86-40.06,40.86h0C112,164,94,145.3,94,123.17h0a40.07,40.07,0,0,1,40.07-40.06h0a40.07,40.07,0,0,1,40.06,40.06Z"/><path class="cls-9" d="M134,244.57c-31.8,0-61.82-12.85-84.53-36.18a122.13,122.13,0,0,1-34.95-85.58,119.48,119.48,0,1,1,239,0,122.13,122.13,0,0,1-35,85.58C195.77,231.72,165.75,244.57,134,244.57Zm0-233.24A111.61,111.61,0,0,0,22.48,122.81a114.18,114.18,0,0,0,32.69,80c21.19,21.77,49.17,33.76,78.79,33.76s57.6-12,78.78-33.76a114.18,114.18,0,0,0,32.69-80A111.6,111.6,0,0,0,134,11.33Z"/><path class="cls-9" d="M134.09,168C109.79,168,90,147.91,90,123.17a44.07,44.07,0,0,1,88.13,0C178.15,147.91,158.38,168,134.09,168Zm0-80.92A36.11,36.11,0,0,0,98,123.17c0,20,16.52,36.86,36.07,36.86s36.06-16.88,36.06-36.86A36.11,36.11,0,0,0,134.09,87.11Z"/><rect class="cls-10" x="54.45" y="146.81" width="13.3" height="34.43" rx="6.65" transform="translate(141.8 8.7) rotate(47.89)"/><path class="cls-9" d="M53.28,179.75h-.45a8.65,8.65,0,0,1-5.36-15.05l15.67-14.17a8.66,8.66,0,0,1,11.61,12.84L59.07,177.53A8.6,8.6,0,0,1,53.28,179.75Zm15.66-27.46a4.66,4.66,0,0,0-3.12,1.2L50.15,167.66a4.67,4.67,0,0,0-.33,6.57h0a4.67,4.67,0,0,0,6.57.33l15.67-14.17a4.65,4.65,0,0,0-3.12-8.1Z"/><rect class="cls-10" x="203.85" y="78.72" width="13.3" height="34.43" rx="6.65" transform="translate(188.33 -134.33) rotate(60)"/><path class="cls-9" d="M201.38,109.87a8.79,8.79,0,0,1-2.27-.3A8.64,8.64,0,0,1,197,93.73l18.3-10.57a8.65,8.65,0,0,1,8.65,15l-18.3,10.56A8.51,8.51,0,0,1,201.38,109.87ZM219.64,86a4.55,4.55,0,0,0-2.32.63L199,97.19a4.65,4.65,0,0,0,1.13,8.52,4.6,4.6,0,0,0,3.52-.46L222,94.68A4.65,4.65,0,0,0,219.64,86Z"/><rect class="cls-10" x="161.37" y="175.63" width="13.3" height="34.43" rx="6.65" transform="translate(117.7 443.63) rotate(-127.59)"/><path class="cls-9" d="M159.67,207.94a8.83,8.83,0,0,1-1.14-.07,8.66,8.66,0,0,1-4.16-15.43l16.74-12.89a8.65,8.65,0,0,1,10.56,13.71l-16.74,12.89A8.62,8.62,0,0,1,159.67,207.94Zm16.7-26.18a4.6,4.6,0,0,0-2.82,1l-16.74,12.89a4.65,4.65,0,0,0,5.68,7.37l16.74-12.89a4.66,4.66,0,0,0,.85-6.52h0A4.63,4.63,0,0,0,177,181.8,4.3,4.3,0,0,0,176.37,181.76Z"/><rect class="cls-12" x="43.45" y="84.81" width="13.3" height="34.43" rx="6.65" transform="translate(158.29 136.91) rotate(134.03)"/><path class="cls-9" d="M57.7,118a8.57,8.57,0,0,1-6-2.42L36.5,100.9a8.65,8.65,0,0,1-.21-12.23h0A8.58,8.58,0,0,1,42.36,86h.16a8.55,8.55,0,0,1,6,2.42l15.2,14.69A8.65,8.65,0,0,1,57.85,118ZM39.17,91.45A4.65,4.65,0,0,0,39.28,98l15.19,14.68A4.65,4.65,0,0,0,60.94,106L45.74,91.34a4.67,4.67,0,0,0-6.58.11Z"/><rect class="cls-13" x="203.45" y="133.81" width="13.3" height="34.43" rx="6.65" transform="translate(464.72 104.93) rotate(134.03)"/><path class="cls-9" d="M217.7,167a8.57,8.57,0,0,1-6-2.42L196.5,149.9a8.65,8.65,0,0,1-.21-12.23h0a8.58,8.58,0,0,1,6.07-2.63h.16a8.55,8.55,0,0,1,6,2.42l15.2,14.69A8.65,8.65,0,0,1,217.85,167Zm-18.53-26.56a4.65,4.65,0,0,0,.11,6.58l15.19,14.68a4.65,4.65,0,0,0,7.88-3.42,4.65,4.65,0,0,0-1.41-3.27l-15.2-14.68a4.54,4.54,0,0,0-3.31-1.3,4.61,4.61,0,0,0-3.27,1.41Z"/><rect class="cls-14" x="131.37" y="22.5" width="13.3" height="34.43" rx="6.65" transform="translate(236.27 144.47) rotate(-149.22)"/><path class="cls-9" d="M132.58,57.45a8.51,8.51,0,0,1-4.39-1.22,8.66,8.66,0,0,1-3-11.86L136,26.22a8.66,8.66,0,0,1,11.86-3h0a8.66,8.66,0,0,1,3,11.86L140.05,53.22a8.62,8.62,0,0,1-5.31,4A8.88,8.88,0,0,1,132.58,57.45ZM143.45,26a4.64,4.64,0,0,0-4,2.26L128.62,46.42a4.57,4.57,0,0,0-.51,3.52,4.65,4.65,0,0,0,8.5,1.24L147.42,33a4.66,4.66,0,0,0-1.61-6.37h0A4.64,4.64,0,0,0,143.45,26Z"/><rect class="cls-14" x="99.8" y="183.07" width="13.3" height="34.43" rx="6.65" transform="matrix(-0.84, 0.54, -0.54, -0.84, 304.38, 311.06)"/><path class="cls-9" d="M112.19,217.82a8.64,8.64,0,0,1-7.29-4L93.46,196.09a8.66,8.66,0,0,1,2.59-12h0a8.66,8.66,0,0,1,12,2.59l11.44,17.77a8.65,8.65,0,0,1-7.26,13.33Zm-14-30.33a4.65,4.65,0,0,0-1.4,6.43l11.44,17.77a4.65,4.65,0,0,0,7.82-5l-11.43-17.77a4.66,4.66,0,0,0-6.43-1.39Z"/><path class="cls-9" d="M136,286.82l-1.37-1c-2.28-1.63-15.42-5.13-26-7.93-8-2.14-16.35-4.35-24-6.66-20.37-6.17-23.46-16.49-23.93-19.39-1.41-4.28-1.26-8,.44-11.07a11.49,11.49,0,0,1,7.1-5.39,4,4,0,0,1,1.83,7.79,3.47,3.47,0,0,0-2,1.52c-.71,1.36-.24,3.42.28,4.91l.23.66v.34c.17.82,2.16,8.08,18.34,13,7.49,2.26,15.73,4.46,23.71,6.57,13.91,3.7,22.71,6.1,26.95,8.2,7.9-1.58,47.21-10.39,57.16-30.09l.08-.14c.59-1.09,1.66-3.92,1.12-5.57a2,2,0,0,0-1.21-1.22,4,4,0,1,1,3.43-7.22,9.9,9.9,0,0,1,5.4,6c1.67,5.2-1.19,10.86-1.71,11.81-12.88,25.35-62.18,34.21-64.28,34.57Z"/><path class="cls-9" d="M162.9,259.85a4,4,0,0,1-3.2-6.37c.41-.54,10.29-13.35,43.36-23.46,6.12-1.87,13.71-5.26,15.1-10.75,1.29-5.11-3.16-11-5-12.86a4,4,0,0,1,5.67-5.65c.4.4,9.71,9.87,7.08,20.42-1.83,7.34-8.74,12.88-20.53,16.49-30.17,9.22-39.23,20.52-39.32,20.63A4,4,0,0,1,162.9,259.85Z"/><path class="cls-9" d="M96.31,252.82a4,4,0,0,1-1.39-.25l-3.39-1.25a4,4,0,1,1,2.75-7.51l3.42,1.26a4,4,0,0,1-1.39,7.75Z"/><path class="cls-9" d="M82,247.53a4,4,0,0,1-1.44-.27c-18.43-7.16-28.25-14.4-30.92-22.81C48.25,220,49,215.24,52,210.81a4,4,0,1,1,6.66,4.43c-2.12,3.2-1.78,5.41-1.34,6.79,1.25,4,6.82,10.25,26.18,17.77A4,4,0,0,1,82,247.53Z"/><path class="cls-9" d="M110.5,159.34a3,3,0,0,1-3-3V91.26a3,3,0,1,1,6,0v65.08A3,3,0,0,1,110.5,159.34Z"/><path class="cls-9" d="M126.34,163.34a3,3,0,0,1-3-3V88.26a3,3,0,0,1,6,0v72.08A3,3,0,0,1,126.34,163.34Z"/><path class="cls-9" d="M142.18,163.34a3,3,0,0,1-3-3V88.26a3,3,0,1,1,6,0v72.08A3,3,0,0,1,142.18,163.34Z"/><path class="cls-9" d="M158,159.34a3,3,0,0,1-3-3V93.26a3,3,0,0,1,6,0v63.08A3,3,0,0,1,158,159.34Z"/><circle class="cls-7" cx="77.85" cy="61.68" r="22.35"/><path class="cls-9" d="M77.85,88a26.35,26.35,0,0,1-.1-52.7h.1A26.34,26.34,0,0,1,104.2,61.58h0A26.34,26.34,0,0,1,78,88Zm0-44.7h-.07A18.35,18.35,0,0,0,77.85,80h.07A18.33,18.33,0,0,0,96.2,61.61h0A18.35,18.35,0,0,0,77.85,43.33Z"/><circle class="cls-9" cx="77.4" cy="61.23" r="7.35"/><circle class="cls-7" cx="187.84" cy="59.14" r="22.35"/><path class="cls-9" d="M187.84,85.5a26.36,26.36,0,0,1-.09-52.71h.09a26.38,26.38,0,0,1,26.35,26.26h0A26.36,26.36,0,0,1,187.94,85.5Zm0-44.71h-.06a18.36,18.36,0,0,0,.06,36.71h.07a18.35,18.35,0,0,0,18.28-18.42h0A18.37,18.37,0,0,0,187.84,40.79Z"/><circle class="cls-9" cx="186.84" cy="59.14" r="7.35"/><rect class="cls-9" x="96.41" y="122.07" width="76.3" height="6"/></svg>