<svg xmlns="http://www.w3.org/2000/svg" xmlns:xlink="http://www.w3.org/1999/xlink" viewBox="0 0 262.17 298.96"><defs><style>.cls-1,.cls-10,.cls-8{fill:none;}.cls-2{fill:#f29b3b;}.cls-3{clip-path:url(#clip-path);}.cls-4{fill:#012442;}.cls-5{fill:#d379c2;}.cls-6{fill:#c965bb;}.cls-7{fill:#af4fa6;}.cls-10,.cls-12,.cls-8{stroke:#012442;stroke-miterlimit:10;stroke-width:8px;}.cls-9{fill:#ffea55;}.cls-10,.cls-12{stroke-linecap:round;}.cls-11{fill:#f2a5e8;}.cls-12,.cls-14{fill:#fff;}.cls-13{fill:#ffe497;}</style><clipPath id="clip-path"><circle class="cls-1" cx="129.98" cy="176.25" r="123.33"/></clipPath></defs><g id="Camada_3" data-name="Camada 3"><circle class="cls-2" cx="130.48" cy="175.52" r="123.33"/><g class="cls-3"><path class="cls-4" d="M217.27,301.79c-12.46,0-23.72-7.85-26.61-19.43-9.27-37.21-33-47.33-34-47.74l.6.22,19.82-46.57c5.19,1.85,51.16,19.88,66.89,83,3.35,13.46-5.86,26.85-20.57,29.91A29.6,29.6,0,0,1,217.27,301.79Z"/><path class="cls-5" d="M218.47,293.72c-8.31,0-15.81-5.24-17.74-13-10.65-42.71-44.16-57.53-44.49-57.67-9.18-3.76-13.28-13.62-9.17-22s14.9-12.14,24.08-8.38c2,.84,50.29,21.24,65.1,80.66,2.23,9-3.9,17.89-13.71,19.94A20.23,20.23,0,0,1,218.47,293.72Z"/><path class="cls-4" d="M34.68,302.63a30.38,30.38,0,0,1-6.1-.63C13.87,298.93,4.66,285.54,8,272.08,23.75,209,73.66,187.34,78.85,185.5l19.83,46.56s-3.74,3.55-3.36,3.39c-1,.41-24.75,10.54-34,47.74C58.41,294.77,47.15,302.63,34.68,302.63Z"/><path class="cls-5" d="M33.48,294.55a19.44,19.44,0,0,1-4.06-.42c-9.81-2-15.95-11-13.72-19.94,14.82-59.42,64.88-80.65,66.93-81.49l20.31,26.92.3.28c-1.38.59-41.39,19.06-52,61.69C49.3,289.32,41.79,294.55,33.48,294.55Z"/><g id="peito"><path class="cls-5" d="M193.27,301.81s7.63-85.64-43.82-112.24L93,191.82C48,207.74,50.43,301.88,50.43,301.88Z"/></g><path class="cls-6" d="M34.52,233.15c64.57,58.22,165.53,28.48,184.74,1.83-13.74-24.22-45.94-49-63.88-41.9-9.89-9.69-64.63,3.36-72.5-.25C80.31,194.73,56.05,203.72,34.52,233.15Z"/><path class="cls-4" d="M63.43,250.49a3.6,3.6,0,0,0-5.33,2.17c-2.79,10.7-5.1,25.23-5.11,44A3.49,3.49,0,0,0,56.63,300h0a3.5,3.5,0,0,0,3.65-3.33c0-18,2.23-32,4.88-42.17a3.61,3.61,0,0,0-1.66-4Z"/><path class="cls-4" d="M191.63,250.48a3.57,3.57,0,0,0-1.8,4.07c2.63,10.18,4.83,24.09,4.84,42.16a3.49,3.49,0,0,0,3.64,3.33h0a3.49,3.49,0,0,0,3.64-3.33c0-18.8-2.32-33.32-5.11-44a3.59,3.59,0,0,0-5.14-2.27Z"/></g><path class="cls-5" d="M230.76,72.61C219.22,45.19,194.39,22.82,132,22.82c-61.2,0-92.61,15.55-101.36,46.62C23.16,96,14.56,136.15,17.79,182.05c2.59,36.67,52.48,67.69,115,67.69S242.1,217.55,244,182.05C246.81,130.42,238.2,90.28,230.76,72.61Z"/><path class="cls-7" d="M132.74,228.32c-61.89,0-114.85-32.19-114.85-88.08a295.46,295.46,0,0,0-.1,41.81c2.59,36.67,52.48,67.69,115,67.69S242.1,217.55,244,182.05a357.86,357.86,0,0,0-.12-41.28C243.9,192.78,194.29,228.32,132.74,228.32Z"/><path class="cls-8" d="M230.76,72.61C219.22,45.19,194.39,22.82,132,22.82c-61.2,0-92.61,15.55-101.36,46.62C23.16,96,14.56,136.15,17.79,182.05c2.59,36.67,52.48,67.69,115,67.69S242.1,217.55,244,182.05C246.81,130.42,238.2,90.28,230.76,72.61Z"/><circle class="cls-9" cx="135.17" cy="97.97" r="34.94"/><circle class="cls-10" cx="132.88" cy="97.97" r="34.94"/><path class="cls-4" d="M134.48,99.54l15.1-14.17a20.72,20.72,0,1,0,2.8,24.58Z"/><path class="cls-11" d="M225,152.06a5,5,0,0,0-6.44,2.92,73.29,73.29,0,0,1-6.22,12.4c-4.1-4.82-10.77-11.24-18-12.44-2.38-.4-5.89.25-14.33,1.88-12.06,2.34-30.27,5.88-48.85,5.88h-.11c-19.68,0-39.74-3.53-53-5.85-9.48-1.67-13.43-2.33-15.9-1.91-7.24,1.2-13.91,7.61-18,12.44A72.92,72.92,0,0,1,37.9,155a5,5,0,0,0-6.44-2.92c-2.58,1,2.23,20.05,9.18,27l4.3,4.3,3.39-5.06c3.17-4.73,10.12-12.54,15.36-13.48,1.51-.06,7.4,1,12.62,1.88,13.61,2.38,34.19,6,54.73,6h.12c19.54,0,38.32-3.65,50.76-6.06,4.47-.87,9.51-1.81,10.89-1.82,5.24,1,12.17,8.76,15.33,13.48l3.39,5.07,4.31-4.31C222.79,172.11,227.6,153,225,152.06Z"/><path class="cls-12" d="M162.74,158.91l-3.09-20.71a11.35,11.35,0,0,1,9.13-12.83l3.9-.74a11.35,11.35,0,0,1,13.26,9.09l3.8,20.5Z"/><path class="cls-10" d="M223.26,150.74s-4.7,12.52-11,18.78c0,0-9.39-14.09-18.78-15.65-4.55-.76-33.14,7.85-62.48,7.83-31.2,0-63.24-8.64-68.08-7.83-9.39,1.56-18.79,15.65-18.79,15.65-6.26-6.26-11-18.78-11-18.78"/><path class="cls-5" d="M90.3,99.27s51.46-20,85.07,0c0,0,6.3-37.81-37.81-44.11S89.25,89.81,90.3,99.27Z"/><path class="cls-11" d="M101.94,96.34c13.16-2.36,26.18-5.87,39.67-4.73,9.63.81,19.74,2.67,28,7.79l5.72-.13,3.26-7.47c-1.86-1.87-14-10.27-46.21-8.87C102.58,84.23,89,94.6,89,94.6l4.2,6.53,3-.06A8.18,8.18,0,0,1,101.94,96.34Z"/><path class="cls-10" d="M104.81,60.41c-14,10.14-17,22.75-16.76,37.1,0,2.13,4.35,5.61,7.47,4.29,1-.41,1.07-3.55,2.17-4,11.86-4.85,32.64-10.72,70.55-2.36,2.31.51.49,4.25,2.93,4.87,1.94.49,7.83,0,7.7-4.2-.35-10.86-6-31.86-18.91-37.66"/><circle class="cls-7" cx="71.17" cy="193.3" r="16.44"/><circle class="cls-7" cx="47.69" cy="119.95" r="9.39"/><circle class="cls-7" cx="186.22" cy="199.17" r="9.39"/><circle class="cls-7" cx="107.96" cy="191.35" r="9.39"/><circle class="cls-7" cx="68.83" cy="130.91" r="5.26"/><circle class="cls-7" cx="206.17" cy="111.13" r="5.26"/><circle class="cls-7" cx="207.35" cy="90" r="9.39"/><path class="cls-13" d="M218.92,62.45l11-42.44c.49-2.49-2.78-5.2-5-4.17L185,33.85a8.07,8.07,0,0,0-3.6,2.3c-4.82,5.46-.78,16.92,9,25.59S212.09,73,216.92,67.56A8.44,8.44,0,0,0,218.92,62.45Z"/><path class="cls-8" d="M218.92,62.45l11-42.44c.49-2.49-2.78-5.2-5-4.17L185,33.85a8.07,8.07,0,0,0-3.6,2.3c-4.82,5.46-.78,16.92,9,25.59S212.09,73,216.92,67.56A8.44,8.44,0,0,0,218.92,62.45Z"/><path class="cls-13" d="M38.26,62.45,27.3,20c-.49-2.49,2.78-5.2,5.05-4.17l39.86,18a8,8,0,0,1,3.59,2.3c4.83,5.46.79,16.92-9,25.59S45.09,73,40.26,67.56A8.44,8.44,0,0,1,38.26,62.45Z"/><path class="cls-8" d="M38.26,62.45,27.3,20c-.49-2.49,2.78-5.2,5.05-4.17l39.86,18a8,8,0,0,1,3.59,2.3c4.83,5.46.79,16.92-9,25.59S45.09,73,40.26,67.56A8.44,8.44,0,0,1,38.26,62.45Z"/><ellipse class="cls-14" cx="112.12" cy="38.79" rx="6.22" ry="6.93" transform="translate(13 104) rotate(-52.42)"/><ellipse class="cls-14" cx="127.98" cy="51.83" rx="3.89" ry="4.33" transform="translate(8.85 121.65) rotate(-52.42)"/></g></svg>