<?xml version="1.0" encoding="utf-8"?>
<!-- Generator: Adobe Illustrator 25.0.0, SVG Export Plug-In . SVG Version: 6.00 Build 0)  -->
<svg version="1.1" id="Camada_1" xmlns="http://www.w3.org/2000/svg" xmlns:xlink="http://www.w3.org/1999/xlink" x="0px" y="0px"
	 viewBox="0 0 262.2 299" style="enable-background:new 0 0 262.2 299;" xml:space="preserve">
<style type="text/css">
	.st0{fill:#E02D5C;}
	.st1{clip-path:url(#SVGID_2_);}
	.st2{fill:#012442;}
	.st3{fill:#4F7E9E;}
	.st4{fill:#2C506D;}
	.st5{fill:none;stroke:#012442;stroke-width:9;stroke-linecap:round;stroke-linejoin:round;}
	.st6{fill:#33FFC5;}
</style>
<g id="Camada_4">
	<circle class="st0" cx="131" cy="175.2" r="123.3"/>
	<g>
		<defs>
			<circle id="SVGID_1_" cx="130.5" cy="175.9" r="123.3"/>
		</defs>
		<clipPath id="SVGID_2_">
			<use xlink:href="#SVGID_1_"  style="overflow:visible;"/>
		</clipPath>
		<g class="st1">
			<path class="st2" d="M217.8,301.5c-12.5,0-23.7-7.9-26.6-19.4c-9.3-37.2-33-47.3-34-47.7l0.6,0.2l19.8-46.6
				c5.2,1.9,51.2,19.9,66.9,83c3.4,13.5-5.9,26.9-20.6,29.9C221.9,301.3,219.8,301.5,217.8,301.5z"/>
			<path class="st3" d="M219,293.4c-8.3,0-15.8-5.2-17.7-13c-10.6-42.7-44.2-57.5-44.5-57.7c-9.2-3.8-13.3-13.6-9.2-22
				s14.9-12.1,24.1-8.4c2,0.8,50.3,21.2,65.1,80.7c2.2,9-3.9,17.9-13.7,19.9C221.7,293.2,220.4,293.4,219,293.4z"/>
			<path class="st2" d="M35.2,302.3c-2,0-4.1-0.2-6.1-0.6c-14.7-3.1-23.9-16.5-20.6-29.9c15.7-63.1,65.6-84.7,70.8-86.6l19.8,46.6
				c0,0-3.7,3.6-3.4,3.4c-1,0.4-24.8,10.5-34,47.7C58.9,294.4,47.7,302.3,35.2,302.3z"/>
			<path class="st3" d="M34,294.2c-1.4,0-2.7-0.1-4.1-0.4c-9.8-2-15.9-11-13.7-19.9c14.8-59.4,64.9-80.6,66.9-81.5l20.3,26.9
				l0.3,0.3c-1.4,0.6-41.4,19.1-52,61.7C49.8,289,42.3,294.2,34,294.2z"/>
			<g id="peito">
				<path class="st3" d="M193.8,301.5c0,0,7.6-85.6-43.8-112.2l-56.4,2.2c-45.1,15.9-42.6,110-42.6,110L193.8,301.5z"/>
			</g>
			<path class="st4" d="M37,229.8c64.6,58.2,163.5,31.5,182.7,4.8c-13.7-24.2-45.9-49-63.9-41.9c-9.9-9.7-64.6,3.4-72.5-0.2
				C80.8,194.4,65.2,191.1,37,229.8z"/>
			<path class="st2" d="M63.9,250.1c-1.7-1-3.9-0.5-4.9,1.2c-0.2,0.3-0.3,0.6-0.4,0.9c-2.8,10.7-5.1,25.2-5.1,44.1
				c0.1,1.9,1.7,3.4,3.6,3.3l0,0c1.9,0.1,3.6-1.4,3.7-3.3c0-18,2.2-32,4.9-42.2C66.1,252.6,65.4,251,63.9,250.1L63.9,250.1z"/>
			<path class="st2" d="M192.1,254.1c-1.5,0.8-2.2,2.5-1.8,4.1c2.6,10.2,4.8,24.1,4.8,42.2c0.1,1.9,1.7,3.4,3.6,3.3l0,0
				c1.9,0.1,3.6-1.4,3.6-3.3c0-18.8-2.3-33.3-5.1-44c-0.5-1.9-2.5-3.1-4.4-2.6C192.7,253.9,192.4,254,192.1,254.1L192.1,254.1z"/>
		</g>
	</g>
</g>
<g id="Camada_3">
	<path class="st4" d="M241.9,198.7c0-0.6,1.2-64.9-7.6-95.2l-0.1-0.2l-0.1-0.2c-0.2-0.4-23.8-37.1-41.3-55.6l29-21.5l-4.3,0.1
		c-0.3,0-18.5-14.4-51.4-11.5c-30.4,2.6-54.5,0-95.2,21.5l-0.4,0.1l-0.2,0.3c-0.3,0.3-28,33-45.6,70c-4.1,8.7-7,18.9-8.6,30.6
		c-1.3,10.1-1.8,20.2-1.5,30.3c0.6,18.4,3.3,38.2,3.3,38.3l0.1,0.5l0.4,0.3c0.5,0.4,46.6,34.1,118.3,34.1
		c37.5,0,64.5-11.2,80.5-20.5c17.4-10.2,24-20.2,24.3-20.6l0.3-0.4V198.7z"/>
	<path class="st2" d="M38.2,193.5c0,0,6.5-67.9,13.3-80.3c4.4-8.1,64.2-27.4,77.5-28.6c13.3-1.1,60.9,12.4,78.6,27.1
		c0,0,15.5,66,8.9,88.5c0,0-25.8,16.9-89.7,19.4C126.7,219.6,63.6,213.4,38.2,193.5z"/>
	<path class="st3" d="M213.1,110.4l-0.4-1.9l-1.5-1.2c-18.3-15.1-67.6-22-82.7-20.7c-8.4,0.7-28.6,5.8-43.4,11
		c-36.2,12.7-38.6,17-39.5,18.6c-6,11-10.7,52.3-13,76l-0.4,4l2.5,1.9c26.4,20.6,88.8,27,91.5,27.3h0.4h0.4
		c64.6-2.5,91.4-19.6,92.5-20.3l1.8-1.1l0.6-2C228.9,178.1,213.7,113.1,213.1,110.4z M211.5,196.4c-21.3,11.9-63.1,16.5-84.6,17.4
		c-3.5-0.4-58.3-6.5-82.8-23.1c3.2-31.7,8.3-67.2,12.2-74.6c4.4-5.4,58.6-24.6,73.1-25.8c11.2-1,55,11.1,73.1,24.7
		c1,4.6,4,18.3,6.4,33.5C213.3,176.5,212.8,190,211.5,196.4L211.5,196.4z"/>
	<path class="st2" d="M158.2,23c19.9,0,39.8,1.5,59.4,4.6l-26.9,19.8c17.7,18.1,42.2,56.5,42.2,56.5c6.2,21.4,7.4,59.4,7.6,80.3
		c0.1,10.3-4.5,20.1-12.5,26.4c-15.3,12-45,28.9-91.3,28.9c-45.7,0-80.6-13.6-100.1-23.5c-10.7-5.4-17.1-16.9-16.2-29
		c1.8-25.4,6.1-69.3,15-85.4c19.9-36.1,36-62,36-62C96.3,26.5,129.6,23,158.2,23 M158.2,14.4c-38,0-68.5,5.8-90.7,17.4
		c-1.4,0.7-2.5,1.8-3.3,3.1C64,35.1,47.7,61.3,28,97.2c-9.2,16.7-13.8,57.6-16,89c-1.1,15.6,7.1,30.4,20.9,37.4
		C54.7,234.7,90.4,248,136.7,248c21.6,0,41.8-3.5,60.2-10.5c13-4.8,25.2-11.6,36.2-20.2c10.1-8,16-20.3,15.9-33.4
		c-0.2-21.3-1.5-60.2-8-82.7c-0.2-0.8-0.6-1.6-1-2.3c-0.9-1.4-19.7-30.8-36.6-50.4l19.1-14c3.8-2.8,4.7-8.2,1.9-12.1
		c-1.3-1.8-3.3-3.1-5.5-3.5C198.9,15.9,178.6,14.3,158.2,14.4L158.2,14.4z"/>
	<path class="st2" d="M38.2,193.5c0,0,6.5-67.9,13.3-80.3c4.4-8.1,64.2-27.4,77.5-28.6c13.3-1.1,60.9,12.4,78.6,27.1
		c0,0,15.5,66,8.9,88.5c0,0-25.8,16.9-89.7,19.4C126.7,219.6,63.6,213.4,38.2,193.5z"/>
	<path class="st5" d="M54.3,115.1c0,0,42.3-28,111-41.6c0,0,20.9,4.3,25.3,8.1"/>
	<path class="st2" d="M200.9,56.6c-0.7,0-1.3-0.2-1.9-0.5c-0.2-0.1-23.4-11.9-38.9-15.5c-2.3-0.5-3.7-2.9-3.2-5.2
		c0.5-2.3,2.8-3.8,5.1-3.3c16.6,3.8,39.8,15.7,40.8,16.2c2.1,1.1,2.9,3.7,1.9,5.8C204,55.6,202.6,56.6,200.9,56.6L200.9,56.6z"/>
	<path class="st6" d="M68.5,116c0,0,28.6,2.1,44.6,20.2c0,0-10.3,21.1-29.8,14.5C63.8,144.3,68.5,116,68.5,116z"/>
	<path class="st6" d="M187.5,116c0,0-28.6,2.1-44.6,20.2c0,0,10.3,21.1,29.8,14.5C192.2,144.3,187.5,116,187.5,116z"/>
	<path class="st3" d="M38.5,110.2c0,0,52.4-33.1,97.4-42.1l10.4-27.1l-33,2.9c0,0,13.8-11.2,24.9-13.4l-56,12.8
		C79,44,76.1,46,74.4,48.9C67.2,60.5,48,92.1,38.5,110.2z"/>
	<path class="st6" d="M174.8,200.6c0,0-4,0.1-4,0c-0.3-1.9,0.9-7.3-0.5-8.8c-1.4-3.2-13.9-1.3-16.5-1.8c-5.3-0.1-3.8,7.3-4,10.6
		c0,0.1-11.2,0-11.2,0c-0.3-3.4,1.9-11.6-3.8-11.5h-13.2c-2.2,0-4,1.8-4,4c0,0,0,7.6,0,7.6h-9.8c-0.2-3.3,1.3-10.7-4-10.6H90.8
		c-2.2-0.1-4,1.7-4.1,3.9c0,0.1,0,0.1,0,0.2l0.2,6.5c0,0.1-2.4,0-2.5,0c-12.2,0.2-14.6-29.7-18-38.5c1.8,0.4,4.3,1,7.2,1.7
		c0.8,3.4-1.8,14.4,3.9,14.7c2.6-0.2,13.8,2.5,15.7,0.2c2.2-1.6,1-9.2,1.3-11.5c2.9,0.3,6,0.7,9,0.9c0,0,0.3,9.1,0.3,9.1
		c0.1,2.2,1.8,3.9,4,3.9h12.6c5.7,0.1,3.6-8.6,4-11.9c10.3,0.5,9-3.1,8.9,8c0,2.2,1.8,4,4,4H150c5.9,0.2,3.6-9.9,4.2-13.2
		c2.9-0.3,6-0.7,9-1c0.3,3.5-1.9,13.6,4.4,12.9l12.7-1.2c2-0.2,3.5-1.8,3.6-3.8l0.3-11.5c2-0.5,4.1-0.9,6.1-1.4
		C188.3,171.9,187.7,200.8,174.8,200.6z"/>
</g>
</svg>
