<svg xmlns="http://www.w3.org/2000/svg" viewBox="0 0 262.17 298.96"><defs><style>.cls-1{fill:#e02d5c;}.cls-2{fill:#3ec63e;}.cls-3{fill:#1b931b;}.cls-4,.cls-5,.cls-6,.cls-7{fill:none;}.cls-10,.cls-4,.cls-5,.cls-6,.cls-7{stroke:#012442;}.cls-4,.cls-7{stroke-linecap:round;}.cls-10,.cls-4,.cls-5,.cls-6{stroke-miterlimit:10;}.cls-4,.cls-5{stroke-width:8px;}.cls-6,.cls-7{stroke-width:6px;}.cls-7{stroke-linejoin:round;}.cls-8{fill:#ffffb6;}.cls-9{fill:#012442;}.cls-10{fill:#ffe97b;stroke-width:7px;}.cls-11{fill:#fff;}</style></defs><g id="Camada_4" data-name="Camada 4"><circle class="cls-1" cx="131.09" cy="174.72" r="123.33"/><path class="cls-2" d="M175.46,203l-42.28,1.29-42.28-1c-46.94,6-57.72,43.3-57.72,43.3C81.56,304.23,123.45,295,133.51,295c8.72,0,54,6.88,102-51.1C235.48,243.86,222.44,208.69,175.46,203Z"/><path class="cls-3" d="M172.46,205l-42.28,1.29-42.28-1c-46.94,6-57.72,43.3-57.72,43.3C78.56,306.23,120.45,297,130.51,297c8.72,0,54,6.88,102-51.1C232.48,245.86,219.44,210.69,172.46,205Z"/><path class="cls-4" d="M234.48,244.87s-13-35.17-60-40.87l-42.27,1.3-42.29-1c-46.94,6-61.73,42.3-61.73,42.3"/></g><g id="Camada_3" data-name="Camada 3"><path class="cls-2" d="M131,170.17v-1l-1.09.51-1.08-.51v1L53.1,206.08s7.62,20.52,11,27.09c3.31,6.41,34.11,18.31,64.75,19.62a7.18,7.18,0,0,0,2.17,0c30.64-1.31,61.44-13.21,64.75-19.62,3.39-6.57,11-27.09,11-27.09Z"/><path class="cls-3" d="M100.08,226c7,.49,13.93,1.07,20.93,1.35a179.86,179.86,0,0,0,20-.45c12.21-.86,24.71-3.26,37-2.69a34.41,34.41,0,0,1,20,7c3.7-8.6,8.78-22.26,8.78-22.26L131,173v-1l-1.09.52-1.08-.52v1L53.1,208.91s4.75,12.81,8.42,21.42C73,227.1,82.41,224.76,100.08,226Z"/><path class="cls-5" d="M131,170.17v-1l-1.09.51-1.08-.51v1L53.1,206.08s7.62,20.52,11,27.09c3.31,6.41,34.11,18.31,64.75,19.62a7.18,7.18,0,0,0,2.17,0c30.64-1.31,61.44-13.21,64.75-19.62,3.39-6.57,11-27.09,11-27.09Z"/><path class="cls-1" d="M144.49,211.79V251.5c0,10.72,10,19.5,22.21,19.5h5.8c12.21,0,22.21-8.78,22.21-19.5V211.79Z"/><path class="cls-6" d="M144.49,211.79V249c0,12.13,11.3,22.05,25.11,22.05s25.11-9.92,25.11-22.05V211.79"/><line class="cls-7" x1="168.54" y1="214.55" x2="168.54" y2="241.18"/><path class="cls-2" d="M212,112.88l-11.7-44.33,3.56-14.22C213,51.59,211,43.38,206.39,41.2S183,33.53,183,33.53c-20.65-18.65-42.64-21.08-50.2-21.33h0s-.48,0-1.36,0-1.37,0-1.37,0h0c-7.56.25-29.55,2.68-50.2,21.33,0,0-18.83,3.38-23.41,5.57S49.82,51.59,59,54.33l3.57,14.22L50.84,112.88S37.1,152.82,40.15,181.82s72.27-11.49,72.27-11.49l19-43.56,19,43.56s69.22,40.49,72.27,11.49S212,112.88,212,112.88Z"/><path class="cls-3" d="M102.07,41.38c-3.63-7.56-6.36-17.83.25-25.11,0,0-13.32,12.08-22.47,13.07s-10.32,4.33-10.32,4.33,10.43-1.6,29,10.66C99.69,43.31,100.87,42.33,102.07,41.38Z"/><path class="cls-3" d="M157.59,40.38c3.63-7.56,6.36-17.83-.26-25.11,0,0,13.33,12.09,22.48,13.07s10.32,4.33,10.32,4.33-10.43-1.6-29,10.66C160,42.32,158.79,41.33,157.59,40.38Z"/><path class="cls-3" d="M98.47,148.92s15.19-23.34,9.21-59.76S57.9,48.86,57.9,48.86,42.41,106.31,98.47,148.92Z"/><path class="cls-3" d="M165.44,143.68s-15.19-23.35-9.21-59.76S206,43.61,206,43.61,221.5,101.07,165.44,143.68Z"/><path class="cls-5" d="M212,112.88l-11.7-44.33.73-2.92a34.53,34.53,0,0,1,7.1-14c4-4.66,1.92-12.89-1.73-14.63C201.81,34.81,183,29.34,183,29.34c-20.65-18.65-42.64-16.89-50.2-17.14h0s-.48,0-1.36,0-1.37,0-1.37,0h0c-7.56.25-29.55-1.51-50.2,17.14,0,0-18.83,5.47-23.41,7.66-3.69,1.76-5.73,10.15-1.59,14.78a32.07,32.07,0,0,1,6.92,13.66l.78,3.11L50.84,112.88S37.1,152.82,40.15,181.82s72.27-11.49,72.27-11.49l19-43.56,19,43.56s69.22,40.49,72.27,11.49S212,112.88,212,112.88Z"/><path class="cls-8" d="M70.68,214.14s2.18,12.17,7.77,13.59c4.33,1.11,7.09-10.12,6.46-15.81C84.91,211.92,75.42,211.92,70.68,214.14Z"/><path class="cls-9" d="M84.91,211.92c.6,5.43-1.88,15.89-5.87,15.89a2.54,2.54,0,0,1-.6-.08c-5.58-1.42-7.76-13.59-7.76-13.59,4.74-2.22,14.23-2.22,14.23-2.22m3.62-4H84.91c-1.06,0-10.54.07-15.94,2.59l-2.81,1.32.54,3.06a42.94,42.94,0,0,0,2,7c2.15,5.57,5.09,8.87,8.75,9.8a6.6,6.6,0,0,0,1.59.2,7,7,0,0,0,5.29-2.57c3.77-4.2,5.11-13.2,4.6-17.8l-.4-3.6Z"/><path class="cls-8" d="M94.35,214.78s-.2,12.36,5,14.83c4,1.92,8.91-8.56,9.38-14.27C108.74,215.34,99.43,213.52,94.35,214.78Z"/><path class="cls-9" d="M108.74,215.34c-.45,5.45-4.9,15.23-8.82,14.46a2.31,2.31,0,0,1-.56-.19c-5.21-2.47-5-14.83-5-14.83,5.08-1.26,14.39.56,14.39.56m4.33-3.27-3.55-.69c-1-.21-10.36-2-16.14-.53l-3,.75,0,3.11a42.77,42.77,0,0,0,.61,7.26c1,5.88,3.29,9.68,6.7,11.29a6,6,0,0,0,1.53.51,7,7,0,0,0,5.68-1.5c4.51-3.41,7.56-12,7.94-16.59l.3-3.61Z"/><path class="cls-8" d="M117.23,217.39s-.2,12.36,5,14.83c4,1.92,8.92-8.56,9.39-14.27C131.62,218,122.31,216.13,117.23,217.39Z"/><path class="cls-9" d="M131.62,218c-.45,5.45-4.9,15.23-8.82,14.46a2.12,2.12,0,0,1-.57-.19c-5.2-2.47-5-14.83-5-14.83,5.08-1.26,14.39.56,14.39.56m4.33-3.27L132.4,214c-1.05-.21-10.36-2-16.14-.53l-3,.75,0,3.11a42.77,42.77,0,0,0,.61,7.26c1,5.88,3.29,9.68,6.7,11.29a6,6,0,0,0,1.52.51,7,7,0,0,0,5.69-1.5c4.5-3.41,7.55-12,7.94-16.59l.3-3.61Z"/><circle class="cls-10" cx="62.51" cy="94.87" r="27.94"/><path class="cls-2" d="M218.71,172.52s-21.61-70.68-80-70.68h-16c-58.36,0-80,70.68-80,70.68C36.34,197.63,46.06,226.46,59,219c1.83-1.05,4.73-5.56,8.34-6.39a214.56,214.56,0,0,1,25.85-3.74c14.17-1.37,31,4.93,39.55,4.58,8.3.34,20.63-6,34.48-4.68a219.37,219.37,0,0,1,26.91,3.84c3.62.83,6.51,5.34,8.34,6.39C215.47,226.46,225.2,197.63,218.71,172.52Z"/><path class="cls-3" d="M218.71,172.52s-14.62-47.78-52.26-64.77l-.39.86a33.4,33.4,0,0,1,6.75,4.51c6,5.2,11.82,13.41,12.07,21.62.28,9.24-9.2,14.07-17.4,11.43l-.28-.11a142.16,142.16,0,0,1-4.12,41,8.59,8.59,0,0,1-4.81,5.68c-4.88,2.18-14.17,2.88-23.35,9.66-3,2.34-4.09,3.91-4,3.95l-.27-.26c-.09.09-.2.36-.27.26-1.85-2.65-3.93-4.21-4.05-3.95-9.18-6.78-18.47-7.48-23.35-9.66A8.56,8.56,0,0,1,98.12,187,141.29,141.29,0,0,1,94,146.91C88.56,149,83,149,78.93,144.53c-9-9.95-1.67-27.89,10-32.47,0-.41.06-.82.11-1.23-33.2,19-46.25,61.69-46.25,61.69C36.34,197.63,46.06,226.46,59,219c1.76-1,4.49-5.18,7.9-6.26-3-3.53-6.6-8.46-7.72-13.25-2.09-8.85,2.34-31,7.54-35.14,0,0-2.44,22.25,1,29.07,6,11.8,19.53,16,19.53,16l-.25.13c2-.23,4.08-.44,6.15-.64,14.17-1.37,31,4.93,39.55,4.58,8.3.34,20.63-6,34.48-4.68,4.35.41,8.66.88,12.72,1.41l-4.42-2.36s13.84-3.39,19.52-16c3.15-7,1-29.06,1-29.06,5.2,4.16,9.63,26.29,7.55,35.14-1.31,5.53-5.87,11.27-9.1,14.79,3.43,1.06,6.18,5.27,7.94,6.28C215.47,226.46,225.2,197.63,218.71,172.52Z"/><path class="cls-5" d="M218.71,172.52s-21.61-70.68-80-70.68h-16c-58.36,0-80,70.68-80,70.68C36.34,197.63,46.06,226.46,59,219c1.83-1.05.58-3.48,4-4.8,26.14-10.06,54.28,1.33,68.61.73,14.32.6,35.58-10.2,62.52-2.32,3.55,1,6.51,5.34,8.34,6.39C215.47,226.46,225.2,197.63,218.71,172.52Z"/><ellipse class="cls-9" cx="96.63" cy="128.03" rx="15.48" ry="8.31" transform="translate(-57.98 85.3) rotate(-37.51)"/><ellipse class="cls-9" cx="164.39" cy="127.74" rx="8.31" ry="15.48" transform="translate(-37.03 180.37) rotate(-52.49)"/><circle class="cls-10" cx="197.8" cy="94.87" r="27.94"/><path class="cls-9" d="M212.91,93.09a15.41,15.41,0,0,0-19.2-12.94L196,94.06l-12.78-4.89a14.51,14.51,0,0,0-1,7,15.3,15.3,0,0,0,16.9,13.35A15.09,15.09,0,0,0,212.91,93.09Z"/><path class="cls-9" d="M77.38,93.09a15.41,15.41,0,0,0-19.2-12.94L60.5,94.06,47.72,89.17a14.51,14.51,0,0,0-1,7,15.3,15.3,0,0,0,16.9,13.35A15.09,15.09,0,0,0,77.38,93.09Z"/><ellipse class="cls-11" cx="112.12" cy="28.79" rx="6.22" ry="6.93" transform="translate(20.93 100.09) rotate(-52.42)"/><ellipse class="cls-11" cx="127.98" cy="41.83" rx="3.89" ry="4.33" transform="translate(16.78 117.74) rotate(-52.42)"/></g></svg>