<svg xmlns="http://www.w3.org/2000/svg" xmlns:xlink="http://www.w3.org/1999/xlink" viewBox="0 0 262.17 298.96"><defs><style>.cls-1,.cls-11,.cls-12,.cls-9{fill:none;}.cls-2{fill:#e02d5c;}.cls-3{clip-path:url(#clip-path);}.cls-4{fill:#012442;}.cls-5,.cls-6{fill:#fff;}.cls-11,.cls-12,.cls-13,.cls-6,.cls-9{stroke:#012442;}.cls-12,.cls-13,.cls-6{stroke-linecap:round;stroke-linejoin:round;}.cls-12,.cls-13,.cls-6,.cls-9{stroke-width:8px;}.cls-13,.cls-7{fill:#83e8ff;}.cls-8{fill:#5ec8e5;}.cls-11,.cls-9{stroke-miterlimit:10;}.cls-10{fill:#43c0dd;}.cls-11{stroke-width:6px;}.cls-14{fill:#d9fbff;}</style><clipPath id="clip-path"><circle class="cls-1" cx="130.31" cy="174.7" r="123.33"/></clipPath></defs><g id="Camada_3" data-name="Camada 3"><circle class="cls-2" cx="130.81" cy="173.97" r="123.33"/><g class="cls-3"><path class="cls-4" d="M217.61,300.25c-12.47,0-23.73-7.86-26.61-19.44-9.28-37.2-33-47.33-34-47.74a5.86,5.86,0,0,0,.59.22l19.83-46.56c5.18,1.84,51.15,19.87,66.88,83,3.35,13.46-5.85,26.85-20.56,29.92A30.38,30.38,0,0,1,217.61,300.25Z"/><path class="cls-5" d="M218.81,292.17c-8.31,0-15.82-5.23-17.74-13-10.65-42.71-44.16-57.53-44.49-57.66-9.18-3.77-13.29-13.62-9.17-22s14.89-12.14,24.07-8.38c2.05.84,50.29,21.24,65.1,80.66,2.24,9-3.9,17.9-13.71,19.94A19.44,19.44,0,0,1,218.81,292.17Z"/><path class="cls-4" d="M35,301.08a30.3,30.3,0,0,1-6.1-.63C14.21,297.38,5,284,8.35,270.54,24.08,207.43,74,185.8,79.19,184L99,230.51a45.76,45.76,0,0,0-3.35,3.39c-1,.41-24.76,10.54-34,47.74C58.74,293.23,47.48,301.08,35,301.08Z"/><path class="cls-5" d="M33.82,293a19.54,19.54,0,0,1-4.07-.42c-9.81-2-15.94-11-13.71-19.94C30.85,213.22,80.92,192,83,191.15l20.31,26.92.31.28c-1.39.59-41.39,19.06-52,61.7C49.63,287.77,42.13,293,33.82,293Z"/><g id="peito"><path class="cls-5" d="M193.61,300.26s7.63-85.64-43.82-112.23l-56.43,2.24C48.3,206.2,50.76,300.33,50.76,300.33Z"/></g><path class="cls-4" d="M63.77,248.94a3.6,3.6,0,0,0-5.33,2.18c-2.79,10.69-5.11,25.22-5.11,44A3.49,3.49,0,0,0,57,298.49h0a3.49,3.49,0,0,0,3.64-3.33c0-18,2.24-32,4.88-42.17a3.59,3.59,0,0,0-1.66-4Z"/><path class="cls-4" d="M192,248.93a3.6,3.6,0,0,0-1.8,4.07c2.63,10.18,4.84,24.09,4.85,42.16a3.49,3.49,0,0,0,3.64,3.33h0a3.49,3.49,0,0,0,3.64-3.33c0-18.8-2.31-33.32-5.1-44a3.59,3.59,0,0,0-5.15-2.26Z"/></g><polygon class="cls-6" points="162.74 239.09 162.74 277.26 122.17 248.19 162.74 239.09"/><polygon class="cls-6" points="86.17 239.09 86.17 275.26 126.74 248.19 86.17 239.09"/><path class="cls-7" d="M220,51.06c-10.28-27.42-32.37-29.79-87.9-29.79-54.48,0-82.43-4.45-90.22,26.63-6.65,26.56-14.31,86.7-11.43,132.6,2.3,36.68,46.7,67.69,102.3,67.69s97.34-32.19,99-67.69C234.27,128.87,226.62,68.73,220,51.06Z"/><polygon class="cls-8" points="66.5 86.58 53.17 124.04 127.13 145.17 204.61 122.87 195.22 90 129.48 126.39 66.5 86.58"/><path class="cls-8" d="M225.8,170.54C212,205,175.65,226.77,132.74,226.77c-43.87,0-82.7-20.42-96.69-57a43.38,43.38,0,0,0-6,3.82c.09,2.28.2,4.57.35,6.88,2.3,36.68,46.7,67.69,102.3,67.69s97.34-32.19,99-67.69q.18-3.72.28-7.36Q229,171.75,225.8,170.54Z"/><path class="cls-9" d="M220,51.06c-10.28-27.42-32.37-29.79-87.9-29.79-54.48,0-92.43,5.55-100.22,36.63-6.65,26.56-4.31,76.7-1.43,122.6,2.3,36.68,46.7,67.69,102.3,67.69s97.34-32.19,99-67.69C234.27,128.87,226.62,68.73,220,51.06Z"/><ellipse class="cls-2" cx="79.55" cy="131.03" rx="24.65" ry="17.55"/><ellipse class="cls-5" cx="74.88" cy="124.61" rx="8.41" ry="5.99"/><path class="cls-10" d="M198.7,181.56s-12.87-16.13-18.74-17.3-44.61,5.57-44.61,5.57-38.74-7.92-44.61-5.57-24.65,19.26-24.65,19.26l31.3,3.65,10.43,10.92a2.7,2.7,0,0,0,4.58-1.21c1.54-6.13,4.58-16.17,8.56-18.66l14.39,3.17L149,178.22s4.53,9.91,6.28,18.71a2.71,2.71,0,0,0,3.73,2c5.25-2.3,15.82-7.93,23.38-18.52Z"/><ellipse class="cls-2" cx="179.55" cy="131.03" rx="24.65" ry="17.55"/><ellipse class="cls-5" cx="174.49" cy="124.61" rx="8.41" ry="5.99"/><ellipse class="cls-11" cx="79.55" cy="130.44" rx="24.65" ry="18.14"/><ellipse class="cls-11" cx="179.55" cy="130.44" rx="24.65" ry="18.14"/><path class="cls-12" d="M198.7,181.56s-12.87-16.13-18.74-17.3-44.61,5.57-44.61,5.57-38.74-7.92-44.61-5.57-24.65,19.26-24.65,19.26"/><path class="cls-6" d="M83.7,168.48s0,22.48,18.78,30.69c0,0,.82-19.95,10.22-32.87l-22-2Z"/><path class="cls-6" d="M183.7,168.48s0,22.48-18.79,30.69c0,0-.82-19.95-10.21-32.87l22-2Z"/><path class="cls-13" d="M42.61,126.39s-10.09-22.3-21.83-25.82-15,64,13.13,73.39"/><path class="cls-13" d="M220.15,126.39s10.08-22.3,21.82-25.82,15,64-13.13,73.39"/><path class="cls-4" d="M245.8,23.65c-1.37-.9-33.31-21.17-113.75-19.74C51.65,2.49,19.7,22.75,18.33,23.65a4,4,0,0,0-1.81,3.44L18.17,98.7a4,4,0,0,0,2.44,3.59A41.46,41.46,0,0,1,36.09,113.9a4,4,0,0,0,3.21,1.62,4.19,4.19,0,0,0,1-.12,4,4,0,0,0,3-3.31L47.7,81l14.9-9.58a4,4,0,0,0,1.56-4.82L53.81,40.07C86.93,39,119.32,52.8,128.31,57a3.93,3.93,0,0,0,3.82,1.57,3.87,3.87,0,0,0,4-2.07c7.71-4.5,40.5-17.84,72.64-16.36l-9,27.67a4,4,0,0,0,1.82,3.66L216.43,81l4.44,31.06a4,4,0,0,0,3,3.3,3.69,3.69,0,0,0,1,.13,4,4,0,0,0,3.2-1.61,41.5,41.5,0,0,1,15.49-11.62A4,4,0,0,0,246,98.7l1.65-71.61A4,4,0,0,0,245.8,23.65Z"/><path class="cls-4" d="M63.65,102.47l65.64,31.31a2.6,2.6,0,0,0,2.35-.05l66.48-35a2.62,2.62,0,0,0,1.27-3.14l-4.32-13.17a2.62,2.62,0,0,0-3.75-1.48l-59.83,32.5a2.61,2.61,0,0,1-2.4.06L70.13,85a2.61,2.61,0,0,0-3.63,1.54l-4.21,12.7A2.63,2.63,0,0,0,63.65,102.47Z"/><polygon class="cls-14" points="22.61 60.96 50.52 46.87 53.65 56.22 22.7 70.91 22.61 60.96"/><polygon class="cls-14" points="22.61 38.96 43.52 28.87 46.65 38.22 22.7 48.91 22.61 38.96"/><polygon class="cls-14" points="238.87 67.74 210.96 53.65 207.83 63 238.78 77.69 238.87 67.74"/><polygon class="cls-14" points="238.87 45.74 217.96 35.65 214.83 45 238.78 55.7 238.87 45.74"/><line class="cls-12" x1="124.43" y1="248.83" x2="124.43" y2="296.65"/></g></svg>