<?xml version="1.0" encoding="utf-8"?>
<!-- Generator: Adobe Illustrator 25.0.0, SVG Export Plug-In . SVG Version: 6.00 Build 0)  -->
<svg version="1.1" id="Camada_1" xmlns="http://www.w3.org/2000/svg" xmlns:xlink="http://www.w3.org/1999/xlink" x="0px" y="0px"
	 viewBox="0 0 262.2 299" style="enable-background:new 0 0 262.2 299;" xml:space="preserve">
<style type="text/css">
	.st0{fill:#F29B3B;}
	.st1{clip-path:url(#SVGID_2_);}
	.st2{fill:#012442;}
	.st3{fill:#88B7BC;}
	.st4{fill:#659DA0;}
	.st5{fill:#00FFDA;}
	.st6{fill:none;stroke:#012442;stroke-width:9;stroke-linecap:round;stroke-linejoin:round;}
	.st7{fill:#D6E7F2;}
	.st8{fill:#9FC1D1;}
	.st9{fill:#144060;}
	.st10{fill:none;stroke:#00FFDA;stroke-width:10;stroke-miterlimit:10;}
	.st11{fill:#112138;}
</style>
<g id="Camada_1_1_">
	<circle class="st0" cx="130.2" cy="174.1" r="123.3"/>
</g>
<g id="Camada_4">
	<g>
		<defs>
			<circle id="SVGID_1_" cx="131.3" cy="175.1" r="123.3"/>
		</defs>
		<clipPath id="SVGID_2_">
			<use xlink:href="#SVGID_1_"  style="overflow:visible;"/>
		</clipPath>
		<g class="st1">
			<path class="st2" d="M218.6,300.6c-12.5,0-23.7-7.9-26.6-19.4c-9.3-37.2-33-47.3-34-47.7c0.2,0.1,0.4,0.2,0.6,0.2l19.8-46.6
				c5.2,1.9,51.1,19.9,66.9,83c3.4,13.5-5.9,26.8-20.6,29.9C222.7,300.4,220.7,300.6,218.6,300.6z"/>
			<path class="st3" d="M219.8,292.5c-8.3,0-15.8-5.2-17.7-13c-10.6-42.7-44.2-57.5-44.5-57.7c-9.2-3.8-13.3-13.6-9.2-22
				s14.9-12.1,24.1-8.4c2,0.8,50.3,21.2,65.1,80.7c2.2,9-3.9,17.9-13.7,20C222.6,292.4,221.2,292.5,219.8,292.5z"/>
			<path class="st2" d="M36,301.5c-2,0-4.1-0.2-6.1-0.6C15.2,297.8,6,284.4,9.4,270.9c15.7-63.1,65.6-84.7,70.8-86.6l19.8,46.6
				c-1.2,1.1-2.3,2.2-3.3,3.4c-1,0.4-24.8,10.5-34,47.7C59.8,293.6,48.5,301.5,36,301.5z"/>
			<path class="st3" d="M34.8,293.4c-1.4,0-2.7-0.1-4.1-0.4c-9.8-2-15.9-11-13.7-19.9c14.8-59.4,64.9-80.7,66.9-81.5l20.3,26.9
				l0.3,0.3c-1.4,0.6-41.4,19.1-52,61.7C50.6,288.1,43.1,293.4,34.8,293.4z"/>
			<g id="peito">
				<path class="st3" d="M194.6,300.6c0,0,7.6-85.6-43.8-112.2l-56.4,2.2c-45.1,15.9-42.6,110-42.6,110L194.6,300.6z"/>
			</g>
			<path class="st4" d="M37.9,229c64.6,58.2,163.5,31.5,182.7,4.8c-13.7-24.2-45.9-49-63.9-41.9c-9.9-9.7-64.6,3.4-72.5-0.2
				C81.7,193.6,66.1,190.3,37.9,229z"/>
			<path class="st2" d="M64.8,249.3c-1.7-1-3.9-0.5-4.9,1.3c-0.2,0.3-0.3,0.6-0.4,0.9c-2.8,10.7-5.1,25.2-5.1,44
				c0.1,1.9,1.7,3.5,3.6,3.4c0,0,0,0,0,0l0,0c1.9,0.1,3.5-1.4,3.6-3.3c0-18,2.2-32,4.9-42.2C66.9,251.8,66.2,250.2,64.8,249.3
				L64.8,249.3z"/>
			<path class="st2" d="M193,253.3c-1.5,0.8-2.2,2.5-1.8,4.1c2.6,10.2,4.8,24.1,4.9,42.2c0.1,1.9,1.7,3.4,3.6,3.3l0,0
				c1.9,0.1,3.6-1.4,3.6-3.3c0-18.8-2.3-33.3-5.1-44c-0.5-1.9-2.5-3.1-4.4-2.6C193.6,253,193.3,253.1,193,253.3L193,253.3z"/>
		</g>
	</g>
	<circle class="st5" cx="127.3" cy="269.4" r="18"/>
	<circle class="st6" cx="127.3" cy="269.4" r="18"/>
</g>
<g id="Camada_3">
	<path class="st2" d="M54.6,87.7c-0.6-0.8-1.6-5.2-2.5-5.1c-3.7,0.9-7.4,2-11.1,3.3l-2.6,5.3l-3.5,0.6l-0.8-1
		c-1-1.3-1.9-1.8-3.4-1.2c-4.6,2-6.6,6.3-8.2,9.8c-5.3,11.4-8.6,25.8-7.3,47.6c0.4,7.5,1.8,12.8,4.9,13.1c0.8,0,1.5-0.2,2.1-0.6
		l4.2,2.5c0,0,0.8,6.4,1.2,6.7l13.6,9.6c0.5,0.4,0.4-1.8,1-1.8c0.4,0,0.9-0.1,1.3-0.3c1-0.6,1.7-1.6,1.8-2.7l10-82.9
		C55.6,89.7,55.3,88.6,54.6,87.7z"/>
	<path class="st2" d="M206.6,87.7c0.6-0.8,1.6-5.2,2.5-5.1c3.7,0.9,7.4,2,11.1,3.3l2.6,5.3l3.5,0.5l0.8-1c1-1.3,1.9-1.8,3.4-1.2
		c4.6,2,6.6,6.3,8.2,9.8c5.3,11.4,8.6,25.8,7.3,47.6c-0.4,7.5-1.8,12.8-4.9,13.1c-0.8,0-1.5-0.2-2.1-0.6l-4.2,2.5
		c0,0-0.8,6.4-1.2,6.7l-13.6,9.6c-0.5,0.4-0.4-1.8-1-1.8c-0.5,0-0.9-0.1-1.3-0.3c-1-0.6-1.6-1.6-1.8-2.7l-10-82.9
		C205.6,89.6,206,88.6,206.6,87.7z"/>
	<path class="st5" d="M233.5,157c1-40.3-10.7-62-10.8-62.2l7.2,0.9c3.5,7.9,10.1,27.2,9.9,57.7l-5.8,3.6L233.5,157z"/>
	<path class="st7" d="M222.6,143.8c-5.9-61.5-22.9-111.4-92.5-111.4h-1h-1c-51.1,0-86.6,49.9-92.5,111.4c-0.1,0.9-1.5,9.3-0.9,16.3
		c1.2,13.7,13,70.5,93.4,70.5h1.9c78.6,0,93.5-51.5,94.7-65.2C225.5,158.5,222.7,144.7,222.6,143.8z"/>
	<path class="st8" d="M130.5,213.3h-1.9c-75.6,0-92.1-30.7-93.9-52c-0.1,2.2-0.2,4.1-0.2,5.6c0,22.6,13.7,59.7,94,59.7h1.9
		c80.4,0,94.7-35.8,94.7-58.2c0-1.5-0.1-3.6-0.1-5.9C223.3,183.4,206.3,213.3,130.5,213.3z"/>
	<path class="st5" d="M27.7,157c-1-40.3,10.7-62,10.8-62.2l-7.2,0.9c-3.5,8-10.1,27.2-9.9,57.7l5.8,3.6L27.7,157z"/>
	<path class="st6" d="M223.6,142.2c-5.9-61.5-21.9-109.9-93.2-109.9h-0.9h-1c-65.7,0-86.6,49.9-92.5,111.4
		c-0.1,0.9-1.6,20.2-1.6,27.2c0,22.6,13.7,59.7,94,59.7h1.9c80.4,0,94.7-35.8,94.7-58.2C225.2,165.2,223.8,143.8,223.6,142.2z"/>
	<path class="st2" d="M129.8,182.4c-25.6,0.1-51-4.3-75.1-13c-1.3-0.6-2.1-1.9-2-3.3c0-1.7-0.3-41.6,11.7-69.6
		c0.2-0.6,0.7-1.1,1.2-1.5c0.6-0.4,14.4-9.6,36.9-13.9c20.7-3.9,52.9-4.8,88.8,12.8c0.5,0.3,0.9,1.6,1.3,2.1c0.1,0.2,3.2,5.6,6.5,17
		c3,10.3,6.8,27.8,8,52.7c0.1,1.4-0.6,2.8-1.9,3.5c-0.7,0.3-17.8,7.4-45,11.1C150.1,181.7,139.9,182.4,129.8,182.4z"/>
	<path class="st9" d="M90.2,84.1C75,88.7,66,94.7,65.6,95c-0.6,0.4-1,0.9-1.2,1.5c-12,28-11.7,67.9-11.7,69.6
		c-0.1,1.4,0.8,2.7,2,3.3c2.7,1,5.4,1.9,8.1,2.7C69.7,142.1,80.2,113.2,90.2,84.1z"/>
	<path class="st9" d="M128.8,181.8c10.1-33.1,19.4-66.4,27.4-100c-10.1-2.1-20.4-3.1-30.7-2.9c-11.1,33.4-23.8,66.3-31.9,100.6
		c11.6,1.9,23.4,2.9,35.1,2.9C128.7,182.1,128.7,182,128.8,181.8z"/>
	<path class="st9" d="M203.2,130.4c-1.1-5.8-2.4-11.6-4.1-17.3c-3.3-11.4-6.4-16.8-6.5-17c-0.3-0.5-0.8-1.8-1.3-2.1
		c-5.5-2.7-11.2-5.1-17.1-7.2c-7.6,31.9-16.3,63.4-25.8,94.8c4.2-0.3,8.1-0.8,11.7-1.2c9.6-1.3,19.2-3.2,28.5-5.7
		C193,159.8,198.2,145.2,203.2,130.4z"/>
	<path class="st10" d="M108.5,123c0,12.8-12.1,22-22.9,22S65,134.7,65,121.9s9.9-23.2,20.6-23.2S108.5,110.2,108.5,123z"/>
	<path class="st5" d="M114.4,150.1h25.5c2.2,0,4,1.7,4.1,4c0.2,6.5-1.5,18.8-16.8,18.8c-14.3,0-16.7-12-16.9-18.5
		c-0.1-2.3,1.7-4.1,4-4.2C114.3,150.1,114.3,150.1,114.4,150.1z"/>
	<path class="st10" d="M148.1,123c0,12.8,12.1,22,22.9,22c10.8,0,20.6-10.3,20.6-23.1s-9.9-23.2-20.6-23.2
		C160.2,98.8,148.1,110.2,148.1,123z"/>
	<path class="st11" d="M127.7,79.7c22.1,0.1,43.9,5.3,63.6,15.2c0.5,0.3,1,0.7,1.3,1.2c0.1,0.2,3.2,5.6,6.5,17
		c3,10.3,6.8,27.8,8,52.7c0.1,1.4-0.6,2.8-1.9,3.5c-0.7,0.3-17.8,7.4-45,11.1c-10.1,1.3-20.2,2-30.3,2c-25.6,0.1-51-4.3-75.1-13
		c-1.3-0.6-2.1-1.9-2-3.3c0-1.7-0.3-41.6,11.7-69.6c0.2-0.6,0.7-1.1,1.2-1.5c0.6-0.4,14.4-8.7,36.9-13
		C110.8,80.5,119.2,79.7,127.7,79.7 M127.7,74.2L127.7,74.2c-8.8,0-17.6,0.8-26.2,2.4c-18.7,3.5-33.2,10.3-38.8,13.7
		c-1.5,0.9-2.7,2.3-3.4,4c-12.5,29-12.2,70.1-12.1,71.8c0,3.7,2.2,7,5.6,8.4c24.7,8.9,50.8,13.4,77,13.3c10.4,0,20.8-0.7,31.1-2.1
		c27.9-3.7,45.7-11.1,46.4-11.4c3.4-1.5,5.5-5,5.3-8.8c-1.2-25.5-5.1-43.5-8.2-54c-3.4-11.8-6.7-17.6-7.1-18.2
		c-0.8-1.4-2.1-2.6-3.6-3.4C173.2,79.7,150.6,74.3,127.7,74.2L127.7,74.2z"/>
	<path class="st3" d="M154.3,41.3l-5.6,12c-0.6,1.6-2.2,2.7-3.9,2.7h-29.9c-1.6,0-3.1-1-3.8-2.5l-5.9-11.2c-1.1,0.4-2.2,0.8-3.3,1.3
		l6.2,11.9c1.3,2.6,3.9,4.3,6.8,4.4h29.9c3.1-0.1,5.8-1.9,7-4.8l5.9-12.9C156.6,41.9,155.5,41.5,154.3,41.3z"/>
</g>
</svg>
