<svg id="Camada_10" data-name="Camada 10" xmlns="http://www.w3.org/2000/svg" xmlns:xlink="http://www.w3.org/1999/xlink" viewBox="0 0 262.17 298.96"><defs><style>.cls-1,.cls-8{fill:none;}.cls-2{fill:#2ecc56;}.cls-3{clip-path:url(#clip-path);}.cls-4{fill:#012442;}.cls-5{fill:#bfe6ef;}.cls-6{fill:#75c2d3;}.cls-7{fill:#fafdff;}.cls-8{stroke:#012442;stroke-linecap:round;stroke-linejoin:round;stroke-width:9px;}.cls-9{fill:#00ffda;}.cls-10{fill:#dd527e;}.cls-11{fill:#fff;}</style><clipPath id="clip-path"><circle class="cls-1" cx="130.93" cy="175.63" r="123.33"/></clipPath></defs><circle class="cls-2" cx="130.93" cy="175.09" r="123.33"/><g class="cls-3"><path class="cls-4" d="M223.23,301.18c-12.47,0-23.73-7.86-26.62-19.44-9.27-37.21-33-47.33-34-47.74.39.16.6.22.6.22L183,187.66c5.19,1.84,51.16,19.87,66.89,83,3.35,13.46-5.86,26.85-20.57,29.91A29.52,29.52,0,0,1,223.23,301.18Z"/><path class="cls-5" d="M224.43,293.1c-8.32,0-15.82-5.23-17.75-13-10.64-42.71-44.15-57.53-44.49-57.66-9.18-3.77-13.28-13.63-9.16-22s14.89-12.14,24.07-8.38c2.05.84,50.29,21.24,65.1,80.66,2.24,9-3.9,17.9-13.71,19.94A20.14,20.14,0,0,1,224.43,293.1Z"/><path class="cls-4" d="M40.63,302a30.21,30.21,0,0,1-6.09-.63C19.83,298.31,10.62,284.92,14,271.47c15.73-63.11,65.65-84.74,70.84-86.59l19.82,46.56a45.76,45.76,0,0,0-3.35,3.39c-1,.41-24.76,10.54-34,47.74C64.36,294.15,53.1,302,40.63,302Z"/><path class="cls-5" d="M39.43,293.93a19.44,19.44,0,0,1-4.06-.42c-9.81-2-15.95-11-13.71-19.94,14.81-59.42,64.87-80.65,66.92-81.49L108.89,219l.3.28c-1.38.59-41.39,19.06-52,61.69C55.25,288.7,47.74,293.93,39.43,293.93Z"/><g id="peito"><path class="cls-5" d="M213.92,306.84s-2.37-93.64-53.82-120.23l-56.43,2.24C58.61,204.78,51.08,306.91,51.08,306.91Z"/></g><path class="cls-6" d="M40.07,259.55a56.87,56.87,0,0,1,20.45-14,7.84,7.84,0,0,1,4.51-.76c1.91.42,3.27,2.1,4.27,3.79,3.88,6.55,4.82,14.79,9.91,20.45a2.52,2.52,0,0,0,1.69,1c1,0,1.68-1.09,2.09-2l7.24-16.73c.73-1.68,1.59-3.51,3.25-4.29,2-.93,4.27,0,6.33.68A39.92,39.92,0,0,0,115,249.82c3-.16,7-2.08,6-5-.61-1.83-2.88-2.4-4.8-2.71a225.42,225.42,0,0,1-65.33-21.06c-1-.52-2.27-1.06-3.34-.58a4,4,0,0,0-1.43,1.39c-7,9.81-11,14.36-15.81,25.42"/><path class="cls-6" d="M223.48,260.52a56.87,56.87,0,0,0-20.45-14,7.83,7.83,0,0,0-4.51-.76c-1.91.42-3.27,2.1-4.27,3.79-3.88,6.55-4.82,14.79-9.91,20.45a2.53,2.53,0,0,1-1.69,1c-1,0-1.68-1.1-2.09-2.05l-7.24-16.73c-.73-1.68-1.59-3.51-3.25-4.29-2-.93-4.27,0-6.33.68a39.92,39.92,0,0,1-15.21,2.18c-3-.16-7-2.08-6-5,.61-1.83,2.88-2.4,4.8-2.71a225.58,225.58,0,0,0,65.34-21.06c1-.53,2.26-1.06,3.33-.58a3.81,3.81,0,0,1,1.43,1.39c7,9.8,11,14.36,15.81,25.42"/></g><path class="cls-5" d="M202.7,230.37c22.79-9.3,39.55-26,39.55-54.89,0-20.7-1.43-37.58-7.73-58.85,0,0-29.32-37-57.28-56.14l13.7-10.26c10.29,24.07,56.52,27.94,56.52,27.94s-26.4-25.86-34.22-52.81C199.51,16.9,133.76,13.9,84.42,29.27c-14.31,4.46-40,46.41-50.19,64.51-9,16-15.18,59.13-15.18,84.42,0,23.77,17.08,39.28,39.94,48.92"/><path class="cls-7" d="M32.16,100.45A244.74,244.74,0,0,1,79.64,53.11a66.55,66.55,0,0,1,7.5-5.06,59.29,59.29,0,0,1,14-5.25c12-3.1,24.41-4.46,36.76-5.77,25.77-2.71,51.64-5.19,77.55-4.75.65-3.54-1.92-7-5.13-8.63s-6.94-1.75-10.53-1.83C165.55,21,131,22.07,97.47,29.35,91,30.77,84.37,32.46,78.67,36c-4.45,2.73-8.2,6.46-11.9,10.15a161.66,161.66,0,0,0-12.4,13.38C45.81,70.24,40.09,83.06,36.51,96.34"/><path class="cls-8" d="M202.7,230.37c22.79-9.3,39.55-26,39.55-54.89,0-20.7-1.43-37.58-7.73-58.85,0,0-29.32-37-57.28-56.14l13.7-10.26c10.29,24.07,56.52,27.94,56.52,27.94s-26.4-25.86-34.22-52.81C199.51,16.9,133.76,13.9,84.42,29.27,70.11,33.73,61.36,68.36,34.23,93.78c-13.38,12.54-15.18,59.13-15.18,84.42,0,23.77,17.08,39.28,39.94,48.92"/><path class="cls-8" d="M177.24,60.49a207.76,207.76,0,0,1,22.27-17.14"/><path class="cls-7" d="M210.76,187.24c-2.06-3.81-10.27-11.85-13.58-11.64-4.41.29-6.44,6-10.59,7.53-3.36,1.22-7-.67-9.89-2.75s-5.86-4.57-9.42-4.68c-7.63-.25-12.65,10.23-20.24,9.4-6-.66-10.67-8.6-16.51-9.83v-.16c-.22,0-.42,0-.63.08s-.42-.07-.63-.08v.16c-5.85,1.23-10.53,9.17-16.52,9.83-7.58.83-12.61-9.65-20.24-9.4-3.56.11-6.53,2.59-9.42,4.68s-6.53,4-9.88,2.75c-4.16-1.5-6.19-7.24-10.6-7.53-3.31-.21-12.52,7.83-14.58,11.64-.79,1.48-.45,5.29.32,6.78.86,1.68,3.13,2.08,5,1.71s3.57-1.3,5.44-1.53c4.86-.59,8.92,3.53,11.7,7.55S76,210.41,80.71,211.8c6.85,2,13.7-4,20.84-3.58,7.91.45,13.2,8.33,20.46,11.52,2.43,1.06,13.34,1.06,15.77,0,7.26-3.19,12.55-11.07,20.46-11.52,7.14-.4,14,5.62,20.84,3.58,4.68-1.39,7.46-6,10.23-10.05s6.85-8.14,11.7-7.55c1.87.23,3.59,1.16,5.45,1.53s4.12,0,5-1.71C212.21,192.53,211.56,188.72,210.76,187.24Z"/><path class="cls-4" d="M209.76,185.24c-2.06-3.81-10.27-13.85-13.58-13.64-4.41.29-6.44,6-10.59,7.53-3.36,1.22-7-.67-9.89-2.75s-5.86-4.57-9.42-4.68c-7.63-.25-12.65,10.23-20.24,9.4-6-.66-10.67-8.6-16.51-9.83v-.16c-.22,0-.42,0-.63.08s-.42-.07-.63-.08v.16c-5.85,1.23-10.53,9.17-16.52,9.83-7.58.83-12.61-9.65-20.24-9.4-3.56.11-6.53,2.59-9.42,4.68s-6.53,4-9.88,2.75c-4.16-1.5-6.19-7.24-10.6-7.53-3.31-.21-11.52,9.83-13.58,13.64-.79,1.48-1.45,3.29-.68,4.78.86,1.68,3.13,2.08,5,1.71s3.57-1.3,5.44-1.53c4.86-.59,8.92,3.53,11.7,7.55S75,206.41,79.71,207.8c6.85,2,13.7-4,20.84-3.58,7.91.45,13.2,8.33,20.46,11.52,2.43,1.06,13.34,1.06,15.77,0,7.26-3.19,12.55-11.07,20.46-11.52,7.14-.4,14,5.62,20.84,3.58,4.68-1.39,7.46-6,10.23-10.05s6.85-8.14,11.7-7.55c1.87.23,3.59,1.16,5.45,1.53s4.12,0,5-1.71C211.21,188.53,210.56,186.72,209.76,185.24Z"/><path class="cls-6" d="M42.61,148c4.33,17.22,31.46,18,48.68,13.68A32.15,32.15,0,1,0,75.61,99.27C58.38,103.6,38.28,130.73,42.61,148Z"/><path class="cls-4" d="M44,141.26c4.33,17.22,31.46,18,48.69,13.68A32.16,32.16,0,1,0,77,92.57C59.81,96.91,39.7,124,44,141.26Z"/><path class="cls-9" d="M86.23,144A21.27,21.27,0,1,1,107.5,122.7,21.29,21.29,0,0,1,86.23,144Zm0-35.84A14.57,14.57,0,1,0,100.8,122.7,14.59,14.59,0,0,0,86.23,108.13Z"/><circle class="cls-5" cx="86.91" cy="119.37" r="5.82"/><path class="cls-10" d="M109.94,227.64c5.21,8.05,16.33,9.88,25.83,8.57a25.89,25.89,0,0,0,9-2.65c6.62-3.64,10-18.45,10.65-26,.15-1.71.21-3.5,1.11-5s3.52-3,4.88-2c-8-7.68-22.69-10.78-32.86-4.6-5.28-2.29-8.88-3.27-14.63-3.05-5.36.2-13.85,1.84-16,7.08C108.17,199.74,105.41,220.65,109.94,227.64Z"/><path class="cls-4" d="M141.05,192.73a30.17,30.17,0,0,1,20.38,7.89,1.71,1.71,0,0,0-1.06-.33,5.32,5.32,0,0,0-3.82,2.34c-.9,1.46-1,3.25-1.11,5-.66,7.52-4,22.33-10.65,26a25.89,25.89,0,0,1-9,2.65,40.73,40.73,0,0,1-5.55.39c-8,0-16.06-2.44-20.28-9-4.49-6.93-1.81-27.59-11.82-27.59h-.23c2.2-5.24,10.69-6.88,16-7.08l1.51,0c4.91,0,8.32,1,13.12,3.08a23.91,23.91,0,0,1,12.48-3.29m0-6h0a30.88,30.88,0,0,0-12.78,2.67,33.4,33.4,0,0,0-12.82-2.46l-1.74,0c-4,.16-17.42,1.38-21.35,10.76a6,6,0,0,0,5.53,8.32h.23c1.36,1.3,2.36,7.79,2.85,10.94.81,5.29,1.58,10.27,3.93,13.91,4.89,7.54,13.88,11.7,25.32,11.7a47.11,47.11,0,0,0,6.36-.44,32.39,32.39,0,0,0,11.11-3.34c11.47-6.32,13.64-29.72,13.73-30.71l0-.55c0-.28,0-.62.09-.94a6,6,0,0,0,4-10.32,36,36,0,0,0-24.55-9.57Z"/><path class="cls-11" d="M147.32,213.72H147a3,3,0,0,1-2.69-3.28c.13-1.33.23-2.78.31-4.56a3,3,0,1,1,6,.28c-.09,1.88-.19,3.43-.33,4.87A3,3,0,0,1,147.32,213.72Z"/><path class="cls-11" d="M131.13,231.74a20.67,20.67,0,0,1-5.88-.86,3,3,0,0,1,1.71-5.75c5.69,1.69,11.67-.18,14.54-4.56a3,3,0,1,1,5,3.29A18.22,18.22,0,0,1,131.13,231.74Z"/><path class="cls-6" d="M213.13,146.84c-4.33,17.22-31.46,18-48.68,13.68a32.15,32.15,0,0,1,15.68-62.36C197.36,102.49,217.46,129.62,213.13,146.84Z"/><path class="cls-4" d="M211.71,140.15c-4.33,17.22-31.46,18-48.69,13.68a32.16,32.16,0,0,1,15.69-62.37C195.93,95.8,216,122.93,211.71,140.15Z"/><path class="cls-9" d="M148.07,121.53a21.27,21.27,0,1,1,21.26,21.27A21.29,21.29,0,0,1,148.07,121.53Zm6.69,0A14.58,14.58,0,1,0,169.33,107,14.59,14.59,0,0,0,154.76,121.53Z"/><circle class="cls-5" cx="168.65" cy="118.2" r="5.82"/></svg>