<svg id="Camada_8" data-name="Camada 8" xmlns="http://www.w3.org/2000/svg" xmlns:xlink="http://www.w3.org/1999/xlink" viewBox="0 0 262.17 298.96"><defs><style>.cls-1,.cls-11,.cls-14{fill:none;}.cls-1{clip-rule:evenodd;}.cls-2{fill:#f29b3b;}.cls-3{clip-path:url(#clip-path);}.cls-4{fill:#05e1a5;}.cls-5{fill:#f7cbad;}.cls-6{fill:#04b278;}.cls-7{fill:#02895c;}.cls-8{fill:#012442;}.cls-9{fill:#e2a481;}.cls-10{fill:#5787aa;}.cls-11,.cls-14{stroke:#012442;stroke-miterlimit:10;}.cls-11{stroke-width:9px;}.cls-12{fill:#fff;}.cls-13{fill:#e02d5c;}.cls-14{stroke-linecap:round;stroke-width:8px;}</style><clipPath id="clip-path"><path class="cls-1" d="M131.71,299A123.33,123.33,0,0,0,254.58,175.18C254.33,107.07,235.52,2.31,130.8,2.31.38,2.31,7.68,108,7.93,176.09A123.33,123.33,0,0,0,131.71,299Z"/></clipPath></defs><circle class="cls-2" cx="131.18" cy="175.63" r="123.33"/><g class="cls-3"><path class="cls-4" d="M216.7,112.6c-15.9-.16-31-3.79-41.91-9.89-11.18,6.28-26.71,9.92-43,9.92s-31.85-3.64-43-9.92c-11.18,6.28-26.7,9.92-43,9.92-.43,0-.86,0-1.28,0L44.3,301.44S61.24,322,128.7,322s88.2-20.56,88.2-20.56Z"/><path class="cls-5" d="M83,96.19l5.75-4.4,5.75,4.4c8.45,6.46,22.38,10.32,37.28,10.32s28.83-3.86,37.28-10.32l5.75-4.4,5.75,4.4c7.87,6,20.7,9.78,34.57,10.21L144.86,25c-9.74-10.87-26.06-10.56-35.09.53L45.88,106.49C60.92,106.41,74.64,102.58,83,96.19Z"/><path class="cls-6" d="M174.79,102.71c-11.18,6.28-26.71,9.92-43,9.92s-31.85-3.64-43-9.92c-.07,0-.21,208.24-.21,208.24a246.62,246.62,0,0,0,40.18,3,245.22,245.22,0,0,0,46.13-4S174.8,102.71,174.79,102.71Z"/><path class="cls-7" d="M66.88,119.18A57.74,57.74,0,0,0,46.25,123v108.4A58,58,0,1,0,66.88,119.18Z"/><path class="cls-8" d="M149.05,22.09,149,22l-.11-.13a28.8,28.8,0,0,0-21.74-9.51c-8.75,0-12.72,3.69-18,10.14L83.69,65.16c5.08-2.24,24.66-4.93,46.49-4.93,15.47,0,36.54,1.92,44.83,4Z"/><path class="cls-9" d="M136.74,61.47v45.81s25.35-.42,35.61-13c0,0,13.72,14.38,43.44,13.6L174.31,65.05A193.68,193.68,0,0,0,136.74,61.47Z"/><path class="cls-7" d="M195.44,119.18A57.65,57.65,0,0,1,216.07,123v108.4a58,58,0,1,1-20.63-112.21Z"/><path class="cls-10" d="M118.92,19.12c-3.35.87-8.81,2.93-11.67,7.57-4.28,7-17.61,30.18-17.61,30.18S103,55.92,113,54.68Z"/><path class="cls-11" d="M45.37,106.82V296.57s17,20.56,84.4,20.56S218,296.57,218,296.57V106.82l-72-84c-9.75-10.87-26.06-10.56-35.1.53Z"/><path class="cls-8" d="M109,214.85c0-13,10.14-8.75,22.68-8.79s22.7-4.41,22.75,8.62-10.08,23.62-22.63,23.67S109,227.87,109,214.85Z"/><path class="cls-11" d="M216.82,109.87c-17.06-.17-32.56-4.71-42-12-9.66,7.4-25.57,12-43,12s-33.36-4.6-43-12c-9.67,7.4-25.57,12-43,12-.51,0-1,0-1.5,0"/><circle class="cls-12" cx="66.88" cy="166.04" r="53.18"/><path class="cls-8" d="M66.88,225.06a58,58,0,1,1,58-58A58.07,58.07,0,0,1,66.88,225.06Zm0-107.91a49.9,49.9,0,1,0,49.9,49.9A50,50,0,0,0,66.88,117.15Z"/><path class="cls-13" d="M66.88,206.41a39.36,39.36,0,1,1,39.36-39.36A39.4,39.4,0,0,1,66.88,206.41Zm0-68.58a29.23,29.23,0,1,0,29.23,29.22A29.26,29.26,0,0,0,66.88,137.83Z"/><path class="cls-13" d="M66.88,184.85a17.8,17.8,0,1,1,17.8-17.8A17.81,17.81,0,0,1,66.88,184.85Zm0-25.46a7.67,7.67,0,1,0,7.67,7.66A7.67,7.67,0,0,0,66.88,159.39Z"/><circle class="cls-12" cx="195.29" cy="168.07" r="53.18"/><path class="cls-8" d="M195.29,225.06a58,58,0,1,1,58-58A58.07,58.07,0,0,1,195.29,225.06Zm0-107.91a49.9,49.9,0,1,0,49.9,49.9A50,50,0,0,0,195.29,117.15Z"/><path class="cls-13" d="M195.29,206.41a39.36,39.36,0,1,1,39.36-39.36A39.4,39.4,0,0,1,195.29,206.41Zm0-68.58a29.23,29.23,0,1,0,29.23,29.22A29.26,29.26,0,0,0,195.29,137.83Z"/><path class="cls-13" d="M195.29,184.85a17.8,17.8,0,1,1,17.8-17.8A17.81,17.81,0,0,1,195.29,184.85Zm0-25.46a7.67,7.67,0,1,0,7.66,7.66A7.68,7.68,0,0,0,195.29,159.39Z"/><path class="cls-12" d="M154.26,215.21a24,24,0,0,0,.13-2.56c0-13-10.2-8.66-22.75-8.62s-22.73-4.24-22.68,8.79c0,.81-5.77-3.86.13,1.37C129.35,221.77,154.26,215.21,154.26,215.21Z"/><path class="cls-13" d="M133.61,224.66a31,31,0,0,0-12.31,2.05,67.82,67.82,0,0,0-6.32,3,22.16,22.16,0,0,0,34.29-1.07A35.71,35.71,0,0,0,133.61,224.66Z"/><path class="cls-14" d="M122.86,165s6.73-8.86,17.22,0"/><path class="cls-8" d="M131.68,242.4c-14.72,0-26.72-12.33-26.77-27.54h0c0-4.75,1.16-8.16,3.61-10.44,3.88-3.63,9.65-3.21,15.77-2.76,2.37.18,4.84.34,7.34.35s5-.21,7.33-.4c6.12-.49,11.89-1,15.8,2.64,2.46,2.26,3.66,5.67,3.68,10.41a27.91,27.91,0,0,1-7.71,19.52,26.13,26.13,0,0,1-18.95,8.22ZM113,214.83c0,10.75,8.41,19.47,18.67,19.47h.07a18.15,18.15,0,0,0,13.12-5.72,19.89,19.89,0,0,0,5.47-13.89c0-2.26-.39-3.85-1.07-4.48-1.3-1.19-5.55-.85-9.66-.52-2.4.19-5.11.41-8,.42s-5.56-.19-8-.36c-4.11-.3-8.36-.61-9.66.59-.67.63-1,2.22-1,4.49Z"/><path class="cls-8" d="M63.33,290.93a151.59,151.59,0,0,1,4-22.65,3.62,3.62,0,0,0-1.68-4.06l-.06,0a3.64,3.64,0,0,0-5.4,2.2A151.2,151.2,0,0,0,56.58,285Q60,287.9,63.33,290.93Z"/><path class="cls-8" d="M198,292.89q3.54-2.64,7-5.42a155.33,155.33,0,0,0-4.19-24.09,3.63,3.63,0,0,0-5.21-2.29l-.08,0a3.62,3.62,0,0,0-1.82,4.13A156.17,156.17,0,0,1,198,292.89Z"/></g></svg>