<?xml version="1.0" encoding="utf-8"?>
<!-- Generator: Adobe Illustrator 25.0.0, SVG Export Plug-In . SVG Version: 6.00 Build 0)  -->
<svg version="1.1" id="Camada_1" xmlns="http://www.w3.org/2000/svg" xmlns:xlink="http://www.w3.org/1999/xlink" x="0px" y="0px"
	 viewBox="0 0 262.2 299" style="enable-background:new 0 0 262.2 299;" xml:space="preserve">
<style type="text/css">
	.st0{fill:#AF4E81;}
	.st1{fill:#FCF3DE;}
	.st2{fill:#C4AF8A;}
	.st3{fill:#012442;}
	.st4{fill:#39B579;}
	.st5{fill:#FFE861;}
	.st6{fill:#897245;}
	.st7{fill:#E5E393;}
</style>
<g>
	<circle class="st0" cx="130.5" cy="175.4" r="123.3"/>
</g>
<g>
	<path class="st1" d="M174.5,205l-42.3,1.3l-42.3-1c-46.9,6.1-57.7,43.3-57.7,43.3c48.4,57.6,90.3,48.4,100.3,48.4
		c8.7,0,54,6.9,102-51.1C234.5,245.9,221.5,210.7,174.5,205z"/>
</g>
<g>
	<path class="st2" d="M70.9,232.4c43,29.5,103,15.5,146.8-6.3c-13.9-20.4-62.5-23.3-88.4-19.8C106,204.2,21.2,205.6,70.9,232.4z"/>
</g>
<g>
	<path class="st3" d="M233.5,250.9c-1.6,0-3.1-1-3.7-2.6l0,0c-0.5-1.3-12.8-32.8-56.4-38.2l-42.1,1.3h-0.1l-42-1
		C45.8,216,36.4,245.5,36,246.8c-0.6,2.1-2.9,3.3-5,2.7s-3.3-2.8-2.7-5c0.4-1.5,11.1-35.9,60.1-42.1h0.3l42.5,1l42.5-1.3h0.3
		c48.9,5.9,62.7,41.9,63.3,43.4c0.8,2.1-0.3,4.4-2.4,5.1C234.4,250.8,234,250.9,233.5,250.9z"/>
</g>
<g>
	<path class="st3" d="M186.2,284.1c-39.4,0-74.9-12.3-98.7-23.3c-28.4-13.1-46.2-26.8-46.9-27.3c-1.7-1.4-2.1-3.9-0.7-5.6
		s3.9-2.1,5.6-0.7c0.7,0.5,71,54.2,153,48.5c2.2-0.2,4.1,1.5,4.3,3.7s-1.5,4.1-3.7,4.3C194.7,283.9,190.5,284.1,186.2,284.1z"/>
</g>
<g>
	<path class="st3" d="M115.2,270.8c-1.9,0-3-0.1-3.3-0.1c-2.2-0.2-3.8-2.1-3.6-4.3c0.2-2.2,2.1-3.8,4.3-3.6
		c0.5,0,46.2,3.1,98.4-43.6c1.6-1.5,4.2-1.3,5.6,0.3c1.5,1.6,1.3,4.2-0.3,5.6C168.9,267.5,127.1,270.8,115.2,270.8z"/>
</g>
<g>
	<path class="st1" d="M42.2,186.7c0,0-12.1,15.4-14.4,24.8c0,0,16.4,21.1,32.9,24.6c0,0,1.2-18.8,9.4-25.8"/>
	<path class="st3" d="M64.4,241.1l-4.5-1c-17.7-3.8-34.5-25.2-35.2-26.1l-1.2-1.5l0.5-1.9c2.5-10.1,14.7-25.7,15.2-26.3
		c1.4-1.7,3.9-2,5.6-0.7c1.7,1.4,2,3.9,0.7,5.6c-3,3.8-10.5,14.3-13.1,21.5c3.6,4.2,14.1,15.8,25,20.3c0.3-1.7,0.6-3.8,1.1-5.9
		c2-8.2,5-14.2,9.1-17.7c1.7-1.4,4.2-1.2,5.6,0.4c1.4,1.7,1.2,4.2-0.4,5.6c-5.7,4.9-7.7,18.3-8,23L64.4,241.1z"/>
</g>
<g>
	<path class="st4" d="M130.6,8.2L130.6,8.2c59.1,0,107.1,47.9,107.1,107.1v1.2c0,59.1-47.9,107.1-107.1,107.1l0,0
		c-59.1,0-107.1-47.9-107.1-107.1v-1.2C23.6,56.1,71.5,8.2,130.6,8.2z"/>
</g>
<g>
	<circle class="st5" cx="81.4" cy="109.4" r="34.2"/>
</g>
<g>
	<path class="st3" d="M81.4,147.4c-21,0-38-17.1-38-38s17.1-38,38-38s38.1,17,38.1,37.9S102.4,147.4,81.4,147.4z M81.4,79
		C64.7,79,51,92.6,51,109.3s13.6,30.3,30.3,30.3s30.3-13.6,30.3-30.3S98.2,79,81.4,79z"/>
</g>
<g>
	<circle class="st5" cx="172.8" cy="105.3" r="30.3"/>
</g>
<g>
	<path class="st3" d="M172.8,139.6c-18.9,0-34.3-15.4-34.3-34.2c0-18.9,15.4-34.3,34.3-34.3S207,86.5,207,105.4
		C207,124.2,191.6,139.6,172.8,139.6z M172.8,78.8c-14.6,0-26.6,11.9-26.6,26.6c0,14.6,11.9,26.5,26.6,26.5
		c14.7,0,26.6-11.9,26.6-26.5C199.3,90.7,187.4,78.8,172.8,78.8z"/>
</g>
<g>
	<circle class="st3" cx="172.1" cy="104.7" r="10"/>
</g>
<g>
	<path class="st1" d="M35.8,117.4c0,0,68.6,39,164.4,8.6l26.7,23C226.9,149.1,106.1,218,35.8,117.4z"/>
	<path class="st3" d="M139.3,176c-34.1,0-75.3-11.5-106.6-56.4l-9.8-13.9l14.8,8.4c0.2,0.1,17.2,9.6,45.5,15.4
		c26,5.3,67.3,8.4,115.9-7l2-0.7l32.5,28l-4.7,2.7c-1.2,0.7-31.3,17.7-70.7,22.4C152.2,175.5,145.9,176,139.3,176z M48.3,127.3
		c13.7,15.8,30,27.3,48.3,33.9c18.2,6.6,38.6,8.6,60.7,6c28.8-3.5,52.9-14,62.8-18.9l-20.7-17.9c-49.4,15.2-91.4,12-118,6.5
		C67.5,134,56.3,130.4,48.3,127.3z"/>
</g>
<g>
	<path class="st1" d="M105.7,41.7c50,15.2,92.6,44.6,132,78.1c0-1.2,0.1-2.2,0.1-3.4v-1.2C237.7,56.4,189.6,8.2,130.6,8.2l0,0
		c-23.7,0-46.8,8-65.5,22.6C78.6,34.4,92.2,37.6,105.7,41.7z"/>
	<path class="st3" d="M241.5,128.1l-6.3-5.4c-32.4-27.4-76.5-61-130.7-77.4l0,0c-8.4-2.6-17.1-4.8-25.5-7c-4.9-1.2-10-2.6-14.9-3.9
		l-7.3-1.9l6-4.7C82,12.6,106.1,4.4,130.6,4.4l0,0c61.2,0,110.9,49.7,110.9,110.9v1.2c0,0.6,0,1.2,0,1.8c0,0.5,0,1.1,0,1.5V128.1z
		 M106.8,38c52,15.7,94.8,46.8,127,73.5c-2-55.2-47.5-99.5-103.2-99.5l0,0c-20.1,0-39.9,6-56.6,17.1c2.4,0.6,4.7,1.2,7,1.8
		C89.4,33.2,98.2,35.4,106.8,38L106.8,38z"/>
</g>
<g>
	<path class="st1" d="M24.7,140.2c5.9,26.4,38.1,81.3,103,81.3c76.5,0,96.9-55.7,96.9-55.7l7.9-32.5c0,0-34.9,41.7-101.5,39.5
		s-96.3-55.7-96.3-55.7L24.7,140.2z"/>
	<path class="st3" d="M127.7,225.4c-37,0-61.9-17.4-76.4-31.9c-17.8-18-27.4-38.8-30.4-52.4l-0.3-1.2l13.6-31.5l3.7,6.8
		c0.1,0.1,7.4,13.2,22.6,26.1c20.2,17.4,43.9,26.7,70.5,27.6c63.8,2.2,98-37.6,98.4-38.1l10.5-12.5l-11.8,48.9
		c-0.2,0.6-5.6,15-20.7,29.3C193.7,209.7,168.5,225.4,127.7,225.4z M28.7,140.6c3,12.1,11.9,31.2,28,47.4
		c13.4,13.5,36.6,29.6,71,29.6c70.9,0,91.9-49.6,93.2-53l4.7-19.6c-4.3,3.6-10,7.8-17,12c-16,9.5-42.4,20.6-77.8,19.4
		c-35.5-1.2-60.6-16.8-75.5-29.7c-9.6-8.3-16.2-16.5-20-21.8L28.7,140.6z"/>
</g>
<g>
	<path class="st1" d="M33.3,65.5c0,0,42.8,5.7,94.6,27.2c55,22.9,97,62.5,97,62.5c1.6,5.1,2.5,10.4,2.5,15.7
		c-0.1,6,22.8-29.1,26.9-46.6c2.7-11.4-62.9-100-186.8-107.8c0,0-18.4,10.9-28.1,28.8c-3.4,6-7.5,11.6-6.2,18.4L33.3,65.5z"/>
	<path class="st3" d="M227.9,175.4c-0.3,0-0.5,0-0.8-0.1c-1.8-0.2-3.7-1.7-3.6-4.5c0-4.6-0.7-9.1-2-13.5
		c-5.8-5.3-45.2-40.2-95.1-61.1c-50.6-21.1-93.2-26.9-93.6-27l-2.9-0.4l-0.7-4.5c-1.2-7.1,2.1-13,5.1-18.1c0.5-0.9,1.1-1.8,1.5-2.8
		c10.1-18.6,28.7-29.8,29.5-30.2l1.1-0.6l1.2,0.1c42.5,2.7,82.2,14.9,117.8,36.1c36.1,21.5,55.8,45.2,62.6,54.4
		c5.3,7.1,11.2,16.6,10,22c-2.5,10.6-10.8,25.2-14.1,30.9C233.5,173.7,229.9,175.4,227.9,175.4z M36.6,62.2
		c10.6,1.7,48.7,8.7,92.7,27.1c55,22.9,97.7,62.8,98.1,63.2l0.7,0.7l0.3,1c1,2.8,1.6,5.8,2,8.6c6.4-9.2,17.2-27.7,20-39.2
		c0.1-4.1-13.3-27.5-45.9-52.4c-27.1-20.7-72.7-46.4-136.2-50.7c-3.8,2.5-17.9,12.3-25.7,26.7c-0.6,1-1.1,1.9-1.6,2.9
		C38.4,54.3,36.3,58.1,36.6,62.2z"/>
</g>
<g>
	<path class="st3" d="M74.9,191.4c-14.5,0-23.5-1.2-24-1.2c-2.1-0.3-3.6-2.2-3.4-4.3c0.3-2.1,2.2-3.6,4.3-3.4
		c0.8,0.1,78.3,9.3,147-28.6c1.8-1.1,4.2-0.4,5.2,1.5c1.1,1.8,0.4,4.2-1.5,5.2c-37.1,20.5-76.3,27.5-102.7,29.7
		C90.5,191.1,82,191.4,74.9,191.4z"/>
</g>
<g>
	<path class="st3" d="M33.6,167.9l-10.8-22.2c0,0-16.3,19.5-11.8,25.2S33.6,167.9,33.6,167.9z"/>
</g>
<g>
	<path class="st3" d="M64.4,241.1l-4.5-1c-17.7-3.8-34.5-25.2-35.2-26.1l-1.2-1.5l0.5-1.9c2.5-10.1,14.7-25.7,15.2-26.3
		c1.4-1.7,3.9-2,5.6-0.7c1.7,1.4,2,3.9,0.7,5.6c-3,3.8-10.5,14.3-13.1,21.5c3.6,4.2,14.1,15.8,25,20.3c0.3-1.7,0.6-3.8,1.1-5.9
		c2-8.2,5-14.2,9.1-17.7c1.7-1.4,4.2-1.2,5.6,0.4c1.4,1.7,1.2,4.2-0.4,5.6c-5.7,4.9-7.7,18.3-8,23L64.4,241.1z"/>
</g>
<g>
	<path class="st1" d="M226.9,58.9c0,0-9-13.5-14.7-14.7C206.8,43.2,63.4,46.4,19,151.8c-1,2.4-7.7,18.4-8,15.8l-2.9-52.5
		c-1-10.9,4.4-21.9,11.5-30.3c21.4-25.5,74.9-66.3,165.6-67c0,0,21.4,1.2,42.8,31.6C228.1,49.4,231.4,55.6,226.9,58.9z"/>
	<path class="st3" d="M11.3,171.8c-0.2,0-0.4,0-0.7,0c-1.8-0.2-3.3-1.7-3.5-3.6v-0.3l-2.9-52.5c-0.9-10.7,3.5-22.4,12.4-33
		C29.9,66.6,81.2,14.9,185.2,14h0.1h0.1c1,0.1,23.5,1.6,45.8,33.2l1.4,2.1l-0.3,0.5c1.3,4,1.2,9-3.2,12.3l-3.3,2.4l-2.3-3.4
		c-3.8-5.8-9.8-12.6-12.2-13.1c-2.8-0.4-39.4,0.2-81,14.1C106.7,70.1,86,80.7,68.9,93.9c-21,16.2-36.7,36.2-46.6,59.4
		c-0.5,1.2-2.2,5.4-3.9,9C15.6,168.9,14.2,171.8,11.3,171.8z M185.1,21.7c-39.6,0.4-75.6,8.4-107,23.8c-30.3,15-47.8,32.6-55.6,41.9
		c-4.3,5.3-11.6,15.8-10.6,27.5v0.1l2.1,38.7c0.5-1.2,1-2.3,1.3-3.3c23.7-56.1,74.9-83.1,113.7-95.8c42.2-13.9,80.2-14.8,84-14
		c1.8,0.4,3.6,1.4,5.5,2.9C201.7,23.8,186.4,21.8,185.1,21.7z"/>
</g>
<g>
	<path class="st3" d="M91.6,121.7c-1,0-1.9-0.4-2.7-1.1l-21-20.2c-1.5-1.4-1.6-3.9-0.1-5.5c1.4-1.5,3.9-1.6,5.5-0.1l21,20.2
		c1.5,1.4,1.6,3.9,0.1,5.5C93.8,121.3,92.7,121.7,91.6,121.7z"/>
</g>
<g>
	<path class="st3" d="M71,122.6c-1,0-1.9-0.4-2.6-1.1c-1.5-1.4-1.6-3.8-0.2-5.5l20.4-21.8c1.4-1.5,3.8-1.6,5.5-0.2
		c1.5,1.4,1.6,3.8,0.2,5.5l-20.4,21.8C73,122.2,72,122.6,71,122.6z"/>
</g>
<g>
	<path class="st6" d="M93.7,172.7c1.1,7.9,7.3,14.9,15.2,18.9s17.3,5.4,26.4,5c9.5-0.4,24.5-2.5,32.5-6.9c7.5-4.2,18-15,8.4-26.3
		c-6.3-7.5-20.2-1.8-28.8-3.5c-11.2-2.2-21.1-8.9-33.1-8.5C101.3,151.9,92.1,161.5,93.7,172.7z"/>
</g>
<g>
	<path class="st7" d="M129.6,194.4c0.2-0.7,0.3-1.4,0.3-2.1v-4.1c0.2-4.6-3.5-8.5-8.2-8.7c-4.6-0.2-8.5,3.5-8.7,8.2
		c0,0.2,0,0.4,0,0.6v4.1c0,0.8,0.1,1.6,0.4,2.3C118.7,194.5,124.1,194.4,129.6,194.4z"/>
</g>
<g>
	<path class="st3" d="M116,194.6c-0.5-0.7-0.7-1.4-0.7-2.3v-4.1c-0.1-3.4,2.5-6.1,5.9-6.3c3.4-0.1,6.1,2.5,6.3,5.9
		c0,0.2,0,0.3,0,0.5v4.1c0,0.8-0.2,1.5-0.6,2.1h2.6c0.8,0,1.5,0.1,2.3,0.4c0.2-0.8,0.4-1.6,0.4-2.5v-4.1c-0.2-6-5.1-10.6-11-10.5
		c-5.7,0.2-10.3,4.7-10.5,10.5v4.1c0,0.9,0.1,1.6,0.3,2.5C112.7,194.7,114.3,194.6,116,194.6z"/>
</g>
<g>
	<path class="st7" d="M165.6,194.9c0.2-0.7,0.3-1.4,0.3-2.1v-4.1c0-4.6-3.7-8.4-8.4-8.4c-4.6,0-8.4,3.7-8.4,8.4v4.2
		c0,0.8,0.1,1.6,0.4,2.4C154.8,194.9,160.2,194.9,165.6,194.9z"/>
</g>
<g>
	<path class="st3" d="M152,195c-0.5-0.7-0.7-1.4-0.7-2.3v-4.1c0-3.4,2.7-6,6-6s6,2.7,6,6l0,0v4.2c0,0.8-0.2,1.5-0.6,2.1h2.6
		c0.8,0,1.5,0.1,2.3,0.4c0.2-0.8,0.4-1.6,0.4-2.5v-4.1c0-6-4.8-10.8-10.8-10.8s-10.8,4.8-10.8,10.8l0,0v4.1c0,0.9,0.1,1.6,0.3,2.5
		C148.8,195.1,150.4,195.1,152,195z"/>
</g>
<g>
	<path class="st7" d="M101,155.8c-0.2,0.7-0.3,1.4-0.3,2.1v4.1c0.2,4.6,4,8.3,8.7,8.2c4.4-0.2,8-3.7,8.2-8.2v-4.1
		c0-0.8-0.1-1.6-0.4-2.3C111.7,155.8,106.3,155.8,101,155.8z"/>
</g>
<g>
	<path class="st3" d="M114.4,155.6c0.5,0.7,0.7,1.4,0.7,2.3v4.1c0.1,3.4-2.5,6.1-5.9,6.3c-3.4,0.1-6.1-2.5-6.3-5.9
		c0-0.2,0-0.3,0-0.5v-4.1c0-0.8,0.2-1.5,0.6-2.1h-2.6c-0.8,0-1.5-0.1-2.3-0.4c-0.2,0.8-0.4,1.6-0.3,2.5v4.1c0,6,4.8,10.8,10.8,10.8
		c6,0,10.8-4.8,10.8-10.8v-4.1c0-0.9-0.1-1.6-0.3-2.5C117.8,155.5,116.1,155.6,114.4,155.6z"/>
</g>
<g>
	<path class="st7" d="M120.1,155.4c-0.2,0.7-0.3,1.4-0.3,2.1v4.1c0.2,4.6,4,8.3,8.7,8.2c4.4-0.2,8-3.7,8.2-8.2v-4.1
		c0-0.8-0.1-1.6-0.4-2.3C130.8,155.4,125.4,155.4,120.1,155.4z"/>
</g>
<g>
	<path class="st3" d="M133.6,155.2c0.5,0.7,0.7,1.4,0.7,2.3v4.1c-0.1,3.4-3,6-6.3,5.9c-3.2-0.1-5.8-2.7-5.9-5.9v-4.1
		c0-0.8,0.2-1.5,0.6-2.1h-2.6c-0.8,0-1.5-0.1-2.3-0.4c-0.2,0.8-0.4,1.6-0.3,2.5v4.1c0,6,4.8,10.8,10.8,10.8c6,0,10.8-4.8,10.8-10.8
		v-4.1c0-0.9-0.1-1.6-0.4-2.5C137,155.1,135.2,155.2,133.6,155.2z"/>
</g>
<g>
	<path class="st7" d="M152.3,159.4c-0.2,0.7-0.3,1.4-0.3,2.1v4.1c0.2,4.6,4,8.3,8.7,8.2c4.4-0.2,8-3.7,8.2-8.2v-4.1
		c0-0.8-0.1-1.6-0.4-2.4C163.1,159.4,157.8,159.4,152.3,159.4z"/>
</g>
<g>
	<path class="st3" d="M165.9,159.2c0.5,0.7,0.7,1.4,0.7,2.3v4.1c-0.1,3.4-3,6-6.3,5.9c-3.2-0.1-5.8-2.7-5.9-5.9v-4.1
		c0-0.8,0.2-1.5,0.6-2.1h-2.7c-0.8,0-1.5-0.1-2.3-0.4c-0.2,0.8-0.4,1.6-0.4,2.5v4.1c0.2,6,5.1,10.6,11,10.5
		c5.7-0.2,10.3-4.7,10.5-10.5v-4.1c0-0.9-0.1-1.6-0.4-2.5C169.2,159.1,167.5,159.2,165.9,159.2z"/>
</g>
<g>
	<path class="st3" d="M132.6,201.6c-9.8,0-18.6-1.9-25.6-5.5c-9.6-4.9-16-13.1-17.3-21.8l0,0c-0.9-6,0.9-12,4.9-16.7
		c4.6-5.5,11.7-8.6,19.5-8.9c8.2-0.3,15.2,2.3,22,4.8c4.1,1.5,8.1,3,12.2,3.7c2.6,0.5,6,0.2,9.7-0.1c7.6-0.7,16.1-1.4,21.5,4.9
		c3.8,4.5,5.4,9.7,4.4,14.9c-1.4,7.8-8.2,14-14,17.3c-9.4,5.2-26,7.1-34.5,7.4C134.5,201.6,133.5,201.6,132.6,201.6z M97.3,173.3
		c0.9,6.2,5.9,12.4,13.2,16c6.6,3.4,15.2,4.9,24.7,4.6c10-0.4,23.9-2.5,31-6.4c4.4-2.5,9.3-7.1,10.2-12c0.6-2.9-0.4-5.7-2.8-8.5
		c-2.8-3.3-8.7-2.8-15-2.2c-4,0.4-8.2,0.8-11.8,0c-4.7-0.9-9.1-2.5-13.3-4.1c-6.4-2.3-12.4-4.6-19.1-4.3c-5.6,0.2-10.7,2.4-13.8,6.2
		C97.9,165.6,96.7,169.3,97.3,173.3z"/>
</g>
</svg>
