<?xml version="1.0" encoding="utf-8"?>
<!-- Generator: Adobe Illustrator 24.3.0, SVG Export Plug-In . SVG Version: 6.00 Build 0)  -->
<svg version="1.1" id="Camada_1" xmlns="http://www.w3.org/2000/svg" xmlns:xlink="http://www.w3.org/1999/xlink" x="0px" y="0px"
	 viewBox="0 0 262.2 299" style="enable-background:new 0 0 262.2 299;" xml:space="preserve">
<style type="text/css">
	.st0{fill:#AF4E81;}
	.st1{fill:#FFDF5A;}
	.st2{fill:#F9C138;}
	.st3{fill:#012442;}
	.st4{fill:#FFBB71;}
	.st5{fill:#897245;}
	.st6{fill:#FFFFFF;}
	.st7{fill:#EF5B70;}
	.st8{fill:#39B579;}
	.st9{fill:#E02D5C;}
</style>
<g>
	<circle class="st0" cx="131.1" cy="172.7" r="123.3"/>
</g>
<g>
	<path class="st1" d="M175.5,203l-42.3,1.3l-42.3-1c-46.9,6-57.7,43.3-57.7,43.3c48.4,57.6,90.3,48.4,100.3,48.4
		c8.7,0,54,6.9,102-51.1C235.5,243.9,222.4,208.7,175.5,203z"/>
</g>
<g>
	<path class="st2" d="M136.1,295c4.3-4.1,8.2-8.5,11.7-13.3c7.6-11.4,15.4-22.6,22.8-34.1c8.4-12.9,14.5-27.6,23-40.5
		c-5.9-2-12-3.3-18.2-4l-42.3,1.3l-42.3-1c-5.1,0.6-10.1,1.8-15,3.3c0.5,8-1.5,15.9-2.8,24.1c-0.8,4.9-1.2,10.3,1.7,14.7
		c3.1,4.7,9.1,8.1,14.3,9.9c3.4,1.1,7,1.4,10.3,2.8c4.3,1.8,7.5,5,10.1,8.8c6.1,8.6,8.3,19,12,28.7c5.6,0,9.7-0.5,12-0.6
		C134.2,295,135,295,136.1,295z"/>
</g>
<g>
	<path class="st3" d="M234.5,248.9c-1.6,0-3.2-1-3.8-2.6c-0.5-1.4-12.9-32.8-56.4-38.3l-42.1,1.3l-0.1,0l-42-1
		c-43.6,5.7-53,36.1-53.1,36.4c-0.6,2.1-2.8,3.3-5,2.7c-2.1-0.6-3.3-2.8-2.7-5c0.4-1.5,11.1-35.9,60.1-42.1l0.3,0l42.5,1l42.5-1.3
		l0.3,0c48.9,5.9,62.7,41.9,63.3,43.5c0.8,2.1-0.3,4.4-2.4,5.1C235.4,248.8,234.9,248.9,234.5,248.9z"/>
</g>
<g>
	<path class="st4" d="M206.5,150.6l46.9-80c0,0-33.4-62.7-119.6-62.7C54.9,7.9,22.9,46.3,13.2,63.1c-2.6,4.4-2.5,9.9,0.3,14.2
		l46.1,73.8c-0.2,2.9-0.8,5.7-1.7,8.4c-2,6.3-0.8,13.7,6.2,16.4c3.4,1.4,7.3,1.1,10.4-0.8L95,208c-0.8,4-3.5,8-5.2,11.9
		c-0.5,0.9-0.9,1.8-1.1,2.8c-0.3,0.9-0.4,1.8-0.4,2.8c-0.4,4.2,0.6,8.1,4.2,11.1c4.4,3.7,11,3.7,15.9,1c1.3-0.7,2.5-1.6,3.5-2.6
		l22.7,36.4l48.4-81.7c3.3,4.3,9.3,5.6,14.2,3c6.2-3.4,5.6-10.9,4.5-19.2C199.7,159.4,206.9,151.3,206.5,150.6z"/>
</g>
<g>
	<path class="st1" d="M240.1,93.4c-4.1-2.1-8.2-8.4-12.2-10.6c-13-7-19.2-22-34-26.2c-23.8-5.5-48.5-13.3-73.7-9.2
		c-6.5,0.1-41,9.7-42.5,11.3C60.7,65.3,44.9,74.7,30.2,85c-1.7,1.3-3.5,2.7-5.2,4c-1,0.7-2,1.4-3,2.1l37.5,60.1
		c-0.2,2.9-0.8,5.7-1.7,8.4c-2,6.3-0.8,13.7,6.3,16.4c3.4,1.4,7.3,1.1,10.4-0.8L95,208c-0.8,4-3.5,8-5.2,11.9
		c-0.5,0.9-0.9,1.8-1.1,2.8c-0.3,0.9-0.4,1.8-0.4,2.8c-0.4,4.2,0.6,8.1,4.2,11.1c4.4,3.7,11,3.7,15.9,1c1.3-0.7,2.5-1.6,3.5-2.6
		l22.7,36.4l48.4-81.7c3.3,4.3,9.3,5.6,14.2,3c6.2-3.4,5.6-10.9,4.5-19.2c-1.9-14,5.3-22.1,4.9-22.8L240.1,93.4z"/>
</g>
<g>
	<path class="st3" d="M23.9,96.9c-0.8,0-1.6-0.3-2.4-0.8c-1.8-1.3-2.2-3.8-0.9-5.6C21,90,30,77.9,49.6,65.7
		C67.4,54.6,98,41.4,141.9,41.4c37.8,0,71.3,16,99.4,47.6c1.5,1.6,1.3,4.2-0.3,5.6c-1.6,1.5-4.2,1.3-5.6-0.3
		c-26.5-29.8-58-44.9-93.4-44.9c-80.2,0-114.4,45.5-114.8,45.9C26.3,96.3,25.1,96.9,23.9,96.9z"/>
</g>
<g>
	<path class="st5" d="M131.1,203.2c-6.2-4.4-14.6-5.2-21,0.7s-6.9,16.2-1.6,21.8c4.2,4.4,5,2.8,12.1-4.4l5.6,8.8
		c0.6,0.8,1.7,1.1,2.5,0.5c0.1-0.1,0.2-0.1,0.3-0.2l6.6-6.2c0.7-0.7,0.8-1.8,0.1-2.6c-0.1-0.1-0.2-0.2-0.4-0.3l-8.5-5.8
		C135.1,209.6,137.1,207.4,131.1,203.2z"/>
</g>
<g>
	<path class="st3" d="M127.6,233.4c-1.4,0-2.8-0.7-3.6-1.9l-3.9-6.2c-3.5,3.6-5.4,5.4-8,5.3c-2.3,0-4.1-1.7-5.5-3.2
		c-2.9-3-4.4-7.3-4.3-11.9c0.1-5.1,2.3-10,6-13.4c6.7-6.3,16.1-6.6,24.2-1l0,0c2.1,1.5,4.5,3.6,4.5,6.4c0,2.8-2.2,5.1-6,7.9l5.6,3.8
		c0.2,0.2,0.5,0.4,0.8,0.7c0.8,0.8,1.2,1.9,1.1,3.1s-0.5,2.2-1.4,3l-6.6,6.2c-0.2,0.2-0.4,0.3-0.6,0.5
		C129.3,233.2,128.5,233.4,127.6,233.4z M127.2,228.6C127.2,228.6,127.2,228.6,127.2,228.6L127.2,228.6z M121,217.3l6.8,10.7
		l5.4-5.1l-10.8-7.4l2.9-2.1c1.7-1.2,6.7-4.8,6.7-5.9c0,0-0.1-0.7-2.4-2.3h0c-4.8-3.4-12-5-17.8,0.5c-2.7,2.5-4.3,6.2-4.4,9.9
		c-0.1,3.2,1,6.3,2.9,8.3c1.4,1.5,1.9,1.6,1.9,1.7c0.7-0.1,2.8-2.3,4.9-4.5c0.5-0.5,1-1.1,1.6-1.6L121,217.3z M133.9,223.4
		C133.9,223.4,133.9,223.4,133.9,223.4L133.9,223.4z M133.8,222.4C133.8,222.4,133.8,222.4,133.8,222.4L133.8,222.4z"/>
</g>
<g>
	<path class="st5" d="M88.1,70.8c-4.8-3.6-11.4-4.4-16.5,0.2s-5.7,12.6-1.7,17.1c3.2,3.5,3.9,2.3,9.6-3.2l4.2,7
		c0.4,0.7,1.3,0.9,2,0.4c0.1,0,0.1-0.1,0.2-0.1l5.3-4.8c0.6-0.5,0.6-1.5,0.1-2c-0.1-0.1-0.2-0.2-0.3-0.2l-6.6-4.7
		C91.1,76,92.7,74.3,88.1,70.8z"/>
</g>
<g>
	<path class="st3" d="M84.9,95.1c-1.3,0-2.6-0.6-3.3-1.8L79,88.9c-2.5,2.5-4.1,3.8-6.2,3.7c-2-0.1-3.5-1.5-4.7-2.8
		c-5-5.6-4.1-15.2,1.9-20.6c5.5-5,13.2-5.1,19.6-0.3v0c1.7,1.3,3.7,3.1,3.6,5.6c-0.1,2.3-1.7,4-4.5,6.1l3.7,2.6
		c0.2,0.1,0.4,0.3,0.6,0.5c0.7,0.8,1.1,1.8,1.1,2.8c0,1.1-0.5,2-1.3,2.7L87.5,94c-0.2,0.1-0.3,0.3-0.5,0.4
		C86.4,94.9,85.6,95.1,84.9,95.1z M80,80.9l5.1,8.6l3.4-3L80,80.4l3-2c1.3-0.9,4.6-3.1,5.1-4.1c-0.1-0.2-0.5-0.7-1.6-1.5v0
		c-3.5-2.6-8.9-4-13.3,0c-4,3.6-4.7,10-1.5,13.6c0.6,0.7,0.9,1,1.1,1.1c0.7-0.4,2.2-1.8,3.6-3.2L80,80.9z M89.6,87.2
		C89.6,87.2,89.6,87.2,89.6,87.2L89.6,87.2z M88.2,74.4L88.2,74.4L88.2,74.4z"/>
</g>
<g>
	<path class="st5" d="M182.5,65.1c-5.2-3.7-12.2-4.4-17.5,0.6s-5.8,13.6-1.4,18.2c3.5,3.7,4.2,2.3,10.1-3.7l4.6,7.3
		c0.5,0.7,1.4,0.9,2.1,0.4c0.1,0,0.1-0.1,0.2-0.2l5.5-5.2c0.6-0.6,0.7-1.5,0.1-2.2c-0.1-0.1-0.2-0.2-0.3-0.2l-7.1-4.8
		C185.8,70.4,187.5,68.6,182.5,65.1z"/>
</g>
<g>
	<path class="st3" d="M179.6,90.7c-1.3,0-2.6-0.6-3.4-1.8l-3-4.7c-2.7,2.7-4.3,4.2-6.5,4.2c0,0,0,0,0,0c-2.1,0-3.6-1.5-4.9-2.8
		c-2.6-2.7-3.9-6.7-3.6-10.9c0.3-4.1,2.1-8.1,5.1-10.9c5.7-5.4,13.8-5.7,20.6-0.8l0,0c1.8,1.3,3.9,3.1,3.9,5.7
		c0,2.4-1.7,4.3-4.6,6.6l4.2,2.8c0.2,0.1,0.5,0.4,0.7,0.6c1.5,1.6,1.4,4.2-0.2,5.7l-5.5,5.2c-0.1,0.1-0.3,0.3-0.5,0.4
		C181.2,90.5,180.4,90.7,179.6,90.7z M179,85.9C179,86,178.9,86,179,85.9L179,85.9z M174.1,76.2l5.7,9l3.8-3.6l-9.1-6.2l2.9-2.1
		c1.4-1,5-3.5,5.4-4.6c-0.1-0.2-0.5-0.7-1.8-1.6c-3.8-2.7-9.6-4-14.3,0.4c-2,1.9-3.3,4.7-3.5,7.6c-0.2,2.8,0.6,5.4,2.3,7.1
		c0.7,0.8,1.1,1.1,1.3,1.2c0.7-0.4,2.3-2,3.8-3.6L174.1,76.2z M184.6,82.2C184.6,82.2,184.6,82.2,184.6,82.2L184.6,82.2z
		 M184.5,80.7C184.5,80.7,184.5,80.7,184.5,80.7L184.5,80.7z"/>
</g>
<g>
	<path class="st3" d="M134.6,279l-23.8-38.2c-0.2,0.1-0.4,0.2-0.5,0.3c-6.6,3.7-15,3.1-20.4-1.5c-4.2-3.5-6.1-8.4-5.6-14.3
		c0-1.2,0.2-2.5,0.6-3.6c0.3-1.3,0.8-2.5,1.4-3.7c0.6-1.2,1.2-2.4,1.8-3.6c1.1-2,2.1-4,2.7-5.8L73,180.3c-3.4,1-7.1,0.9-10.4-0.5
		c-9.4-3.7-11.1-13.4-8.5-21.4c0.7-2.1,1.1-4.2,1.4-6.3L10.1,79.5c-3.5-5.6-3.6-12.6-0.3-18.4c4.5-7.7,15.1-22.6,35.7-35.3
		C69.2,11.3,98.9,3.9,133.8,3.9c33.1,0,62.5,8.5,87.6,25.2c19.9,13.3,31,28,34.8,33.7c1.7,2.6,1.9,6,0.3,8.7l-46.2,80.6
		c-0.2,0.7-0.6,1.4-0.9,2c-1.5,2.8-5.1,9.2-3.8,18.8c1,7.3,2.5,18.3-6.5,23.3c-4.9,2.7-10.6,2.4-15.1-0.3L134.6,279z M112.6,228.6
		l21.8,35l48.1-81.1l3.6,4.7c2.2,2.8,6,3.6,9.1,1.9c3.5-2,3.6-6.7,2.5-15.2c-1.6-11.4,2.4-19.5,4.4-23l-0.1-0.2l47.7-83.2
		c0-0.1,0-0.1,0-0.2c-6.2-9.3-41.1-55.4-115.8-55.4c-33.4,0-61.7,7-84.1,20.7C30.5,44.4,20.8,58,16.7,65.1c-1.8,3.2-1.8,7,0.2,10.1
		l46.8,74.9l-0.1,1.3c-0.2,3.2-0.9,6.4-1.9,9.4c-0.5,1.4-2.5,9,3.9,11.5c2.3,0.9,4.8,0.7,6.9-0.5l3.4-2.1l23.4,37.5l-0.3,1.6
		c-0.7,3.3-2.3,6.4-3.8,9.4c-0.6,1.2-1.2,2.3-1.7,3.4l-0.2,0.4c-0.3,0.5-0.5,1-0.6,1.5l-0.1,0.4c-0.2,0.5-0.2,1-0.2,1.5l0,0.2l0,0.2
		c-0.3,3.4,0.6,5.8,2.8,7.7c2.9,2.4,7.7,2.7,11.4,0.6c1-0.5,1.9-1.2,2.7-2L112.6,228.6z M203.1,152.7L203.1,152.7L203.1,152.7z"/>
</g>
<g id="boca">
	<g>
		<path class="st3" d="M131.6,179.2c12.6,0,22.8-10.3,22.8-22.9l-45.7,0.2C108.7,169,118.9,179.2,131.6,179.2
			C131.6,179.2,131.6,179.2,131.6,179.2z"/>
	</g>
	<g>
		<path class="st6" d="M153.3,163.1c0.8-2.5,1.1-5.2,1-7.8l-45.7,0.2c-0.1,2.7,0.3,5.3,1.1,7.8L153.3,163.1z"/>
	</g>
	<g>
		<path class="st7" d="M132.5,179.2c-10.5,0-14.9-5.2-14.9-5.2c3.5-2.5,8.9-4.2,14.9-4.2c5.3,0,11,1.2,14.4,3.1
			C146.9,173,143,179.2,132.5,179.2z"/>
	</g>
</g>
<g>
	<path class="st3" d="M151.1,155.3c1.7,0,3.1,1.4,3.1,3.1c0,0.1,0,0.2,0,0.3c-0.1,1-1.6,7.8-7.7,14.9c-1.2,1.5-5.4,5.7-14,5.7l0,0
		c-1.8,0-8-0.4-11.5-2.6c-5.1-3.2-9.4-7.5-11.3-13.3c-0.5-1.4-0.8-2.9-0.9-4.5c-0.1-1.8,1.3-3.3,3-3.4c0,0,0,0,0,0L151.1,155.3
		L151.1,155.3 M151.2,149.7L151.2,149.7l-39.3,0.1c-4.8,0.1-8.7,4.1-8.6,8.9c0,0,0,0,0,0c0.1,2.1,0.5,4.3,1.2,6.3
		c2.1,6.4,6.6,11.9,13.6,16.3c5.5,3.5,14.1,3.5,14.5,3.5h0.1c10.8,0,16.3-5.3,18.2-7.7c6.7-7.9,8.8-15.6,9-17.9c0.5-4.8-3-9-7.8-9.5
		C151.7,149.7,151.5,149.7,151.2,149.7L151.2,149.7z"/>
</g>
<g>
	<rect x="183.1" y="159.2" transform="matrix(0.372 -0.9282 0.9282 0.372 -34.2406 275.6951)" class="st8" width="7" height="7.8"/>
</g>
<g>
	<rect x="46.9" y="83.3" transform="matrix(0.372 -0.9282 0.9282 0.372 -49.3037 101.6061)" class="st8" width="7" height="7.8"/>
</g>
<g>
	<rect x="87.6" y="169.4" transform="matrix(0.372 -0.9282 0.9282 0.372 -103.6501 193.4605)" class="st8" width="7" height="7.8"/>
</g>
<g>
	<rect x="128.3" y="129.5" transform="matrix(0.372 -0.9282 0.9282 0.372 -41.0464 206.159)" class="st8" width="7" height="7.8"/>
</g>
<g>
	<rect x="132.2" y="236.7" transform="matrix(0.372 -0.9282 0.9282 0.372 -138.111 277.1328)" class="st8" width="7" height="7.8"/>
</g>
<g>
	<path class="st9" d="M183.8,188.4c-5.7-7.3-16.3-8.6-23.6-2.9s-8.6,16.3-2.9,23.6c2.3,2.9,5.5,5,9.1,5.9
		C171,205.4,177.2,196.8,183.8,188.4z"/>
</g>
<g>
	<path class="st3" d="M167.8,218l-2-0.5c-4.1-1-7.8-3.5-10.4-6.8c-6.6-8.4-5.1-20.5,3.3-27.1c4.1-3.2,9.1-4.6,14.2-4
		c5.1,0.6,9.7,3.2,12.9,7.3l1.2,1.5l-1.2,1.5c-5.8,7.4-12.4,16.3-17.1,26.2L167.8,218z M170.5,184.5c-3.2,0-6.3,1.1-8.8,3
		c-6.2,4.9-7.3,13.9-2.4,20.1c1.5,1.9,3.6,3.5,5.8,4.4c4.4-8.8,10.1-16.7,15.4-23.5c-2.2-2.2-5.1-3.6-8.3-3.9
		C171.7,184.5,171.1,184.5,170.5,184.5z"/>
</g>
<g>
	<circle class="st9" cx="127.9" cy="72.4" r="16.8"/>
</g>
<g>
	<path class="st3" d="M127.9,91.7c-10.7,0-19.3-8.7-19.3-19.3S117.3,53,127.9,53c10.7,0,19.3,8.7,19.3,19.3S138.6,91.7,127.9,91.7z
		 M127.9,58c-7.9,0-14.3,6.4-14.3,14.3s6.4,14.3,14.3,14.3c7.9,0,14.3-6.4,14.3-14.3S135.8,58,127.9,58z"/>
</g>
<g>
	<circle class="st9" cx="178.8" cy="145.9" r="16.8"/>
</g>
<g>
	<path class="st3" d="M178.8,165.3c-10.7,0-19.3-8.7-19.3-19.3s8.7-19.3,19.3-19.3s19.3,8.7,19.3,19.3S189.4,165.3,178.8,165.3z
		 M178.8,131.6c-7.9,0-14.3,6.4-14.3,14.3s6.4,14.3,14.3,14.3s14.3-6.4,14.3-14.3S186.7,131.6,178.8,131.6z"/>
</g>
<g>
	<path class="st9" d="M220.2,73.5c-1.2-1-2.5-2-3.8-3l-3.2-2.3c-2-1.4-4-2.8-6-4.2c-6.4,6.8-6,17.4,0.7,23.8s17.4,6,23.8-0.7
		c0.5-0.5,1-1.1,1.4-1.7C229,81.2,224.7,77.2,220.2,73.5z"/>
</g>
<g>
	<path class="st3" d="M219.5,94.8c-4.8,0-9.5-1.7-13.2-5.2c-3.8-3.5-5.9-8.3-6.1-13.5c-0.2-5.2,1.7-10.1,5.2-13.8l1.5-1.6l1.8,1.2
		c1.9,1.3,4,2.7,6,4.2l3.2,2.4c1.3,1.1,2.6,2.1,3.9,3.1l0,0c4.6,3.8,9,7.8,13.1,12l1.5,1.5l-1.2,1.7c-0.5,0.7-1,1.3-1.6,1.9
		C229.8,92.8,224.6,94.8,219.5,94.8z M207.7,67.4c-1.7,2.5-2.6,5.5-2.5,8.6c0.1,3.8,1.7,7.4,4.5,10c5.7,5.4,14.6,5.1,20.1-0.4
		c-3.5-3.5-7.3-6.9-11.1-10c-1.2-1-2.5-2-3.7-3l-3.1-2.3C210.4,69.2,209,68.3,207.7,67.4z"/>
</g>
<g>
	<circle class="st9" cx="82.1" cy="145.6" r="16.8"/>
</g>
<g>
	<path class="st3" d="M82.1,164.9c-10.7,0-19.3-8.7-19.3-19.3s8.7-19.3,19.3-19.3s19.3,8.7,19.3,19.3S92.8,164.9,82.1,164.9z
		 M82.1,131.2c-7.9,0-14.3,6.4-14.3,14.3s6.4,14.3,14.3,14.3s14.3-6.4,14.3-14.3S90,131.2,82.1,131.2z"/>
</g>
<g>
	<path class="st3" d="M144.6,96.7h59c3.8,0.1,6.8,3.3,6.7,7.1c0,0.4-0.1,0.8-0.1,1.2l-5.1,27.7c-0.5,3.2-3.3,5.6-6.6,5.6h-48
		c-3.2,0-5.9-2.3-6.5-5.5l-5.9-27.7c-0.9-3.7,1.4-7.4,5.1-8.3C143.6,96.8,144.1,96.7,144.6,96.7z"/>
</g>
<g>
	<path class="st3" d="M58.1,96.7h59.1c3.8,0.1,6.8,3.3,6.7,7.1c0,0.4-0.1,0.8-0.1,1.2l-5.2,27.7c-0.5,3.2-3.3,5.6-6.6,5.6H64
		c-3.2,0-5.9-2.3-6.5-5.5l-5.9-27.7c-0.9-3.7,1.4-7.4,5.2-8.3C57.2,96.8,57.6,96.7,58.1,96.7z"/>
</g>
<g>
	<path class="st6" d="M93.4,115.8h-6.2c0-0.1,0-0.2,0-0.3v-9.2c0-0.8-0.6-1.4-1.4-1.5h-7.4c-0.8,0-1.4,0.7-1.4,1.5v9.2
		c0,0.1,0,0.2,0,0.3h-6.2c0-0.1,0-0.2,0-0.3v-9.2c0-0.8-0.6-1.4-1.4-1.5H62c-0.8,0-1.4,0.7-1.4,1.5v9.2c0,0.8,0.6,1.4,1.4,1.5
		c0,0,0,0,0,0h6.2c0,0.1,0,0.2,0,0.3v9.2c0,0.8,0.6,1.4,1.4,1.5h7.4c0.8,0,1.4-0.7,1.4-1.5v-9.2c0-0.1,0-0.2,0-0.3h6.2
		c0,0.1,0,0.2,0,0.3v9.2c0,0.8,0.6,1.4,1.3,1.5h7.4c0.8,0,1.4-0.7,1.4-1.5v-9.2C94.8,116.5,94.2,115.8,93.4,115.8z"/>
</g>
<g>
	<path class="st6" d="M179.8,113.8h-6.2c0-0.1,0-0.2,0-0.3v-9.2c0-0.8-0.6-1.4-1.4-1.5h-7.4c-0.8,0-1.4,0.7-1.4,1.5v9.2
		c0,0.1,0,0.2,0,0.3h-6.2c0-0.1,0-0.2,0-0.3v-9.2c0-0.8-0.6-1.4-1.4-1.5h-7.4c-0.8,0-1.4,0.7-1.4,1.5v9.2c0,0.8,0.6,1.4,1.4,1.5
		c0,0,0,0,0,0h6.2c0,0.1,0,0.2,0,0.3v9.2c0,0.8,0.6,1.4,1.4,1.5h7.4c0.8,0,1.4-0.7,1.4-1.5v-9.2c0-0.1,0-0.2,0-0.3h6.3
		c0,0.1,0,0.2,0,0.3v9.2c0,0.8,0.6,1.4,1.4,1.5h7.4c0.8,0,1.4-0.7,1.4-1.5v-9.2C181.2,114.5,180.6,113.8,179.8,113.8
		C179.8,113.8,179.8,113.8,179.8,113.8z"/>
</g>
<g>
	<path class="st3" d="M118.9,104.8h23.3v-8h-27.3C114.9,96.8,118.2,105.4,118.9,104.8z"/>
</g>
</svg>
