<?xml version="1.0" encoding="utf-8"?>
<!-- Generator: Adobe Illustrator 24.3.0, SVG Export Plug-In . SVG Version: 6.00 Build 0)  -->
<svg version="1.1" id="Camada_1" xmlns="http://www.w3.org/2000/svg" xmlns:xlink="http://www.w3.org/1999/xlink" x="0px" y="0px"
	 viewBox="0 0 262.2 299" style="enable-background:new 0 0 262.2 299;" xml:space="preserve">
<style type="text/css">
	.st0{fill:#52D89B;}
	.st1{clip-path:url(#SVGID_2_);}
	.st2{fill:#012442;}
	.st3{fill:#FFBB71;}
	.st4{fill:#D3914F;}
	.st5{fill:#00C9FF;}
	.st6{fill:#E02D5C;}
	.st7{fill:#39B579;}
	.st8{fill:#FFFFFF;}
	.st9{fill:#0098FF;}
</style>
<g id="Camada_3">
	<g>
		<circle class="st0" cx="131.2" cy="171" r="123.3"/>
	</g>
	<g>
		<defs>
			<circle id="SVGID_1_" cx="130.9" cy="171" r="123.3"/>
		</defs>
		<clipPath id="SVGID_2_">
			<use xlink:href="#SVGID_1_"  style="overflow:visible;"/>
		</clipPath>
		<g class="st1">
			<g>
				<path class="st2" d="M223.2,296.5c-12.5,0-23.7-7.9-26.6-19.4c-9.3-37.2-33-47.3-34-47.7c0.4,0.2,0.6,0.2,0.6,0.2L183,183
					c5.2,1.9,51.2,19.9,66.9,83c3.4,13.5-5.9,26.8-20.6,29.9C227.3,296.3,225.3,296.5,223.2,296.5z"/>
			</g>
			<g>
				<path class="st3" d="M224.4,288.4c-8.3,0-15.8-5.2-17.7-13c-10.6-42.7-44.2-57.5-44.5-57.7c-9.2-3.8-13.3-13.6-9.2-22
					s14.9-12.1,24.1-8.4c2,0.8,50.3,21.2,65.1,80.7c2.2,9-3.9,17.9-13.7,20C227.2,288.3,225.8,288.4,224.4,288.4z"/>
			</g>
			<g>
				<path class="st2" d="M40.7,297.3c-2,0-4.1-0.2-6.1-0.6c-14.7-3.1-23.9-16.5-20.6-29.9c15.7-63.1,65.7-84.7,70.8-86.6l19.8,46.6
					c-1.2,1.1-2.3,2.2-3.3,3.4c-1,0.4-24.8,10.5-34,47.7C64.4,289.5,53.1,297.3,40.7,297.3z"/>
			</g>
			<g>
				<path class="st3" d="M39.4,289.3c-1.4,0-2.7-0.1-4.1-0.4c-9.8-2-16-11-13.7-19.9c14.8-59.4,64.9-80.7,66.9-81.5l20.3,26.9
					l0.3,0.3c-1.4,0.6-41.4,19.1-52,61.7C55.3,284,47.8,289.3,39.4,289.3z"/>
			</g>
			<g id="peito">
				<g>
					<path class="st3" d="M203.9,294.2c0,0,7.6-85.6-43.8-112.2l-56.4,2.2c-45.1,15.9-42.6,110-42.6,110L203.9,294.2z"/>
				</g>
			</g>
			<g>
				<path class="st2" d="M69.4,245.2c-1.7-1-3.9-0.5-4.9,1.2c-0.2,0.3-0.3,0.6-0.4,0.9c-2.8,10.7-5.1,25.2-5.1,44
					c0.1,1.9,1.7,3.4,3.6,3.3l0,0c1.9,0.1,3.5-1.4,3.6-3.3c0-18,2.2-32,4.9-42.2C71.5,247.6,70.8,246,69.4,245.2L69.4,245.2z"/>
			</g>
			<g>
				<path class="st4" d="M58.9,233.8c9.8-0.8,24.7-8.5,34-5.1c8.6,3.1,20.1,17.5,36,25.4c15.9,7.9,38.7,9.1,53.2-1
					c21.6-15,23.5-28.3,35.6-33.1c1.3-0.5-24.2-28.5-40.6-34.6c-3.3-1.2-6.7-6.7-10-6.3c-2.2-1.6-4.6-3-7-4.2l-56.4,2.2
					c-4.5,1.6-8.6,4-12.2,7l-0.4,1.5c-1.6,0.6-35.2,18.2-54,47.2C41.9,235.3,52.4,234.3,58.9,233.8z"/>
			</g>
			<g>
				<path class="st2" d="M197.6,245.2c-1.5,0.8-2.2,2.5-1.8,4.1c2.6,10.2,4.8,24.1,4.9,42.2c0.1,1.9,1.7,3.4,3.6,3.3l0,0
					c1.9,0.1,3.5-1.4,3.6-3.3c0-18.8-2.3-33.3-5.1-44c-0.5-1.9-2.5-3.1-4.4-2.6C198.2,244.9,197.9,245,197.6,245.2L197.6,245.2z"/>
			</g>
		</g>
	</g>
	<g>
		<path class="st5" d="M246.1,199c-2.2-5.2-4.6-9.1-5.1-14.1c-18.9-15.2,3.7-55.2,3.7-55.2c0-81.7-50-121.1-111.1-121.1l0,0
			c-61.1,0-111.1,50-111.1,111.1v18.9c0,3.5,0.2,7,0.5,10.3c-2,10.4-5,21.1-9.4,28.2c-11.7,18.8,6.3,28.2,18,22.7
			c0,0,0.6,21.2,19.4,27.8c7.4-1.8,14.3-5.9,21.3-8.6c8.6-3.3,17.9-4.5,26.5-0.5c5.5,2.5,9.4,7,13,11.8c0.9,0.8,1.9,1.6,2.8,2.5
			c17,5.7,51.8,14,68.8,6.9c15.1-6.3,15-16.6,14.4-20.4c7.4-2.9,14.3-6.8,20.6-11.7l1.7,2.4c3.3,3.4,7.8,5.4,12.5,5.5
			C240.5,215.4,250,208.4,246.1,199z"/>
	</g>
	<g>
		<path class="st2" d="M157.4,248.2c-17.5,0-36.8-5.1-48.6-18.5c-5.1-5.8-13.8-12-20.4-12.7c-2.6-0.3-6.6,1.9-10.8,4.1
			c-6.4,3.4-14.3,7.6-23.6,7.4c-11-0.3-18.8-3.5-23.3-9.7c-3.3-4.5-4-9.7-3.9-13.6c-6.4,0.7-13-1.5-17.1-6.1
			c-2.6-2.9-7.7-11.1,0.5-24.2c3.5-5.7,6.5-14.6,8.8-26.3c-0.3-3.4-0.5-6.8-0.5-10.1v-18.9C18.5,56.2,70.1,4.5,133.6,4.5
			c30,0,58.1,10.1,79.2,28.4c21.6,18.8,34.3,45,35.8,73.8c0.2,3.6-0.4,23.5-1.3,27.5l0,0c-2,9-4,15.5-5.6,20.7
			c-2.4,8.1-3.6,12.1-2.8,17.3l0,0.3c0.3,2.8,5,12.7,7.5,18c1.4,2.8,2.5,5.3,3.2,6.9c2,4.7,1.5,9.6-1.2,13.7
			c-3.3,4.9-9.7,8.2-15.9,8.2c-5.6-0.1-11.1-2.4-15-6.3c-4.9,3.4-10.2,6.4-15.7,8.8c-0.1,5.6-2.5,15.5-17,21.5
			C177.7,246.4,167.9,248.2,157.4,248.2z M88,209c0.4,0,0.8,0,1.2,0.1c10.5,1.1,21,10.2,25.6,15.4c15.7,17.9,49.6,18.8,67,11.6
			c11.8-4.9,12.6-12.2,12-16.1l-0.5-3.2l3-1.2c7-2.8,13.7-6.5,19.7-11.1l3.2-2.5l4,5.5c2.5,2.5,5.9,4,9.5,4.1c3.5,0,7.4-2,9.2-4.7
			c1.3-1.9,1.4-3.9,0.5-6.2c-0.6-1.4-1.7-3.8-3-6.5c-4.4-9.2-7.9-16.6-8.3-20.6c-1.1-6.9,0.6-12.4,3.1-20.7
			c1.5-5.1,3.4-11.4,5.4-20.1c0.6-2.8,1.3-21.7,1.1-25.4c-1.4-26.7-13.1-50.9-33-68.2c-19.6-17.1-45.9-26.5-74-26.5
			c-59.1,0-107.1,48.1-107.1,107.1v18.9c0,3.3,0.2,6.6,0.5,9.9L27,149l-0.1,0.6c-2.5,13-5.8,23-10,29.6c-3.8,6.1-4.2,11.3-1.3,14.6
			c3.1,3.5,9.4,4.6,14.2,2.3l8.1-3.8l-2.6,8.6c0,0.1-2.2,7.7,1.8,13.2c2.9,4,8.6,6.2,17,6.4c7.2,0.2,13.8-3.3,19.7-6.4
			C78.7,211.4,83.4,209,88,209z M243.4,133.4L243.4,133.4L243.4,133.4z"/>
	</g>
	<g>
		<path class="st2" d="M31.5,203.7c-0.6,0-1.1-0.1-1.7-0.4c-2-0.9-2.9-3.3-1.9-5.3l4.3-9.2c-6.1-7.1-6.2-16-6.2-16.5
			c0-2.2,1.8-4,4-4c2.2,0,4,1.8,4,4c0,0.1,0.2,7.8,5.7,12.7l2.2,2l-6.7,14.4C34.5,202.9,33,203.7,31.5,203.7z M34,172.4L34,172.4
			L34,172.4z"/>
	</g>
	<g>
		<path class="st2" d="M197.4,227.2c-1.9,0-3.6-1.4-3.9-3.3c-0.8-5.1-2.1-12.7-5.8-16.4c-0.9-1-1.3-2.3-1-3.6
			c0.3-1.3,1.2-2.4,2.4-2.9c1.9-0.8,3.8-1.7,5.6-2.8c1.9-1.1,4.4-0.5,5.5,1.5c1.1,1.9,0.5,4.4-1.5,5.5c-0.7,0.4-1.4,0.8-2.1,1.1
			c2.9,5.2,4,11.7,4.7,16.3c0.4,2.2-1.1,4.2-3.3,4.6C197.9,227.2,197.7,227.2,197.4,227.2z"/>
	</g>
	<g>
		<path class="st2" d="M82.4,218.1c-1.3,0-2.6-0.7-3.4-1.9c-1.2-1.9-0.6-4.3,1.2-5.5c0.6-0.4,15.6-9.8,24.9-11.5l1.2-0.2l1.1,0.4
			c0.2,0.1,18.9,7.6,31.8,6.5c2.2-0.2,4.1,1.5,4.3,3.7c0.2,2.2-1.5,4.1-3.7,4.3c-13,1.1-29.7-4.9-34.3-6.6
			c-6.6,1.7-17.3,7.8-21,10.2C83.9,217.9,83.1,218.1,82.4,218.1z"/>
	</g>
	<g>
		<path class="st6" d="M208.5,32.4c-4.8-3.1-9-7-12.5-11.5c-1.5-1.9-2.9-3.9-4.4-5.7c-14.6-1.6-27.7,9-29.2,23.6s9,27.7,23.6,29.2
			c14.6,1.6,27.7-9,29.2-23.6c0.3-2.7,0.2-5.4-0.4-8C212.8,35.1,210.6,33.8,208.5,32.4z"/>
	</g>
	<g>
		<path class="st2" d="M191.2,72.4c-1,0-1.9,0-2.9-0.1c-17.5-1.7-30.2-14.6-30.2-30.6c0-10,3.3-19,9.2-24.8
			c4.7-4.6,10.7-6.9,17.5-6.8c11.2,0.2,14.7,5.8,17.2,9.9c0.9,1.4,1.6,2.6,2.5,3.3c1.3,1.1,2.8,1.7,4.5,2.4
			c4.4,1.8,10,3.9,12.2,15.2c1.4,7.2-0.9,14.8-6.5,20.9C208.7,68.5,199.9,72.4,191.2,72.4z M184.3,18.1c-4.5,0-8.3,1.5-11.4,4.5
			c-4.3,4.2-6.8,11.2-6.8,19.1c0,11.8,9.7,21.3,23,22.6c7.2,0.7,14.7-2.3,19.8-7.8c3.9-4.3,5.5-9.2,4.5-14l0,0
			c-1.4-7-3.6-7.9-7.3-9.3c-2.1-0.8-4.4-1.8-6.8-3.7c-1.8-1.6-3-3.5-4.1-5.2c-2.2-3.5-3.8-6-10.6-6.2
			C184.5,18.1,184.4,18.1,184.3,18.1z"/>
	</g>
	<g>
		<path class="st5" d="M156,28.2c0,0-2.4,14.9,9.4,24.3s30.5,8.6,42.3,21.9s-11.7,32.1-14.9,32.1S138,80.6,138,80.6
			S134.1,45.4,156,28.2z"/>
	</g>
	<g>
		<path class="st2" d="M207.7,77.4c-0.8,0-1.7-0.3-2.2-1c-6.1-6.9-14.7-9.8-22.9-12.6c-6.6-2.2-13.5-4.5-19-8.9
			C151,44.7,149.1,29.2,149,28.5c-0.2-1.6,1-3.1,2.7-3.3c1.6-0.2,3.1,1,3.3,2.6c0,0.2,1.7,13.8,12.3,22.3c4.7,3.7,10.7,5.8,17.1,7.9
			c9,3,18.3,6.2,25.5,14.3c1.1,1.2,1,3.1-0.3,4.2C209.1,77.1,208.4,77.4,207.7,77.4z"/>
	</g>
	<g>
		<path class="st7" d="M218.6,15.8c-1-1.3-2.9-1.5-4.2-0.5c0,0,0,0,0,0c-6.9,5.5-13.1,11.6-18.7,18.4c1.3,0.8,2,2.1,3.3,3
			c0.4,0.3,1.3,0.1,1.7,0.4c5.5-6.5,11.4-10.3,17.4-15.1C219.4,21,219.6,17.1,218.6,15.8z"/>
	</g>
	<g>
		<path class="st2" d="M201.1,40.6c-0.5,0-0.9-0.2-1.3-0.5c-0.8-0.7-1-2-0.2-2.8c5.1-6,11.5-11.1,17.2-15.7l1.8-1.4
			c0-0.5-0.5-1.9-1.6-3.1c-0.6-0.7-1.9-1.1-2.3-1c-6.7,5.3-13,11.3-18.5,17.9c-0.7,0.8-2,1-2.8,0.2c-0.8-0.7-1-2-0.2-2.8
			c5.7-6.8,12.2-13,19.2-18.5c2.3-1.9,6-0.4,7.7,1.5c1.3,1.5,2.8,4,2.5,6.2c-0.1,1.1-0.6,2-1.4,2.6l-1.9,1.5
			c-5.6,4.4-11.9,9.4-16.7,15.1C202.3,40.4,201.7,40.6,201.1,40.6z M218.8,20.1C218.7,20.1,218.7,20.1,218.8,20.1L218.8,20.1z"/>
	</g>
	<g>
		<path class="st2" d="M207.1,44.9c-0.3,0-0.5-0.1-0.8-0.2c-17.3-7.4-18.8-17.4-18.9-17.8c-0.1-1.1,0.6-2.1,1.7-2.2
			c1.1-0.1,2.1,0.6,2.2,1.7c0,0.2,1.6,8.3,16.5,14.7c1,0.4,1.5,1.6,1.1,2.6C208.7,44.4,207.9,44.9,207.1,44.9z"/>
	</g>
	<g>
		<ellipse transform="matrix(0.7925 -0.6099 0.6099 0.7925 -6.0894 62.6144)" class="st8" cx="89" cy="40.3" rx="11.5" ry="10.3"/>
	</g>
	<g>
		<ellipse transform="matrix(0.7925 -0.6099 0.6099 0.7925 -24.7544 51.0462)" class="st8" cx="62.6" cy="61.9" rx="7.2" ry="6.5"/>
	</g>
	<g>
		<circle class="st8" cx="175.1" cy="105" r="30.4"/>
	</g>
	<g>
		<path class="st2" d="M173,139.4c-19,0-34.4-15.4-34.4-34.4s15.4-34.4,34.4-34.4s34.4,15.4,34.4,34.4S192,139.4,173,139.4z
			 M173,78.6c-14.6,0-26.4,11.8-26.4,26.4s11.8,26.4,26.4,26.4s26.4-11.8,26.4-26.4S187.6,78.6,173,78.6z"/>
	</g>
	<g>
		<circle class="st8" cx="84.1" cy="105" r="30.4"/>
	</g>
	<g>
		<path class="st2" d="M82,139.4c-19,0-34.4-15.4-34.4-34.4S63.1,70.6,82,70.6c19,0,34.4,15.4,34.4,34.4S101,139.4,82,139.4z
			 M82,78.6c-14.6,0-26.4,11.8-26.4,26.4s11.8,26.4,26.4,26.4c14.6,0,26.4-11.8,26.4-26.4S96.6,78.6,82,78.6z"/>
	</g>
	<g>
		<ellipse class="st9" cx="75.9" cy="154" rx="11.8" ry="8.2"/>
	</g>
	<g>
		<ellipse class="st9" cx="181.2" cy="154" rx="11.8" ry="8.2"/>
	</g>
	<g>
		<path class="st6" d="M124.8,152.9v19.5c0,6.6,6.1,12,13.7,12h3.6c7.5,0,13.7-5.4,13.7-12v-19.5H124.8z"/>
	</g>
	<g>
		<path class="st2" d="M140.3,187.4c-10.2,0-18.5-7.4-18.5-16.6v-18h6v18c0,5.7,5.7,10.6,12.5,10.6s12.5-4.8,12.5-10.6v-18h6v18
			C158.7,180,150.5,187.4,140.3,187.4z"/>
	</g>
	<g>
		<path class="st2" d="M127.3,156.5c-9.1,0-15.3-0.4-15.8-0.4c-1.7-0.1-2.9-1.5-2.8-3.2c0.1-1.7,1.5-2.9,3.2-2.8c0.3,0,27,1.7,52-2
			c1.6-0.2,3.2,0.9,3.4,2.5c0.2,1.6-0.9,3.2-2.5,3.4C151.2,156,137.4,156.5,127.3,156.5z"/>
	</g>
	<g>
		<path class="st2" d="M139.6,169.1c-1.7,0-3-1.3-3-3v-11.5c0-1.7,1.3-3,3-3s3,1.3,3,3v11.5C142.6,167.7,141.3,169.1,139.6,169.1z"
			/>
	</g>
	<g>
		<path class="st2" d="M82.7,104.8l13.1-12.3c-6.8-7.2-18.2-7.6-25.4-0.8c-7.2,6.8-7.6,18.2-0.8,25.4s18.2,7.6,25.4,0.8
			c1.3-1.2,2.4-2.6,3.2-4.1L82.7,104.8z"/>
	</g>
	<g>
		<path class="st2" d="M173.7,104.8l13.1-12.3c-6.8-7.2-18.2-7.6-25.4-0.8c-7.2,6.8-7.6,18.2-0.8,25.4c6.8,7.2,18.2,7.6,25.4,0.8
			c1.3-1.2,2.4-2.6,3.2-4.1L173.7,104.8z"/>
	</g>
</g>
</svg>
