<?xml version="1.0" encoding="utf-8"?>
<!-- Generator: Adobe Illustrator 24.3.0, SVG Export Plug-In . SVG Version: 6.00 Build 0)  -->
<svg version="1.1" id="Camada_1" xmlns="http://www.w3.org/2000/svg" xmlns:xlink="http://www.w3.org/1999/xlink" x="0px" y="0px"
	 viewBox="0 0 262.2 299" style="enable-background:new 0 0 262.2 299;" xml:space="preserve">
<style type="text/css">
	.st0{fill:#AF4E81;}
	.st1{fill:#52D89B;}
	.st2{fill:#31A86C;}
	.st3{fill:#012442;}
	.st4{fill:#E02D5C;}
	.st5{fill:#FFDF5A;}
</style>
<g id="Camada_3">
	<g>
		<circle class="st0" cx="131.1" cy="171.3" r="123.3"/>
	</g>
	<g>
		<path class="st1" d="M173.3,197.3l-42.3,1.2l-42.3-1.1c-47,5.9-59.9,42.1-59.9,42.1c36.4,55.2,93.1,55.7,103.1,55.7
			c8.7,0,65.5-1.3,102.1-56.7C234.2,238.4,220.3,203.1,173.3,197.3z"/>
	</g>
	<g>
		<path class="st2" d="M49,218.4c0,0,23.5,39.6,82.4,39.6s82.4-41.7,82.4-41.7S116.8,164.1,49,218.4z"/>
	</g>
	<g>
		<path class="st3" d="M232.2,243.4c-1.6,0-3.2-1-3.8-2.6l0,0c-0.5-1.3-12.7-32.9-56.3-38.5l-42.1,1.1l-0.1,0l-42-1.1
			c-43.6,5.6-53.1,35.9-53.2,36.2c-0.6,2.1-2.9,3.3-5,2.7c-2.1-0.6-3.3-2.9-2.7-5c0.4-1.5,11.2-35.8,60.2-41.9l0.3,0l0.3,0l42.2,1.1
			l42.5-1.2l0.3,0c48.8,6.1,62.6,42.2,63.1,43.7c0.8,2.1-0.3,4.4-2.4,5.1C233.1,243.3,232.6,243.4,232.2,243.4z"/>
	</g>
	<g>
		<path class="st1" d="M233.7,114.4c0,58.4-34.4,129.6-103.6,129.6c-64.3,0-102.7-69.3-102.7-127.7S71.7,22.8,130,22.8
			S233.7,56.1,233.7,114.4z"/>
	</g>
	<g>
		<path class="st3" d="M131,248.1c-27.8,0-56.2-15.5-78-42.4c-20.4-25.3-32.7-57.9-32.7-87.2c0-28.8,11.5-54.6,32.3-72.7
			c20-17.4,47.4-26.9,77.3-26.9c30.1,0,57.5,9,77.3,25.4c21.2,17.6,32.4,42.2,32.4,71.3C239.7,175.5,191.2,248.1,131,248.1z
			 M130,26.8c-27.9,0-53.5,8.9-72,25c-19.3,16.8-29.6,39.9-29.6,66.7c0,27.5,11.5,58.2,30.9,82.2c20.2,25.1,46.4,39.5,71.8,39.5
			c25.5,0,50.6-14.5,70.7-40.9c18.8-24.6,30-55.9,30-83.8c0-26.6-10.2-49.1-29.5-65.1C183.9,35.1,158.2,26.8,130,26.8z"/>
	</g>
	<g>
		<path class="st3" d="M126.3,98.7c-9.1,0-17.7-0.4-25.7-1c-34.9-2.5-69.5-10.3-72.4-13.2L26.8,83l0.6-2c0.2-0.7,5.3-17,20.5-33.2
			c14-14.9,39.5-32.4,81.6-31.1c23.2,0.7,55.6,6.3,78.9,28.9c14.1,13.7,18.1,27.1,18.2,27.7l0.8,2.7l-2.4,1.4
			C195.2,94.1,158.1,98.7,126.3,98.7z M35.3,80C53.7,85.6,154.5,107,219,72.6c-1.8-4.3-6.3-13.3-15.7-22.3
			c-17.1-16.5-42.7-25.7-74-26.6c-31.6-0.9-57.2,8.7-76.1,28.7C42.8,63.4,37.4,74.7,35.3,80z"/>
	</g>
	<g>
		<path class="st4" d="M30.8,82.1c2.4,2.3,120.5,32.9,192.5-7.8c0,0-14.9-51.7-93.9-54S30.8,82.1,30.8,82.1z"/>
		<path class="st3" d="M126.3,98.7c-9.1,0-17.7-0.4-25.7-1c-34.9-2.5-69.5-10.3-72.4-13.2L26.8,83l0.6-2c0.2-0.7,5.3-17,20.5-33.2
			c14-14.9,39.5-32.4,81.6-31.1c23.2,0.7,55.6,6.3,78.9,28.9c14.1,13.7,18.1,27.1,18.2,27.7l0.8,2.7l-2.4,1.4
			C195.2,94.1,158.1,98.7,126.3,98.7z M35.3,80C53.7,85.6,154.5,107,219,72.6c-1.8-4.3-6.3-13.3-15.7-22.3
			c-17.1-16.5-42.7-25.7-74-26.6c-31.6-0.9-57.2,8.7-76.1,28.7C42.8,63.4,37.4,74.7,35.3,80z"/>
	</g>
	<g>
		<path class="st5" d="M63.8,96.3l50.3,23.5c3.9,1.8,5.6,7,3.5,11.1c-5.2,10.2-17.9,25.5-45.1,15.4c-24.5-9-21.8-32.5-18.3-45.1
			C55.4,96.8,59.9,94.5,63.8,96.3z"/>
	</g>
	<g>
		<path class="st3" d="M82.2,154.2c-4.2,0-8.3-0.8-12.2-2.7c-10.9-5.3-18.1-14-20.8-25.3c-2.7-10.8-0.7-20.8,0.7-25.9
			c0.9-3.2,3.1-5.9,6-7.2c2.7-1.3,5.8-1.2,8.5,0l0,0l50.3,23.5c2.7,1.3,4.7,3.6,5.7,6.5c1.1,3.1,0.8,6.5-0.6,9.4
			C114.8,142.1,98.3,154.2,82.2,154.2z M60,99.2c-0.5,0-1,0.1-1.3,0.3c-1,0.5-1.8,1.5-2.2,2.7c-1.4,5.2-7.3,31.5,16.5,43
			c15.6,7.6,36.3-7.7,40.5-15.9c0.6-1.2,0.7-2.6,0.3-3.9c-0.4-1.1-1.1-2-2.1-2.4L61.3,99.5C60.9,99.3,60.4,99.2,60,99.2z"/>
	</g>
	<g>
		<path class="st3" d="M91.4,109.8c-4.6-2.4-9.3-4.7-13.9-7.2c-2.6,3.9-4.3,10.4-4.3,17.9c0,11.9,4.4,21.6,9.8,21.6
			c4.4,0,8.1-3.7,9.3-12.6l-9-6.3l9.2-4.7C92.2,115.6,91.9,112.7,91.4,109.8z"/>
	</g>
	<g>
		<path class="st3" d="M47.3,92.7c-1.4,2.1-0.9,4.9,1.2,6.4c0.2,0.2,0.5,0.3,0.7,0.4l69.5,31.1c0.6,0.3,1.1,0.4,1.7,0.5
			c2.8-4.3,4.8-9,5.9-13.9c0.5-2-0.5-4.1-2.3-5.1L62.9,78.7c-1.8-1-4-0.7-5.4,0.7C53.3,83.4,50.5,88,47.3,92.7z"/>
	</g>
	<g>
		<path class="st5" d="M192.3,96.3L142,119.8c-3.9,1.8-5.6,7-3.5,11.1c5.2,10.2,17.9,25.5,45.1,15.4c24.5-9,21.8-32.5,18.3-45.1
			C200.7,96.8,196.2,94.5,192.3,96.3z"/>
	</g>
	<g>
		<path class="st3" d="M173.9,154.2c-16.1,0-32.6-12.1-37.5-21.7c-1.5-2.9-1.7-6.3-0.6-9.4c1-2.9,3.1-5.2,5.7-6.5l50.3-23.5
			c2.7-1.3,5.8-1.3,8.5,0c2.9,1.3,5.1,4,6,7.2c1.4,5.1,3.3,15.1,0.7,25.9c-2.8,11.3-10,20-20.8,25.3
			C182.3,153.4,178.1,154.2,173.9,154.2z M194.8,99.5L144.5,123c-1,0.4-1.7,1.3-2.1,2.4c-0.4,1.3-0.4,2.7,0.3,3.9
			c3.4,6.7,17.6,17.9,31.2,17.9c3.2,0,6.3-0.6,9.3-2.1c23.8-11.5,17.9-37.8,16.5-43c-0.4-1.2-1.2-2.3-2.2-2.7
			C196.8,99.2,195.8,99,194.8,99.5z"/>
	</g>
	<g>
		<path class="st3" d="M164.7,109.8c4.6-2.4,9.3-4.7,13.9-7.2c2.6,3.9,4.3,10.4,4.3,17.9c0,11.9-4.4,21.6-9.8,21.6
			c-4.4,0-8.1-3.7-9.3-12.6l9-6.3l-9.2-4.7C163.9,115.6,164.2,112.7,164.7,109.8z"/>
	</g>
	<g>
		<path class="st3" d="M208.8,92.7c1.4,2.1,0.9,5-1.2,6.4c-0.2,0.2-0.5,0.3-0.7,0.4l-69.6,31.1c-0.6,0.3-1.1,0.4-1.7,0.5
			c-2.8-4.3-4.8-9-5.9-13.9c-0.5-2,0.5-4.1,2.3-5.1l61.3-33.5c1.8-1,4-0.7,5.4,0.7C202.7,83.4,205.6,88,208.8,92.7z"/>
	</g>
	<g>
		<path class="st2" d="M96.3,223.3c1,1.8,1.8,3.8,2.4,5.8c0.3,0.2,0.5,1.4,0.8,1.6c4.7,3.6,10.3,5.7,15.9,7.6
			c0.8-3.3,0.9-6.6,0.4-9.9c-1-4.6-3.6-8.8-6-12.9c-2-3.4-4-7.3-2.8-11c1.2-3.9,5.3-6.2,9.1-7.6s8.1-2.6,10.8-5.7
			c3.8-4.4,2.9-11,1.8-16.8c-11.3-0.1-22.4,2.3-32.7,6.9c-6.4,2.9-13.1,7.6-14.2,14.5c-0.8,5.3,1.8,10.5,5,14.8
			S93.7,218.6,96.3,223.3z"/>
	</g>
	<g>
		<path class="st3" d="M220.9,87.5c-9.4,0-17.1-7.8-17.1-17.4s7.7-17.4,17.1-17.4S238,60.6,238,70.1S230.3,87.5,220.9,87.5z
			 M220.9,58.8c-6.1,0-11.1,5.1-11.1,11.4s5,11.4,11.1,11.4S232,76.4,232,70.1S227,58.8,220.9,58.8z"/>
	</g>
	<g>
		<ellipse class="st4" cx="220.9" cy="70.1" rx="14.1" ry="14.3"/>
		<path class="st3" d="M220.9,88c-9.7,0-17.6-8-17.6-17.9s7.9-17.9,17.6-17.9s17.6,8,17.6,17.9S230.6,88,220.9,88z M220.9,59.3
			c-5.8,0-10.6,4.9-10.6,10.9S215,81,220.9,81s10.6-4.9,10.6-10.9S226.7,59.3,220.9,59.3z"/>
	</g>
	<g>
		<path class="st4" d="M247.7,91.3c-0.4-2.5-1.7-4.9-4.1-7.7c-3-3.4-16.3-11.9-20-6.5c-1.5,2.1-0.2,8.8-1.2,11.7
			c-1.2,4-3.6,7.5-4.4,11.6c-1.8,8.8,3.1,18.2,10.8,22.8c5.1,3.1,11.6,4.3,17.2,2.2c0-2.5-3.3-3.3-4.8-5.2
			c-3.8-4.8-2.9-10.2-1.7-12.2s2.9-3.6,4.2-5.4C246.8,98.5,248.3,94.9,247.7,91.3"/>
		<path class="st3" d="M239.9,130.1c-4.3,0-8.9-1.3-13-3.7c-9.4-5.7-14.5-16.6-12.4-26.5c0.6-2.7,1.6-5.1,2.7-7.4
			c0.7-1.6,1.4-3,1.8-4.6c0.2-0.8,0.2-2.8,0.2-4.3c0-3.2,0-6.3,1.4-8.4c0.9-1.3,2.7-3,6.1-3.2c6.9-0.4,16.8,6.4,19.4,9.4
			c2.7,3,4.3,5.9,4.9,8.8c0.1,0.2,0.1,0.4,0.2,0.7c0.8,5.5-2.1,10.4-4.8,13.9c-0.6,0.8-1.2,1.5-1.8,2.2c-0.8,1-1.6,1.9-2.2,2.8
			c-0.4,0.8-1.5,4.6,1.4,8.4c0.2,0.3,0.9,0.7,1.4,1.1c1.6,1.1,4.1,2.9,4.1,6.2v2.4l-2.3,0.9C244.9,129.7,242.5,130.1,239.9,130.1z
			 M226.5,79.1c-0.2,0.8-0.2,3-0.2,4.4c0,2.4,0,4.6-0.5,6.5c-0.6,1.9-1.4,3.6-2.1,5.3c-0.9,2.1-1.8,4-2.2,6c-1.5,7,2.4,15,9.2,19.1
			c2.6,1.6,5.5,2.5,8.3,2.7c-0.2-0.2-0.3-0.4-0.5-0.6c-4.7-6.1-3.8-12.9-2-16.1c0.9-1.6,2-2.8,3-4c0.5-0.6,1.1-1.2,1.5-1.8
			c2.6-3.5,3.7-6.1,3.6-8.3c0-0.1-0.1-0.3-0.1-0.5c-0.3-1.7-1.3-3.6-3.3-5.8c-2.1-2.4-10-7.3-13.8-7.1C227,79,226.7,79,226.5,79.1z
			 M226.5,79.2C226.5,79.2,226.5,79.2,226.5,79.2C226.5,79.2,226.5,79.2,226.5,79.2z M226.6,79L226.6,79z"/>
	</g>
	<g>
		<path class="st1" d="M219.4,142.2c0,0-0.5,10.2,6.5,15.8c2.7,2.1,5,4.2,6.8,5.9c3.6,3.3,5.3,5.8,5.3,13c0.2,2.1-3.6,12.9-8,15.2
			c-3.9,2.6-8.8,3.3-13.3,1.9c-5.2-1.8-6.7-3.8-9.8-4"/>
		<path class="st3" d="M221.4,198.3c-1.9,0-3.9-0.3-5.8-0.9c-2.7-0.9-4.5-1.9-5.9-2.6c-1.5-0.8-2.2-1.2-3.1-1.2
			c-1.9-0.1-3.4-1.8-3.3-3.7c0.1-1.9,1.8-3.4,3.7-3.3c2.4,0.2,4.1,1.1,5.9,2c1.3,0.7,2.7,1.4,4.8,2.2c3.4,1.1,7.2,0.5,10.2-1.5
			l0.3-0.2c2.7-1.4,6-9.7,6.1-11.9l0-0.2c0-6.3-1.4-7.8-4.2-10.5c-1.4-1.3-3.7-3.4-6.6-5.8c-8.3-6.6-7.8-18.2-7.8-18.7
			c0.1-1.9,1.7-3.4,3.7-3.3c1.9,0.1,3.4,1.7,3.3,3.6c0,0.1-0.3,8.6,5.2,12.9c2.5,2,4.9,4.1,7.1,6.1c4.3,4,6.3,7.3,6.4,15.4
			c0.2,3.8-4.1,15.2-9.7,18.4C228.7,197.3,225.1,198.3,221.4,198.3z M234.5,177.3C234.5,177.3,234.5,177.3,234.5,177.3L234.5,177.3z
			"/>
	</g>
	<g>
		
			<ellipse transform="matrix(0.3701 -0.929 0.929 0.3701 -24.5421 320.4891)" class="st3" cx="224.1" cy="178.3" rx="7.7" ry="4.5"/>
	</g>
	<g>
		<path class="st1" d="M41.1,142.2c0,0,0.5,10.2-6.5,15.8c-2.7,2.1-5,4.2-6.8,5.9c-3.5,3.3-5.3,5.8-5.3,13c-0.2,2.1,3.5,12.9,8,15.2
			c3.9,2.6,8.8,3.3,13.3,1.9c5.2-1.8,6.7-3.8,9.8-4"/>
		<path class="st3" d="M39.1,198.3c-3.7,0-7.3-1.1-10.4-3.1c-5.6-3.2-9.8-14.5-9.7-18.4c0.1-8.1,2.1-11.4,6.4-15.5
			c2.1-2,4.5-4.1,7-6.1c5.5-4.4,5.2-12.9,5.2-12.9c-0.1-1.9,1.4-3.6,3.4-3.6c1.9-0.1,3.6,1.4,3.6,3.3c0,0.5,0.5,12.1-7.8,18.7
			c-3,2.4-5.2,4.4-6.6,5.7c-2.8,2.6-4.2,4.2-4.2,10.5l0,0.2c0.1,2.3,3.5,10.5,6.1,11.9l0.3,0.2c3.1,2,6.8,2.6,10.3,1.5
			c2-0.7,3.5-1.5,4.7-2.1c1.8-1,3.5-1.9,5.9-2c1.9-0.1,3.6,1.3,3.7,3.3c0.1,1.9-1.3,3.6-3.3,3.7c-0.9,0.1-1.6,0.4-3.1,1.2
			c-1.4,0.8-3.2,1.7-5.9,2.6C43,198,41,198.3,39.1,198.3z M25.9,177.3L25.9,177.3C25.9,177.3,25.9,177.3,25.9,177.3z M22.5,176.9
			L22.5,176.9L22.5,176.9z"/>
	</g>
	<g>
		<ellipse transform="matrix(0.929 -0.3701 0.3701 0.929 -63.4052 26.1415)" class="st3" cx="36.4" cy="178.3" rx="4.5" ry="7.7"/>
	</g>
	<g>
		<path class="st1" d="M109,190c4.2-0.9,1.5-1.2,5.7-1.8c3.7-1.8,7.5-6,10.6-8.6c3.3-4.1,4.8-8.8,2.6-15.3
			c-2.5-7.7-8.5-16.4-18-16.2h-0.2c-12.5,1.6-23,2.3-38.8,17.5c-6.4,6.3-10.7,15.1-10.4,24.1c0.2,6.5,2.9,12.8,6.3,18.3
			c2,3.2,7.3,7.3,8.4,10.9c1,3.2,0.9,9-1,11.7c-1.4-0.3-2.8-0.9-4-1.7c-3.2,2.9-0.1-0.1-0.1-0.1c-7.4-4.7-14.6-13.8-16.1-14.4
			c-6.7-2.7-18.2-0.4-18.2,11.3c0,7.1,5.1,10.6,9.9,15.8c6.8,7.3,14.9,13.7,24.4,16.7c7.1,2.3,14.8,2.4,21.9,0.1
			c0.6-0.4,1.1-0.8,1.7-1.2c5.4-4.1,9.1-11.4,11.4-17.6c2.6-7.1-2.7-13.8-5.1-20.6c-4.8-8.4-6.7-14.6-5.5-18.3
			C96.6,194.8,102.9,191.3,109,190z"/>
	</g>
	<g>
		
			<ellipse transform="matrix(0.7125 -0.7017 0.7017 0.7125 -143.3228 98.5786)" class="st3" cx="48.6" cy="224.2" rx="6.3" ry="3.7"/>
	</g>
	<g>
		<path class="st3" d="M96,215.7c-1.1,0-2.1-0.6-2.6-1.6c-4.1-7.7-7.7-15.8-5.6-23.4c0.4-1.6,2.1-2.5,3.7-2.1
			c1.6,0.4,2.5,2.1,2.1,3.7c-1.5,5.5,1.6,12.4,5.1,19c0.8,1.5,0.2,3.3-1.2,4.1C96.9,215.6,96.4,215.7,96,215.7z"/>
	</g>
	<g>
		<path class="st3" d="M79.4,266.8c-3.2,0-6.6-0.6-10-1.6c-9-2.9-17.6-8.8-25.7-17.5c-6.8-7.4-10-14.3-9.7-20.9
			c0.4-8.3,7.2-17.4,16.4-17.2c2.7,0,8.3,0.1,11.1,5.7c3.2,6.2,7.5,11.9,12.2,16c0.5-1.7,0.4-3.8-0.2-5.5c-0.6-1.9-3.3-5.5-5.2-8.1
			c-1.1-1.5-2.2-3-3-4.2c-4.3-6.9-6.6-13.5-6.8-19.8c-0.3-9.7,3.5-19.3,10.2-26.3c5.9-6.1,12.7-11,21.9-15.7
			c1.3-0.7,2.4-1.2,3.3-1.7c5.7-3,6.2-3.1,12.3-3.1c1.2,0,2.6,0,4.3,0c9.5-0.1,17.8,8.4,19.3,19.9c1.2,9.7-2.8,22.4-18.4,26.2
			c-7.6,1.9-12.8,5.1-14,8.8c-1.6,4.9,1.3,10.5,4,14.4c3.6,5.2,5.1,8.8,7.2,15.1c3.5,10.4-1.2,22.8-11,29.5
			C91.7,264.7,85.6,266.8,79.4,266.8z M50,215.5c-5.4,0-9.8,6.1-10.1,11.4c-0.2,5,2.4,10.4,8.1,16.6c7.4,8,15.2,13.3,23.1,15.9
			c8.3,2.6,15.5,1.5,23.2-3.8c7.5-5.1,11.2-14.9,8.7-22.7c-1.9-5.8-3.2-8.9-6.4-13.5c-5.1-7.2-6.7-13.8-4.8-19.6
			c2.5-7.8,12.5-11.4,18.3-12.8c11.7-2.8,14.8-12,13.8-19.6c-0.9-7.1-5.8-14.6-13.1-14.6c-0.1,0-0.1,0-0.2,0c-1.8,0-3.2,0-4.4,0
			c-4.8,0-4.8,0-9.5,2.4c-0.9,0.5-2,1.1-3.4,1.7c-8.7,4.4-15,8.9-20.4,14.6c-5.7,5.8-8.8,13.8-8.5,21.9c0.2,5.2,2.1,10.8,5.9,16.8
			c0.6,1,1.6,2.3,2.7,3.8c2.4,3.2,5.1,6.9,6.1,9.8c1,3.3,1.3,7.6-0.6,11.1c0.4,0.3,0.9,0.5,1.3,0.8c1.4,0.8,1.9,2.7,1.1,4.1
			c-0.8,1.4-2.7,1.9-4.1,1.1c-11.4-6.5-18.3-18.3-20.8-23c-1-2-2.8-2.4-5.9-2.4C50.1,215.5,50.1,215.5,50,215.5z"/>
	</g>
	<g>
		<path class="st3" d="M115.2,76c-0.1,0-0.2,0-0.3,0c-3.1-0.3-6.1-0.6-9.2-0.9c-1.6-0.2-2.8-1.7-2.6-3.3c0.2-1.6,1.7-2.8,3.3-2.6
			c3,0.4,6,0.7,9,0.9c1.7,0.1,2.9,1.6,2.7,3.2C118,74.9,116.7,76,115.2,76z"/>
	</g>
	<g>
		<path class="st3" d="M94.6,73.5c-0.1,0-0.3,0-0.4,0c-17.1-2.4-33.7-7.1-49.5-14.1c-1.5-0.7-2.2-2.4-1.5-4c0.7-1.5,2.4-2.2,4-1.5
			C62.4,60.6,78.5,65.2,95,67.5c1.6,0.2,2.8,1.7,2.6,3.4C97.4,72.4,96.1,73.5,94.6,73.5z"/>
	</g>
	<g>
		<path class="st3" d="M149.4,55.1c-1.5,0-2.8-1.1-3-2.6c-0.2-1.6,1-3.1,2.6-3.3c15.1-1.8,30-5.4,44.3-10.6c1.6-0.6,3.3,0.2,3.9,1.8
			c0.6,1.6-0.2,3.3-1.8,3.9c-14.7,5.4-30.1,9.1-45.6,11C149.6,55.1,149.5,55.1,149.4,55.1z"/>
	</g>
	<g>
		<path class="st3" d="M134,56.1c-0.6,0-1.3,0-1.9,0c-1.7-0.1-3-1.4-2.9-3.1c0.1-1.7,1.4-2.9,3.1-2.9c2,0.1,4,0,6.2-0.1
			c1.7-0.1,3,1.2,3.1,2.9c0.1,1.7-1.2,3-2.9,3.1C137.1,56.1,135.5,56.1,134,56.1z"/>
	</g>
	<g>
		<path class="st2" d="M161.6,225.3c-1,1.8-1.8,3.8-2.4,5.8c-0.3,0.2-0.5,3.4-0.8,3.6c-4.7,3.6-9.6,4.4-15.9,4.6
			c-0.8-2.9-0.9-6-0.4-8.9c1-4.6,3.6-8.8,6-12.9c2-3.4,4-7.3,2.9-11c-1.2-3.9-5.3-6.2-9.1-7.6s-8.1-2.6-10.8-5.7
			c-3.8-4.4-2.9-11-1.8-16.8c11.3-0.1,22.4,2.3,32.7,6.9c6.4,2.9,13.1,7.6,14.2,14.5c0.8,5.3-1.8,10.5-5,14.8
			S164.2,220.6,161.6,225.3z"/>
	</g>
	<g>
		<path class="st1" d="M148.9,191c-4.2-0.9-1.4-1.2-5.7-1.8c-3.7-1.8-7.5-6-10.6-8.6c-3.3-4.1-4.8-8.8-2.6-15.3
			c2.5-7.7,8.5-16.4,18-16.2h0.2c12.5,1.6,23,2.3,38.8,17.5c6.4,6.3,10.6,15.1,10.4,24.1c-0.2,6.5-2.9,12.8-6.3,18.3
			c-2,3.2-7.3,7.3-8.4,10.9c-1,3.2-0.9,9,1,11.7c1.4-0.3,2.8-0.9,4-1.7c3.2,2.9,0.1-0.1,0.1-0.1c7.4-4.7,14.6-13.8,16.1-14.4
			c6.6-2.6,18.2-0.4,18.2,11.4c0,7.1-5.1,10.6-9.9,15.8c-6.8,7.3-14.9,13.7-24.4,16.7c-7.1,2.3-14.8,2.4-21.9,0.1
			c-0.6-0.4-1.1-0.8-1.7-1.2c-5.4-4.1-9.1-11.4-11.4-17.6c-2.6-7.1,2.7-13.8,5.1-20.6c4.8-8.4,6.7-14.6,5.5-18.3
			C161.3,195.8,155,192.3,148.9,191z"/>
	</g>
	<g>
		
			<ellipse transform="matrix(0.7017 -0.7125 0.7125 0.7017 -98.0667 216.274)" class="st3" cx="209.2" cy="225.2" rx="3.7" ry="6.3"/>
	</g>
	<g>
		<path class="st3" d="M161.9,216.7c-0.5,0-1-0.1-1.4-0.4c-1.5-0.8-2-2.6-1.2-4.1c3.5-6.6,6.6-13.4,5.1-19c-0.4-1.6,0.5-3.2,2.1-3.7
			c1.6-0.4,3.2,0.5,3.7,2.1c2.1,7.6-1.5,15.7-5.6,23.4C164,216.2,163,216.7,161.9,216.7z"/>
	</g>
	<g>
		<path class="st3" d="M178.5,267.8c-6.3,0-12.3-2.1-18.4-6.2c-9.8-6.7-14.4-19.1-11-29.5c2.1-6.2,3.6-9.9,7.2-15.1
			c2.7-3.9,5.6-9.5,4-14.4c-1.2-3.7-6.4-6.9-14-8.8c-15.5-3.8-19.6-16.5-18.4-26.2c1.5-11.5,9.7-20.1,19.3-19.9c1.8,0,3.2,0,4.3,0
			c6.1,0,6.5,0.1,12.3,3.1c0.9,0.5,2,1.1,3.3,1.7c9.3,4.7,16,9.6,22,15.7c6.7,7,10.5,16.5,10.2,26.3c-0.2,6.3-2.5,12.9-6.8,19.8
			c-0.7,1.2-1.8,2.7-3,4.2c-2,2.7-4.5,6-5.1,8c-0.6,1.7-0.7,3.8-0.2,5.6c4.7-4.2,9.1-9.8,12.2-16.1c2.9-5.6,8.4-5.7,11.1-5.7
			c0.1,0,0.2,0,0.3,0c9,0,15.7,9,16.1,17.2c0.3,6.7-2.9,13.5-9.7,20.9c-8.1,8.8-16.7,14.7-25.7,17.5
			C185.1,267.2,181.8,267.8,178.5,267.8z M147,153.8c-7.3,0-12.2,7.5-13.1,14.6c-1,7.6,2.2,16.7,13.8,19.6
			c5.8,1.4,15.8,4.9,18.3,12.8c1.9,5.8,0.2,12.4-4.8,19.6c-3.2,4.6-4.5,7.7-6.4,13.5c-2.6,7.8,1.1,17.5,8.7,22.7
			c7.7,5.3,14.9,6.5,23.2,3.8c8-2.5,15.8-7.9,23.1-15.9c5.7-6.2,8.4-11.6,8.1-16.6c-0.2-5.3-4.7-11.4-10.1-11.4c0,0-0.1,0-0.2,0
			c-3.1,0.1-4.9,0.4-5.9,2.4c-5,9.9-12.8,18.5-20.8,23c-1.4,0.8-3.3,0.3-4.1-1.1c-0.8-1.4-0.3-3.3,1.1-4.1c0.4-0.2,0.8-0.5,1.2-0.8
			c-1.9-3.6-1.7-7.9-0.6-11.1c0.9-2.9,3.6-6.5,6-9.7c1.1-1.5,2.1-2.9,2.7-3.8c3.7-6,5.7-11.6,5.9-16.8c0.2-8.1-2.9-16.1-8.5-21.9
			c-5.4-5.6-11.7-10.1-20.4-14.6c-1.3-0.7-2.4-1.3-3.4-1.8c-4.6-2.4-4.6-2.4-9.5-2.4c-1.2,0-2.6,0-4.4,0
			C147.1,153.8,147.1,153.8,147,153.8z"/>
	</g>
	<g>
		<path class="st3" d="M104.6,192.6c-0.3,0-0.5-0.1-0.8-0.2c-1-0.4-1.5-1.6-1-2.6c0-0.1,3.2-7.7,0-14.5c-0.5-1,0-2.2,1-2.7
			c1-0.5,2.2,0,2.7,1c4,8.5,0.2,17.4,0,17.8C106.1,192.2,105.4,192.6,104.6,192.6z"/>
	</g>
	<g>
		<path class="st3" d="M147.2,193.6c-0.8,0-1.5-0.4-1.8-1.2c-0.2-0.4-4-9.3,0-17.8c0.5-1,1.7-1.4,2.7-1c1,0.5,1.4,1.7,1,2.7
			c-3.2,6.9,0,14.5,0,14.5c0.4,1,0,2.2-1,2.6C147.8,193.6,147.5,193.6,147.2,193.6z"/>
	</g>
</g>
</svg>
