<?xml version="1.0" encoding="utf-8"?>
<!-- Generator: Adobe Illustrator 24.3.0, SVG Export Plug-In . SVG Version: 6.00 Build 0)  -->
<svg version="1.1" id="Camada_1" xmlns="http://www.w3.org/2000/svg" xmlns:xlink="http://www.w3.org/1999/xlink" x="0px" y="0px"
	 viewBox="0 0 262.2 299" style="enable-background:new 0 0 262.2 299;" xml:space="preserve">
<style type="text/css">
	.st0{fill:#F9B800;}
	.st1{fill:#2ECC56;}
	.st2{fill:#012442;}
	.st3{fill:#17A535;}
	.st4{fill:#F23B36;}
	.st5{fill:#FFFFFF;}
</style>
<g id="Camada_3">
	<g>
		<circle class="st0" cx="131.1" cy="173.9" r="123.3"/>
	</g>
	<g>
		<path class="st1" d="M173.3,199.9l-42.3,1.2l-42.3-1.1C41.8,205.8,28.9,242,28.9,242c34.6,54,93.1,55.7,103.1,55.7
			c8.7,0,67.6,1.4,101.1-56.7C233.2,241,220.3,205.8,173.3,199.9z"/>
	</g>
	<g>
		<path class="st2" d="M63.6,279.2c0.7-7.5,2-15,3.9-22.4c0.4-1.6-0.3-3.2-1.7-4h-0.1c-1.7-1-3.9-0.5-4.9,1.2
			c-0.2,0.3-0.3,0.6-0.4,0.9c-1.5,6-2.7,12.2-3.5,18.3C59.2,275.3,61.4,277.2,63.6,279.2z"/>
	</g>
	<g>
		<path class="st2" d="M196.4,281.1c2.3-1.7,4.6-3.5,6.9-5.3c-0.8-8-2.1-16-4.1-23.8c-0.5-1.9-2.5-3.1-4.4-2.6
			c-0.3,0.1-0.5,0.2-0.8,0.3l-0.1,0.1c-1.5,0.8-2.2,2.5-1.8,4.1C194.4,262.8,195.8,271.9,196.4,281.1z"/>
	</g>
	<g>
		<path class="st3" d="M49,219c0,0-10.8,29.6,82.4,29.6c99.3,0,82.4-31.7,82.4-31.7S116.8,164.8,49,219z"/>
	</g>
	<g>
		<path class="st2" d="M232.2,246c-1.6,0-3.2-1-3.8-2.6l0,0c-0.5-1.3-12.8-33-56.5-38.5l-42-1.8l-41.9,1.8
			c-43.4,5.5-53,35-53.4,36.2c-0.6,2.1-2.9,3.3-5,2.7c-2.1-0.6-3.3-2.9-2.7-5c0.4-1.5,11.2-35.8,60.2-41.9l0.3,0l42.5-1.9l0.2,0
			l42.6,1.9c48.8,6.1,62.6,42.2,63.1,43.7c0.8,2.1-0.3,4.4-2.4,5.1C233.1,245.9,232.6,246,232.2,246z"/>
	</g>
	<g>
		<path class="st4" d="M175.6,33.1c-2.9,1.3-5.5,3.1-7.9,5.2c-0.5,0.4-1.2,0.4-1.6-0.1c0,0-0.1-0.1-0.1-0.1
			c-3.4-4.7-8.2-8.1-12.4-12.1c-7.4-1.7-15-2.7-22.7-2.7c0,0.3-1.6,0.3-1.6,0c0,0-25.6,3.9-28.1,5.4c-2,1.2-8,5.2-10.5,5.1
			c-0.3,0.2-0.6,0.4-1,0.4c0,0.1,0,0.2,0,0.2c-0.4,1.2-1.6,1.9-2.8,1.5c-1.7-0.5-3.4-1-5.1-1.5c-31,14.5-65.7,48-65.7,124.8
			c0,44,33.7,69.4,66.2,69.6c4.6,0,100,0,104.5,0c32.5-0.2,60.2-33.2,60.2-66.8C247.1,82.9,207.2,47,175.6,33.1z"/>
	</g>
	<g>
		<path class="st2" d="M172.8,232.9H92.3c-26.6,0-49-8.2-63.2-23c-12.2-12.8-18.1-30.4-17.1-50.8c1.8-35.2,8.3-62.9,20.1-84.6
			C41.8,56.9,55,43.1,72.5,32.6c5.3-3.2,13-3,19.2,0.1c10.1-12,32.1-13.4,41.7-13.4c17.9,0,29.9,9.3,34.8,13.5
			c0.4-0.2,0.8-0.4,1.2-0.6c3.6-1.6,10.9-3.6,18.9,0.1c18.5,8.6,31,20.4,40.6,38.4c10.8,20.1,17.8,48.1,22.2,88.1
			c2.1,19.2-3.3,37.2-15.3,50.5C221.9,224.7,200.2,232.9,172.8,232.9z M81.4,38.3c-1.9,0-3.6,0.4-4.8,1.1
			c-16.5,10-28.3,22.3-37.3,38.9c-11.2,20.6-17.5,47.2-19.2,81.2c-0.9,18.5,4.1,33.6,14.9,44.9c12.6,13.2,33,20.5,57.4,20.5h80.5
			c25,0,44.7-7.2,57-20.9c10.4-11.6,15.1-27.3,13.3-44.3C234.1,78,214.2,53.2,184.9,39.6c-6.2-2.9-11.8-0.4-13.7,0.6l-0.3,0.8
			l-2.1,0.6c-2.2,0.6-3.5-0.6-4.9-1.9c-3.5-3.1-14.3-12.5-30.6-12.5c-7,0-30.2,0.9-37,12.6c-0.3,0.5-1,1.7-2.7,2.1L92,42.4l-1.9-1.2
			C87.7,39.2,84.4,38.3,81.4,38.3z"/>
	</g>
	<g>
		<path class="st0" d="M190.8,144.4l-0.4,15.3c0,0.9-0.7,1.7-1.7,1.8l-14.5,1.5c-1,0.1-1.9-0.7-2-1.7c0-0.1,0-0.1,0-0.2v-13.4
			c-5.3,0.8-10.5,1.4-15.6,1.8l-0.4,13.2c0,1-0.8,1.8-1.8,1.8h-14.6c-1,0-1.8-0.8-1.8-1.8c0,0,0,0,0,0v-12
			c-5.4,0.2-10.6,0.2-15.6,0.1v11.9c0,1-0.8,1.8-1.8,1.8c0,0,0,0,0,0h-14.5c-1,0-1.8-0.8-1.8-1.8l-0.4-12.9
			c-5.6-0.4-10.8-1-15.6-1.6v12.9c0,1-0.8,1.8-1.8,1.9c-0.1,0-0.2,0-0.2,0l-14.5-1.5c-0.9-0.1-1.6-0.9-1.7-1.8l-0.4-14.7
			c-9.4-1.9-14.7-3.6-14.7-3.6l8.7,33.5c2.7,10.4,8.9,17.2,15.8,17.2h5.6L84.4,182c0-1,0.8-1.9,1.8-1.9c0,0,0,0,0.1,0h15.2
			c1,0,1.8,0.8,1.8,1.9v10.3H120v-11.4c0-1,0.8-1.8,1.8-1.9H137c1,0,1.8,0.8,1.8,1.8c0,0,0,0,0,0.1l-0.3,11.3h18.4v-10.3
			c0-1,0.8-1.9,1.8-1.9h0h15.2c1,0,1.9,0.8,1.9,1.8c0,0,0,0,0,0.1l-0.3,10.3h7.3c7.9,0,14.8-9,16.7-21.7l4.2-29
			C199.4,142.6,195.1,143.6,190.8,144.4z"/>
	</g>
	<g>
		<path class="st2" d="M205.2,129.7c-3.7,1.2-2.2,5.8-3.4,9.5c-4.4,1.1-9.1,2.1-13.5,3.1c0,0-0.4,16.7-0.5,16.6s-12.8,1.3-12.8,1.2
			v-15.5c-6.9,1-14,1.8-20.9,2.5l-0.4,14.7c0,0.1-12.8,0-12.8,0s0.1-13.9,0-13.9c-7,0.3-14.1,0.2-21,0.1v13.8c0,0.1-12.8,0-12.8,0
			s-0.4-14.5-0.5-14.5c-6-0.4-12-1-17.9-1.8c0,0-3.1-0.5-3.1-0.4v15c0,0.1-12.8-1.2-12.8-1.3l-0.5-16c-5.8-1.2-14.3-3.2-15.7-3.7
			c-1.4-2.6-0.6-9.8-5.2-9.4c-1.4,0.3-2.4,1.8-2,3.2c0,0,0,0.1,0,0.1c2,7.7,11.5,42.6,11.5,42.6c4.2,16.3,14,20.8,26.8,19.2
			c0,0-0.4-12.1-0.3-12.1h13.4c0.1,0,0,12.2,0.1,12.2h22c0.1,0,0-13.2,0-13.2s13.4,0,13.4,0s-0.4,13.2-0.4,13.2s23.8,0,23.9,0
			s-0.1-12.2,0-12.2H173c0.1,0-0.4,12.1-0.3,12.1c15.6,1.8,26.1-3.5,29.4-24c0,0,4.9-30.9,6.1-38.1c0.2-1.5-0.8-2.9-2.3-3.1
			C205.7,129.7,205.4,129.7,205.2,129.7z M182.8,189.6c0,0-4.6,0-4.6,0c-0.4-2.1,1-8.3-0.5-10.1c-1.6-3.7-16-1.4-18.9-2
			c-6.1-0.1-4.3,8.4-4.6,12.1c0,0.1-12.9,0-12.9,0c-0.3-3.9,2.2-13.3-4.3-13.2h-15.2c-2.5,0-4.6,2-4.6,4.6l0,0c0,0,0,8.7,0,8.7H106
			c-0.3-3.8,1.5-12.3-4.6-12.2h-15c-2.5-0.1-4.6,1.9-4.7,4.5c0,0.1,0,0.1,0,0.2l0.2,7.5c0,0.1-2.8,0-2.8,0
			c-14,0.2-16.7-34-20.6-44.2c2,0.4,4.9,1.2,8.3,1.9c0.9,3.9-2,16.6,4.5,16.9c3-0.2,15.8,2.9,18,0.3c2.6-1.8,1.2-10.6,1.5-13.2
			c3.4,0.3,6.8,0.8,10.3,1c0,0,0.3,10.5,0.3,10.5c0.1,2.5,2.1,4.4,4.6,4.4h14.5c6.6,0.2,4.2-9.9,4.6-13.7
			c11.8,0.6,10.3-3.5,10.2,9.1c0,2.5,2,4.6,4.6,4.6h0h14.5c6.8,0.2,4.2-11.3,4.9-15.2c3.4-0.4,6.9-0.8,10.3-1.2
			c0.4,4-2.2,15.6,5,14.8l14.6-1.4c2.3-0.2,4-2.1,4.1-4.4l0.4-13.1c2.3-0.6,4.7-1,7-1.6C198.2,156.6,197.6,189.7,182.8,189.6z"/>
	</g>
	<g>
		<path class="st2" d="M82.7,58.8c-0.5,0-1-0.1-1.5-0.3c-2-0.8-3-3.2-2.2-5.2c2.7-6.6,6.2-12.8,10.5-18.4c1.3-1.8,3.8-2.1,5.6-0.8
			c1.8,1.3,2.1,3.8,0.8,5.6c-3.9,5.1-7.1,10.7-9.5,16.6C85.7,57.9,84.2,58.8,82.7,58.8z"/>
	</g>
	<g>
		<path class="st2" d="M178.7,59.8c-1.6,0-3.1-1-3.7-2.6c-5.5-14.4-11.3-18.3-11.3-18.3c-1.9-1.1-2.5-3.6-1.3-5.5
			c1.1-1.9,3.6-2.5,5.5-1.4c0.8,0.5,8.1,5.2,14.6,22.3c0.8,2.1-0.2,4.4-2.3,5.2C179.6,59.7,179.1,59.8,178.7,59.8z"/>
	</g>
	<g>
		<path class="st2" d="M80.4,231.5c-0.5,0-0.9-0.1-1.4-0.2c-10.9-4-20.3-13.1-25.9-25c-0.9-2-0.1-4.4,1.9-5.3c2-0.9,4.4-0.1,5.3,1.9
			c4.7,10,12.5,17.6,21.4,20.8c2.1,0.8,3.1,3.1,2.4,5.1C83.6,230.4,82.1,231.5,80.4,231.5z"/>
	</g>
	<g>
		<path class="st2" d="M182.8,231.5c-1.6,0-3.2-1-3.8-2.6c-0.8-2.1,0.3-4.4,2.4-5.1c8.9-3.2,16.7-10.8,21.4-20.8
			c0.9-2,3.3-2.9,5.3-1.9c2,0.9,2.9,3.3,1.9,5.3c-5.6,11.9-15,21-25.9,25C183.7,231.4,183.2,231.5,182.8,231.5z"/>
	</g>
	<g>
		<path class="st0" d="M143.1,129.4l-9.9-14.9c-0.6-0.9-1.7-1.1-2.6-0.5c-0.2,0.1-0.4,0.3-0.5,0.5l-9.4,14.9"/>
	</g>
	<g>
		<path class="st0" d="M60.2,83.4l51.8,22.4c0,0-2.8,26.2-27.1,24.8S52.5,101.5,60.2,83.4z"/>
	</g>
	<g>
		<path class="st2" d="M86.8,134.1c-0.7,0-1.4,0-2.1-0.1c-10.5-0.6-19.4-5.9-24.9-14.8C53.2,108.6,52,93.6,56.9,82l1.4-3.3
			l57.5,24.8l-0.3,2.6C114.4,116,107,134.1,86.8,134.1z M62.2,88.1c-2.6,9-1.3,19.6,3.5,27.4c3.1,4.9,8.9,10.9,19.4,11.5
			c16.7,1,21.6-13.2,23-19.1L62.2,88.1z"/>
	</g>
	<g>
		<path class="st2" d="M46.3,74.2c-1.3,1.9-0.8,4.6,1.1,5.9c0.2,0.1,0.4,0.3,0.7,0.4l64.3,28.8c0.5,0.2,1.1,0.4,1.6,0.5
			c2.6-4,4.4-8.3,5.5-12.9c0.4-1.9-0.4-3.8-2.1-4.7l-56.7-31c-1.6-0.9-3.7-0.6-5,0.7C51.9,65.5,49.3,69.8,46.3,74.2z"/>
	</g>
	<g>
		<path class="st0" d="M203,84.3l-51.9,22.4c0,0,2.9,26.2,27.1,24.8S210.6,102.4,203,84.3z"/>
	</g>
	<g>
		<path class="st2" d="M176.3,135c-20.3,0-27.7-18.1-28.7-27.9l-0.3-2.6l57.5-24.8l1.4,3.3c4.9,11.6,3.7,26.6-2.9,37.2
			c-5.5,8.9-14.4,14.1-24.9,14.8C177.7,135,177,135,176.3,135z M155,108.8c1.3,5.9,6.3,20.1,23,19.1c10.5-0.6,16.3-6.6,19.4-11.5
			c4.9-7.8,6.2-18.4,3.6-27.5L155,108.8z"/>
	</g>
	<g>
		<path class="st2" d="M216.8,75.1c1.3,2,0.8,4.6-1.1,5.9c-0.2,0.1-0.4,0.3-0.7,0.4l-64.4,28.8c-0.5,0.2-1.1,0.4-1.6,0.5
			c-2.6-3.9-4.4-8.3-5.5-12.9c-0.4-1.9,0.4-3.8,2.1-4.7l56.7-31c1.6-0.9,3.7-0.6,5,0.7C211.2,66.4,213.8,70.7,216.8,75.1z"/>
	</g>
	<g>
		<path class="st1" d="M116.2,8.5c0,0,6.2,10.7,3.6,18c0,0-8,6.8-9.8,13.1c0,0,16.9,15.1,39.8,0c-1.6-8.9-14.7-15.1-14.9-15.4
			c-0.8-1.8-2-16.9-5.1-19.7C130,4.5,121.1,3.5,116.2,8.5z"/>
	</g>
	<g>
		<path class="st2" d="M130.6,113.6c0.6,0,1.2,0.3,1.5,0.8l8,12.1c0.6,0.8,0.3,2-0.5,2.6c-0.3,0.2-0.7,0.3-1,0.3H123
			c-1,0-1.8-0.8-1.8-1.8c0-0.4,0.1-0.7,0.3-1l7.6-12.1C129.4,113.9,130,113.6,130.6,113.6 M130.6,107.6c-2.7,0-5.2,1.4-6.6,3.7
			l-7.6,12.1c-2.3,3.7-1.2,8.5,2.5,10.8c1.2,0.8,2.7,1.2,4.1,1.2h15.6c4.3,0,7.8-3.5,7.8-7.9c0-1.5-0.5-3.1-1.3-4.3l-8-12.1
			C135.7,108.9,133.3,107.6,130.6,107.6L130.6,107.6z"/>
	</g>
	<g>
		<path class="st2" d="M129.3,49.3c-3.3,0-6.3-0.5-8.7-1.1c-7.7-2.1-12.3-6.2-12.5-6.3l-1.4-1.3l0.5-1.8c1.7-6,7.9-12,10-13.9
			c1.2-4.9-2.1-12.3-3.6-14.8l-1.1-2l1.6-1.6c5.7-5.9,16-5.3,17.3-4.6l0.3,0.2l0.2,0.2c2.7,2.4,3.9,8.8,5.1,16.8
			c0.2,1.1,0.4,2.4,0.5,3.2c3.7,2.1,13.7,8.1,15.2,16.8l0.3,1.9l-1.6,1.1C143.2,47.6,135.6,49.3,129.3,49.3z M113.7,38.6
			c4.3,2.9,16.6,9.2,32.7-0.3c-1.5-3.6-5.6-7.2-12.1-11c-1-0.6-1.5-0.8-1.9-1.6l-0.2-0.3c-0.4-0.9-0.6-2.2-1.1-5.4
			c-0.5-2.9-1.6-10-2.8-12.6c-1.8,0-5.5,0.2-8.3,1.9c1.9,3.9,4.9,11.8,2.6,18.2l-0.3,0.8l-0.6,0.5C120,30.3,115.6,34.6,113.7,38.6z"
			/>
	</g>
	<g>
		<ellipse transform="matrix(0.6099 -0.7925 0.7925 0.6099 -0.6061 102.6612)" class="st5" cx="104" cy="51.9" rx="6.2" ry="7"/>
	</g>
	<g>
		<ellipse transform="matrix(0.6099 -0.7925 0.7925 0.6099 -4.7582 120.3507)" class="st5" cx="119.9" cy="65" rx="3.9" ry="4.3"/>
	</g>
</g>
</svg>
