<?xml version="1.0" encoding="utf-8"?>
<!-- Generator: Adobe Illustrator 24.3.0, SVG Export Plug-In . SVG Version: 6.00 Build 0)  -->
<svg version="1.1" id="Camada_1" xmlns="http://www.w3.org/2000/svg" xmlns:xlink="http://www.w3.org/1999/xlink" x="0px" y="0px"
	 viewBox="0 0 262.2 299" style="enable-background:new 0 0 262.2 299;" xml:space="preserve">
<style type="text/css">
	.st0{fill:#E02D5C;}
	.st1{clip-path:url(#SVGID_2_);}
	.st2{fill:#012442;}
	.st3{fill:#FFBB71;}
	.st4{opacity:0.75;enable-background:new    ;}
	.st5{fill:#E57A45;}
	.st6{fill:#C47B49;}
	.st7{fill:#FFCE00;}
	.st8{fill:#00A4FF;}
	.st9{fill:#178FFC;}
	.st10{fill:#FFFFFF;}
</style>
<g>
	<circle class="st0" cx="130.8" cy="172.6" r="123.3"/>
</g>
<g>
	<defs>
		<circle id="SVGID_1_" cx="130.6" cy="172.6" r="123.3"/>
	</defs>
	<clipPath id="SVGID_2_">
		<use xlink:href="#SVGID_1_"  style="overflow:visible;"/>
	</clipPath>
	<g class="st1">
		<g>
			<path class="st2" d="M222.9,298.1c-12.5,0-23.7-7.9-26.6-19.4c-9.3-37.2-33-47.3-34-47.7l0.6,0.2l19.8-46.6
				c5.2,1.8,51.2,19.9,66.9,83c3.4,13.5-5.9,26.9-20.6,29.9C226.9,297.9,224.9,298.1,222.9,298.1z"/>
		</g>
		<g>
			<path class="st3" d="M224.1,290c-8.3,0-15.8-5.2-17.7-13c-10.6-42.7-44.2-57.5-44.5-57.7c-9.2-3.8-13.3-13.6-9.2-22
				s14.9-12.1,24.1-8.4c2.1,0.8,50.3,21.2,65.1,80.7c2.2,9-3.9,17.9-13.7,19.9C226.8,289.8,225.4,290,224.1,290z"/>
		</g>
		<g>
			<path class="st2" d="M40.3,298.9c-2,0-4.1-0.2-6.1-0.6c-14.7-3.1-23.9-16.5-20.6-29.9c15.7-63.1,65.7-84.8,70.8-86.6l19.8,46.6
				c-1.2,1.1-2.3,2.2-3.3,3.4c-1,0.4-24.8,10.5-34,47.7C64,291.1,52.7,298.9,40.3,298.9z"/>
		</g>
		<g>
			<path class="st3" d="M39.1,290.9c-1.4,0-2.7-0.1-4.1-0.4c-9.8-2-16-11-13.7-19.9c14.8-59.4,64.9-80.6,66.9-81.5l20.3,26.9
				l0.3,0.3c-1.4,0.6-41.4,19.1-52,61.7C54.9,285.6,47.4,290.9,39.1,290.9z"/>
		</g>
		<g id="peito">
			<g>
				<path class="st3" d="M203.5,303.8c0,0,7.6-93.6-43.8-120.2l-56.4,2.2c-45.1,15.9-42.6,118.1-42.6,118.1L203.5,303.8z"/>
			</g>
		</g>
		<g>
			<path class="st2" d="M69,246.8c-1.7-1-3.9-0.4-4.9,1.3c-0.2,0.3-0.3,0.6-0.4,0.9c-2.8,10.7-5.1,25.2-5.1,44
				c0.1,1.9,1.7,3.4,3.6,3.3l0,0c1.9,0.1,3.6-1.4,3.6-3.3c0-18,2.2-32,4.9-42.2C71.1,249.3,70.5,247.6,69,246.8L69,246.8z"/>
		</g>
		<g>
			<path class="st2" d="M197.2,246.8c-1.5,0.8-2.2,2.5-1.8,4.1c2.6,10.1,4.8,24.1,4.9,42.1c0.1,1.9,1.7,3.4,3.6,3.3l0,0
				c1.9,0.1,3.6-1.4,3.6-3.3c0-18.8-2.3-33.3-5.1-44c-0.5-1.9-2.5-3.1-4.4-2.6C197.8,246.5,197.5,246.6,197.2,246.8L197.2,246.8z"/>
		</g>
		<g class="st4">
			<path class="st5" d="M129.1,302.6c12.3-0.5,24-2.7,31.6-13.2c10.1-14,11.2-30.7,8.2-47.2c-0.5-2.9,1.2-4.9,4-5.2
				c17.2-2.1,34.9-3.4,52.2-1.4l2.9,0.4c-20-33.6-49.7-46.1-51.3-46.8c-3.2-1.3-6.7-1.7-10.1-1.3c-2.2-1.6-4.5-3-6.9-4.2l-56.4,2.2
				c-4.5,1.6-8.6,4-12.1,7.2l-3-3.9c-1.5,0.6-28.7,12.1-49,41.6c6,5.2,14.8,5.8,23,5.5c10.7-0.3,21.4-2.3,32-0.6
				c2.2,0.6,3.5,2.9,2.9,5.1c-7.1,17.6-4.8,36.9,9.2,50.4c6.1,5.8,13.6,9.9,21.7,11.9C128.4,302.7,128.7,302.7,129.1,302.6z"/>
		</g>
	</g>
</g>
<g>
	<polygon class="st6" points="216,30.6 194.7,30.6 189.9,47.8 178,30.6 134.5,30.6 131.7,42.6 128.2,30.6 77.5,30.6 71.1,42.6 
		62.9,30.6 45.4,30.6 45.4,143.7 216,143.7 	"/>
</g>
<g>
	<path class="st7" d="M218.2,28.8l-24.6-1.7l-4,11.9l-8.9-10.3L74.6,28.7L70.2,34l-5.6-5.2H44.1v22.3h31.2c3.1,0,5.7,2.5,5.8,5.6
		v13.5c0,5,3.7,9.3,8.6,10c5.4,0.8,10.4-3,11.2-8.4c0.1-0.4,0.1-0.8,0.1-1.2V56.7c0-3.1,2.6-5.6,5.7-5.6c0,0,0,0,0,0h20.2
		c3.8-0.1,6.9,3,7,6.8c0,0,0,0,0,0v12.2c0,5,3.7,9.3,8.6,10c5.4,0.8,10.4-3,11.2-8.4c0.1-0.4,0.1-0.8,0.1-1.2V57.4
		c0.1-3.5,2.9-6.3,6.4-6.3h5.3c3.9-0.1,7.1,3.1,7.2,7c0,0,0,0,0,0v6.1c0.1,3.2,2.7,5.8,5.9,5.7c3-0.1,5.5-2.5,5.7-5.5v-6.3
		c0-3.9,3.2-7,7.2-7c0,0,0,0,0,0h26.6L218.2,28.8z"/>
</g>
<g>
	<path class="st2" d="M216,30.6v113.1H45.4V30.6h17.5l8.2,12l6.5-12h50.6l3.5,12l2.8-12H178l12,17.2l4.7-17.2H216 M224,22.6h-35.4
		l-1.6,5.9l-0.2,0.7l-2.2-3.2l-2.4-3.4H72.8l-2.3,4.2l-0.2,0.4l-0.8-1.1l-2.4-3.5H37.4v129.1H224V22.6z"/>
</g>
<g>
	<path class="st8" d="M130.4,289.3c-6,0-11.4-3.1-16-9.2c-6-7.9-7.4-15.9-5.1-29.6l4.2-29.7H59c-12.9,0-23.4-10.3-23.4-22.9v-53.9
		h190.4v53.9c0,12.6-10.5,22.9-23.4,22.9h-54.4l5.2,29.6c2.1,10.5,1.3,24.5-7.6,32.3C140.7,287,135.4,289.3,130.4,289.3z"/>
</g>
<g>
	<path class="st2" d="M221.9,147.9v49.9c0,10.4-8.7,18.9-19.4,18.9h-59.2l6,34.3c2.1,10.2,0.8,22.3-6.3,28.5
		c-3.2,2.8-7.6,5.7-12.6,5.7c-4.1,0-8.6-2-12.9-7.6c-4.7-6.2-6.7-12.5-4.3-26.6l4.9-34.3H59c-10.7,0-19.4-8.5-19.4-18.9v-49.9H221.9
		 M229.9,139.9H31.5v57.9c0,14.8,12.3,26.9,27.4,26.9h50l-3.6,25.1c-2.5,14.7-0.8,23.9,5.9,32.7s14.2,10.8,19.2,10.8
		c6,0,12.2-2.6,17.9-7.7c10.1-9,11.2-24.5,8.9-36l-4.3-24.9h49.7c15.1,0,27.4-12.1,27.4-26.9L229.9,139.9L229.9,139.9z"/>
</g>
<g>
	<path class="st9" d="M158.6,148.3h56.2c1.2,3.7,1.6,7.6,1.1,11.4c-1.7,15.7-16.2,27.1-32.4,25.4s-27.9-15.8-26.2-31.5
		C157.6,151.8,158,150,158.6,148.3z"/>
</g>
<g>
	<path class="st9" d="M99.8,148.3H43.5c-1.2,3.7-1.6,7.6-1.2,11.4c1.7,15.7,16.2,27.1,32.4,25.4s27.9-15.8,26.2-31.5
		C100.8,151.8,100.4,150,99.8,148.3z"/>
</g>
<g>
	<ellipse class="st10" cx="184.3" cy="149.7" rx="26.1" ry="25.4"/>
	<path class="st2" d="M184.3,178.1c-16.1,0-29.1-12.7-29.1-28.4c0-15.7,13.1-28.4,29.1-28.4s29.2,12.7,29.2,28.4
		C213.5,165.3,200.4,178.1,184.3,178.1z M184.3,127.2c-12.8,0-23.1,10.1-23.1,22.4c0,12.4,10.4,22.4,23.1,22.4
		c12.8,0,23.2-10.1,23.2-22.4C207.5,137.3,197.1,127.2,184.3,127.2z"/>
</g>
<g>
	<ellipse class="st10" cx="75.3" cy="149.2" rx="26.2" ry="25.4"/>
	<path class="st2" d="M75.3,177.6c-16.1,0-29.1-12.7-29.1-28.4c0-15.7,13.1-28.4,29.1-28.4c16.1,0,29.2,12.7,29.2,28.4
		C104.5,164.9,91.4,177.6,75.3,177.6z M75.3,126.8c-12.8,0-23.1,10.1-23.1,22.4c0,12.4,10.4,22.4,23.1,22.4s23.2-10.1,23.2-22.4
		C98.5,136.8,88.1,126.8,75.3,126.8z"/>
</g>
<g id="olho">
	<g>
		<path class="st2" d="M59.5,150.4c1,8.4,8.6,14.3,16.9,13.4c8.3-0.7,14.5-8,13.8-16.4c0,0,0-0.1,0-0.1c-1-8.4-8.6-14.3-16.9-13.4
			C65,134.6,58.8,141.9,59.5,150.4C59.5,150.3,59.5,150.3,59.5,150.4z"/>
	</g>
</g>
<g id="olho-2">
	<g>
		<path class="st2" d="M168.9,150.6c1,8.3,8.6,14.3,16.9,13.4c8.3-0.7,14.5-8,13.8-16.4c0,0,0-0.1,0-0.1c-1-8.4-8.6-14.3-16.9-13.4
			c-8.3,0.7-14.5,8-13.8,16.3C168.9,150.5,168.9,150.6,168.9,150.6z"/>
	</g>
</g>
<g>
	<path class="st2" d="M155.2,125.2l54.5-15.4c2.4-0.6,3.8-3.1,3.2-5.4l-3-11.5c-0.7-2.5-3.3-3.9-5.7-3.2c0,0,0,0-0.1,0l-54.5,15.4
		c-2.4,0.6-3.8,3.1-3.2,5.4l3,11.5C150.1,124.5,152.7,126,155.2,125.2C155.2,125.3,155.2,125.3,155.2,125.2z"/>
</g>
<g>
	<path class="st2" d="M106.8,125.2l-54.5-15.4c-2.4-0.6-3.8-3.1-3.2-5.4l3-11.5c0.7-2.5,3.2-3.9,5.7-3.3c0.1,0,0.1,0,0.2,0
		l54.5,15.4c2.4,0.6,3.8,3.1,3.2,5.4l-3,11.5c-0.7,2.5-3.3,3.9-5.7,3.3C106.9,125.3,106.9,125.3,106.8,125.2z"/>
</g>
<g>
	<path class="st10" d="M155.3,193.7c1.7-1.3,3.1-2.8,4.1-4.6c2.9-4.9,2.5-11-0.9-15.5c-1.2-1.6-2.8-2.8-4.6-3.5
		c-2.6-0.8-5.4-0.2-7.9,0.8s-10.8,4.3-17.4,4.3s-14.2-3.3-16.7-4.3s-5.3-1.6-7.9-0.8c-1.9,0.7-3.5,1.9-4.6,3.5
		c-3.4,4.5-3.7,10.6-0.9,15.5c1.1,1.8,2.5,3.3,4.1,4.6c10.8,8.7,26.5,8.6,26.5,8.6C138.5,202.3,147.7,199.3,155.3,193.7z"/>
</g>
<g>
	<path class="st2" d="M129.1,205.4c-0.8,0-16.9-0.1-28.4-9.3c-1.9-1.5-3.5-3.3-4.8-5.4c-3.5-6-3.1-13.4,1-18.9
		c1.5-2.1,3.6-3.6,6-4.5c3-1,6.3-0.7,10,0.8l0.5,0.2c2.8,1.2,9.4,3.8,15,3.8c2.8,0,7.9-0.7,16.3-4.1c3.7-1.5,7.1-1.8,9.9-0.8
		c2.5,0.9,4.6,2.5,6.1,4.6c4.1,5.5,4.5,12.8,1,18.8c-1.3,2.1-2.9,4-4.9,5.5l-0.1,0C148.9,202.1,139.3,205.3,129.1,205.4
		C129.1,205.4,129.1,205.4,129.1,205.4z M106.6,172.7c-0.6,0-1.2,0.1-1.7,0.2c-1.2,0.4-2.3,1.3-3.1,2.4c-2.7,3.6-3,8.4-0.7,12.2
		c0.9,1.4,2,2.7,3.4,3.8c9.8,7.9,24.5,8,24.6,8c8.8-0.1,17.2-2.8,24.3-8c1.4-1,2.5-2.3,3.4-3.8c2.2-3.8,2-8.6-0.7-12.1
		c-0.8-1.2-1.9-2-3.2-2.5c-1.4-0.5-3.4-0.2-5.8,0.7c-7.5,3-13.7,4.5-18.5,4.5c-6.8,0-14.1-3-17.3-4.3l-0.5-0.2
		C109.2,173,107.8,172.7,106.6,172.7z"/>
</g>
<g>
	<rect x="107" y="169" class="st2" width="6" height="27"/>
</g>
<g>
	<rect x="119.3" y="172.4" class="st2" width="6" height="27"/>
</g>
<g>
	<rect x="133.7" y="174" class="st2" width="6" height="27"/>
</g>
<g>
	<rect x="146.1" y="172.4" class="st2" width="6" height="27"/>
</g>
</svg>
