<svg width="64" height="67" viewBox="0 0 64 67" fill="none" xmlns="http://www.w3.org/2000/svg">
<g filter="url(#filter0_d_124_16)">
<mask id="path-1-outside-1_124_16" maskUnits="userSpaceOnUse" x="1" y="1" width="63" height="62" fill="black">
<rect fill="white" x="1" y="1" width="63" height="62"/>
<path fill-rule="evenodd" clip-rule="evenodd" d="M17.1924 7.29289C16.8019 6.90237 16.1687 6.90237 15.7782 7.29289L7.29289 15.7782C6.90237 16.1687 6.90237 16.8019 7.29289 17.1924L22.4351 32.3346L8.58594 46.1839C8.19542 46.5744 8.19542 47.2075 8.58594 47.5981L17.0712 56.0833C17.4617 56.4739 18.0949 56.4739 18.4854 56.0834L32.3346 42.2341L46.1838 56.0833C46.5743 56.4738 47.2075 56.4738 47.598 56.0833L56.0833 47.598C56.4738 47.2075 56.4738 46.5743 56.0833 46.1838L42.2341 32.3346L57.3763 17.1925C57.7668 16.802 57.7668 16.1688 57.3763 15.7783L48.891 7.29298C48.5005 6.90246 47.8673 6.90246 47.4768 7.29298L32.3346 22.4352L17.1924 7.29289Z"/>
</mask>
<path fill-rule="evenodd" clip-rule="evenodd" d="M17.1924 7.29289C16.8019 6.90237 16.1687 6.90237 15.7782 7.29289L7.29289 15.7782C6.90237 16.1687 6.90237 16.8019 7.29289 17.1924L22.4351 32.3346L8.58594 46.1839C8.19542 46.5744 8.19542 47.2075 8.58594 47.5981L17.0712 56.0833C17.4617 56.4739 18.0949 56.4739 18.4854 56.0834L32.3346 42.2341L46.1838 56.0833C46.5743 56.4738 47.2075 56.4738 47.598 56.0833L56.0833 47.598C56.4738 47.2075 56.4738 46.5743 56.0833 46.1838L42.2341 32.3346L57.3763 17.1925C57.7668 16.802 57.7668 16.1688 57.3763 15.7783L48.891 7.29298C48.5005 6.90246 47.8673 6.90246 47.4768 7.29298L32.3346 22.4352L17.1924 7.29289Z" fill="white"/>
<path d="M15.7782 7.29289L20.0208 11.5355L20.0208 11.5355L15.7782 7.29289ZM17.1924 7.29289L12.9497 11.5355L12.9497 11.5355L17.1924 7.29289ZM7.29289 15.7782L11.5355 20.0208L11.5355 20.0208L7.29289 15.7782ZM7.29289 17.1924L11.5355 12.9497L11.5355 12.9497L7.29289 17.1924ZM22.4351 32.3346L26.6778 36.5773L30.9204 32.3346L26.6778 28.092L22.4351 32.3346ZM8.58594 46.1839L4.3433 41.9412L4.34329 41.9412L8.58594 46.1839ZM8.58594 47.5981L4.34329 51.8407L4.3433 51.8407L8.58594 47.5981ZM17.0712 56.0833L21.3139 51.8407L21.3139 51.8407L17.0712 56.0833ZM18.4854 56.0834L22.7281 60.326L22.7281 60.326L18.4854 56.0834ZM32.3346 42.2341L36.5773 37.9915L32.3346 33.7489L28.092 37.9915L32.3346 42.2341ZM46.1838 56.0833L41.9411 60.3259L41.9411 60.3259L46.1838 56.0833ZM56.0833 47.598L60.3259 51.8406L60.3259 51.8406L56.0833 47.598ZM56.0833 46.1838L60.3259 41.9411L60.3259 41.9411L56.0833 46.1838ZM42.2341 32.3346L37.9915 28.092L33.7489 32.3346L37.9915 36.5773L42.2341 32.3346ZM57.3763 17.1925L61.619 21.4351L61.619 21.4351L57.3763 17.1925ZM57.3763 15.7783L61.619 11.5356L61.619 11.5356L57.3763 15.7783ZM48.891 7.29298L44.6484 11.5356L44.6484 11.5356L48.891 7.29298ZM47.4768 7.29298L51.7195 11.5356L51.7195 11.5356L47.4768 7.29298ZM32.3346 22.4352L28.092 26.6778L32.3346 30.9204L36.5773 26.6778L32.3346 22.4352ZM20.0208 11.5355C18.0682 13.4882 14.9024 13.4882 12.9497 11.5355L21.435 3.05025C18.7014 0.31658 14.2692 0.316583 11.5355 3.05025L20.0208 11.5355ZM11.5355 20.0208L20.0208 11.5355L11.5355 3.05025L3.05025 11.5355L11.5355 20.0208ZM11.5355 12.9497C13.4882 14.9024 13.4882 18.0682 11.5355 20.0208L3.05026 11.5355C0.316585 14.2692 0.316578 18.7014 3.05025 21.435L11.5355 12.9497ZM26.6778 28.092L11.5355 12.9497L3.05025 21.435L18.1925 36.5773L26.6778 28.092ZM12.8286 50.4265L26.6778 36.5773L18.1925 28.092L4.3433 41.9412L12.8286 50.4265ZM12.8286 43.3554C14.7812 45.3081 14.7812 48.4739 12.8286 50.4265L4.34329 41.9412C1.60963 44.6749 1.60964 49.107 4.34329 51.8407L12.8286 43.3554ZM21.3139 51.8407L12.8286 43.3554L4.3433 51.8407L12.8286 60.326L21.3139 51.8407ZM14.2428 51.8407C16.1954 49.8881 19.3613 49.8881 21.3139 51.8407L12.8286 60.326C15.5622 63.0597 19.9944 63.0597 22.7281 60.326L14.2428 51.8407ZM28.092 37.9915L14.2428 51.8407L22.7281 60.326L36.5773 46.4768L28.092 37.9915ZM50.4264 51.8406L36.5773 37.9915L28.092 46.4768L41.9411 60.3259L50.4264 51.8406ZM43.3553 51.8406C45.308 49.888 48.4738 49.888 50.4264 51.8406L41.9411 60.3259C44.6748 63.0596 49.1069 63.0596 51.8406 60.3259L43.3553 51.8406ZM51.8406 43.3553L43.3553 51.8406L51.8406 60.3259L60.3259 51.8406L51.8406 43.3553ZM51.8406 50.4264C49.888 48.4738 49.888 45.308 51.8406 43.3554L60.3259 51.8406C63.0596 49.1069 63.0596 44.6748 60.3259 41.9411L51.8406 50.4264ZM37.9915 36.5773L51.8406 50.4264L60.3259 41.9411L46.4768 28.092L37.9915 36.5773ZM53.1337 12.9498L37.9915 28.092L46.4768 36.5773L61.619 21.4351L53.1337 12.9498ZM53.1337 20.0209C51.1811 18.0683 51.181 14.9025 53.1337 12.9498L61.619 21.4351C64.3526 18.7014 64.3526 14.2693 61.619 11.5356L53.1337 20.0209ZM44.6484 11.5356L53.1337 20.0209L61.619 11.5356L53.1337 3.05034L44.6484 11.5356ZM51.7195 11.5356C49.7668 13.4882 46.601 13.4882 44.6484 11.5356L53.1337 3.05035C50.4 0.316669 45.9678 0.316662 43.2342 3.05035L51.7195 11.5356ZM36.5773 26.6778L51.7195 11.5356L43.2342 3.05034L28.092 18.1925L36.5773 26.6778ZM12.9497 11.5355L28.092 26.6778L36.5773 18.1925L21.435 3.05025L12.9497 11.5355Z" fill="black" mask="url(#path-1-outside-1_124_16)"/>
</g>
<defs>
<filter id="filter0_d_124_16" x="1" y="1" width="62.6689" height="65.3762" filterUnits="userSpaceOnUse" color-interpolation-filters="sRGB">
<feFlood flood-opacity="0" result="BackgroundImageFix"/>
<feColorMatrix in="SourceAlpha" type="matrix" values="0 0 0 0 0 0 0 0 0 0 0 0 0 0 0 0 0 0 127 0" result="hardAlpha"/>
<feOffset dy="4"/>
<feComposite in2="hardAlpha" operator="out"/>
<feColorMatrix type="matrix" values="0 0 0 0 0 0 0 0 0 0 0 0 0 0 0 0 0 0 1 0"/>
<feBlend mode="normal" in2="BackgroundImageFix" result="effect1_dropShadow_124_16"/>
<feBlend mode="normal" in="SourceGraphic" in2="effect1_dropShadow_124_16" result="shape"/>
</filter>
</defs>
</svg>
