<svg width="18" height="18" viewBox="0 0 18 18" fill="none" xmlns="http://www.w3.org/2000/svg">
<path d="M14.0805 1.20569L14.0797 1.20607C12.9235 1.73395 12.1403 1.87973 11.5473 1.87973C10.9149 1.87973 10.4159 1.71969 9.72908 1.49944L9.70548 1.49187C9.01276 1.26974 8.17624 1.00845 7.06585 1.00829H7.0656C6.27672 1.00837 5.37505 1.15569 4.33265 1.47435L4.1752 1.52249C3.83842 1.19871 3.38047 1 2.875 1C1.83736 1 1 1.83736 1 2.875V15.5625C1 16.3574 1.64799 17 2.4375 17H3.3125C4.10201 17 4.75 16.3574 4.75 15.5625V13.0232L4.92284 12.9693C5.71336 12.7226 6.37486 12.6291 6.94512 12.6291C7.81017 12.6291 8.55023 12.8132 9.41311 13.0327L9.44768 13.0415C10.2849 13.2545 11.2421 13.4981 12.3756 13.4981C13.3794 13.4981 14.4882 13.309 15.7714 12.8005C16.4981 12.5289 17 11.8633 17 11.0809V2.84027C17 2.25738 16.7392 1.76349 16.3306 1.43733C15.9436 1.12842 15.4676 1 15.0238 1C14.7096 1 14.3863 1.06643 14.0805 1.20569Z" fill="white" stroke="black" stroke-width="2"/>
</svg>
