<svg width="21" height="21" viewBox="0 0 21 21" fill="none" xmlns="http://www.w3.org/2000/svg">
<path d="M12.6892 4.45323H2.79688C1.83095 4.45323 1 5.23027 1 6.22022C1 7.11374 1.73671 8.04698 2.79688 8.04698H12.6892L12.6864 9.7016V9.70324C12.6864 10.4182 13.1105 11.0651 13.7654 11.3505C14.4195 11.6354 15.1825 11.5067 15.7063 11.0202C15.7064 11.0202 15.7064 11.0201 15.7065 11.0201L19.4251 7.56707L19.4254 7.56672C20.1903 6.85571 20.1903 5.64443 19.4254 4.93342L19.4251 4.93307L15.7065 1.48011C15.7064 1.48005 15.7064 1.47999 15.7063 1.47993C15.1828 0.993652 14.4199 0.864401 13.7654 1.14962C13.11 1.43523 12.6864 2.08244 12.6864 2.79683L12.6864 2.79848L12.6892 4.45323ZM8.3125 18.2016L8.30977 16.547H18.2031C19.1954 16.547 20 15.7424 20 14.7501C20 13.7593 19.1984 12.9533 18.2031 12.9533H8.31042L8.3125 11.2684V11.2671C8.3125 10.5522 7.88847 9.90528 7.2335 9.61989C6.51199 9.30551 5.76049 9.54662 5.29396 9.97983L1.57521 13.433L1.57483 13.4333C0.809941 14.1443 0.809941 15.3556 1.57483 16.0666L1.57521 16.067L5.29376 19.5199C5.29383 19.52 5.2939 19.5201 5.29396 19.5201C5.81764 20.0065 6.5805 20.1355 7.23486 19.8504C7.89363 19.5633 8.3125 18.9127 8.3125 18.2033L8.3125 18.2016Z" fill="white" stroke="black" stroke-width="2"/>
</svg>
