<svg width="20" height="21" viewBox="0 0 20 21" fill="none" xmlns="http://www.w3.org/2000/svg">
<path d="M15.7545 2.56131L15.7545 2.5613C16.9564 1.35336 19 2.21675 19 3.90543V8.78871C19 9.6837 18.2873 10.4022 17.4056 10.4277L17.3912 10.4282H17.3767H12.48H12.4672L12.4545 10.4278C10.7991 10.3856 9.9839 8.3887 11.111 7.20004L11.1229 7.18754L11.1352 7.17545L11.7675 6.55302C11.2271 6.28872 10.6275 6.14282 10 6.14282C8.21575 6.14282 6.6499 7.28387 6.10193 8.9932L6.10131 8.99514C5.75265 10.0752 4.59667 10.6862 3.4968 10.3282C2.40815 9.97546 1.81891 8.80544 2.16731 7.72272L15.7545 2.56131ZM15.7545 2.56131L14.774 3.54668M15.7545 2.56131L14.774 3.54668M14.774 3.54668C13.419 2.57075 11.7683 2.00016 10 2.00016C6.41376 2.00016 3.26695 4.30243 2.16749 7.72215L14.774 3.54668ZM13.898 12.0075L13.8978 12.0082C13.3503 13.7148 11.7845 14.8562 10 14.8562C9.36802 14.8562 8.76435 14.7082 8.22087 14.4403L8.83989 13.8185C8.84026 13.8182 8.84064 13.8178 8.84101 13.8174C10.0306 12.6279 9.20211 10.6135 7.54553 10.5712L7.53277 10.5708H7.52H2.622H2.60743L2.59287 10.5712C1.71278 10.5969 1 11.3159 1 12.2103V17.0949C1 18.7827 3.04214 19.647 4.24452 18.4387L4.24453 18.4387L5.22544 17.4529C6.57883 18.427 8.22503 18.9988 9.97 18.9988C13.5473 18.9988 16.6901 16.7059 17.7952 13.2974C18.1827 12.2295 17.6173 10.9871 16.4771 10.6653C15.3908 10.3287 14.2446 10.93 13.898 12.0075Z" fill="white" stroke="black" stroke-width="2"/>
</svg>
