<svg width="400" height="475" viewBox="0 0 400 475" fill="none" xmlns="http://www.w3.org/2000/svg">
<g filter="url(#filter0_d_22_3431)">
<mask id="path-1-outside-1_22_3431" maskUnits="userSpaceOnUse" x="87" y="88" width="227" height="49" fill="black">
<rect fill="white" x="87" y="88" width="227" height="49"/>
<path fill-rule="evenodd" clip-rule="evenodd" d="M200.5 131C259.871 131 308 122.717 308 112.5C308 102.283 259.871 94 200.5 94C141.129 94 93 102.283 93 112.5C93 122.717 141.129 131 200.5 131ZM199.943 125.604C244.24 125.604 280.15 120.772 280.15 114.812C280.15 108.852 244.24 104.021 199.943 104.021C155.645 104.021 119.735 108.852 119.735 114.812C119.735 120.772 155.645 125.604 199.943 125.604Z"/>
</mask>
<path fill-rule="evenodd" clip-rule="evenodd" d="M200.5 131C259.871 131 308 122.717 308 112.5C308 102.283 259.871 94 200.5 94C141.129 94 93 102.283 93 112.5C93 122.717 141.129 131 200.5 131ZM199.943 125.604C244.24 125.604 280.15 120.772 280.15 114.812C280.15 108.852 244.24 104.021 199.943 104.021C155.645 104.021 119.735 108.852 119.735 114.812C119.735 120.772 155.645 125.604 199.943 125.604Z" fill="#FFFF00"/>
<path d="M302 112.5C302 111.238 302.756 110.962 301.954 111.636C301.207 112.265 299.744 113.145 297.291 114.143C292.439 116.118 285.058 118.023 275.496 119.668C256.471 122.943 229.952 125 200.5 125V137C230.418 137 257.65 134.916 277.532 131.495C287.424 129.792 295.786 127.711 301.813 125.259C304.8 124.044 307.561 122.6 309.678 120.82C311.74 119.086 314 116.316 314 112.5H302ZM200.5 100C229.952 100 256.471 102.057 275.496 105.332C285.058 106.977 292.439 108.882 297.291 110.857C299.744 111.855 301.207 112.735 301.954 113.364C302.756 114.038 302 113.762 302 112.5H314C314 108.684 311.74 105.914 309.678 104.18C307.561 102.4 304.8 100.956 301.813 99.7414C295.786 97.2889 287.424 95.2078 277.532 93.5054C257.65 90.0839 230.418 88 200.5 88V100ZM99 112.5C99 113.762 98.2443 114.038 99.0459 113.364C99.7935 112.735 101.256 111.855 103.709 110.857C108.561 108.882 115.942 106.977 125.504 105.332C144.529 102.057 171.048 100 200.5 100V88C170.582 88 143.35 90.0839 123.468 93.5054C113.576 95.2078 105.214 97.2889 99.1866 99.7414C96.2004 100.956 93.4385 102.4 91.3222 104.18C89.2597 105.914 87 108.684 87 112.5H99ZM200.5 125C171.048 125 144.529 122.943 125.504 119.668C115.942 118.023 108.561 116.118 103.709 114.143C101.256 113.145 99.7935 112.265 99.0459 111.636C98.2443 110.962 99 111.238 99 112.5H87C87 116.316 89.2597 119.086 91.3222 120.82C93.4385 122.6 96.2004 124.044 99.1866 125.259C105.214 127.711 113.576 129.792 123.468 131.495C143.35 134.916 170.582 137 200.5 137V125ZM274.15 114.812C274.15 112.356 275.917 111.518 275.224 111.974C274.827 112.234 273.853 112.714 272.028 113.295C268.461 114.43 262.989 115.537 255.858 116.497C241.682 118.404 221.91 119.604 199.943 119.604V131.604C222.272 131.604 242.604 130.388 257.458 128.389C264.841 127.396 271.115 126.178 275.666 124.73C277.899 124.02 280.076 123.145 281.817 122C283.261 121.051 286.15 118.759 286.15 114.812H274.15ZM199.943 110.021C221.91 110.021 241.682 111.22 255.858 113.128C262.989 114.087 268.461 115.195 272.028 116.329C273.853 116.91 274.827 117.39 275.224 117.651C275.917 118.106 274.15 117.269 274.15 114.812H286.15C286.15 110.866 283.261 108.573 281.817 107.624C280.076 106.48 277.899 105.604 275.666 104.894C271.115 103.446 264.841 102.228 257.458 101.235C242.604 99.2364 222.272 98.0205 199.943 98.0205V110.021ZM125.735 114.812C125.735 117.269 123.968 118.106 124.661 117.651C125.058 117.39 126.032 116.91 127.857 116.329C131.424 115.195 136.896 114.087 144.028 113.128C158.203 111.22 177.975 110.021 199.943 110.021V98.0205C177.613 98.0205 157.281 99.2364 142.427 101.235C135.045 102.228 128.771 103.446 124.22 104.894C121.986 105.604 119.809 106.48 118.069 107.624C116.625 108.573 113.735 110.866 113.735 114.812H125.735ZM199.943 119.604C177.975 119.604 158.203 118.404 144.028 116.497C136.896 115.537 131.424 114.43 127.857 113.295C126.032 112.714 125.058 112.234 124.661 111.974C123.968 111.518 125.735 112.356 125.735 114.812H113.735C113.735 118.759 116.625 121.051 118.069 122C119.809 123.145 121.986 124.02 124.22 124.73C128.771 126.178 135.045 127.396 142.427 128.389C157.281 130.388 177.613 131.604 199.943 131.604V119.604Z" fill="black" mask="url(#path-1-outside-1_22_3431)"/>
</g>
<defs>
<filter id="filter0_d_22_3431" x="87" y="88" width="227" height="53" filterUnits="userSpaceOnUse" color-interpolation-filters="sRGB">
<feFlood flood-opacity="0" result="BackgroundImageFix"/>
<feColorMatrix in="SourceAlpha" type="matrix" values="0 0 0 0 0 0 0 0 0 0 0 0 0 0 0 0 0 0 127 0" result="hardAlpha"/>
<feOffset dy="4"/>
<feComposite in2="hardAlpha" operator="out"/>
<feColorMatrix type="matrix" values="0 0 0 0 0 0 0 0 0 0 0 0 0 0 0 0 0 0 1 0"/>
<feBlend mode="normal" in2="BackgroundImageFix" result="effect1_dropShadow_22_3431"/>
<feBlend mode="normal" in="SourceGraphic" in2="effect1_dropShadow_22_3431" result="shape"/>
</filter>
</defs>
</svg>
