<svg width="400" height="475" viewBox="0 0 400 475" fill="none" xmlns="http://www.w3.org/2000/svg">
<mask id="path-1-outside-1_22_8073" maskUnits="userSpaceOnUse" x="64.1055" y="79.2534" width="97" height="79" fill="black">
<rect fill="white" x="64.1055" y="79.2534" width="97" height="79"/>
<path fill-rule="evenodd" clip-rule="evenodd" d="M151.203 152.014H74.1055L106.427 89.0564C109.03 83.9858 116.278 83.9857 118.881 89.0564L151.203 152.014Z"/>
</mask>
<path fill-rule="evenodd" clip-rule="evenodd" d="M151.203 152.014H74.1055L106.427 89.0564C109.03 83.9858 116.278 83.9857 118.881 89.0564L151.203 152.014Z" fill="white"/>
<path d="M151.203 152.014V158.014H161.028L156.541 149.274L151.203 152.014ZM74.1055 152.014L68.7678 149.274L64.2807 158.014H74.1055V152.014ZM106.427 89.0564L111.765 91.7967L106.427 89.0564ZM118.881 89.0564L124.219 86.3161L118.881 89.0564ZM151.203 146.014H74.1055V158.014H151.203V146.014ZM79.4432 154.754L111.765 91.7967L101.089 86.3161L68.7678 149.274L79.4432 154.754ZM111.765 91.7967C112.136 91.0723 113.172 91.0723 113.544 91.7967L124.219 86.3161C119.385 76.8992 105.924 76.8992 101.089 86.3161L111.765 91.7967ZM113.544 91.7967L145.865 154.754L156.541 149.274L124.219 86.3161L113.544 91.7967Z" fill="black" mask="url(#path-1-outside-1_22_8073)"/>
<path fill-rule="evenodd" clip-rule="evenodd" d="M144.391 152.014H80.9189C81.0265 151.706 81.1572 151.401 81.3122 151.099L106.427 102.178C109.031 97.1073 116.279 97.1073 118.882 102.178L143.997 151.099C144.152 151.401 144.283 151.706 144.391 152.014Z" fill="#FEC802"/>
<path fill-rule="evenodd" clip-rule="evenodd" d="M138.476 152.014H86.833C86.9176 151.175 87.1597 150.328 87.5805 149.508L106.427 112.798C109.03 107.727 116.278 107.727 118.882 112.798L137.728 149.508C138.149 150.328 138.391 151.175 138.476 152.014Z" fill="#DC503B"/>
<mask id="path-5-outside-2_22_8073" maskUnits="userSpaceOnUse" x="240.797" y="79.2529" width="97" height="79" fill="black">
<rect fill="white" x="240.797" y="79.2529" width="97" height="79"/>
<path fill-rule="evenodd" clip-rule="evenodd" d="M327.894 152.013H250.797L283.118 89.0559C285.721 83.9853 292.97 83.9853 295.573 89.0559L327.894 152.013Z"/>
</mask>
<path fill-rule="evenodd" clip-rule="evenodd" d="M327.894 152.013H250.797L283.118 89.0559C285.721 83.9853 292.97 83.9853 295.573 89.0559L327.894 152.013Z" fill="white"/>
<path d="M327.894 152.013V158.013H337.719L333.232 149.273L327.894 152.013ZM250.797 152.013L245.459 149.273L240.972 158.013H250.797V152.013ZM283.118 89.0559L288.456 91.7962L283.118 89.0559ZM295.573 89.0559L300.911 86.3156L295.573 89.0559ZM327.894 146.013H250.797V158.013H327.894V146.013ZM256.135 154.754L288.456 91.7962L277.781 86.3157L245.459 149.273L256.135 154.754ZM288.456 91.7962C288.828 91.0718 289.863 91.0718 290.235 91.7962L300.911 86.3156C296.076 76.8987 282.615 76.8987 277.781 86.3157L288.456 91.7962ZM290.235 91.7962L322.557 154.754L333.232 149.273L300.911 86.3156L290.235 91.7962Z" fill="black" mask="url(#path-5-outside-2_22_8073)"/>
<path fill-rule="evenodd" clip-rule="evenodd" d="M321.082 152.013H257.61C257.718 151.706 257.849 151.4 258.004 151.098L283.119 102.178C285.722 97.1068 292.97 97.1068 295.573 102.178L320.689 151.098C320.844 151.4 320.974 151.706 321.082 152.013Z" fill="#FEC802"/>
<path fill-rule="evenodd" clip-rule="evenodd" d="M315.167 152.014H263.524C263.609 151.175 263.851 150.328 264.272 149.508L283.118 112.798C285.722 107.727 292.97 107.727 295.573 112.798L314.419 149.508C314.84 150.328 315.082 151.175 315.167 152.014Z" fill="#DC503B"/>
</svg>
