<svg width="400" height="475" viewBox="0 0 400 475" fill="none" xmlns="http://www.w3.org/2000/svg">
<g clip-path="url(#clip0_27_3964)">
<path d="M374.725 266.02C374.637 264.571 373.994 263.257 373.257 262.165C372.497 261.039 371.469 259.901 370.266 258.763C367.86 256.486 364.471 253.944 360.322 251.205C352.002 245.712 340.248 239.181 326.209 232.092C298.108 217.902 260.567 201.335 222.345 186.183C184.128 171.033 145.146 157.263 114.167 148.688C98.6917 144.405 85.1116 141.39 74.5801 140.167C69.3217 139.557 64.7057 139.379 60.9385 139.757C57.2778 140.124 53.8971 141.062 51.6546 143.168C45.6318 148.822 40.344 154.045 36.3879 158.892C32.4734 163.688 29.5823 168.446 28.8012 173.179C27.9734 178.194 29.5755 182.769 33.6785 186.793C37.6289 190.667 43.9178 194.071 52.6688 197.26C58.9833 199.561 67.5535 202.42 77.501 205.737C81.2 206.971 85.0896 208.268 89.1243 209.624C104.048 214.639 121.041 220.48 138.007 226.947C154.979 233.417 171.879 240.498 186.625 247.983C201.413 255.49 213.845 263.311 222.021 271.207C239.443 288.032 274.385 306.778 305.426 319.373C320.99 325.689 335.774 330.54 347.104 332.845C352.74 333.991 357.718 334.55 361.581 334.255C365.159 333.982 369.196 332.842 370.58 329.103C373.569 321.031 374.918 310.759 375.377 299.875C375.838 288.947 375.408 277.181 374.725 266.02Z" fill="#383A53" stroke="black" stroke-width="6"/>
<path d="M70.8198 88.8316C62.9573 112.905 61.0563 118.726 70.8261 139.766C144.801 155.58 169.308 171.992 255.583 207.409L285.879 250.973L285.756 215.751L341.052 267.004L335.63 237.207L381.702 253.929L362.944 211.48L391.331 196.797C383.028 185.261 369.323 175.138 357.489 169.178L387.905 146.874C365.391 139.766 361.952 140.078 340.592 134.924L375.622 102.896C355.28 95.6666 333.438 92.3308 312.186 96.0843L324.222 41.9292C266.91 41.9107 234.266 44.7835 171.528 75.3383L166.594 42.4383C133.476 66.8393 115.945 81.0445 90.9897 109.618L70.8263 88.8115L70.8198 88.8316Z" fill="#CDD2D8"/>
<path d="M239.263 169.178L255.583 207.409M255.583 207.409L285.879 250.973L285.756 215.751L341.052 267.004L330.209 207.409L335.63 237.207L381.702 253.929L362.944 211.48L391.331 196.797C383.028 185.261 369.323 175.138 357.489 169.178L387.905 146.874C365.391 139.766 361.952 140.078 340.592 134.924L375.622 102.896C355.28 95.6666 333.438 92.3308 312.186 96.0843L324.222 41.9292C266.91 41.9107 234.266 44.7835 171.528 75.3383L166.594 42.4383C133.476 66.8393 115.945 81.0445 90.9897 109.618L70.8263 88.8115C62.9584 112.902 61.0536 118.72 70.8261 139.766C144.801 155.58 169.308 171.992 255.583 207.409Z" stroke="black" stroke-width="6"/>
<path d="M171.935 182.872L169.602 181.979L168.284 184.102C159.858 197.684 155.53 205.749 150.673 219.624L149.702 222.401L152.471 223.407C188.357 236.441 207.463 245.821 240.51 266.287L243.027 267.846L244.637 265.357C253.985 250.909 257.953 243 262.298 229.729L263.035 227.477L261.006 226.254C228.754 206.817 209.369 197.206 171.935 182.872Z" fill="#D9D9D9" stroke="black" stroke-width="6"/>
<ellipse cx="175.385" cy="191.506" rx="2.61938" ry="2.59546" fill="black"/>
<ellipse cx="165.308" cy="202.816" rx="2.61938" ry="2.59546" fill="black"/>
<ellipse cx="162.095" cy="216.416" rx="2.61938" ry="2.59546" fill="black"/>
<ellipse cx="239.571" cy="254.536" rx="2.61938" ry="2.59546" fill="black"/>
<ellipse cx="252.604" cy="229.024" rx="2.61938" ry="2.59546" fill="black"/>
<ellipse cx="249.984" cy="244.204" rx="2.61938" ry="2.59546" fill="black"/>
<path d="M228.662 219.774L219.043 222.351C219.043 222.351 214.794 212.18 207.781 212.776C200.768 213.372 197.794 218.081 197.955 223.231C198.803 227.899 200.134 229.991 205.13 232.095C209.581 232.199 212.115 231.373 213.216 227.134C213.967 224.591 213.216 223.231 211.483 221.724C209.749 220.216 203.968 220.297 205.85 224.815" stroke="black" stroke-width="3" stroke-linecap="round"/>
<path d="M198.784 218.268L195.241 220.227L191.615 222.269C188.893 224.201 190.419 224.634 192.521 225.535L198.784 227.331" stroke="black" stroke-width="3"/>
</g>
<defs>
<clipPath id="clip0_27_3964">
<rect width="400" height="475" fill="white"/>
</clipPath>
</defs>
</svg>
