<svg width="400" height="475" viewBox="0 0 400 475" fill="none" xmlns="http://www.w3.org/2000/svg">
<path fill-rule="evenodd" clip-rule="evenodd" d="M42 161.12H357V340.428L206.509 276.33C204.603 275.537 202.451 275.12 200.261 275.12C198.072 275.12 195.919 275.537 194.014 276.33L42 340.641V161.12Z" fill="#020101"/>
<path d="M257.385 270.34C261.952 266.511 265.054 261.219 266.163 255.363C267.271 249.507 266.319 243.448 263.468 238.214C264.097 237.81 264.556 237.19 264.759 236.47C264.962 235.75 264.895 234.981 264.569 234.308C264.244 233.634 263.683 233.104 262.993 232.816C262.302 232.528 261.531 232.502 260.823 232.745L213.984 249.529C213.643 249.65 213.326 249.832 213.05 250.065C212.496 250.466 212.096 251.045 211.917 251.704C211.737 252.364 211.787 253.065 212.06 253.692C212.334 254.319 212.813 254.834 213.418 255.151C214.024 255.468 214.72 255.569 215.391 255.437C216.197 259.793 218.149 263.854 221.048 267.204C225.455 272.431 231.756 275.698 238.568 276.286C245.38 276.874 252.147 274.735 257.385 270.34Z" fill="#FFF7EA"/>
<path d="M134.738 234.577C134.483 235.233 134.467 235.958 134.693 236.625C134.919 237.291 135.372 237.858 135.973 238.224C132.91 243.843 132.043 250.399 133.54 256.622C135.037 262.844 138.792 268.288 144.076 271.899C149.359 275.51 155.796 277.03 162.137 276.164C168.477 275.298 174.271 272.108 178.393 267.213C181.291 263.86 183.246 259.797 184.056 255.439C184.707 255.513 185.364 255.376 185.931 255.048C186.498 254.721 186.945 254.22 187.206 253.62C187.467 253.019 187.529 252.351 187.382 251.713C187.236 251.075 186.888 250.501 186.391 250.075C186.114 249.841 185.798 249.66 185.457 249.539L138.617 232.754C137.861 232.487 137.03 232.528 136.304 232.869C135.577 233.211 135.015 233.824 134.738 234.577Z" fill="#FFF7EA"/>
<path d="M349.97 155.95C349.81 155.51 349.64 155.1 349.47 154.72C348.563 152.354 347.04 144.57 344.9 131.37C342.827 118.737 341.204 111.28 340.03 109L331.15 113.87L312.8 148.6C262.463 140.42 138.016 140.42 87.6797 148.6L69.3301 113.87L60.4502 109C59.2702 111.28 57.6529 118.737 55.5996 131.37C53.4529 144.57 51.92 152.354 51 154.72C50.8333 155.1 50.6738 155.51 50.5205 155.95C49.8105 157.8 49.1505 159.67 48.5205 161.57C47.3205 164.903 46.2033 168.163 45.1699 171.35C42.158 180.69 39.7629 190.217 38 199.87L61.7305 204.92C64.5105 205.467 67.3335 205.96 70.2002 206.4L74.5 176.92L75.1406 178.87C75.3089 179.353 75.442 179.848 75.54 180.35L80.6904 194.45C83.1504 200.703 85.7605 206.677 88.5205 212.37L92.4199 220.12C93.5699 219.9 94.7705 219.69 96.0205 219.47C100.421 218.543 105.12 217.427 110.12 216.12C113.54 215.253 154.634 214.33 158.061 213.35C162.781 212.05 167.447 210.667 172.061 209.2L179.89 206.6C180.253 206.432 180.627 206.288 181.01 206.17C181.29 206.07 181.57 205.99 181.83 205.92C186.017 204.447 190.017 202.957 193.83 201.45C195.2 200.91 196.53 200.37 197.83 199.82C198.6 199.49 199.351 199.19 200.101 198.92C200.447 198.753 200.808 198.619 201.18 198.52C201.4 198.4 201.61 198.3 201.83 198.2C201.883 198.217 201.933 198.241 201.98 198.27C202.029 198.237 202.082 198.213 202.14 198.2C202.37 198.3 202.591 198.4 202.811 198.52C203.157 198.618 203.492 198.752 203.811 198.92C204.581 199.19 205.35 199.49 206.09 199.82C207.4 200.37 208.73 200.91 210.09 201.45C213.883 202.963 217.883 204.453 222.09 205.92C222.371 205.988 222.648 206.072 222.92 206.17C223.307 206.292 223.689 206.436 224.061 206.6L231.89 209.2C236.51 210.66 276.627 212.043 281.34 213.35C284.78 214.33 288.207 215.253 291.62 216.12C296.62 217.453 301.317 218.57 305.71 219.47C306.96 219.69 308.17 219.9 309.32 220.12L313.21 212.37C316.003 206.67 318.613 200.697 321.04 194.45L326.19 180.35C326.288 179.848 326.422 179.353 326.59 178.87L327.24 176.92L330.29 206.4C333.18 205.96 336.001 205.47 338.771 204.92L362.5 199.87C360.738 190.215 358.34 180.688 355.32 171.35C354.3 168.15 353.183 164.89 351.97 161.57C351.34 159.67 350.68 157.8 349.97 155.95Z" fill="#020101" stroke="black" stroke-width="6" stroke-linecap="round" stroke-linejoin="round"/>
</svg>
