<svg width="400" height="475" viewBox="0 0 400 475" fill="none" xmlns="http://www.w3.org/2000/svg">
<g filter="url(#filter0_d_22_3893)">
<rect x="293" y="262" width="9" height="9" fill="black"/>
<rect x="301.999" y="262" width="9" height="9" fill="black"/>
<rect x="301.999" y="253" width="9" height="9" fill="black"/>
<rect x="311" y="253" width="9" height="9" fill="black"/>
<rect x="311" y="244" width="9" height="9" fill="black"/>
<rect x="320" y="244" width="9" height="9" fill="black"/>
<rect x="320" y="235" width="9" height="9" fill="black"/>
<rect x="329" y="235" width="9" height="9" fill="black"/>
<rect x="329" y="226" width="9" height="9" fill="black"/>
<rect x="329" y="217" width="9" height="9" fill="black"/>
<rect x="284" y="271" width="9" height="9" fill="black"/>
<rect x="275" y="271" width="9" height="9" fill="black"/>
<rect x="266" y="271" width="9" height="9" fill="black"/>
<rect x="257" y="271" width="9" height="9" fill="black"/>
<rect x="248" y="271" width="9" height="9" fill="black"/>
<rect x="238.999" y="271" width="9" height="9" fill="black"/>
<rect x="238.999" y="262" width="9" height="9" fill="black"/>
<rect x="248" y="253" width="9" height="9" fill="black"/>
<rect x="238.999" y="244" width="9" height="9" fill="black"/>
<rect x="238.999" y="235" width="9" height="9" fill="black"/>
<rect x="230" y="235" width="9" height="9" fill="black"/>
<rect x="230" y="226" width="9" height="9" fill="black"/>
<rect x="257" y="235" width="9" height="9" fill="black"/>
<rect x="248" y="235" width="9" height="9" fill="black"/>
<rect x="248" y="226" width="9" height="9" fill="black"/>
<rect x="275" y="244" width="9" height="9" fill="black"/>
<rect x="266" y="244" width="9" height="9" fill="black"/>
<rect x="257" y="244" width="9" height="9" fill="black"/>
<rect x="238.999" y="226" width="9" height="9" fill="black"/>
<rect x="266" y="235" width="9" height="9" fill="black"/>
<rect x="230" y="271" width="9" height="9" fill="black"/>
<rect x="320" y="217" width="9" height="9" fill="black"/>
<rect x="311" y="217" width="9" height="9" fill="black"/>
<rect x="301.999" y="217" width="9" height="9" fill="black"/>
<rect x="293" y="217" width="9" height="9" fill="black"/>
<rect x="284" y="217" width="9" height="9" fill="black"/>
<rect x="275" y="217" width="9" height="9" fill="black"/>
<rect x="266" y="217" width="9" height="9" fill="black"/>
<rect x="257" y="217" width="9" height="9" fill="black"/>
<rect x="248" y="217" width="9" height="9" fill="black"/>
<rect x="238.999" y="217" width="9" height="9" fill="black"/>
<rect x="230" y="217" width="9" height="9" fill="black"/>
<rect x="221.001" y="217" width="9" height="9" fill="black"/>
<rect x="212" y="217" width="9" height="9" fill="black"/>
<rect x="212" y="226" width="9" height="9" fill="black"/>
<rect x="212" y="235" width="9" height="9" fill="black"/>
<rect x="212" y="244" width="9" height="9" fill="black"/>
<rect x="212" y="253" width="9" height="9" fill="black"/>
<rect x="221.001" y="253" width="9" height="9" fill="black"/>
<rect x="221.001" y="262" width="9" height="9" fill="black"/>
<rect x="230" y="262" width="9" height="9" fill="black"/>
<rect x="230" y="253" width="9" height="9" fill="black"/>
<rect x="221.001" y="244" width="9" height="9" fill="black"/>
<rect x="221.001" y="235" width="9" height="9" fill="black"/>
<rect x="221.001" y="226" width="9" height="9" fill="black"/>
<rect x="275" y="226" width="9" height="9" fill="black"/>
<rect x="293" y="226" width="9" height="9" fill="black"/>
<rect x="284" y="226" width="9" height="9" fill="black"/>
<rect x="257" y="226" width="9" height="9" fill="black"/>
<rect x="266" y="226" width="9" height="9" fill="black"/>
<rect x="301.999" y="226" width="9" height="9" fill="black"/>
<rect x="320" y="226" width="9" height="9" fill="black"/>
<rect x="311" y="226" width="9" height="9" fill="black"/>
<rect x="284" y="226" width="9" height="9" fill="black"/>
<rect x="293" y="226" width="9" height="9" fill="black"/>
<rect x="275" y="235" width="9" height="9" fill="black"/>
<rect x="301.999" y="235" width="9" height="9" fill="black"/>
<rect x="311" y="235" width="9" height="9" fill="black"/>
<rect x="284" y="235" width="9" height="9" fill="black"/>
<rect x="293" y="235" width="9" height="9" fill="black"/>
<rect x="301.999" y="244" width="9" height="9" fill="black"/>
<rect x="284" y="244" width="9" height="9" fill="black"/>
<rect x="293" y="244" width="9" height="9" fill="black"/>
<rect x="301.999" y="253" width="9" height="9" fill="black"/>
<rect x="284" y="253" width="9" height="9" fill="black"/>
<rect x="293" y="253" width="9" height="9" fill="black"/>
<rect x="293" y="262" width="9" height="9" fill="black"/>
<rect x="275" y="262" width="9" height="9" fill="black"/>
<rect x="275" y="253" width="9" height="9" fill="black"/>
<rect x="266" y="253" width="9" height="9" fill="black"/>
<rect x="257" y="262" width="9" height="9" fill="black"/>
<rect x="266" y="262" width="9" height="9" fill="black"/>
<rect x="284" y="262" width="9" height="9" fill="black"/>
<rect x="293" y="271" width="9" height="9" fill="black"/>
<rect x="275" y="271" width="9" height="9" fill="black"/>
<rect x="284" y="271" width="9" height="9" fill="black"/>
<rect x="203" y="217" width="9" height="9" fill="black"/>
<rect x="248" y="262" width="9" height="9" fill="white"/>
<rect x="238.999" y="253" width="9" height="9" fill="white"/>
<rect x="248" y="244" width="9" height="9" fill="white"/>
<rect x="257" y="253" width="9" height="9" fill="white"/>
<rect x="230" y="244" width="9" height="9" fill="white"/>
<rect x="158.001" y="262" width="9" height="9" fill="black"/>
<rect x="167" y="262" width="9" height="9" fill="black"/>
<rect x="167" y="253" width="9" height="9" fill="black"/>
<rect x="175.999" y="253" width="9" height="9" fill="black"/>
<rect x="175.999" y="244" width="9" height="9" fill="black"/>
<rect x="185" y="244" width="9" height="9" fill="black"/>
<rect x="185" y="235" width="9" height="9" fill="black"/>
<rect x="194" y="235" width="9" height="9" fill="black"/>
<rect x="194" y="226" width="9" height="9" fill="black"/>
<rect x="194" y="217" width="9" height="9" fill="black"/>
<rect x="149" y="271" width="9" height="9" fill="black"/>
<rect x="140" y="271" width="9" height="9" fill="black"/>
<rect x="131" y="271" width="9" height="9" fill="black"/>
<rect x="122" y="271" width="9" height="9" fill="black"/>
<rect x="112.999" y="271" width="9" height="9" fill="black"/>
<rect x="104.001" y="271" width="9" height="9" fill="black"/>
<rect x="104.001" y="262" width="9" height="9" fill="black"/>
<rect x="112.999" y="253" width="9" height="9" fill="black"/>
<rect x="104.001" y="244" width="9" height="9" fill="black"/>
<rect x="104.001" y="235" width="9" height="9" fill="black"/>
<rect x="95.001" y="235" width="9" height="9" fill="black"/>
<rect x="95.001" y="226" width="9" height="9" fill="black"/>
<rect x="122" y="235" width="9" height="9" fill="black"/>
<rect x="112.999" y="235" width="9" height="9" fill="black"/>
<rect x="112.999" y="226" width="9" height="9" fill="black"/>
<rect x="140" y="244" width="9" height="9" fill="black"/>
<rect x="131" y="244" width="9" height="9" fill="black"/>
<rect x="122" y="244" width="9" height="9" fill="black"/>
<rect x="104.001" y="226" width="9" height="9" fill="black"/>
<rect x="131" y="235" width="9" height="9" fill="black"/>
<rect x="95.001" y="271" width="9" height="9" fill="black"/>
<rect x="185" y="217" width="9" height="9" fill="black"/>
<rect x="175.999" y="217" width="9" height="9" fill="black"/>
<rect x="167" y="217" width="9" height="9" fill="black"/>
<rect x="158.001" y="217" width="9" height="9" fill="black"/>
<rect x="149" y="217" width="9" height="9" fill="black"/>
<rect x="140" y="217" width="9" height="9" fill="black"/>
<rect x="131" y="217" width="9" height="9" fill="black"/>
<rect x="122" y="217" width="9" height="9" fill="black"/>
<rect x="112.999" y="217" width="9" height="9" fill="black"/>
<rect x="104.001" y="217" width="9" height="9" fill="black"/>
<rect x="95.001" y="217" width="9" height="9" fill="black"/>
<rect x="86" y="217" width="9" height="9" fill="black"/>
<rect x="77" y="217" width="9" height="9" fill="black"/>
<rect x="77" y="226" width="9" height="9" fill="black"/>
<rect x="77" y="235" width="9" height="9" fill="black"/>
<rect x="77" y="244" width="9" height="9" fill="black"/>
<rect x="77" y="253" width="9" height="9" fill="black"/>
<rect x="86" y="253" width="9" height="9" fill="black"/>
<rect x="86" y="262" width="9" height="9" fill="black"/>
<rect x="95.001" y="262" width="9" height="9" fill="black"/>
<rect x="95.001" y="253" width="9" height="9" fill="black"/>
<rect x="86" y="244" width="9" height="9" fill="black"/>
<rect x="86" y="235" width="9" height="9" fill="black"/>
<rect x="86" y="226" width="9" height="9" fill="black"/>
<rect x="140" y="226" width="9" height="9" fill="black"/>
<rect x="158.001" y="226" width="9" height="9" fill="black"/>
<rect x="149" y="226" width="9" height="9" fill="black"/>
<rect x="122" y="226" width="9" height="9" fill="black"/>
<rect x="131" y="226" width="9" height="9" fill="black"/>
<rect x="167" y="226" width="9" height="9" fill="black"/>
<rect x="185" y="226" width="9" height="9" fill="black"/>
<rect x="175.999" y="226" width="9" height="9" fill="black"/>
<rect x="149" y="226" width="9" height="9" fill="black"/>
<rect x="158.001" y="226" width="9" height="9" fill="black"/>
<rect x="140" y="235" width="9" height="9" fill="black"/>
<rect x="167" y="235" width="9" height="9" fill="black"/>
<rect x="175.999" y="235" width="9" height="9" fill="black"/>
<rect x="149" y="235" width="9" height="9" fill="black"/>
<rect x="158.001" y="235" width="9" height="9" fill="black"/>
<rect x="167" y="244" width="9" height="9" fill="black"/>
<rect x="149" y="244" width="9" height="9" fill="black"/>
<rect x="158.001" y="244" width="9" height="9" fill="black"/>
<rect x="167" y="253" width="9" height="9" fill="black"/>
<rect x="149" y="253" width="9" height="9" fill="black"/>
<rect x="158.001" y="253" width="9" height="9" fill="black"/>
<rect x="158.001" y="262" width="9" height="9" fill="black"/>
<rect x="140" y="262" width="9" height="9" fill="black"/>
<rect x="140" y="253" width="9" height="9" fill="black"/>
<rect x="131" y="253" width="9" height="9" fill="black"/>
<rect x="122" y="262" width="9" height="9" fill="black"/>
<rect x="131" y="262" width="9" height="9" fill="black"/>
<rect x="149" y="262" width="9" height="9" fill="black"/>
<rect x="158.001" y="271" width="9" height="9" fill="black"/>
<rect x="140" y="271" width="9" height="9" fill="black"/>
<rect x="149" y="271" width="9" height="9" fill="black"/>
<rect x="112.999" y="262" width="9" height="9" fill="white"/>
<rect x="104.001" y="253" width="9" height="9" fill="white"/>
<rect x="112.999" y="244" width="9" height="9" fill="white"/>
<rect x="122" y="253" width="9" height="9" fill="white"/>
<rect x="95.001" y="244" width="9" height="9" fill="white"/>
</g>
<defs>
<filter id="filter0_d_22_3893" x="77" y="217" width="261" height="67" filterUnits="userSpaceOnUse" color-interpolation-filters="sRGB">
<feFlood flood-opacity="0" result="BackgroundImageFix"/>
<feColorMatrix in="SourceAlpha" type="matrix" values="0 0 0 0 0 0 0 0 0 0 0 0 0 0 0 0 0 0 127 0" result="hardAlpha"/>
<feOffset dy="4"/>
<feComposite in2="hardAlpha" operator="out"/>
<feColorMatrix type="matrix" values="0 0 0 0 0 0 0 0 0 0 0 0 0 0 0 0 0 0 1 0"/>
<feBlend mode="normal" in2="BackgroundImageFix" result="effect1_dropShadow_22_3893"/>
<feBlend mode="normal" in="SourceGraphic" in2="effect1_dropShadow_22_3893" result="shape"/>
</filter>
</defs>
</svg>
