<svg width="400" height="475" viewBox="0 0 400 475" fill="none" xmlns="http://www.w3.org/2000/svg">
<g clip-path="url(#clip0_22_4323)">
<g filter="url(#filter0_d_22_4323)">
<path d="M116.155 135.451C105.976 147.572 111.545 166.154 126.712 170.679L158.974 180.306C175.746 185.31 191.363 169.675 186.338 152.908L175.726 117.499C170.702 100.733 149.06 96.2635 137.804 109.668L116.155 135.451Z" fill="#FF70BD" stroke="black" stroke-width="6"/>
<path d="M99.7981 180.465C107.503 166.639 98.5241 149.444 82.7747 147.866L49.2753 144.508C31.8596 142.763 19.4781 161.067 27.58 176.582L44.6906 209.349C52.7924 224.864 74.889 225.164 83.4093 209.874L99.7981 180.465Z" fill="#CA5594" stroke="black" stroke-width="6"/>
<mask id="path-3-outside-1_22_4323" maskUnits="userSpaceOnUse" x="94.8654" y="127.561" width="54.9727" height="49.606" fill="black">
<rect fill="white" x="94.8654" y="127.561" width="54.9727" height="49.606"/>
<path fill-rule="evenodd" clip-rule="evenodd" d="M133.588 158.601L109.729 168.675L102.984 146.168L128.451 141.459C139.037 139.502 143.506 154.413 133.588 158.601Z"/>
</mask>
<path fill-rule="evenodd" clip-rule="evenodd" d="M133.588 158.601L109.729 168.675L102.984 146.168L128.451 141.459C139.037 139.502 143.506 154.413 133.588 158.601Z" fill="#C75693"/>
<path d="M109.729 168.675L103.982 170.397L105.902 176.804L112.063 174.202L109.729 168.675ZM133.588 158.601L131.254 153.073L133.588 158.601ZM102.984 146.168L101.894 140.268L95.3169 141.484L97.2369 147.89L102.984 146.168ZM128.451 141.459L129.542 147.359L129.542 147.359L128.451 141.459ZM112.063 174.202L135.922 164.128L131.254 153.073L107.396 163.147L112.063 174.202ZM97.2369 147.89L103.982 170.397L115.477 166.952L108.732 144.445L97.2369 147.89ZM127.36 135.559L101.894 140.268L104.075 152.068L129.542 147.359L127.36 135.559ZM135.922 164.128C152.451 157.149 145.004 132.297 127.36 135.559L129.542 147.359C130.675 147.15 131.332 147.408 131.748 147.69C132.247 148.028 132.717 148.635 132.961 149.448C133.205 150.261 133.146 151.027 132.915 151.584C132.723 152.048 132.316 152.625 131.254 153.073L135.922 164.128Z" fill="black" mask="url(#path-3-outside-1_22_4323)"/>
<mask id="path-5-outside-2_22_4323" maskUnits="userSpaceOnUse" x="58.578" y="138.088" width="58.3648" height="54.9766" fill="black">
<rect fill="white" x="58.578" y="138.088" width="58.3648" height="54.9766"/>
<path fill-rule="evenodd" clip-rule="evenodd" d="M75.5481 161.575L97.0734 147.175L107.949 168.002L83.8311 177.437C73.8055 181.359 66.6002 167.561 75.5481 161.575Z"/>
</mask>
<path fill-rule="evenodd" clip-rule="evenodd" d="M75.5481 161.575L97.0734 147.175L107.949 168.002L83.8311 177.437C73.8055 181.359 66.6002 167.561 75.5481 161.575Z" fill="#A84A7D"/>
<path d="M97.0734 147.175L102.392 144.398L99.2961 138.47L93.7372 142.188L97.0734 147.175ZM75.5481 161.575L78.8843 166.562L75.5481 161.575ZM107.949 168.002L110.135 173.59L116.363 171.153L113.268 165.225L107.949 168.002ZM83.8311 177.437L86.017 183.025L86.017 183.025L83.8311 177.437ZM93.7372 142.188L72.212 156.588L78.8843 166.562L100.41 152.162L93.7372 142.188ZM113.268 165.225L102.392 144.398L91.7549 149.953L102.631 170.78L113.268 165.225ZM86.017 183.025L110.135 173.59L105.763 162.415L81.6452 171.849L86.017 183.025ZM72.212 156.588C57.299 166.564 69.3074 189.561 86.017 183.025L81.6452 171.849C80.5718 172.269 79.8784 172.14 79.4168 171.942C78.8622 171.704 78.2859 171.197 77.8931 170.444C77.5003 169.692 77.4133 168.929 77.5348 168.338C77.6359 167.846 77.9262 167.203 78.8843 166.562L72.212 156.588Z" fill="black" mask="url(#path-5-outside-2_22_4323)"/>
<path d="M113.379 178.923C125.077 174.352 130.837 161.149 126.262 149.442C121.687 137.734 108.501 131.935 96.8039 136.507C85.1063 141.078 79.346 154.28 83.9211 165.988C88.4963 177.695 101.682 183.494 113.379 178.923Z" fill="#DA5CA1" stroke="black" stroke-width="6"/>
</g>
</g>
<defs>
<filter id="filter0_d_22_4323" x="22.0361" y="98.8037" width="168.262" height="129.361" filterUnits="userSpaceOnUse" color-interpolation-filters="sRGB">
<feFlood flood-opacity="0" result="BackgroundImageFix"/>
<feColorMatrix in="SourceAlpha" type="matrix" values="0 0 0 0 0 0 0 0 0 0 0 0 0 0 0 0 0 0 127 0" result="hardAlpha"/>
<feOffset dy="4"/>
<feComposite in2="hardAlpha" operator="out"/>
<feColorMatrix type="matrix" values="0 0 0 0 0 0 0 0 0 0 0 0 0 0 0 0 0 0 1 0"/>
<feBlend mode="normal" in2="BackgroundImageFix" result="effect1_dropShadow_22_4323"/>
<feBlend mode="normal" in="SourceGraphic" in2="effect1_dropShadow_22_4323" result="shape"/>
</filter>
<clipPath id="clip0_22_4323">
<rect width="400" height="475" fill="white"/>
</clipPath>
</defs>
</svg>
