<svg width="400" height="475" viewBox="0 0 400 475" fill="none" xmlns="http://www.w3.org/2000/svg">
<g filter="url(#filter0_d_22_4754)">
<mask id="path-1-outside-1_22_4754" maskUnits="userSpaceOnUse" x="148" y="127.988" width="104" height="90" fill="black">
<rect fill="white" x="148" y="127.988" width="104" height="90"/>
<path fill-rule="evenodd" clip-rule="evenodd" d="M183.872 201.983C191.191 214.616 209.431 214.616 216.751 201.983L243.034 156.623C247.043 149.704 246.135 141.832 242.099 136.113C228.908 134.732 214.871 133.988 200.311 133.988C185.751 133.988 171.714 134.732 158.524 136.113C154.488 141.832 153.58 149.704 157.589 156.623L183.872 201.983Z"/>
</mask>
<path fill-rule="evenodd" clip-rule="evenodd" d="M183.872 201.983C191.191 214.616 209.431 214.616 216.751 201.983L243.034 156.623C247.043 149.704 246.135 141.832 242.099 136.113C228.908 134.732 214.871 133.988 200.311 133.988C185.751 133.988 171.714 134.732 158.524 136.113C154.488 141.832 153.58 149.704 157.589 156.623L183.872 201.983Z" fill="#94C100"/>
<path d="M216.751 201.983L211.559 198.975L216.751 201.983ZM183.872 201.983L189.063 198.975L183.872 201.983ZM243.034 156.623L237.842 153.615V153.615L243.034 156.623ZM242.099 136.113L247.001 132.654L245.432 130.429L242.724 130.146L242.099 136.113ZM158.524 136.113L157.899 130.145L155.191 130.429L153.621 132.653L158.524 136.113ZM157.589 156.623L162.78 153.615L157.589 156.623ZM211.559 198.975C206.551 207.619 194.071 207.619 189.063 198.975L178.68 204.991C188.311 221.613 212.311 221.613 221.942 204.991L211.559 198.975ZM237.842 153.615L211.559 198.975L221.942 204.991L248.225 159.631L237.842 153.615ZM237.197 139.572C239.994 143.536 240.582 148.886 237.842 153.615L248.225 159.631C253.504 150.521 252.276 140.128 247.001 132.654L237.197 139.572ZM200.311 139.988C214.668 139.988 228.497 140.722 241.474 142.08L242.724 130.146C229.319 128.742 215.073 127.988 200.311 127.988V139.988ZM159.148 142.08C172.125 140.722 185.953 139.988 200.311 139.988V127.988C185.549 127.988 171.303 128.742 157.899 130.145L159.148 142.08ZM162.78 153.615C160.04 148.886 160.629 143.536 163.426 139.572L153.621 132.653C148.347 140.128 147.119 150.521 152.397 159.631L162.78 153.615ZM189.063 198.975L162.78 153.615L152.397 159.631L178.68 204.991L189.063 198.975Z" fill="black" mask="url(#path-1-outside-1_22_4754)"/>
<path d="M170.693 134.45C169.817 139.418 174.795 182.291 194.959 213.56" stroke="black" stroke-width="6"/>
<path d="M229.825 134.45C230.702 139.418 225.496 182.732 205.332 214.001" stroke="black" stroke-width="6"/>
<path d="M189.22 133C189.22 156.963 194.983 193.759 198.49 213.339" stroke="black" stroke-width="6"/>
<path d="M212.836 133.221C212.836 157.184 204.866 193.98 201.359 213.56" stroke="black" stroke-width="6"/>
</g>
<defs>
<filter id="filter0_d_22_4754" x="148.999" y="127.988" width="102.625" height="93.4702" filterUnits="userSpaceOnUse" color-interpolation-filters="sRGB">
<feFlood flood-opacity="0" result="BackgroundImageFix"/>
<feColorMatrix in="SourceAlpha" type="matrix" values="0 0 0 0 0 0 0 0 0 0 0 0 0 0 0 0 0 0 127 0" result="hardAlpha"/>
<feOffset dy="4"/>
<feComposite in2="hardAlpha" operator="out"/>
<feColorMatrix type="matrix" values="0 0 0 0 0 0 0 0 0 0 0 0 0 0 0 0 0 0 1 0"/>
<feBlend mode="normal" in2="BackgroundImageFix" result="effect1_dropShadow_22_4754"/>
<feBlend mode="normal" in="SourceGraphic" in2="effect1_dropShadow_22_4754" result="shape"/>
</filter>
</defs>
</svg>
