<svg width="400" height="475" viewBox="0 0 400 475" fill="none" xmlns="http://www.w3.org/2000/svg">
<mask id="path-1-outside-1_22_5007" maskUnits="userSpaceOnUse" x="155" y="97" width="91" height="61" fill="black">
<rect fill="white" x="155" y="97" width="91" height="61"/>
<path fill-rule="evenodd" clip-rule="evenodd" d="M218.227 141.252C218.249 140.534 218.261 139.81 218.261 139.081C218.261 119.154 209.801 103 199.366 103C188.931 103 180.471 119.154 180.471 139.081C180.471 139.781 180.482 140.476 180.502 141.165C174.859 136.064 168.984 133.938 165.056 136.233C161.148 138.517 160.107 144.629 161.747 152H238.351C240.674 144.284 240.025 137.681 236.056 135.108C231.766 132.328 224.762 135.011 218.227 141.252Z"/>
</mask>
<path fill-rule="evenodd" clip-rule="evenodd" d="M218.227 141.252C218.249 140.534 218.261 139.81 218.261 139.081C218.261 119.154 209.801 103 199.366 103C188.931 103 180.471 119.154 180.471 139.081C180.471 139.781 180.482 140.476 180.502 141.165C174.859 136.064 168.984 133.938 165.056 136.233C161.148 138.517 160.107 144.629 161.747 152H238.351C240.674 144.284 240.025 137.681 236.056 135.108C231.766 132.328 224.762 135.011 218.227 141.252Z" fill="#D93D39"/>
<path d="M218.227 141.252L212.23 141.065L211.775 155.71L222.371 145.591L218.227 141.252ZM180.502 141.165L176.479 145.616L186.919 155.054L186.5 140.986L180.502 141.165ZM165.056 136.233L168.083 141.413H168.083L165.056 136.233ZM161.747 152L155.89 153.303L156.935 158H161.747V152ZM238.351 152V158H242.81L244.096 153.73L238.351 152ZM236.056 135.108L239.319 130.073V130.073L236.056 135.108ZM212.261 139.081C212.261 139.748 212.25 140.41 212.23 141.065L224.224 141.438C224.248 140.658 224.261 139.872 224.261 139.081H212.261ZM199.366 109C201.232 109 204.377 110.558 207.411 116.351C210.296 121.861 212.261 129.887 212.261 139.081H224.261C224.261 128.349 221.995 118.334 218.042 110.785C214.237 103.519 207.935 97 199.366 97V109ZM186.471 139.081C186.471 129.887 188.436 121.861 191.321 116.351C194.355 110.558 197.5 109 199.366 109V97C190.797 97 184.495 103.519 180.69 110.785C176.736 118.334 174.471 128.349 174.471 139.081H186.471ZM186.5 140.986C186.481 140.356 186.471 139.721 186.471 139.081H174.471C174.471 139.84 174.483 140.595 174.505 141.344L186.5 140.986ZM168.083 141.413C168.084 141.413 168.613 141.079 170.25 141.621C171.892 142.165 174.064 143.433 176.479 145.616L184.526 136.714C181.297 133.796 177.71 131.45 174.021 130.229C170.328 129.007 165.955 128.758 162.028 131.053L168.083 141.413ZM167.604 150.697C166.903 147.547 166.872 145.057 167.206 143.379C167.538 141.708 168.082 141.414 168.083 141.413L162.028 131.053C158.122 133.336 156.191 137.241 155.436 141.039C154.682 144.831 154.951 149.082 155.89 153.303L167.604 150.697ZM238.351 146H161.747V158H238.351V146ZM232.793 140.143C232.831 140.168 232.952 140.251 233.112 140.553C233.287 140.883 233.496 141.461 233.61 142.371C233.843 144.234 233.608 146.941 232.605 150.27L244.096 153.73C245.417 149.344 246.019 144.89 245.516 140.88C245.016 136.881 243.291 132.647 239.319 130.073L232.793 140.143ZM222.371 145.591C225.231 142.859 227.913 141.19 229.993 140.45C231.014 140.088 231.743 140.001 232.195 140.015C232.61 140.027 232.756 140.119 232.793 140.143L239.319 130.073C235.022 127.288 230.051 127.694 225.974 129.144C221.845 130.611 217.757 133.404 214.083 136.912L222.371 145.591Z" fill="black" mask="url(#path-1-outside-1_22_5007)"/>
</svg>
