<svg width="400" height="475" viewBox="0 0 400 475" fill="none" xmlns="http://www.w3.org/2000/svg">
<g filter="url(#filter0_d_22_5310)">
<mask id="path-1-outside-1_22_5310" maskUnits="userSpaceOnUse" x="138" y="41.6797" width="125" height="117" fill="black">
<rect fill="white" x="138" y="41.6797" width="125" height="117"/>
<path fill-rule="evenodd" clip-rule="evenodd" d="M205.327 65.3835C205.327 65.7409 205.324 66.0959 205.319 66.4482C206.825 63.3864 208.439 62.0697 209.428 63.4339C210.306 64.6459 210.479 67.681 210.017 71.272C223.002 75.2265 234.754 87.4806 240.167 101.304C242.545 102.219 244.895 103.784 246.977 106.191C248.629 108.102 250.068 109.602 251.243 110.826C254.939 114.68 256.022 115.808 252.949 118.467C252.907 118.502 252.865 118.537 252.822 118.572C252.929 118.745 253.034 118.915 253.136 119.082L253.142 119.092C256.261 124.156 257.335 125.9 253.762 128.136L253.914 128.704C255.575 134.899 256.062 136.714 250.878 137.797C247.781 138.445 244.051 136.67 240.659 133.387C235.88 145.434 224.139 152 201.37 152C179.603 152 166.852 145.043 161.725 132.315C157.787 137.226 152.967 140.155 149.123 139.351C143.939 138.268 144.426 136.453 146.087 130.258L146.239 129.69C142.666 127.454 143.74 125.71 146.858 120.645C146.963 120.476 147.07 120.302 147.179 120.125C147.136 120.091 147.094 120.056 147.052 120.02C143.979 117.362 145.062 116.233 148.758 112.38L148.758 112.38C149.933 111.155 151.372 109.656 153.024 107.744C155.715 104.633 158.856 102.928 161.924 102.216C167.187 88.1764 179.12 75.5893 192.271 71.4067C191.94 67.9319 192.191 65.0739 193.066 63.986C193.971 62.8596 195.325 63.9028 196.625 66.4059C196.62 66.0676 196.618 65.7266 196.618 65.3835C196.618 55.6059 198.568 47.6797 200.972 47.6797C203.377 47.6797 205.327 55.6059 205.327 65.3835Z"/>
</mask>
<path fill-rule="evenodd" clip-rule="evenodd" d="M205.327 65.3835C205.327 65.7409 205.324 66.0959 205.319 66.4482C206.825 63.3864 208.439 62.0697 209.428 63.4339C210.306 64.6459 210.479 67.681 210.017 71.272C223.002 75.2265 234.754 87.4806 240.167 101.304C242.545 102.219 244.895 103.784 246.977 106.191C248.629 108.102 250.068 109.602 251.243 110.826C254.939 114.68 256.022 115.808 252.949 118.467C252.907 118.502 252.865 118.537 252.822 118.572C252.929 118.745 253.034 118.915 253.136 119.082L253.142 119.092C256.261 124.156 257.335 125.9 253.762 128.136L253.914 128.704C255.575 134.899 256.062 136.714 250.878 137.797C247.781 138.445 244.051 136.67 240.659 133.387C235.88 145.434 224.139 152 201.37 152C179.603 152 166.852 145.043 161.725 132.315C157.787 137.226 152.967 140.155 149.123 139.351C143.939 138.268 144.426 136.453 146.087 130.258L146.239 129.69C142.666 127.454 143.74 125.71 146.858 120.645C146.963 120.476 147.07 120.302 147.179 120.125C147.136 120.091 147.094 120.056 147.052 120.02C143.979 117.362 145.062 116.233 148.758 112.38L148.758 112.38C149.933 111.155 151.372 109.656 153.024 107.744C155.715 104.633 158.856 102.928 161.924 102.216C167.187 88.1764 179.12 75.5893 192.271 71.4067C191.94 67.9319 192.191 65.0739 193.066 63.986C193.971 62.8596 195.325 63.9028 196.625 66.4059C196.62 66.0676 196.618 65.7266 196.618 65.3835C196.618 55.6059 198.568 47.6797 200.972 47.6797C203.377 47.6797 205.327 55.6059 205.327 65.3835Z" fill="#FDE272"/>
<path d="M205.319 66.4482L199.32 66.3606L210.703 69.0962L205.319 66.4482ZM209.428 63.4339L204.569 66.9547L204.569 66.9547L209.428 63.4339ZM210.017 71.272L204.066 70.5073L203.42 75.535L208.269 77.0117L210.017 71.272ZM240.167 101.304L234.58 103.492L235.544 105.954L238.012 106.904L240.167 101.304ZM246.977 106.191L251.515 102.266V102.266L246.977 106.191ZM251.243 110.826L246.913 114.98H246.913L251.243 110.826ZM252.949 118.467L256.873 123.005L256.874 123.005L252.949 118.467ZM252.822 118.572L249.074 113.887L244.935 117.198L247.711 121.714L252.822 118.572ZM253.136 119.082L248.027 122.228L248.029 122.232L253.136 119.082ZM253.142 119.092L258.252 115.946L258.249 115.942L253.142 119.092ZM253.762 128.136L250.579 123.05L246.818 125.404L247.966 129.689L253.762 128.136ZM253.914 128.704L248.118 130.256L248.119 130.258L253.914 128.704ZM250.878 137.797L252.106 143.671L252.106 143.671L250.878 137.797ZM240.659 133.387L244.831 129.076L238.387 122.841L235.081 131.175L240.659 133.387ZM161.725 132.315L167.29 130.073L163.459 120.562L157.044 128.562L161.725 132.315ZM149.123 139.351L150.35 133.478H150.35L149.123 139.351ZM146.087 130.258L151.882 131.811L151.883 131.81L146.087 130.258ZM146.239 129.69L152.035 131.242L153.183 126.957L149.422 124.604L146.239 129.69ZM146.858 120.645L141.749 117.499L141.749 117.499L146.858 120.645ZM147.179 120.125L152.29 123.267L155.066 118.751L150.926 115.439L147.179 120.125ZM147.052 120.02L150.977 115.482L150.977 115.482L147.052 120.02ZM148.758 112.38L144.71 107.951L144.565 108.084L144.429 108.226L148.758 112.38ZM148.758 112.38L152.807 116.808L152.952 116.675L153.088 116.533L148.758 112.38ZM153.024 107.744L157.563 111.669H157.563L153.024 107.744ZM161.924 102.216L163.28 108.061L166.413 107.334L167.542 104.322L161.924 102.216ZM192.271 71.4067L194.09 77.1245L198.704 75.6569L198.244 70.8365L192.271 71.4067ZM193.066 63.986L188.389 60.2274L188.389 60.2274L193.066 63.986ZM196.625 66.4059L191.301 69.1722L202.625 66.3218L196.625 66.4059ZM211.318 66.5357C211.324 66.1542 211.327 65.7701 211.327 65.3835H199.327C199.327 65.7118 199.324 66.0376 199.32 66.3606L211.318 66.5357ZM214.286 59.9132C213.288 58.5361 211.518 57.0784 208.973 56.9116C206.666 56.7605 204.917 57.7627 203.946 58.4969C202.084 59.9066 200.799 62.0427 199.935 63.8001L210.703 69.0962C210.974 68.5444 211.199 68.1794 211.348 67.9692C211.522 67.7237 211.489 67.8381 211.188 68.0656C210.933 68.2585 209.867 68.996 208.188 68.886C206.271 68.7603 205.073 67.6496 204.569 66.9547L214.286 59.9132ZM215.968 72.0368C216.234 69.971 216.341 67.9019 216.21 66.0412C216.101 64.4804 215.769 61.9596 214.286 59.9132L204.569 66.9547C204.189 66.4303 204.119 66.063 204.147 66.1706C204.162 66.2296 204.209 66.4529 204.239 66.8805C204.3 67.7381 204.262 68.982 204.066 70.5073L215.968 72.0368ZM245.754 99.1163C239.818 83.959 226.857 70.1286 211.765 65.5323L208.269 77.0117C219.146 80.3243 229.689 91.0022 234.58 103.492L245.754 99.1163ZM251.515 102.266C248.795 99.1208 245.628 96.9767 242.322 95.7044L238.012 106.904C239.462 107.462 240.996 108.448 242.438 110.116L251.515 102.266ZM255.572 106.673C254.401 105.452 253.057 104.049 251.515 102.266L242.438 110.116C244.202 112.155 245.735 113.752 246.913 114.98L255.572 106.673ZM256.874 123.005C257.822 122.184 259.045 120.998 259.853 119.4C260.828 117.472 261.008 115.337 260.352 113.276C259.814 111.586 258.808 110.27 258.114 109.435C257.374 108.546 256.443 107.58 255.572 106.673L246.913 114.98C247.89 115.999 248.481 116.619 248.888 117.109C248.977 117.216 249.041 117.297 249.084 117.356C249.128 117.415 249.145 117.441 249.143 117.438C249.141 117.435 249.113 117.39 249.072 117.307C249.031 117.223 248.973 117.09 248.917 116.913C248.797 116.537 248.704 116.016 248.754 115.406C248.804 114.799 248.979 114.313 249.144 113.986C249.296 113.685 249.426 113.545 249.402 113.572C249.38 113.598 249.274 113.712 249.024 113.928L256.874 123.005ZM256.571 123.257C256.673 123.175 256.774 123.091 256.873 123.005L249.024 113.928C249.041 113.913 249.057 113.9 249.074 113.887L256.571 123.257ZM258.245 115.936C258.143 115.769 258.039 115.601 257.934 115.43L247.711 121.714C247.819 121.89 247.925 122.061 248.027 122.228L258.245 115.936ZM258.249 115.942L258.243 115.932L248.029 122.232L248.036 122.242L258.249 115.942ZM256.945 133.222C258.149 132.469 259.625 131.366 260.679 129.704C261.892 127.789 262.196 125.703 261.889 123.744C261.625 122.062 260.926 120.586 260.357 119.514C259.764 118.397 258.996 117.155 258.252 115.946L248.033 122.238C248.848 123.561 249.384 124.436 249.758 125.14C249.934 125.472 250.023 125.673 250.065 125.779C250.107 125.887 250.067 125.814 250.034 125.605C249.998 125.377 249.972 124.991 250.062 124.514C250.155 124.024 250.339 123.603 250.543 123.28C250.891 122.732 251.162 122.685 250.579 123.05L256.945 133.222ZM259.71 127.151L259.558 126.584L247.966 129.689L248.118 130.256L259.71 127.151ZM252.106 143.671C253.611 143.356 255.412 142.862 257 141.849C258.878 140.651 260.264 138.851 260.806 136.533C261.257 134.601 261.005 132.751 260.767 131.481C260.517 130.146 260.103 128.618 259.709 127.15L248.119 130.258C248.556 131.888 248.826 132.91 248.972 133.691C249.04 134.053 249.054 134.228 249.056 134.277C249.058 134.324 249.043 134.134 249.12 133.802C249.206 133.437 249.385 132.985 249.706 132.544C250.019 132.114 250.349 131.858 250.546 131.732C250.723 131.62 250.781 131.618 250.609 131.678C250.44 131.736 250.14 131.822 249.651 131.924L252.106 143.671ZM236.486 137.699C240.314 141.403 246.014 144.944 252.106 143.671L249.651 131.924C249.547 131.946 247.788 131.937 244.831 129.076L236.486 137.699ZM201.37 158C213.245 158 222.897 156.302 230.416 152.592C238.131 148.785 243.3 143.001 246.236 135.6L235.081 131.175C233.239 135.82 230.149 139.342 225.106 141.83C219.868 144.415 212.264 146 201.37 146V158ZM156.159 134.557C162.605 150.558 178.453 158 201.37 158V146C180.752 146 171.099 139.529 167.29 130.073L156.159 134.557ZM157.044 128.562C155.426 130.579 153.786 131.981 152.41 132.768C151.733 133.155 151.203 133.346 150.837 133.429C150.659 133.469 150.533 133.481 150.456 133.483C150.417 133.484 150.39 133.482 150.374 133.481C150.365 133.48 150.359 133.479 150.356 133.479C150.352 133.478 150.35 133.478 150.35 133.478L147.895 145.224C151.755 146.031 155.445 144.856 158.368 143.184C161.347 141.48 164.085 138.962 166.406 136.069L157.044 128.562ZM150.35 133.478C149.861 133.376 149.561 133.29 149.392 133.231C149.22 133.172 149.278 133.173 149.455 133.286C149.652 133.412 149.982 133.668 150.295 134.098C150.616 134.538 150.795 134.99 150.881 135.356C150.958 135.687 150.943 135.878 150.945 135.831C150.947 135.782 150.961 135.607 151.029 135.244C151.175 134.464 151.445 133.441 151.882 131.811L140.292 128.704C139.898 130.171 139.484 131.699 139.234 133.035C138.996 134.304 138.744 136.155 139.195 138.087C139.737 140.405 141.123 142.205 143.001 143.403C144.589 144.416 146.39 144.91 147.895 145.224L150.35 133.478ZM151.883 131.81L152.035 131.242L140.443 128.137L140.291 128.705L151.883 131.81ZM149.422 124.604C148.839 124.239 149.11 124.285 149.458 124.834C149.662 125.156 149.846 125.578 149.939 126.068C150.029 126.545 150.003 126.93 149.967 127.159C149.934 127.368 149.894 127.441 149.936 127.333C149.978 127.226 150.067 127.025 150.243 126.694C150.617 125.99 151.153 125.114 151.968 123.791L141.749 117.499C141.005 118.709 140.237 119.95 139.644 121.068C139.075 122.139 138.376 123.615 138.112 125.298C137.805 127.256 138.109 129.343 139.322 131.257C140.376 132.92 141.852 134.023 143.056 134.776L149.422 124.604ZM151.968 123.791C152.072 123.622 152.18 123.447 152.29 123.267L142.067 116.983C141.96 117.158 141.854 117.33 141.749 117.499L151.968 123.791ZM150.926 115.439C150.943 115.453 150.96 115.467 150.977 115.482L143.127 124.558C143.227 124.645 143.328 124.729 143.431 124.811L150.926 115.439ZM150.977 115.482C150.727 115.265 150.621 115.151 150.599 115.126C150.575 115.099 150.705 115.239 150.857 115.54C151.022 115.867 151.197 116.352 151.247 116.96C151.297 117.57 151.204 118.091 151.084 118.467C151.028 118.644 150.97 118.777 150.929 118.86C150.888 118.943 150.86 118.988 150.858 118.991C150.856 118.994 150.873 118.968 150.917 118.909C150.96 118.851 151.024 118.77 151.113 118.662C151.52 118.173 152.111 117.552 153.088 116.533L144.429 108.226C143.558 109.134 142.627 110.099 141.887 110.989C141.193 111.823 140.187 113.139 139.649 114.83C138.993 116.891 139.173 119.025 140.148 120.954C140.956 122.552 142.179 123.738 143.127 124.558L150.977 115.482ZM152.807 116.808L152.807 116.808L144.71 107.951L144.71 107.951L152.807 116.808ZM153.088 116.533C154.266 115.305 155.799 113.708 157.563 111.669L148.486 103.819C146.944 105.603 145.6 107.005 144.429 108.226L153.088 116.533ZM157.563 111.669C159.412 109.531 161.434 108.489 163.28 108.061L160.568 96.3715C156.278 97.3667 152.018 99.7358 148.486 103.819L157.563 111.669ZM190.453 65.6889C175.236 70.5286 162.09 84.6799 156.306 100.11L167.542 104.322C172.284 91.673 183.004 80.6501 194.09 77.1245L190.453 65.6889ZM188.389 60.2274C186.792 62.2147 186.396 64.7255 186.247 66.194C186.065 67.9829 186.108 69.9794 186.299 71.9768L198.244 70.8365C198.103 69.3592 198.106 68.1893 198.185 67.4085C198.204 67.2237 198.225 67.081 198.244 66.9769C198.264 66.8712 198.278 66.8243 198.277 66.8263C198.276 66.8287 198.27 66.8491 198.257 66.8851C198.243 66.9208 198.22 66.9776 198.185 67.0514C198.119 67.1899 197.984 67.4438 197.742 67.7445L188.389 60.2274ZM201.949 63.6396C201.184 62.1661 199.978 60.2165 198.154 58.9306C197.171 58.2383 195.501 57.3871 193.353 57.5552C191.045 57.7357 189.383 58.99 188.389 60.2274L197.742 67.7445C197.201 68.4187 196.047 69.3811 194.289 69.5186C192.69 69.6438 191.609 68.9986 191.24 68.7392C190.857 68.4686 190.743 68.2736 190.847 68.4121C190.926 68.5183 191.086 68.7579 191.301 69.1722L201.949 63.6396ZM190.618 65.3835C190.618 65.7546 190.621 66.1235 190.626 66.49L202.625 66.3218C202.62 66.0116 202.618 65.6987 202.618 65.3835H190.618ZM200.972 41.6797C196.892 41.6797 194.773 44.8807 194.091 46.0548C193.158 47.6588 192.522 49.5806 192.067 51.432C191.133 55.2279 190.618 60.1577 190.618 65.3835H202.618C202.618 60.8317 203.077 56.9096 203.72 54.298C204.052 52.9456 204.355 52.2748 204.464 52.0871C204.823 51.4694 203.85 53.6797 200.972 53.6797V41.6797ZM211.327 65.3835C211.327 60.1577 210.811 55.2279 209.878 51.432C209.422 49.5807 208.787 47.6588 207.854 46.0548C207.171 44.8807 205.053 41.6797 200.972 41.6797V53.6797C198.094 53.6797 197.121 51.4694 197.48 52.0871C197.59 52.2748 197.892 52.9456 198.225 54.298C198.867 56.9096 199.327 60.8317 199.327 65.3835H211.327Z" fill="black" mask="url(#path-1-outside-1_22_5310)"/>
<path d="M197.695 115.543C199.62 116.888 202.185 116.863 204.083 115.481L208.179 112.499C209.607 111.459 210.402 109.834 210.446 108.231C210.491 106.597 209.744 104.91 208.038 103.995C206.045 102.926 203.905 102.462 200.906 102.532C198.059 102.416 195.956 102.889 193.921 103.908C192.121 104.809 191.291 106.55 191.302 108.254C191.313 109.933 192.127 111.653 193.663 112.726L197.695 115.543Z" fill="#F8E9B7" stroke="black" stroke-width="3"/>
<ellipse cx="210.655" cy="94.3568" rx="2.30955" ry="5.09898" fill="black"/>
<ellipse cx="192.084" cy="94.7406" rx="2.30955" ry="5.09898" fill="black"/>
<circle cx="179.246" cy="107.544" r="8.72625" fill="#FF774D" stroke="black" stroke-width="3"/>
<circle cx="222.801" cy="107.066" r="8.72625" fill="#FF774D" stroke="black" stroke-width="3"/>
<path d="M165.632 110.874C166.94 120.479 166.042 133.215 157.364 138.218" stroke="black" stroke-width="3"/>
<path d="M235.792 110.446C234.484 120.05 235.382 132.786 244.06 137.789" stroke="black" stroke-width="3"/>
</g>
<defs>
<filter id="filter0_d_22_5310" x="138.001" y="41.6797" width="123.999" height="120.32" filterUnits="userSpaceOnUse" color-interpolation-filters="sRGB">
<feFlood flood-opacity="0" result="BackgroundImageFix"/>
<feColorMatrix in="SourceAlpha" type="matrix" values="0 0 0 0 0 0 0 0 0 0 0 0 0 0 0 0 0 0 127 0" result="hardAlpha"/>
<feOffset dy="4"/>
<feComposite in2="hardAlpha" operator="out"/>
<feColorMatrix type="matrix" values="0 0 0 0 0 0 0 0 0 0 0 0 0 0 0 0 0 0 1 0"/>
<feBlend mode="normal" in2="BackgroundImageFix" result="effect1_dropShadow_22_5310"/>
<feBlend mode="normal" in="SourceGraphic" in2="effect1_dropShadow_22_5310" result="shape"/>
</filter>
</defs>
</svg>
