<svg width="400" height="475" viewBox="0 0 400 475" fill="none" xmlns="http://www.w3.org/2000/svg">
<g filter="url(#filter0_d_23_1509)">
<mask id="path-1-outside-1_23_1509" maskUnits="userSpaceOnUse" x="152.429" y="29.27" width="43" height="43" fill="black">
<rect fill="white" x="152.429" y="29.27" width="43" height="43"/>
<path fill-rule="evenodd" clip-rule="evenodd" d="M180.519 50.0358C180.528 49.7586 180.532 49.4793 180.532 49.198C180.532 41.5058 177.267 35.27 173.238 35.27C169.21 35.27 165.945 41.5058 165.945 49.198C165.945 49.468 165.949 49.7361 165.957 50.0023C163.778 48.0331 161.511 47.2125 159.994 48.0985C157.619 49.4868 157.988 54.539 160.819 59.3828C163.65 64.2267 167.871 67.028 170.246 65.6397C171.113 65.1327 171.615 64.137 171.764 62.8413C172.24 63.0279 172.733 63.126 173.238 63.126C173.874 63.126 174.491 62.9705 175.079 62.6785C175.277 63.5821 175.697 64.2896 176.351 64.7136C178.66 66.21 183.006 63.6065 186.057 58.8984C189.108 54.1903 189.71 49.1606 187.401 47.6642C185.745 46.5909 183.042 47.6268 180.519 50.0358Z"/>
</mask>
<path fill-rule="evenodd" clip-rule="evenodd" d="M180.519 50.0358C180.528 49.7586 180.532 49.4793 180.532 49.198C180.532 41.5058 177.267 35.27 173.238 35.27C169.21 35.27 165.945 41.5058 165.945 49.198C165.945 49.468 165.949 49.7361 165.957 50.0023C163.778 48.0331 161.511 47.2125 159.994 48.0985C157.619 49.4868 157.988 54.539 160.819 59.3828C163.65 64.2267 167.871 67.028 170.246 65.6397C171.113 65.1327 171.615 64.137 171.764 62.8413C172.24 63.0279 172.733 63.126 173.238 63.126C173.874 63.126 174.491 62.9705 175.079 62.6785C175.277 63.5821 175.697 64.2896 176.351 64.7136C178.66 66.21 183.006 63.6065 186.057 58.8984C189.108 54.1903 189.71 49.1606 187.401 47.6642C185.745 46.5909 183.042 47.6268 180.519 50.0358Z" fill="#D93D39"/>
<path d="M180.519 50.0358L174.522 49.8495L174.067 64.4939L184.663 54.375L180.519 50.0358ZM165.957 50.0023L161.933 54.4533L172.374 63.8908L171.954 49.8235L165.957 50.0023ZM159.994 48.0985L163.022 53.2787H163.022L159.994 48.0985ZM160.819 59.3828L155.639 62.4103H155.639L160.819 59.3828ZM170.246 65.6397L167.218 60.4595L167.218 60.4595L170.246 65.6397ZM171.764 62.8413L173.954 57.2551L166.695 54.4097L165.803 62.1551L171.764 62.8413ZM175.079 62.6785L180.941 61.3983L179.3 53.8835L172.411 57.3046L175.079 62.6785ZM176.351 64.7136L173.088 69.7486H173.088L176.351 64.7136ZM186.057 58.8984L191.092 62.1617L186.057 58.8984ZM187.401 47.6642L190.665 42.6292L190.665 42.6292L187.401 47.6642ZM174.532 49.198C174.532 49.4172 174.529 49.6344 174.522 49.8495L186.516 50.2221C186.527 49.8828 186.532 49.5414 186.532 49.198H174.532ZM173.238 41.27C171.901 41.27 172.146 40.3482 173.081 42.1329C173.866 43.633 174.532 46.121 174.532 49.198H186.532C186.532 44.5828 185.565 40.1068 183.711 36.566C182.006 33.3097 178.604 29.27 173.238 29.27V41.27ZM171.945 49.198C171.945 46.121 172.611 43.633 173.396 42.1329C174.331 40.3482 174.576 41.27 173.238 41.27V29.27C167.873 29.27 164.471 33.3097 162.766 36.566C160.912 40.1068 159.945 44.5828 159.945 49.198H171.945ZM171.954 49.8235C171.948 49.6169 171.945 49.4084 171.945 49.198H159.945C159.945 49.5275 159.95 49.8553 159.959 50.1811L171.954 49.8235ZM169.98 45.5513C168.484 44.1989 166.665 42.963 164.613 42.2837C162.556 41.6028 159.688 41.3281 156.967 42.9183L163.022 53.2787C162.458 53.6081 161.901 53.7257 161.48 53.7412C161.086 53.7557 160.86 53.6818 160.842 53.6757C160.82 53.6685 160.92 53.7001 161.134 53.8339C161.342 53.9645 161.614 54.165 161.933 54.4533L169.98 45.5513ZM156.967 42.9183C152.707 45.4079 152.273 50.1807 152.47 52.8822C152.7 56.02 153.863 59.3723 155.639 62.4103L165.999 56.3554C164.944 54.5495 164.508 52.9538 164.438 52.0075C164.404 51.5347 164.479 51.4786 164.399 51.7117C164.303 51.9926 163.945 52.7391 163.022 53.2787L156.967 42.9183ZM155.639 62.4103C157.414 65.4483 159.764 68.1076 162.385 69.8474C164.642 71.3453 169.014 73.3095 173.273 70.8199L167.218 60.4595C168.142 59.9199 168.968 59.9749 169.26 60.0289C169.502 60.0737 169.416 60.1115 169.021 59.8493C168.231 59.3246 167.055 58.1612 165.999 56.3554L155.639 62.4103ZM173.273 70.8199C176.397 68.9942 177.459 65.8381 177.725 63.5274L165.803 62.1551C165.793 62.2431 165.799 62.0536 165.978 61.717C166.175 61.3467 166.566 60.8411 167.218 60.4595L173.273 70.8199ZM173.238 57.126C173.526 57.126 173.773 57.1844 173.954 57.2551L169.574 68.4274C170.707 68.8715 171.941 69.126 173.238 69.126V57.126ZM172.411 57.3046C172.576 57.2225 172.867 57.126 173.238 57.126V69.126C174.881 69.126 176.406 68.7186 177.748 68.0524L172.411 57.3046ZM169.218 63.9587C169.649 65.9357 170.75 68.2333 173.088 69.7486L179.615 59.6786C180.644 60.346 180.904 61.2285 180.941 61.3983L169.218 63.9587ZM173.088 69.7486C177.228 72.4321 181.686 70.6717 184.009 69.2796C186.708 67.6625 189.178 65.1145 191.092 62.1617L181.022 55.6351C179.884 57.3904 178.656 58.4982 177.842 58.9858C177.435 59.2295 177.351 59.1878 177.595 59.1543C177.89 59.1138 178.717 59.0969 179.615 59.6786L173.088 69.7486ZM191.092 62.1617C193.006 59.2088 194.323 55.9138 194.697 52.7899C195.019 50.1005 194.805 45.3127 190.665 42.6292L184.138 52.6992C183.241 52.1175 182.918 51.3553 182.835 51.0702C182.766 50.8337 182.838 50.8932 182.782 51.3639C182.669 52.306 182.16 53.8799 181.022 55.6351L191.092 62.1617ZM190.665 42.6292C187.684 40.6973 184.447 41.1188 182.276 41.8907C180.053 42.6809 178.043 44.1036 176.375 45.6966L184.663 54.375C185.066 53.9897 185.432 53.7035 185.734 53.5034C186.043 53.2992 186.236 53.2186 186.295 53.1976C186.363 53.1734 186.182 53.2522 185.798 53.2403C185.377 53.2274 184.76 53.1024 184.138 52.6992L190.665 42.6292Z" fill="black" mask="url(#path-1-outside-1_23_1509)"/>
<mask id="path-3-outside-2_23_1509" maskUnits="userSpaceOnUse" x="136.072" y="50.189" width="128" height="103" fill="black">
<rect fill="white" x="136.072" y="50.189" width="128" height="103"/>
<path fill-rule="evenodd" clip-rule="evenodd" d="M153.567 77.6249C153.567 80.5879 154.168 83.4105 155.255 85.9774C147.494 93.7106 142.072 104.206 142.072 115.788C142.072 136.31 167.957 146.977 199.888 146.977C231.225 146.977 256.74 136.703 257.678 116.923C258.673 113.922 256.572 101.608 253.547 93.8672C253.203 92.9869 251.635 93.0182 250.917 93.6332C247.584 96.4892 239.534 96.9813 232.369 96.8379C221.855 92.8534 209.821 87.9995 199.888 78.6288C198.787 77.5901 197.612 76.6968 196.374 75.9418C195.515 64.8898 186.275 56.189 175.003 56.189C163.164 56.189 153.567 65.7862 153.567 77.6249Z"/>
</mask>
<path fill-rule="evenodd" clip-rule="evenodd" d="M153.567 77.6249C153.567 80.5879 154.168 83.4105 155.255 85.9774C147.494 93.7106 142.072 104.206 142.072 115.788C142.072 136.31 167.957 146.977 199.888 146.977C231.225 146.977 256.74 136.703 257.678 116.923C258.673 113.922 256.572 101.608 253.547 93.8672C253.203 92.9869 251.635 93.0182 250.917 93.6332C247.584 96.4892 239.534 96.9813 232.369 96.8379C221.855 92.8534 209.821 87.9995 199.888 78.6288C198.787 77.5901 197.612 76.6968 196.374 75.9418C195.515 64.8898 186.275 56.189 175.003 56.189C163.164 56.189 153.567 65.7862 153.567 77.6249Z" fill="#FEFADA"/>
<path d="M155.255 85.9774L159.49 90.2278L162.36 87.3683L160.78 83.6377L155.255 85.9774ZM257.678 116.923L251.983 115.034L251.723 115.815L251.684 116.638L257.678 116.923ZM253.547 93.8672L247.959 96.0513L247.959 96.0513L253.547 93.8672ZM250.917 93.6332L254.821 98.1891L254.821 98.1891L250.917 93.6332ZM232.369 96.8379L230.242 102.449L231.212 102.816L232.249 102.837L232.369 96.8379ZM199.888 78.6288L204.006 74.2644L204.006 74.2644L199.888 78.6288ZM196.374 75.9418L190.392 76.4064L190.629 79.4661L193.249 81.0641L196.374 75.9418ZM160.78 83.6377C160.001 81.7976 159.567 79.7696 159.567 77.6249H147.567C147.567 81.4062 148.335 85.0235 149.73 88.3172L160.78 83.6377ZM148.072 115.788C148.072 106.122 152.609 97.0836 159.49 90.2278L151.02 81.7271C142.378 90.3375 136.072 102.29 136.072 115.788H148.072ZM199.888 140.977C184.467 140.977 171.031 138.383 161.69 133.712C152.431 129.082 148.072 122.979 148.072 115.788H136.072C136.072 129.12 144.656 138.611 156.323 144.445C167.907 150.238 183.379 152.977 199.888 152.977V140.977ZM251.684 116.638C251.358 123.53 246.851 129.473 237.568 133.967C228.245 138.481 215.016 140.977 199.888 140.977V152.977C216.098 152.977 231.294 150.337 242.797 144.768C254.341 139.18 263.06 130.096 263.671 117.207L251.684 116.638ZM247.959 96.0513C249.288 99.4522 250.479 104.061 251.211 108.214C251.574 110.275 251.802 112.103 251.889 113.511C251.994 115.224 251.829 115.498 251.983 115.034L263.373 118.812C264.024 116.847 263.97 114.457 263.866 112.775C263.744 110.788 263.445 108.492 263.029 106.132C262.203 101.442 260.832 96.0233 259.135 91.683L247.959 96.0513ZM254.821 98.1891C253.77 99.0905 252.728 99.2136 252.083 99.1824C251.595 99.1589 249.05 98.8447 247.959 96.0513L259.135 91.683C257.699 88.0093 254.199 87.2706 252.661 87.1964C250.966 87.1146 248.782 87.5609 247.013 89.0772L254.821 98.1891ZM232.249 102.837C235.965 102.911 240.128 102.828 243.906 102.303C247.389 101.819 251.753 100.818 254.821 98.1891L247.013 89.0772C247.014 89.0759 246.993 89.0947 246.94 89.1295C246.887 89.1644 246.808 89.212 246.697 89.2691C246.472 89.3857 246.153 89.5233 245.722 89.6674C244.843 89.9605 243.685 90.2186 242.254 90.4174C239.382 90.8166 235.937 90.9081 232.489 90.8391L232.249 102.837ZM195.771 82.9931C206.662 93.2682 219.734 98.4662 230.242 102.449L234.495 91.2273C223.975 87.2407 212.98 82.7308 204.006 74.2644L195.771 82.9931ZM193.249 81.0641C194.131 81.6018 194.974 82.2411 195.771 82.9931L204.006 74.2644C202.601 72.9391 201.092 71.7918 199.498 70.8194L193.249 81.0641ZM175.003 62.189C183.117 62.189 189.774 68.454 190.392 76.4064L202.356 75.4772C201.257 61.3255 189.433 50.189 175.003 50.189V62.189ZM159.567 77.6249C159.567 69.0999 166.478 62.189 175.003 62.189V50.189C159.851 50.189 147.567 62.4725 147.567 77.6249H159.567Z" fill="black" mask="url(#path-3-outside-2_23_1509)"/>
<circle cx="159.681" cy="72.4836" r="1.5" fill="black" stroke="black" stroke-width="2.50533"/>
<circle cx="170.479" cy="73.5335" r="1.62241" fill="black" stroke="black" stroke-width="3"/>
<path d="M193.172 100.685C184.191 130.623 222.683 144.951 238.508 117.792" stroke="black" stroke-width="6" stroke-linecap="round"/>
<mask id="path-8-outside-3_23_1509" maskUnits="userSpaceOnUse" x="152.119" y="79.8921" width="19" height="20" fill="black">
<rect fill="white" x="152.119" y="79.8921" width="19" height="20"/>
<path fill-rule="evenodd" clip-rule="evenodd" d="M163.757 92.5548C163.506 94.5066 162.694 96.135 161.309 96.4964C158.797 96.3757 158.973 94.4609 159.313 90.7565C159.342 90.4392 159.372 90.1088 159.402 89.7653C159.741 85.8763 161.636 82.8634 163.12 82.9345C163.321 82.9441 163.458 82.9361 163.542 82.9245C163.493 82.9467 163.43 82.9822 163.36 83.0367C163.982 82.9581 164.196 83.9185 164.497 85.2681C164.815 86.6966 165.23 88.5612 166.33 90.0913C168.495 93.1015 168.247 95.2304 166.908 95.4988L166.899 95.4955C166.022 95.1784 165.101 94.8457 163.757 92.5548ZM163.542 82.9245C163.626 82.913 163.66 82.8981 163.655 82.8935C163.651 82.8889 163.609 82.8946 163.542 82.9245Z"/>
</mask>
<path fill-rule="evenodd" clip-rule="evenodd" d="M163.757 92.5548C163.506 94.5066 162.694 96.135 161.309 96.4964C158.797 96.3757 158.973 94.4609 159.313 90.7565C159.342 90.4392 159.372 90.1088 159.402 89.7653C159.741 85.8763 161.636 82.8634 163.12 82.9345C163.321 82.9441 163.458 82.9361 163.542 82.9245C163.493 82.9467 163.43 82.9822 163.36 83.0367C163.982 82.9581 164.196 83.9185 164.497 85.2681C164.815 86.6966 165.23 88.5612 166.33 90.0913C168.495 93.1015 168.247 95.2304 166.908 95.4988L166.899 95.4955C166.022 95.1784 165.101 94.8457 163.757 92.5548ZM163.542 82.9245C163.626 82.913 163.66 82.8981 163.655 82.8935C163.651 82.8889 163.609 82.8946 163.542 82.9245Z" fill="#D93D39"/>
<path d="M163.757 92.5548L166.344 91.0362L161.901 83.4671L160.781 92.1719L163.757 92.5548ZM161.309 96.4964L161.165 99.4929L161.623 99.5149L162.066 99.3992L161.309 96.4964ZM159.313 90.7565L162.3 91.0307H162.3L159.313 90.7565ZM159.402 89.7653L156.414 89.5047L159.402 89.7653ZM163.12 82.9345L163.263 79.9379L163.12 82.9345ZM163.36 83.0367L161.529 80.6596L152.78 87.3957L163.735 86.0131L163.36 83.0367ZM164.497 85.2681L161.569 85.9201L161.569 85.9201L164.497 85.2681ZM166.33 90.0913L168.766 88.3398H168.766L166.33 90.0913ZM166.908 95.4988L165.888 98.3202L166.676 98.605L167.498 98.4403L166.908 95.4988ZM166.899 95.4955L165.879 98.3168L165.879 98.3168L166.899 95.4955ZM163.655 82.8935L161.488 84.9681L161.488 84.9682L163.655 82.8935ZM160.781 92.1719C160.69 92.881 160.515 93.3577 160.369 93.607C160.23 93.8437 160.251 93.672 160.552 93.5935L162.066 99.3992C163.752 98.9593 164.871 97.7928 165.547 96.6369C166.216 95.4938 166.572 94.1804 166.732 92.9377L160.781 92.1719ZM161.453 93.4998C161.174 93.4864 161.39 93.4392 161.716 93.6895C162.084 93.9723 162.165 94.2991 162.16 94.2762C162.141 94.1954 162.104 93.927 162.126 93.3061C162.148 92.7052 162.213 91.9827 162.3 91.0307L156.325 90.4823C156.243 91.3825 156.159 92.2885 156.13 93.0923C156.102 93.876 156.115 94.7885 156.323 95.6645C156.545 96.5985 157.032 97.6581 158.063 98.4496C159.052 99.2087 160.188 99.446 161.165 99.4929L161.453 93.4998ZM162.3 91.0307C162.329 90.7143 162.36 90.3772 162.391 90.0258L156.414 89.5047C156.384 89.8404 156.355 90.1641 156.325 90.4823L162.3 91.0307ZM162.391 90.0258C162.527 88.4663 162.973 87.1668 163.438 86.3508C163.674 85.937 163.855 85.7521 163.905 85.7095C163.988 85.6393 163.66 85.9638 162.976 85.931L163.263 79.9379C161.838 79.8696 160.717 80.544 160.016 81.1403C159.283 81.7642 158.691 82.5622 158.226 83.3789C157.288 85.0238 156.617 87.1752 156.414 89.5047L162.391 90.0258ZM162.976 85.931C163.311 85.9471 163.638 85.9393 163.948 85.8969L163.137 79.9521C163.212 79.9418 163.262 79.9395 163.278 79.939C163.297 79.9384 163.293 79.9393 163.263 79.9379L162.976 85.931ZM162.311 80.1889C162.042 80.3101 161.779 80.4676 161.529 80.6596L165.19 85.4139C165.082 85.4969 164.944 85.5833 164.774 85.6601L162.311 80.1889ZM163.735 86.0131C163.414 86.0537 163.039 86.0343 162.651 85.909C162.269 85.7852 161.973 85.59 161.762 85.4027C161.561 85.2233 161.441 85.0541 161.379 84.9575C161.317 84.8597 161.29 84.7938 161.286 84.7864C161.285 84.7841 161.317 84.8622 161.375 85.0901C161.432 85.3096 161.49 85.5695 161.569 85.9201L167.425 84.616C167.3 84.0557 167.112 83.1577 166.812 82.4473C166.657 82.082 166.35 81.4541 165.753 80.9222C165.033 80.2811 164.05 79.9258 162.984 80.0604L163.735 86.0131ZM161.569 85.9201C161.869 87.2679 162.382 89.7385 163.895 91.8428L168.766 88.3398C168.079 87.3839 167.761 86.1253 167.425 84.616L161.569 85.9201ZM163.895 91.8428C164.797 93.0967 164.93 93.8197 164.936 93.9542C164.938 94.0037 164.913 93.7415 165.143 93.374C165.41 92.9466 165.857 92.6499 166.318 92.5573L167.498 98.4403C168.629 98.2135 169.609 97.5501 170.231 96.554C170.816 95.6178 170.969 94.5848 170.93 93.6923C170.854 91.9427 170.029 90.0961 168.766 88.3398L163.895 91.8428ZM167.928 92.6775L167.919 92.6741L165.879 98.3168L165.888 98.3202L167.928 92.6775ZM167.919 92.6741C167.512 92.5273 167.475 92.5017 167.385 92.4293C167.254 92.3238 166.906 91.994 166.344 91.0362L161.169 94.0733C161.952 95.4064 162.736 96.3884 163.621 97.1014C164.547 97.8473 165.408 98.1466 165.879 98.3168L167.919 92.6741ZM163.948 85.8969C164.09 85.8775 164.299 85.8416 164.533 85.768C164.618 85.7412 164.875 85.6588 165.167 85.4877C165.259 85.4336 165.689 85.1861 166.06 84.6891C166.258 84.4239 166.603 83.868 166.65 83.071C166.704 82.1532 166.338 81.3577 165.822 80.8188L161.488 84.9682C160.973 84.4299 160.607 83.635 160.661 82.718C160.708 81.9217 161.053 81.3666 161.25 81.1023C161.619 80.607 162.047 80.3615 162.136 80.3097C162.42 80.143 162.664 80.066 162.731 80.0449C162.929 79.9827 163.078 79.96 163.137 79.9521L163.948 85.8969ZM165.822 80.8189C165.381 80.3577 164.906 80.155 164.669 80.0698C164.406 79.9749 164.181 79.9362 164.046 79.9183C163.777 79.8826 163.56 79.8915 163.454 79.8983C163.222 79.9131 163.037 79.9517 162.929 79.9772C162.693 80.0332 162.485 80.1106 162.311 80.1889L164.774 85.6601C164.666 85.7085 164.512 85.7681 164.315 85.815C164.227 85.8359 164.057 85.872 163.836 85.8861C163.735 85.8925 163.524 85.9015 163.258 85.8663C163.124 85.8486 162.901 85.8102 162.639 85.7157C162.403 85.6309 161.929 85.4287 161.488 84.9681L165.822 80.8189Z" fill="black" mask="url(#path-8-outside-3_23_1509)"/>
<path d="M145.171 85.4886C144.953 85.2838 144.911 85.1679 144.904 85.1389C144.905 85.0776 144.941 84.8615 145.243 84.4697C145.544 84.078 146.027 83.6226 146.7 83.1246C148.044 82.1309 149.943 81.1176 152.054 80.2072C154.154 79.3016 156.401 78.5244 158.405 77.9846C160.448 77.4345 162.108 77.1671 163.085 77.196C163.707 77.2145 164.294 77.5363 164.822 78.2676C165.364 79.0183 165.766 80.1157 165.925 81.3708C166.083 82.6177 165.987 83.9126 165.638 85.0105C165.288 86.1124 164.72 86.9133 164.012 87.3612C163.268 87.8319 161.72 88.2058 159.546 88.3263C157.448 88.4426 155.01 88.3122 152.691 87.9726C150.359 87.6312 148.237 87.0911 146.741 86.4315C145.987 86.0996 145.474 85.7725 145.171 85.4886ZM144.904 85.1381C144.903 85.1338 144.903 85.1316 144.903 85.1316C144.903 85.1316 144.903 85.1338 144.904 85.1381Z" fill="#FFB800" stroke="black" stroke-width="3"/>
</g>
<defs>
<filter id="filter0_d_23_1509" x="136.072" y="29.27" width="127.856" height="127.707" filterUnits="userSpaceOnUse" color-interpolation-filters="sRGB">
<feFlood flood-opacity="0" result="BackgroundImageFix"/>
<feColorMatrix in="SourceAlpha" type="matrix" values="0 0 0 0 0 0 0 0 0 0 0 0 0 0 0 0 0 0 127 0" result="hardAlpha"/>
<feOffset dy="4"/>
<feComposite in2="hardAlpha" operator="out"/>
<feColorMatrix type="matrix" values="0 0 0 0 0 0 0 0 0 0 0 0 0 0 0 0 0 0 1 0"/>
<feBlend mode="normal" in2="BackgroundImageFix" result="effect1_dropShadow_23_1509"/>
<feBlend mode="normal" in="SourceGraphic" in2="effect1_dropShadow_23_1509" result="shape"/>
</filter>
</defs>
</svg>
