<svg width="400" height="475" viewBox="0 0 400 475" fill="none" xmlns="http://www.w3.org/2000/svg">
<mask id="path-1-inside-1_23_1782" fill="white">
<path fill-rule="evenodd" clip-rule="evenodd" d="M86.9688 85.0698C102.931 85.472 100.729 92.1187 97.0407 103.251C93.9213 112.668 89.7388 125.293 94.585 140.064H63.0003C57.1037 140.064 51.8031 142.616 48.1426 146.676C45.1398 112.571 67.0779 88.5229 86.9688 85.0698Z"/>
</mask>
<path fill-rule="evenodd" clip-rule="evenodd" d="M86.9688 85.0698C102.931 85.472 100.729 92.1187 97.0407 103.251C93.9213 112.668 89.7388 125.293 94.585 140.064H63.0003C57.1037 140.064 51.8031 142.616 48.1426 146.676C45.1398 112.571 67.0779 88.5229 86.9688 85.0698Z" fill="#BF0000"/>
<path d="M97.0407 103.251L91.3451 101.365L97.0407 103.251ZM86.9688 85.0698L87.1199 79.0717L86.5269 79.0568L85.9425 79.1582L86.9688 85.0698ZM94.585 140.064V146.064H102.868L100.286 138.194L94.585 140.064ZM48.1426 146.676L42.1657 147.202L43.3738 160.924L52.5986 150.694L48.1426 146.676ZM102.736 105.138C103.627 102.45 104.574 99.6144 105.131 97.0412C105.674 94.5368 106.066 91.393 105.093 88.3237C103.989 84.8398 101.465 82.4253 98.1698 81.0048C95.1502 79.7034 91.3972 79.1795 87.1199 79.0717L86.8176 91.0679C90.5212 91.1612 92.4786 91.619 93.4201 92.0248C94.0856 92.3117 93.7744 92.33 93.6538 91.9496C93.6455 91.9234 93.6997 92.0785 93.686 92.5305C93.6721 92.9881 93.593 93.6252 93.4035 94.4998C93.0098 96.3165 92.2984 98.4868 91.3451 101.365L102.736 105.138ZM100.286 138.194C96.1166 125.486 99.6022 114.599 102.736 105.138L91.3451 101.365C88.2404 110.737 83.3609 125.101 88.884 141.935L100.286 138.194ZM63.0003 146.064H94.585V134.064H63.0003V146.064ZM52.5986 150.694C55.1694 147.843 58.8731 146.064 63.0003 146.064V134.064C55.3343 134.064 48.4367 137.39 43.6865 142.658L52.5986 150.694ZM85.9425 79.1582C62.5754 83.2148 38.9269 110.417 42.1657 147.202L54.1194 146.15C51.3527 114.726 71.5804 93.831 87.995 90.9814L85.9425 79.1582Z" fill="black" mask="url(#path-1-inside-1_23_1782)"/>
<mask id="path-3-inside-2_23_1782" fill="white">
<path fill-rule="evenodd" clip-rule="evenodd" d="M313.032 85.0698C297.07 85.472 299.272 92.1187 302.96 103.251C306.079 112.668 310.262 125.293 305.416 140.064H337C342.897 140.064 348.198 142.616 351.858 146.676C354.861 112.571 332.923 88.5229 313.032 85.0698Z"/>
</mask>
<path fill-rule="evenodd" clip-rule="evenodd" d="M313.032 85.0698C297.07 85.472 299.272 92.1187 302.96 103.251C306.079 112.668 310.262 125.293 305.416 140.064H337C342.897 140.064 348.198 142.616 351.858 146.676C354.861 112.571 332.923 88.5229 313.032 85.0698Z" fill="#BF0000"/>
<path d="M302.96 103.251L308.656 101.365L302.96 103.251ZM313.032 85.0698L314.058 79.1582L313.474 79.0568L312.881 79.0717L313.032 85.0698ZM305.416 140.064L299.715 138.194L297.132 146.064H305.416V140.064ZM351.858 146.676L347.402 150.694L356.627 160.924L357.835 147.202L351.858 146.676ZM308.656 101.365C307.702 98.4868 306.991 96.3165 306.597 94.4998C306.408 93.6252 306.329 92.9881 306.315 92.5305C306.301 92.0785 306.355 91.9234 306.347 91.9496C306.226 92.33 305.915 92.3117 306.581 92.0248C307.522 91.619 309.479 91.1612 313.183 91.0679L312.881 79.0717C308.603 79.1795 304.85 79.7034 301.831 81.0048C298.535 82.4253 296.012 84.8398 294.908 88.3237C293.935 91.393 294.327 94.5368 294.869 97.0412C295.427 99.6144 296.374 102.45 297.264 105.138L308.656 101.365ZM311.117 141.935C316.64 125.101 311.76 110.737 308.656 101.365L297.264 105.138C300.398 114.599 303.884 125.486 299.715 138.194L311.117 141.935ZM337 134.064H305.416V146.064H337V134.064ZM356.314 142.658C351.564 137.39 344.666 134.064 337 134.064V146.064C341.128 146.064 344.831 147.843 347.402 150.694L356.314 142.658ZM312.006 90.9814C328.42 93.831 348.648 114.726 345.881 146.15L357.835 147.202C361.074 110.417 337.425 83.2148 314.058 79.1582L312.006 90.9814Z" fill="black" mask="url(#path-3-inside-2_23_1782)"/>
</svg>
